G04 #@! TF.GenerationSoftware,KiCad,Pcbnew,5.0.2-bee76a0~70~ubuntu18.04.1*
G04 #@! TF.CreationDate,2019-11-16T15:20:31+01:00*
G04 #@! TF.ProjectId,Eierland,45696572-6c61-46e6-942e-6b696361645f,rev?*
G04 #@! TF.SameCoordinates,Original*
G04 #@! TF.FileFunction,Paste,Bot*
G04 #@! TF.FilePolarity,Positive*
%FSLAX46Y46*%
G04 Gerber Fmt 4.6, Leading zero omitted, Abs format (unit mm)*
G04 Created by KiCad (PCBNEW 5.0.2-bee76a0~70~ubuntu18.04.1) date za 16 nov 2019 15:20:31 CET*
%MOMM*%
%LPD*%
G01*
G04 APERTURE LIST*
%ADD10C,0.100000*%
%ADD11C,1.250000*%
G04 APERTURE END LIST*
D10*
G04 #@! TO.C,D7*
G36*
X126379504Y-77986204D02*
X126403773Y-77989804D01*
X126427571Y-77995765D01*
X126450671Y-78004030D01*
X126472849Y-78014520D01*
X126493893Y-78027133D01*
X126513598Y-78041747D01*
X126531777Y-78058223D01*
X126548253Y-78076402D01*
X126562867Y-78096107D01*
X126575480Y-78117151D01*
X126585970Y-78139329D01*
X126594235Y-78162429D01*
X126600196Y-78186227D01*
X126603796Y-78210496D01*
X126605000Y-78235000D01*
X126605000Y-78985000D01*
X126603796Y-79009504D01*
X126600196Y-79033773D01*
X126594235Y-79057571D01*
X126585970Y-79080671D01*
X126575480Y-79102849D01*
X126562867Y-79123893D01*
X126548253Y-79143598D01*
X126531777Y-79161777D01*
X126513598Y-79178253D01*
X126493893Y-79192867D01*
X126472849Y-79205480D01*
X126450671Y-79215970D01*
X126427571Y-79224235D01*
X126403773Y-79230196D01*
X126379504Y-79233796D01*
X126355000Y-79235000D01*
X125105000Y-79235000D01*
X125080496Y-79233796D01*
X125056227Y-79230196D01*
X125032429Y-79224235D01*
X125009329Y-79215970D01*
X124987151Y-79205480D01*
X124966107Y-79192867D01*
X124946402Y-79178253D01*
X124928223Y-79161777D01*
X124911747Y-79143598D01*
X124897133Y-79123893D01*
X124884520Y-79102849D01*
X124874030Y-79080671D01*
X124865765Y-79057571D01*
X124859804Y-79033773D01*
X124856204Y-79009504D01*
X124855000Y-78985000D01*
X124855000Y-78235000D01*
X124856204Y-78210496D01*
X124859804Y-78186227D01*
X124865765Y-78162429D01*
X124874030Y-78139329D01*
X124884520Y-78117151D01*
X124897133Y-78096107D01*
X124911747Y-78076402D01*
X124928223Y-78058223D01*
X124946402Y-78041747D01*
X124966107Y-78027133D01*
X124987151Y-78014520D01*
X125009329Y-78004030D01*
X125032429Y-77995765D01*
X125056227Y-77989804D01*
X125080496Y-77986204D01*
X125105000Y-77985000D01*
X126355000Y-77985000D01*
X126379504Y-77986204D01*
X126379504Y-77986204D01*
G37*
D11*
X125730000Y-78610000D03*
D10*
G36*
X126379504Y-80786204D02*
X126403773Y-80789804D01*
X126427571Y-80795765D01*
X126450671Y-80804030D01*
X126472849Y-80814520D01*
X126493893Y-80827133D01*
X126513598Y-80841747D01*
X126531777Y-80858223D01*
X126548253Y-80876402D01*
X126562867Y-80896107D01*
X126575480Y-80917151D01*
X126585970Y-80939329D01*
X126594235Y-80962429D01*
X126600196Y-80986227D01*
X126603796Y-81010496D01*
X126605000Y-81035000D01*
X126605000Y-81785000D01*
X126603796Y-81809504D01*
X126600196Y-81833773D01*
X126594235Y-81857571D01*
X126585970Y-81880671D01*
X126575480Y-81902849D01*
X126562867Y-81923893D01*
X126548253Y-81943598D01*
X126531777Y-81961777D01*
X126513598Y-81978253D01*
X126493893Y-81992867D01*
X126472849Y-82005480D01*
X126450671Y-82015970D01*
X126427571Y-82024235D01*
X126403773Y-82030196D01*
X126379504Y-82033796D01*
X126355000Y-82035000D01*
X125105000Y-82035000D01*
X125080496Y-82033796D01*
X125056227Y-82030196D01*
X125032429Y-82024235D01*
X125009329Y-82015970D01*
X124987151Y-82005480D01*
X124966107Y-81992867D01*
X124946402Y-81978253D01*
X124928223Y-81961777D01*
X124911747Y-81943598D01*
X124897133Y-81923893D01*
X124884520Y-81902849D01*
X124874030Y-81880671D01*
X124865765Y-81857571D01*
X124859804Y-81833773D01*
X124856204Y-81809504D01*
X124855000Y-81785000D01*
X124855000Y-81035000D01*
X124856204Y-81010496D01*
X124859804Y-80986227D01*
X124865765Y-80962429D01*
X124874030Y-80939329D01*
X124884520Y-80917151D01*
X124897133Y-80896107D01*
X124911747Y-80876402D01*
X124928223Y-80858223D01*
X124946402Y-80841747D01*
X124966107Y-80827133D01*
X124987151Y-80814520D01*
X125009329Y-80804030D01*
X125032429Y-80795765D01*
X125056227Y-80789804D01*
X125080496Y-80786204D01*
X125105000Y-80785000D01*
X126355000Y-80785000D01*
X126379504Y-80786204D01*
X126379504Y-80786204D01*
G37*
D11*
X125730000Y-81410000D03*
G04 #@! TD*
D10*
G04 #@! TO.C,D8*
G36*
X130189504Y-80786204D02*
X130213773Y-80789804D01*
X130237571Y-80795765D01*
X130260671Y-80804030D01*
X130282849Y-80814520D01*
X130303893Y-80827133D01*
X130323598Y-80841747D01*
X130341777Y-80858223D01*
X130358253Y-80876402D01*
X130372867Y-80896107D01*
X130385480Y-80917151D01*
X130395970Y-80939329D01*
X130404235Y-80962429D01*
X130410196Y-80986227D01*
X130413796Y-81010496D01*
X130415000Y-81035000D01*
X130415000Y-81785000D01*
X130413796Y-81809504D01*
X130410196Y-81833773D01*
X130404235Y-81857571D01*
X130395970Y-81880671D01*
X130385480Y-81902849D01*
X130372867Y-81923893D01*
X130358253Y-81943598D01*
X130341777Y-81961777D01*
X130323598Y-81978253D01*
X130303893Y-81992867D01*
X130282849Y-82005480D01*
X130260671Y-82015970D01*
X130237571Y-82024235D01*
X130213773Y-82030196D01*
X130189504Y-82033796D01*
X130165000Y-82035000D01*
X128915000Y-82035000D01*
X128890496Y-82033796D01*
X128866227Y-82030196D01*
X128842429Y-82024235D01*
X128819329Y-82015970D01*
X128797151Y-82005480D01*
X128776107Y-81992867D01*
X128756402Y-81978253D01*
X128738223Y-81961777D01*
X128721747Y-81943598D01*
X128707133Y-81923893D01*
X128694520Y-81902849D01*
X128684030Y-81880671D01*
X128675765Y-81857571D01*
X128669804Y-81833773D01*
X128666204Y-81809504D01*
X128665000Y-81785000D01*
X128665000Y-81035000D01*
X128666204Y-81010496D01*
X128669804Y-80986227D01*
X128675765Y-80962429D01*
X128684030Y-80939329D01*
X128694520Y-80917151D01*
X128707133Y-80896107D01*
X128721747Y-80876402D01*
X128738223Y-80858223D01*
X128756402Y-80841747D01*
X128776107Y-80827133D01*
X128797151Y-80814520D01*
X128819329Y-80804030D01*
X128842429Y-80795765D01*
X128866227Y-80789804D01*
X128890496Y-80786204D01*
X128915000Y-80785000D01*
X130165000Y-80785000D01*
X130189504Y-80786204D01*
X130189504Y-80786204D01*
G37*
D11*
X129540000Y-81410000D03*
D10*
G36*
X130189504Y-77986204D02*
X130213773Y-77989804D01*
X130237571Y-77995765D01*
X130260671Y-78004030D01*
X130282849Y-78014520D01*
X130303893Y-78027133D01*
X130323598Y-78041747D01*
X130341777Y-78058223D01*
X130358253Y-78076402D01*
X130372867Y-78096107D01*
X130385480Y-78117151D01*
X130395970Y-78139329D01*
X130404235Y-78162429D01*
X130410196Y-78186227D01*
X130413796Y-78210496D01*
X130415000Y-78235000D01*
X130415000Y-78985000D01*
X130413796Y-79009504D01*
X130410196Y-79033773D01*
X130404235Y-79057571D01*
X130395970Y-79080671D01*
X130385480Y-79102849D01*
X130372867Y-79123893D01*
X130358253Y-79143598D01*
X130341777Y-79161777D01*
X130323598Y-79178253D01*
X130303893Y-79192867D01*
X130282849Y-79205480D01*
X130260671Y-79215970D01*
X130237571Y-79224235D01*
X130213773Y-79230196D01*
X130189504Y-79233796D01*
X130165000Y-79235000D01*
X128915000Y-79235000D01*
X128890496Y-79233796D01*
X128866227Y-79230196D01*
X128842429Y-79224235D01*
X128819329Y-79215970D01*
X128797151Y-79205480D01*
X128776107Y-79192867D01*
X128756402Y-79178253D01*
X128738223Y-79161777D01*
X128721747Y-79143598D01*
X128707133Y-79123893D01*
X128694520Y-79102849D01*
X128684030Y-79080671D01*
X128675765Y-79057571D01*
X128669804Y-79033773D01*
X128666204Y-79009504D01*
X128665000Y-78985000D01*
X128665000Y-78235000D01*
X128666204Y-78210496D01*
X128669804Y-78186227D01*
X128675765Y-78162429D01*
X128684030Y-78139329D01*
X128694520Y-78117151D01*
X128707133Y-78096107D01*
X128721747Y-78076402D01*
X128738223Y-78058223D01*
X128756402Y-78041747D01*
X128776107Y-78027133D01*
X128797151Y-78014520D01*
X128819329Y-78004030D01*
X128842429Y-77995765D01*
X128866227Y-77989804D01*
X128890496Y-77986204D01*
X128915000Y-77985000D01*
X130165000Y-77985000D01*
X130189504Y-77986204D01*
X130189504Y-77986204D01*
G37*
D11*
X129540000Y-78610000D03*
G04 #@! TD*
D10*
G04 #@! TO.C,D9*
G36*
X135269504Y-80786204D02*
X135293773Y-80789804D01*
X135317571Y-80795765D01*
X135340671Y-80804030D01*
X135362849Y-80814520D01*
X135383893Y-80827133D01*
X135403598Y-80841747D01*
X135421777Y-80858223D01*
X135438253Y-80876402D01*
X135452867Y-80896107D01*
X135465480Y-80917151D01*
X135475970Y-80939329D01*
X135484235Y-80962429D01*
X135490196Y-80986227D01*
X135493796Y-81010496D01*
X135495000Y-81035000D01*
X135495000Y-81785000D01*
X135493796Y-81809504D01*
X135490196Y-81833773D01*
X135484235Y-81857571D01*
X135475970Y-81880671D01*
X135465480Y-81902849D01*
X135452867Y-81923893D01*
X135438253Y-81943598D01*
X135421777Y-81961777D01*
X135403598Y-81978253D01*
X135383893Y-81992867D01*
X135362849Y-82005480D01*
X135340671Y-82015970D01*
X135317571Y-82024235D01*
X135293773Y-82030196D01*
X135269504Y-82033796D01*
X135245000Y-82035000D01*
X133995000Y-82035000D01*
X133970496Y-82033796D01*
X133946227Y-82030196D01*
X133922429Y-82024235D01*
X133899329Y-82015970D01*
X133877151Y-82005480D01*
X133856107Y-81992867D01*
X133836402Y-81978253D01*
X133818223Y-81961777D01*
X133801747Y-81943598D01*
X133787133Y-81923893D01*
X133774520Y-81902849D01*
X133764030Y-81880671D01*
X133755765Y-81857571D01*
X133749804Y-81833773D01*
X133746204Y-81809504D01*
X133745000Y-81785000D01*
X133745000Y-81035000D01*
X133746204Y-81010496D01*
X133749804Y-80986227D01*
X133755765Y-80962429D01*
X133764030Y-80939329D01*
X133774520Y-80917151D01*
X133787133Y-80896107D01*
X133801747Y-80876402D01*
X133818223Y-80858223D01*
X133836402Y-80841747D01*
X133856107Y-80827133D01*
X133877151Y-80814520D01*
X133899329Y-80804030D01*
X133922429Y-80795765D01*
X133946227Y-80789804D01*
X133970496Y-80786204D01*
X133995000Y-80785000D01*
X135245000Y-80785000D01*
X135269504Y-80786204D01*
X135269504Y-80786204D01*
G37*
D11*
X134620000Y-81410000D03*
D10*
G36*
X135269504Y-77986204D02*
X135293773Y-77989804D01*
X135317571Y-77995765D01*
X135340671Y-78004030D01*
X135362849Y-78014520D01*
X135383893Y-78027133D01*
X135403598Y-78041747D01*
X135421777Y-78058223D01*
X135438253Y-78076402D01*
X135452867Y-78096107D01*
X135465480Y-78117151D01*
X135475970Y-78139329D01*
X135484235Y-78162429D01*
X135490196Y-78186227D01*
X135493796Y-78210496D01*
X135495000Y-78235000D01*
X135495000Y-78985000D01*
X135493796Y-79009504D01*
X135490196Y-79033773D01*
X135484235Y-79057571D01*
X135475970Y-79080671D01*
X135465480Y-79102849D01*
X135452867Y-79123893D01*
X135438253Y-79143598D01*
X135421777Y-79161777D01*
X135403598Y-79178253D01*
X135383893Y-79192867D01*
X135362849Y-79205480D01*
X135340671Y-79215970D01*
X135317571Y-79224235D01*
X135293773Y-79230196D01*
X135269504Y-79233796D01*
X135245000Y-79235000D01*
X133995000Y-79235000D01*
X133970496Y-79233796D01*
X133946227Y-79230196D01*
X133922429Y-79224235D01*
X133899329Y-79215970D01*
X133877151Y-79205480D01*
X133856107Y-79192867D01*
X133836402Y-79178253D01*
X133818223Y-79161777D01*
X133801747Y-79143598D01*
X133787133Y-79123893D01*
X133774520Y-79102849D01*
X133764030Y-79080671D01*
X133755765Y-79057571D01*
X133749804Y-79033773D01*
X133746204Y-79009504D01*
X133745000Y-78985000D01*
X133745000Y-78235000D01*
X133746204Y-78210496D01*
X133749804Y-78186227D01*
X133755765Y-78162429D01*
X133764030Y-78139329D01*
X133774520Y-78117151D01*
X133787133Y-78096107D01*
X133801747Y-78076402D01*
X133818223Y-78058223D01*
X133836402Y-78041747D01*
X133856107Y-78027133D01*
X133877151Y-78014520D01*
X133899329Y-78004030D01*
X133922429Y-77995765D01*
X133946227Y-77989804D01*
X133970496Y-77986204D01*
X133995000Y-77985000D01*
X135245000Y-77985000D01*
X135269504Y-77986204D01*
X135269504Y-77986204D01*
G37*
D11*
X134620000Y-78610000D03*
G04 #@! TD*
D10*
G04 #@! TO.C,D10*
G36*
X139079504Y-77986204D02*
X139103773Y-77989804D01*
X139127571Y-77995765D01*
X139150671Y-78004030D01*
X139172849Y-78014520D01*
X139193893Y-78027133D01*
X139213598Y-78041747D01*
X139231777Y-78058223D01*
X139248253Y-78076402D01*
X139262867Y-78096107D01*
X139275480Y-78117151D01*
X139285970Y-78139329D01*
X139294235Y-78162429D01*
X139300196Y-78186227D01*
X139303796Y-78210496D01*
X139305000Y-78235000D01*
X139305000Y-78985000D01*
X139303796Y-79009504D01*
X139300196Y-79033773D01*
X139294235Y-79057571D01*
X139285970Y-79080671D01*
X139275480Y-79102849D01*
X139262867Y-79123893D01*
X139248253Y-79143598D01*
X139231777Y-79161777D01*
X139213598Y-79178253D01*
X139193893Y-79192867D01*
X139172849Y-79205480D01*
X139150671Y-79215970D01*
X139127571Y-79224235D01*
X139103773Y-79230196D01*
X139079504Y-79233796D01*
X139055000Y-79235000D01*
X137805000Y-79235000D01*
X137780496Y-79233796D01*
X137756227Y-79230196D01*
X137732429Y-79224235D01*
X137709329Y-79215970D01*
X137687151Y-79205480D01*
X137666107Y-79192867D01*
X137646402Y-79178253D01*
X137628223Y-79161777D01*
X137611747Y-79143598D01*
X137597133Y-79123893D01*
X137584520Y-79102849D01*
X137574030Y-79080671D01*
X137565765Y-79057571D01*
X137559804Y-79033773D01*
X137556204Y-79009504D01*
X137555000Y-78985000D01*
X137555000Y-78235000D01*
X137556204Y-78210496D01*
X137559804Y-78186227D01*
X137565765Y-78162429D01*
X137574030Y-78139329D01*
X137584520Y-78117151D01*
X137597133Y-78096107D01*
X137611747Y-78076402D01*
X137628223Y-78058223D01*
X137646402Y-78041747D01*
X137666107Y-78027133D01*
X137687151Y-78014520D01*
X137709329Y-78004030D01*
X137732429Y-77995765D01*
X137756227Y-77989804D01*
X137780496Y-77986204D01*
X137805000Y-77985000D01*
X139055000Y-77985000D01*
X139079504Y-77986204D01*
X139079504Y-77986204D01*
G37*
D11*
X138430000Y-78610000D03*
D10*
G36*
X139079504Y-80786204D02*
X139103773Y-80789804D01*
X139127571Y-80795765D01*
X139150671Y-80804030D01*
X139172849Y-80814520D01*
X139193893Y-80827133D01*
X139213598Y-80841747D01*
X139231777Y-80858223D01*
X139248253Y-80876402D01*
X139262867Y-80896107D01*
X139275480Y-80917151D01*
X139285970Y-80939329D01*
X139294235Y-80962429D01*
X139300196Y-80986227D01*
X139303796Y-81010496D01*
X139305000Y-81035000D01*
X139305000Y-81785000D01*
X139303796Y-81809504D01*
X139300196Y-81833773D01*
X139294235Y-81857571D01*
X139285970Y-81880671D01*
X139275480Y-81902849D01*
X139262867Y-81923893D01*
X139248253Y-81943598D01*
X139231777Y-81961777D01*
X139213598Y-81978253D01*
X139193893Y-81992867D01*
X139172849Y-82005480D01*
X139150671Y-82015970D01*
X139127571Y-82024235D01*
X139103773Y-82030196D01*
X139079504Y-82033796D01*
X139055000Y-82035000D01*
X137805000Y-82035000D01*
X137780496Y-82033796D01*
X137756227Y-82030196D01*
X137732429Y-82024235D01*
X137709329Y-82015970D01*
X137687151Y-82005480D01*
X137666107Y-81992867D01*
X137646402Y-81978253D01*
X137628223Y-81961777D01*
X137611747Y-81943598D01*
X137597133Y-81923893D01*
X137584520Y-81902849D01*
X137574030Y-81880671D01*
X137565765Y-81857571D01*
X137559804Y-81833773D01*
X137556204Y-81809504D01*
X137555000Y-81785000D01*
X137555000Y-81035000D01*
X137556204Y-81010496D01*
X137559804Y-80986227D01*
X137565765Y-80962429D01*
X137574030Y-80939329D01*
X137584520Y-80917151D01*
X137597133Y-80896107D01*
X137611747Y-80876402D01*
X137628223Y-80858223D01*
X137646402Y-80841747D01*
X137666107Y-80827133D01*
X137687151Y-80814520D01*
X137709329Y-80804030D01*
X137732429Y-80795765D01*
X137756227Y-80789804D01*
X137780496Y-80786204D01*
X137805000Y-80785000D01*
X139055000Y-80785000D01*
X139079504Y-80786204D01*
X139079504Y-80786204D01*
G37*
D11*
X138430000Y-81410000D03*
G04 #@! TD*
M02*
