G04 #@! TF.GenerationSoftware,KiCad,Pcbnew,5.0.2-bee76a0~70~ubuntu18.04.1*
G04 #@! TF.CreationDate,2019-11-16T15:20:31+01:00*
G04 #@! TF.ProjectId,Eierland,45696572-6c61-46e6-942e-6b696361645f,rev?*
G04 #@! TF.SameCoordinates,Original*
G04 #@! TF.FileFunction,Legend,Bot*
G04 #@! TF.FilePolarity,Positive*
%FSLAX46Y46*%
G04 Gerber Fmt 4.6, Leading zero omitted, Abs format (unit mm)*
G04 Created by KiCad (PCBNEW 5.0.2-bee76a0~70~ubuntu18.04.1) date za 16 nov 2019 15:20:31 CET*
%MOMM*%
%LPD*%
G01*
G04 APERTURE LIST*
%ADD10C,1.000000*%
%ADD11C,0.150000*%
%ADD12C,0.200000*%
%ADD13C,0.120000*%
G04 APERTURE END LIST*
D10*
X116205000Y-146685000D02*
X147955000Y-146685000D01*
X122555000Y-76835000D02*
X141605000Y-76835000D01*
X121285000Y-81915000D02*
X142875000Y-81915000D01*
X122555000Y-77470000D02*
X122555000Y-81915000D01*
X123825000Y-77470000D02*
X123825000Y-81915000D01*
X141605000Y-77470000D02*
X141605000Y-81915000D01*
X140335000Y-77470000D02*
X140335000Y-81915000D01*
X132715000Y-77470000D02*
X132715000Y-81915000D01*
X131445000Y-77470000D02*
X131445000Y-81915000D01*
D11*
G36*
X127000000Y-83185000D02*
X127000000Y-92710000D01*
X121285000Y-92710000D01*
X121285000Y-83185000D01*
X127000000Y-83185000D01*
G37*
X127000000Y-83185000D02*
X127000000Y-92710000D01*
X121285000Y-92710000D01*
X121285000Y-83185000D01*
X127000000Y-83185000D01*
G36*
X136525000Y-83185000D02*
X136525000Y-92710000D01*
X127635000Y-92710000D01*
X127635000Y-83185000D01*
X136525000Y-83185000D01*
G37*
X136525000Y-83185000D02*
X136525000Y-92710000D01*
X127635000Y-92710000D01*
X127635000Y-83185000D01*
X136525000Y-83185000D01*
G36*
X142875000Y-83185000D02*
X142875000Y-92710000D01*
X137160000Y-92710000D01*
X137160000Y-83185000D01*
X142875000Y-83185000D01*
G37*
X142875000Y-83185000D02*
X142875000Y-92710000D01*
X137160000Y-92710000D01*
X137160000Y-83185000D01*
X142875000Y-83185000D01*
G36*
X143510000Y-83185000D02*
X144780000Y-83185000D01*
X144780000Y-92710000D01*
X143510000Y-92710000D01*
X143510000Y-83185000D01*
G37*
X143510000Y-83185000D02*
X144780000Y-83185000D01*
X144780000Y-92710000D01*
X143510000Y-92710000D01*
X143510000Y-83185000D01*
G36*
X120650000Y-83185000D02*
X119380000Y-83185000D01*
X119380000Y-92710000D01*
X120650000Y-92710000D01*
X120650000Y-83185000D01*
G37*
X120650000Y-83185000D02*
X119380000Y-83185000D01*
X119380000Y-92710000D01*
X120650000Y-92710000D01*
X120650000Y-83185000D01*
D12*
X139065000Y-80645000D02*
X138430000Y-79375000D01*
X137795000Y-80645000D02*
X139065000Y-80645000D01*
X138430000Y-79375000D02*
X137795000Y-80645000D01*
X135255000Y-80645000D02*
X134620000Y-79375000D01*
X133985000Y-80645000D02*
X135255000Y-80645000D01*
X134620000Y-79375000D02*
X133985000Y-80645000D01*
X130175000Y-80645000D02*
X129540000Y-79375000D01*
X128905000Y-80645000D02*
X130175000Y-80645000D01*
X129540000Y-79375000D02*
X128905000Y-80645000D01*
X126365000Y-80645000D02*
X125730000Y-79375000D01*
X125095000Y-80645000D02*
X126365000Y-80645000D01*
X125730000Y-79375000D02*
X125095000Y-80645000D01*
D10*
X136525000Y-77470000D02*
X136525000Y-81915000D01*
X127635000Y-77470000D02*
X127635000Y-81915000D01*
D11*
G36*
X123190000Y-74295000D02*
X123825000Y-73025000D01*
X124460000Y-71755000D01*
X125730000Y-70485000D01*
X127635000Y-69215000D01*
X127635000Y-67310000D01*
X136525000Y-67310000D01*
X136525000Y-69215000D01*
X137795000Y-69850000D01*
X139065000Y-71120000D01*
X139700000Y-71755000D01*
X140335000Y-73025000D01*
X140970000Y-74295000D01*
X123190000Y-74295000D01*
G37*
X123190000Y-74295000D02*
X123825000Y-73025000D01*
X124460000Y-71755000D01*
X125730000Y-70485000D01*
X127635000Y-69215000D01*
X127635000Y-67310000D01*
X136525000Y-67310000D01*
X136525000Y-69215000D01*
X137795000Y-69850000D01*
X139065000Y-71120000D01*
X139700000Y-71755000D01*
X140335000Y-73025000D01*
X140970000Y-74295000D01*
X123190000Y-74295000D01*
G36*
X122555000Y-76200000D02*
X141605000Y-76200000D01*
X140970000Y-74295000D01*
X123190000Y-74295000D01*
X122555000Y-76200000D01*
G37*
X122555000Y-76200000D02*
X141605000Y-76200000D01*
X140970000Y-74295000D01*
X123190000Y-74295000D01*
X122555000Y-76200000D01*
G36*
X116840000Y-93345000D02*
X115570000Y-94615000D01*
X115570000Y-96520000D01*
X148590000Y-96520000D01*
X148590000Y-94615000D01*
X147320000Y-93345000D01*
X116840000Y-93345000D01*
G37*
X116840000Y-93345000D02*
X115570000Y-94615000D01*
X115570000Y-96520000D01*
X148590000Y-96520000D01*
X148590000Y-94615000D01*
X147320000Y-93345000D01*
X116840000Y-93345000D01*
G36*
X131191000Y-105156000D02*
X132969000Y-105156000D01*
X132969000Y-105410000D01*
X131191000Y-105410000D01*
X131191000Y-105156000D01*
G37*
X131191000Y-105156000D02*
X132969000Y-105156000D01*
X132969000Y-105410000D01*
X131191000Y-105410000D01*
X131191000Y-105156000D01*
G36*
X131445000Y-102870000D02*
X131191000Y-102870000D01*
X131191000Y-105156000D01*
X131445000Y-105156000D01*
X131445000Y-102870000D01*
G37*
X131445000Y-102870000D02*
X131191000Y-102870000D01*
X131191000Y-105156000D01*
X131445000Y-105156000D01*
X131445000Y-102870000D01*
G36*
X132715000Y-102870000D02*
X132969000Y-102870000D01*
X132969000Y-105156000D01*
X132715000Y-105156000D01*
X132715000Y-102870000D01*
G37*
X132715000Y-102870000D02*
X132969000Y-102870000D01*
X132969000Y-105156000D01*
X132715000Y-105156000D01*
X132715000Y-102870000D01*
G36*
X131445000Y-103124000D02*
X132715000Y-103124000D01*
X132715000Y-102870000D01*
X131445000Y-102870000D01*
X131445000Y-103124000D01*
G37*
X131445000Y-103124000D02*
X132715000Y-103124000D01*
X132715000Y-102870000D01*
X131445000Y-102870000D01*
X131445000Y-103124000D01*
G36*
X129032000Y-130302000D02*
X135128000Y-130302000D01*
X135128000Y-130937000D01*
X129032000Y-130937000D01*
X129032000Y-130302000D01*
G37*
X129032000Y-130302000D02*
X135128000Y-130302000D01*
X135128000Y-130937000D01*
X129032000Y-130937000D01*
X129032000Y-130302000D01*
G36*
X132969000Y-128016000D02*
X132969000Y-128270000D01*
X131191000Y-128270000D01*
X131191000Y-128016000D01*
X132969000Y-128016000D01*
G37*
X132969000Y-128016000D02*
X132969000Y-128270000D01*
X131191000Y-128270000D01*
X131191000Y-128016000D01*
X132969000Y-128016000D01*
G36*
X131445000Y-125730000D02*
X131445000Y-127889000D01*
X131191000Y-127889000D01*
X131191000Y-125730000D01*
X131445000Y-125730000D01*
G37*
X131445000Y-125730000D02*
X131445000Y-127889000D01*
X131191000Y-127889000D01*
X131191000Y-125730000D01*
X131445000Y-125730000D01*
G36*
X132715000Y-125730000D02*
X132969000Y-125730000D01*
X132969000Y-127889000D01*
X132715000Y-127889000D01*
X132715000Y-125730000D01*
G37*
X132715000Y-125730000D02*
X132969000Y-125730000D01*
X132969000Y-127889000D01*
X132715000Y-127889000D01*
X132715000Y-125730000D01*
G36*
X131445000Y-125984000D02*
X132715000Y-125984000D01*
X132715000Y-125730000D01*
X131445000Y-125730000D01*
X131445000Y-125984000D01*
G37*
X131445000Y-125984000D02*
X132715000Y-125984000D01*
X132715000Y-125730000D01*
X131445000Y-125730000D01*
X131445000Y-125984000D01*
D13*
G04 #@! TO.C,D7*
X124595000Y-81610000D02*
X124595000Y-77725000D01*
X124595000Y-77725000D02*
X126865000Y-77725000D01*
X126865000Y-77725000D02*
X126865000Y-81610000D01*
G04 #@! TO.C,D8*
X130675000Y-77725000D02*
X130675000Y-81610000D01*
X128405000Y-77725000D02*
X130675000Y-77725000D01*
X128405000Y-81610000D02*
X128405000Y-77725000D01*
G04 #@! TO.C,D9*
X135755000Y-77725000D02*
X135755000Y-81610000D01*
X133485000Y-77725000D02*
X135755000Y-77725000D01*
X133485000Y-81610000D02*
X133485000Y-77725000D01*
G04 #@! TO.C,D10*
X137295000Y-81610000D02*
X137295000Y-77725000D01*
X137295000Y-77725000D02*
X139565000Y-77725000D01*
X139565000Y-77725000D02*
X139565000Y-81610000D01*
G04 #@! TD*
M02*
