G04 #@! TF.GenerationSoftware,KiCad,Pcbnew,5.0.2-bee76a0~70~ubuntu18.04.1*
G04 #@! TF.CreationDate,2019-11-16T15:20:31+01:00*
G04 #@! TF.ProjectId,Eierland,45696572-6c61-46e6-942e-6b696361645f,rev?*
G04 #@! TF.SameCoordinates,Original*
G04 #@! TF.FileFunction,Copper,L2,Bot*
G04 #@! TF.FilePolarity,Positive*
%FSLAX46Y46*%
G04 Gerber Fmt 4.6, Leading zero omitted, Abs format (unit mm)*
G04 Created by KiCad (PCBNEW 5.0.2-bee76a0~70~ubuntu18.04.1) date za 16 nov 2019 15:20:31 CET*
%MOMM*%
%LPD*%
G01*
G04 APERTURE LIST*
G04 #@! TA.AperFunction,Conductor*
%ADD10C,0.100000*%
G04 #@! TD*
G04 #@! TA.AperFunction,SMDPad,CuDef*
%ADD11C,1.250000*%
G04 #@! TD*
G04 #@! TA.AperFunction,ComponentPad*
%ADD12R,1.700000X1.700000*%
G04 #@! TD*
G04 #@! TA.AperFunction,ComponentPad*
%ADD13O,1.700000X1.700000*%
G04 #@! TD*
G04 #@! TA.AperFunction,ComponentPad*
%ADD14O,1.050000X1.900000*%
G04 #@! TD*
G04 #@! TA.AperFunction,ViaPad*
%ADD15C,0.800000*%
G04 #@! TD*
G04 #@! TA.AperFunction,Conductor*
%ADD16C,0.250000*%
G04 #@! TD*
G04 APERTURE END LIST*
D10*
G04 #@! TO.N,GND*
G04 #@! TO.C,D7*
G36*
X126379504Y-77986204D02*
X126403773Y-77989804D01*
X126427571Y-77995765D01*
X126450671Y-78004030D01*
X126472849Y-78014520D01*
X126493893Y-78027133D01*
X126513598Y-78041747D01*
X126531777Y-78058223D01*
X126548253Y-78076402D01*
X126562867Y-78096107D01*
X126575480Y-78117151D01*
X126585970Y-78139329D01*
X126594235Y-78162429D01*
X126600196Y-78186227D01*
X126603796Y-78210496D01*
X126605000Y-78235000D01*
X126605000Y-78985000D01*
X126603796Y-79009504D01*
X126600196Y-79033773D01*
X126594235Y-79057571D01*
X126585970Y-79080671D01*
X126575480Y-79102849D01*
X126562867Y-79123893D01*
X126548253Y-79143598D01*
X126531777Y-79161777D01*
X126513598Y-79178253D01*
X126493893Y-79192867D01*
X126472849Y-79205480D01*
X126450671Y-79215970D01*
X126427571Y-79224235D01*
X126403773Y-79230196D01*
X126379504Y-79233796D01*
X126355000Y-79235000D01*
X125105000Y-79235000D01*
X125080496Y-79233796D01*
X125056227Y-79230196D01*
X125032429Y-79224235D01*
X125009329Y-79215970D01*
X124987151Y-79205480D01*
X124966107Y-79192867D01*
X124946402Y-79178253D01*
X124928223Y-79161777D01*
X124911747Y-79143598D01*
X124897133Y-79123893D01*
X124884520Y-79102849D01*
X124874030Y-79080671D01*
X124865765Y-79057571D01*
X124859804Y-79033773D01*
X124856204Y-79009504D01*
X124855000Y-78985000D01*
X124855000Y-78235000D01*
X124856204Y-78210496D01*
X124859804Y-78186227D01*
X124865765Y-78162429D01*
X124874030Y-78139329D01*
X124884520Y-78117151D01*
X124897133Y-78096107D01*
X124911747Y-78076402D01*
X124928223Y-78058223D01*
X124946402Y-78041747D01*
X124966107Y-78027133D01*
X124987151Y-78014520D01*
X125009329Y-78004030D01*
X125032429Y-77995765D01*
X125056227Y-77989804D01*
X125080496Y-77986204D01*
X125105000Y-77985000D01*
X126355000Y-77985000D01*
X126379504Y-77986204D01*
X126379504Y-77986204D01*
G37*
D11*
G04 #@! TD*
G04 #@! TO.P,D7,1*
G04 #@! TO.N,GND*
X125730000Y-78610000D03*
D10*
G04 #@! TO.N,Net-(D7-Pad2)*
G04 #@! TO.C,D7*
G36*
X126379504Y-80786204D02*
X126403773Y-80789804D01*
X126427571Y-80795765D01*
X126450671Y-80804030D01*
X126472849Y-80814520D01*
X126493893Y-80827133D01*
X126513598Y-80841747D01*
X126531777Y-80858223D01*
X126548253Y-80876402D01*
X126562867Y-80896107D01*
X126575480Y-80917151D01*
X126585970Y-80939329D01*
X126594235Y-80962429D01*
X126600196Y-80986227D01*
X126603796Y-81010496D01*
X126605000Y-81035000D01*
X126605000Y-81785000D01*
X126603796Y-81809504D01*
X126600196Y-81833773D01*
X126594235Y-81857571D01*
X126585970Y-81880671D01*
X126575480Y-81902849D01*
X126562867Y-81923893D01*
X126548253Y-81943598D01*
X126531777Y-81961777D01*
X126513598Y-81978253D01*
X126493893Y-81992867D01*
X126472849Y-82005480D01*
X126450671Y-82015970D01*
X126427571Y-82024235D01*
X126403773Y-82030196D01*
X126379504Y-82033796D01*
X126355000Y-82035000D01*
X125105000Y-82035000D01*
X125080496Y-82033796D01*
X125056227Y-82030196D01*
X125032429Y-82024235D01*
X125009329Y-82015970D01*
X124987151Y-82005480D01*
X124966107Y-81992867D01*
X124946402Y-81978253D01*
X124928223Y-81961777D01*
X124911747Y-81943598D01*
X124897133Y-81923893D01*
X124884520Y-81902849D01*
X124874030Y-81880671D01*
X124865765Y-81857571D01*
X124859804Y-81833773D01*
X124856204Y-81809504D01*
X124855000Y-81785000D01*
X124855000Y-81035000D01*
X124856204Y-81010496D01*
X124859804Y-80986227D01*
X124865765Y-80962429D01*
X124874030Y-80939329D01*
X124884520Y-80917151D01*
X124897133Y-80896107D01*
X124911747Y-80876402D01*
X124928223Y-80858223D01*
X124946402Y-80841747D01*
X124966107Y-80827133D01*
X124987151Y-80814520D01*
X125009329Y-80804030D01*
X125032429Y-80795765D01*
X125056227Y-80789804D01*
X125080496Y-80786204D01*
X125105000Y-80785000D01*
X126355000Y-80785000D01*
X126379504Y-80786204D01*
X126379504Y-80786204D01*
G37*
D11*
G04 #@! TD*
G04 #@! TO.P,D7,2*
G04 #@! TO.N,Net-(D7-Pad2)*
X125730000Y-81410000D03*
D10*
G04 #@! TO.N,Net-(D8-Pad2)*
G04 #@! TO.C,D8*
G36*
X130189504Y-80786204D02*
X130213773Y-80789804D01*
X130237571Y-80795765D01*
X130260671Y-80804030D01*
X130282849Y-80814520D01*
X130303893Y-80827133D01*
X130323598Y-80841747D01*
X130341777Y-80858223D01*
X130358253Y-80876402D01*
X130372867Y-80896107D01*
X130385480Y-80917151D01*
X130395970Y-80939329D01*
X130404235Y-80962429D01*
X130410196Y-80986227D01*
X130413796Y-81010496D01*
X130415000Y-81035000D01*
X130415000Y-81785000D01*
X130413796Y-81809504D01*
X130410196Y-81833773D01*
X130404235Y-81857571D01*
X130395970Y-81880671D01*
X130385480Y-81902849D01*
X130372867Y-81923893D01*
X130358253Y-81943598D01*
X130341777Y-81961777D01*
X130323598Y-81978253D01*
X130303893Y-81992867D01*
X130282849Y-82005480D01*
X130260671Y-82015970D01*
X130237571Y-82024235D01*
X130213773Y-82030196D01*
X130189504Y-82033796D01*
X130165000Y-82035000D01*
X128915000Y-82035000D01*
X128890496Y-82033796D01*
X128866227Y-82030196D01*
X128842429Y-82024235D01*
X128819329Y-82015970D01*
X128797151Y-82005480D01*
X128776107Y-81992867D01*
X128756402Y-81978253D01*
X128738223Y-81961777D01*
X128721747Y-81943598D01*
X128707133Y-81923893D01*
X128694520Y-81902849D01*
X128684030Y-81880671D01*
X128675765Y-81857571D01*
X128669804Y-81833773D01*
X128666204Y-81809504D01*
X128665000Y-81785000D01*
X128665000Y-81035000D01*
X128666204Y-81010496D01*
X128669804Y-80986227D01*
X128675765Y-80962429D01*
X128684030Y-80939329D01*
X128694520Y-80917151D01*
X128707133Y-80896107D01*
X128721747Y-80876402D01*
X128738223Y-80858223D01*
X128756402Y-80841747D01*
X128776107Y-80827133D01*
X128797151Y-80814520D01*
X128819329Y-80804030D01*
X128842429Y-80795765D01*
X128866227Y-80789804D01*
X128890496Y-80786204D01*
X128915000Y-80785000D01*
X130165000Y-80785000D01*
X130189504Y-80786204D01*
X130189504Y-80786204D01*
G37*
D11*
G04 #@! TD*
G04 #@! TO.P,D8,2*
G04 #@! TO.N,Net-(D8-Pad2)*
X129540000Y-81410000D03*
D10*
G04 #@! TO.N,GND*
G04 #@! TO.C,D8*
G36*
X130189504Y-77986204D02*
X130213773Y-77989804D01*
X130237571Y-77995765D01*
X130260671Y-78004030D01*
X130282849Y-78014520D01*
X130303893Y-78027133D01*
X130323598Y-78041747D01*
X130341777Y-78058223D01*
X130358253Y-78076402D01*
X130372867Y-78096107D01*
X130385480Y-78117151D01*
X130395970Y-78139329D01*
X130404235Y-78162429D01*
X130410196Y-78186227D01*
X130413796Y-78210496D01*
X130415000Y-78235000D01*
X130415000Y-78985000D01*
X130413796Y-79009504D01*
X130410196Y-79033773D01*
X130404235Y-79057571D01*
X130395970Y-79080671D01*
X130385480Y-79102849D01*
X130372867Y-79123893D01*
X130358253Y-79143598D01*
X130341777Y-79161777D01*
X130323598Y-79178253D01*
X130303893Y-79192867D01*
X130282849Y-79205480D01*
X130260671Y-79215970D01*
X130237571Y-79224235D01*
X130213773Y-79230196D01*
X130189504Y-79233796D01*
X130165000Y-79235000D01*
X128915000Y-79235000D01*
X128890496Y-79233796D01*
X128866227Y-79230196D01*
X128842429Y-79224235D01*
X128819329Y-79215970D01*
X128797151Y-79205480D01*
X128776107Y-79192867D01*
X128756402Y-79178253D01*
X128738223Y-79161777D01*
X128721747Y-79143598D01*
X128707133Y-79123893D01*
X128694520Y-79102849D01*
X128684030Y-79080671D01*
X128675765Y-79057571D01*
X128669804Y-79033773D01*
X128666204Y-79009504D01*
X128665000Y-78985000D01*
X128665000Y-78235000D01*
X128666204Y-78210496D01*
X128669804Y-78186227D01*
X128675765Y-78162429D01*
X128684030Y-78139329D01*
X128694520Y-78117151D01*
X128707133Y-78096107D01*
X128721747Y-78076402D01*
X128738223Y-78058223D01*
X128756402Y-78041747D01*
X128776107Y-78027133D01*
X128797151Y-78014520D01*
X128819329Y-78004030D01*
X128842429Y-77995765D01*
X128866227Y-77989804D01*
X128890496Y-77986204D01*
X128915000Y-77985000D01*
X130165000Y-77985000D01*
X130189504Y-77986204D01*
X130189504Y-77986204D01*
G37*
D11*
G04 #@! TD*
G04 #@! TO.P,D8,1*
G04 #@! TO.N,GND*
X129540000Y-78610000D03*
D10*
G04 #@! TO.N,Net-(D9-Pad2)*
G04 #@! TO.C,D9*
G36*
X135269504Y-80786204D02*
X135293773Y-80789804D01*
X135317571Y-80795765D01*
X135340671Y-80804030D01*
X135362849Y-80814520D01*
X135383893Y-80827133D01*
X135403598Y-80841747D01*
X135421777Y-80858223D01*
X135438253Y-80876402D01*
X135452867Y-80896107D01*
X135465480Y-80917151D01*
X135475970Y-80939329D01*
X135484235Y-80962429D01*
X135490196Y-80986227D01*
X135493796Y-81010496D01*
X135495000Y-81035000D01*
X135495000Y-81785000D01*
X135493796Y-81809504D01*
X135490196Y-81833773D01*
X135484235Y-81857571D01*
X135475970Y-81880671D01*
X135465480Y-81902849D01*
X135452867Y-81923893D01*
X135438253Y-81943598D01*
X135421777Y-81961777D01*
X135403598Y-81978253D01*
X135383893Y-81992867D01*
X135362849Y-82005480D01*
X135340671Y-82015970D01*
X135317571Y-82024235D01*
X135293773Y-82030196D01*
X135269504Y-82033796D01*
X135245000Y-82035000D01*
X133995000Y-82035000D01*
X133970496Y-82033796D01*
X133946227Y-82030196D01*
X133922429Y-82024235D01*
X133899329Y-82015970D01*
X133877151Y-82005480D01*
X133856107Y-81992867D01*
X133836402Y-81978253D01*
X133818223Y-81961777D01*
X133801747Y-81943598D01*
X133787133Y-81923893D01*
X133774520Y-81902849D01*
X133764030Y-81880671D01*
X133755765Y-81857571D01*
X133749804Y-81833773D01*
X133746204Y-81809504D01*
X133745000Y-81785000D01*
X133745000Y-81035000D01*
X133746204Y-81010496D01*
X133749804Y-80986227D01*
X133755765Y-80962429D01*
X133764030Y-80939329D01*
X133774520Y-80917151D01*
X133787133Y-80896107D01*
X133801747Y-80876402D01*
X133818223Y-80858223D01*
X133836402Y-80841747D01*
X133856107Y-80827133D01*
X133877151Y-80814520D01*
X133899329Y-80804030D01*
X133922429Y-80795765D01*
X133946227Y-80789804D01*
X133970496Y-80786204D01*
X133995000Y-80785000D01*
X135245000Y-80785000D01*
X135269504Y-80786204D01*
X135269504Y-80786204D01*
G37*
D11*
G04 #@! TD*
G04 #@! TO.P,D9,2*
G04 #@! TO.N,Net-(D9-Pad2)*
X134620000Y-81410000D03*
D10*
G04 #@! TO.N,GND*
G04 #@! TO.C,D9*
G36*
X135269504Y-77986204D02*
X135293773Y-77989804D01*
X135317571Y-77995765D01*
X135340671Y-78004030D01*
X135362849Y-78014520D01*
X135383893Y-78027133D01*
X135403598Y-78041747D01*
X135421777Y-78058223D01*
X135438253Y-78076402D01*
X135452867Y-78096107D01*
X135465480Y-78117151D01*
X135475970Y-78139329D01*
X135484235Y-78162429D01*
X135490196Y-78186227D01*
X135493796Y-78210496D01*
X135495000Y-78235000D01*
X135495000Y-78985000D01*
X135493796Y-79009504D01*
X135490196Y-79033773D01*
X135484235Y-79057571D01*
X135475970Y-79080671D01*
X135465480Y-79102849D01*
X135452867Y-79123893D01*
X135438253Y-79143598D01*
X135421777Y-79161777D01*
X135403598Y-79178253D01*
X135383893Y-79192867D01*
X135362849Y-79205480D01*
X135340671Y-79215970D01*
X135317571Y-79224235D01*
X135293773Y-79230196D01*
X135269504Y-79233796D01*
X135245000Y-79235000D01*
X133995000Y-79235000D01*
X133970496Y-79233796D01*
X133946227Y-79230196D01*
X133922429Y-79224235D01*
X133899329Y-79215970D01*
X133877151Y-79205480D01*
X133856107Y-79192867D01*
X133836402Y-79178253D01*
X133818223Y-79161777D01*
X133801747Y-79143598D01*
X133787133Y-79123893D01*
X133774520Y-79102849D01*
X133764030Y-79080671D01*
X133755765Y-79057571D01*
X133749804Y-79033773D01*
X133746204Y-79009504D01*
X133745000Y-78985000D01*
X133745000Y-78235000D01*
X133746204Y-78210496D01*
X133749804Y-78186227D01*
X133755765Y-78162429D01*
X133764030Y-78139329D01*
X133774520Y-78117151D01*
X133787133Y-78096107D01*
X133801747Y-78076402D01*
X133818223Y-78058223D01*
X133836402Y-78041747D01*
X133856107Y-78027133D01*
X133877151Y-78014520D01*
X133899329Y-78004030D01*
X133922429Y-77995765D01*
X133946227Y-77989804D01*
X133970496Y-77986204D01*
X133995000Y-77985000D01*
X135245000Y-77985000D01*
X135269504Y-77986204D01*
X135269504Y-77986204D01*
G37*
D11*
G04 #@! TD*
G04 #@! TO.P,D9,1*
G04 #@! TO.N,GND*
X134620000Y-78610000D03*
D10*
G04 #@! TO.N,GND*
G04 #@! TO.C,D10*
G36*
X139079504Y-77986204D02*
X139103773Y-77989804D01*
X139127571Y-77995765D01*
X139150671Y-78004030D01*
X139172849Y-78014520D01*
X139193893Y-78027133D01*
X139213598Y-78041747D01*
X139231777Y-78058223D01*
X139248253Y-78076402D01*
X139262867Y-78096107D01*
X139275480Y-78117151D01*
X139285970Y-78139329D01*
X139294235Y-78162429D01*
X139300196Y-78186227D01*
X139303796Y-78210496D01*
X139305000Y-78235000D01*
X139305000Y-78985000D01*
X139303796Y-79009504D01*
X139300196Y-79033773D01*
X139294235Y-79057571D01*
X139285970Y-79080671D01*
X139275480Y-79102849D01*
X139262867Y-79123893D01*
X139248253Y-79143598D01*
X139231777Y-79161777D01*
X139213598Y-79178253D01*
X139193893Y-79192867D01*
X139172849Y-79205480D01*
X139150671Y-79215970D01*
X139127571Y-79224235D01*
X139103773Y-79230196D01*
X139079504Y-79233796D01*
X139055000Y-79235000D01*
X137805000Y-79235000D01*
X137780496Y-79233796D01*
X137756227Y-79230196D01*
X137732429Y-79224235D01*
X137709329Y-79215970D01*
X137687151Y-79205480D01*
X137666107Y-79192867D01*
X137646402Y-79178253D01*
X137628223Y-79161777D01*
X137611747Y-79143598D01*
X137597133Y-79123893D01*
X137584520Y-79102849D01*
X137574030Y-79080671D01*
X137565765Y-79057571D01*
X137559804Y-79033773D01*
X137556204Y-79009504D01*
X137555000Y-78985000D01*
X137555000Y-78235000D01*
X137556204Y-78210496D01*
X137559804Y-78186227D01*
X137565765Y-78162429D01*
X137574030Y-78139329D01*
X137584520Y-78117151D01*
X137597133Y-78096107D01*
X137611747Y-78076402D01*
X137628223Y-78058223D01*
X137646402Y-78041747D01*
X137666107Y-78027133D01*
X137687151Y-78014520D01*
X137709329Y-78004030D01*
X137732429Y-77995765D01*
X137756227Y-77989804D01*
X137780496Y-77986204D01*
X137805000Y-77985000D01*
X139055000Y-77985000D01*
X139079504Y-77986204D01*
X139079504Y-77986204D01*
G37*
D11*
G04 #@! TD*
G04 #@! TO.P,D10,1*
G04 #@! TO.N,GND*
X138430000Y-78610000D03*
D10*
G04 #@! TO.N,Net-(D10-Pad2)*
G04 #@! TO.C,D10*
G36*
X139079504Y-80786204D02*
X139103773Y-80789804D01*
X139127571Y-80795765D01*
X139150671Y-80804030D01*
X139172849Y-80814520D01*
X139193893Y-80827133D01*
X139213598Y-80841747D01*
X139231777Y-80858223D01*
X139248253Y-80876402D01*
X139262867Y-80896107D01*
X139275480Y-80917151D01*
X139285970Y-80939329D01*
X139294235Y-80962429D01*
X139300196Y-80986227D01*
X139303796Y-81010496D01*
X139305000Y-81035000D01*
X139305000Y-81785000D01*
X139303796Y-81809504D01*
X139300196Y-81833773D01*
X139294235Y-81857571D01*
X139285970Y-81880671D01*
X139275480Y-81902849D01*
X139262867Y-81923893D01*
X139248253Y-81943598D01*
X139231777Y-81961777D01*
X139213598Y-81978253D01*
X139193893Y-81992867D01*
X139172849Y-82005480D01*
X139150671Y-82015970D01*
X139127571Y-82024235D01*
X139103773Y-82030196D01*
X139079504Y-82033796D01*
X139055000Y-82035000D01*
X137805000Y-82035000D01*
X137780496Y-82033796D01*
X137756227Y-82030196D01*
X137732429Y-82024235D01*
X137709329Y-82015970D01*
X137687151Y-82005480D01*
X137666107Y-81992867D01*
X137646402Y-81978253D01*
X137628223Y-81961777D01*
X137611747Y-81943598D01*
X137597133Y-81923893D01*
X137584520Y-81902849D01*
X137574030Y-81880671D01*
X137565765Y-81857571D01*
X137559804Y-81833773D01*
X137556204Y-81809504D01*
X137555000Y-81785000D01*
X137555000Y-81035000D01*
X137556204Y-81010496D01*
X137559804Y-80986227D01*
X137565765Y-80962429D01*
X137574030Y-80939329D01*
X137584520Y-80917151D01*
X137597133Y-80896107D01*
X137611747Y-80876402D01*
X137628223Y-80858223D01*
X137646402Y-80841747D01*
X137666107Y-80827133D01*
X137687151Y-80814520D01*
X137709329Y-80804030D01*
X137732429Y-80795765D01*
X137756227Y-80789804D01*
X137780496Y-80786204D01*
X137805000Y-80785000D01*
X139055000Y-80785000D01*
X139079504Y-80786204D01*
X139079504Y-80786204D01*
G37*
D11*
G04 #@! TD*
G04 #@! TO.P,D10,2*
G04 #@! TO.N,Net-(D10-Pad2)*
X138430000Y-81410000D03*
D12*
G04 #@! TO.P,J1,1*
G04 #@! TO.N,+3V3*
X128270000Y-93980000D03*
D13*
G04 #@! TO.P,J1,2*
G04 #@! TO.N,SWDIO*
X130810000Y-93980000D03*
G04 #@! TO.P,J1,3*
G04 #@! TO.N,SWDCLK*
X133350000Y-93980000D03*
G04 #@! TO.P,J1,4*
G04 #@! TO.N,GND*
X135890000Y-93980000D03*
G04 #@! TD*
D14*
G04 #@! TO.P,J2,6*
G04 #@! TO.N,Net-(J2-Pad6)*
X135655000Y-68650000D03*
X128505000Y-68650000D03*
G04 #@! TD*
D12*
G04 #@! TO.P,J3,1*
G04 #@! TO.N,+3V3*
X130810000Y-132080000D03*
D13*
G04 #@! TO.P,J3,2*
X133350000Y-132080000D03*
G04 #@! TO.P,J3,3*
G04 #@! TO.N,Net-(J3-Pad3)*
X130810000Y-134620000D03*
G04 #@! TO.P,J3,4*
G04 #@! TO.N,Net-(J3-Pad4)*
X133350000Y-134620000D03*
G04 #@! TO.P,J3,5*
G04 #@! TO.N,GND*
X130810000Y-137160000D03*
G04 #@! TO.P,J3,6*
X133350000Y-137160000D03*
G04 #@! TD*
D12*
G04 #@! TO.P,J4,1*
G04 #@! TO.N,PMOD1*
X138430000Y-140970000D03*
D13*
G04 #@! TO.P,J4,2*
G04 #@! TO.N,PMOD7*
X138430000Y-143510000D03*
G04 #@! TO.P,J4,3*
G04 #@! TO.N,PMOD2*
X135890000Y-140970000D03*
G04 #@! TO.P,J4,4*
G04 #@! TO.N,PMOD8*
X135890000Y-143510000D03*
G04 #@! TO.P,J4,5*
G04 #@! TO.N,PMOD3*
X133350000Y-140970000D03*
G04 #@! TO.P,J4,6*
G04 #@! TO.N,PMOD9*
X133350000Y-143510000D03*
G04 #@! TO.P,J4,7*
G04 #@! TO.N,PMOD4*
X130810000Y-140970000D03*
G04 #@! TO.P,J4,8*
G04 #@! TO.N,PMOD10*
X130810000Y-143510000D03*
G04 #@! TO.P,J4,9*
G04 #@! TO.N,GND*
X128270000Y-140970000D03*
G04 #@! TO.P,J4,10*
X128270000Y-143510000D03*
G04 #@! TO.P,J4,11*
G04 #@! TO.N,+3V3*
X125730000Y-140970000D03*
G04 #@! TO.P,J4,12*
X125730000Y-143510000D03*
G04 #@! TD*
D15*
G04 #@! TO.N,GND*
X120904000Y-127508000D03*
X125222000Y-130556000D03*
X132334000Y-128778000D03*
X132084265Y-133354265D03*
X132080000Y-124460000D03*
X125730000Y-123190000D03*
X127978784Y-121120784D03*
X126492000Y-77216000D03*
X134620000Y-99060000D03*
X132080000Y-102362000D03*
X131064000Y-106426000D03*
X136943000Y-118872000D03*
X133604000Y-112776000D03*
X142240000Y-124714000D03*
X140599998Y-129540000D03*
X130048000Y-128524000D03*
G04 #@! TO.N,FOSC2*
X130190046Y-117540919D03*
X121412000Y-120142000D03*
G04 #@! TO.N,NRST*
X129231571Y-117039571D03*
X123952000Y-105410000D03*
G04 #@! TO.N,FOSC1*
X127610228Y-119228228D03*
X121158000Y-113284000D03*
X116840000Y-123190000D03*
G04 #@! TO.N,+3V3*
X136144000Y-105410000D03*
X132334000Y-109474000D03*
X124460000Y-117856000D03*
X120650000Y-133350000D03*
X136603924Y-129026473D03*
X139700000Y-128778000D03*
X140970000Y-124968000D03*
X144272000Y-134366000D03*
X141863653Y-114939653D03*
X133604000Y-124714000D03*
X144521347Y-116082653D03*
G04 #@! TO.N,Net-(D1-Pad1)*
X130048000Y-99060000D03*
X132080000Y-95758000D03*
G04 #@! TO.N,Net-(D7-Pad2)*
X138176000Y-91440000D03*
G04 #@! TO.N,Net-(D8-Pad2)*
X138430000Y-88900000D03*
G04 #@! TO.N,Net-(D9-Pad2)*
X138430000Y-86360000D03*
G04 #@! TO.N,Net-(D10-Pad2)*
X138938000Y-83566000D03*
G04 #@! TO.N,Net-(D13-Pad4)*
X118110000Y-133350000D03*
X143580051Y-112314701D03*
G04 #@! TO.N,Net-(D13-Pad3)*
X120146653Y-134615347D03*
X142244653Y-111256653D03*
G04 #@! TO.N,Net-(D13-Pad2)*
X120396000Y-135890000D03*
X141482653Y-112018653D03*
G04 #@! TO.N,Net-(D14-Pad2)*
X144526000Y-129794000D03*
X140970000Y-122936000D03*
G04 #@! TO.N,SWDIO*
X133858000Y-102108000D03*
X134112000Y-105918000D03*
G04 #@! TO.N,SWDCLK*
X130043347Y-106167347D03*
G04 #@! TO.N,VCC*
X127762000Y-77724000D03*
X137668000Y-103124000D03*
G04 #@! TO.N,Net-(J3-Pad3)*
X123444000Y-126492000D03*
G04 #@! TO.N,Net-(J3-Pad4)*
X122719000Y-125476000D03*
G04 #@! TO.N,PMOD1*
X128524000Y-126492000D03*
X128981570Y-120754397D03*
G04 #@! TO.N,PMOD7*
X133096000Y-118872000D03*
X138806347Y-137028347D03*
G04 #@! TO.N,PMOD2*
X127816892Y-127199108D03*
X129706570Y-121516643D03*
G04 #@! TO.N,PMOD8*
X135123347Y-121416653D03*
X130048000Y-139700000D03*
G04 #@! TO.N,PMOD3*
X130706227Y-121542907D03*
X129248000Y-130874021D03*
G04 #@! TO.N,PMOD9*
X135703315Y-124397772D03*
X140203347Y-137917347D03*
X141355653Y-138815653D03*
G04 #@! TO.N,PMOD4*
X134874000Y-132334000D03*
X131295812Y-118533461D03*
G04 #@! TO.N,PMOD10*
X138684000Y-124206000D03*
G04 #@! TO.N,D+*
X136644819Y-110144067D03*
X132080000Y-78232000D03*
G04 #@! TO.N,D-*
X137414000Y-110869067D03*
X132080000Y-76962000D03*
G04 #@! TO.N,BOOT1*
X124003340Y-107857134D03*
X134112000Y-117699762D03*
G04 #@! TO.N,LED*
X135677500Y-106680000D03*
X128524000Y-116078000D03*
X124206000Y-106680000D03*
X127508000Y-106426000D03*
G04 #@! TO.N,LED0*
X127000000Y-112268000D03*
X120904000Y-83820000D03*
G04 #@! TO.N,LED1*
X126445299Y-113100051D03*
X120904000Y-86360000D03*
G04 #@! TO.N,LED2*
X132588000Y-114300000D03*
X120904000Y-88900000D03*
G04 #@! TO.N,LED3*
X120904000Y-91440000D03*
X132717592Y-113238909D03*
G04 #@! TO.N,LED4*
X138430000Y-114046000D03*
X143256000Y-91440000D03*
G04 #@! TO.N,LED5*
X136042610Y-115328140D03*
X143256000Y-88900000D03*
G04 #@! TO.N,LED6*
X135082433Y-115048741D03*
X143256000Y-86360000D03*
G04 #@! TO.N,LED7*
X134556960Y-114197929D03*
X143256000Y-83820000D03*
G04 #@! TO.N,LEDW0*
X131266346Y-115076654D03*
X134253505Y-122120022D03*
G04 #@! TO.N,R0*
X131921825Y-111664175D03*
X138684000Y-106680000D03*
G04 #@! TO.N,G0*
X128898405Y-110360242D03*
X138975000Y-105723276D03*
G04 #@! TO.N,B0*
X128057500Y-109728000D03*
X137414000Y-105664000D03*
G04 #@! TD*
D16*
G04 #@! TO.N,GND*
X120904000Y-127508000D02*
X123952000Y-130556000D01*
X123952000Y-130556000D02*
X125222000Y-130556000D01*
X132084265Y-129593420D02*
X132084265Y-133354265D01*
X132334000Y-128778000D02*
X132334000Y-129343685D01*
X132334000Y-129343685D02*
X132084265Y-129593420D01*
X131680001Y-124859999D02*
X131680001Y-125113999D01*
X132080000Y-124460000D02*
X131680001Y-124859999D01*
X131680001Y-125113999D02*
X131318000Y-125476000D01*
X131318000Y-127762000D02*
X132334000Y-128778000D01*
X131318000Y-125476000D02*
X131318000Y-127762000D01*
X128270000Y-142172081D02*
X128270000Y-143510000D01*
X128270000Y-140970000D02*
X128270000Y-142172081D01*
X125730000Y-123190000D02*
X127799216Y-121120784D01*
X127799216Y-121120784D02*
X127978784Y-121120784D01*
X126492000Y-77848000D02*
X125730000Y-78610000D01*
X126492000Y-77216000D02*
X126492000Y-77848000D01*
X126705000Y-78610000D02*
X129540000Y-78610000D01*
X125730000Y-78610000D02*
X126705000Y-78610000D01*
X133297999Y-78957001D02*
X133645000Y-78610000D01*
X130862001Y-78957001D02*
X133297999Y-78957001D01*
X133645000Y-78610000D02*
X134620000Y-78610000D01*
X130515000Y-78610000D02*
X130862001Y-78957001D01*
X129540000Y-78610000D02*
X130515000Y-78610000D01*
X135595000Y-78610000D02*
X138430000Y-78610000D01*
X134620000Y-78610000D02*
X135595000Y-78610000D01*
X135890000Y-97790000D02*
X135890000Y-93980000D01*
X134620000Y-99060000D02*
X135890000Y-97790000D01*
X134620000Y-99822000D02*
X134620000Y-99060000D01*
X132080000Y-102362000D02*
X134620000Y-99822000D01*
X132080000Y-102362000D02*
X130556000Y-103886000D01*
X130556000Y-103886000D02*
X131064000Y-104394000D01*
X131064000Y-104394000D02*
X131064000Y-106426000D01*
X136943000Y-118306315D02*
X137160000Y-118089315D01*
X136943000Y-118872000D02*
X136943000Y-118306315D01*
X137160000Y-116840000D02*
X136373141Y-116053141D01*
X137160000Y-118089315D02*
X137160000Y-116840000D01*
X136373141Y-116053141D02*
X134849141Y-116053141D01*
X133831959Y-115035959D02*
X133831959Y-113818041D01*
X134849141Y-116053141D02*
X133831959Y-115035959D01*
X133831959Y-113818041D02*
X133858000Y-113792000D01*
X133858000Y-113792000D02*
X133858000Y-113030000D01*
X133858000Y-113030000D02*
X133604000Y-112776000D01*
X141695001Y-128444997D02*
X140599998Y-129540000D01*
X142240000Y-124714000D02*
X142240000Y-127899998D01*
X142240000Y-127899998D02*
X141695001Y-128444997D01*
X132334000Y-128778000D02*
X130302000Y-128778000D01*
X130302000Y-128778000D02*
X130048000Y-128524000D01*
G04 #@! TO.N,FOSC2*
X128154650Y-120142000D02*
X121412000Y-120142000D01*
X130190046Y-117540919D02*
X130190046Y-118106604D01*
X130190046Y-118106604D02*
X128154650Y-120142000D01*
G04 #@! TO.N,NRST*
X122828329Y-106533671D02*
X123952000Y-105410000D01*
X122828329Y-113101723D02*
X122828329Y-106533671D01*
X129231571Y-117039571D02*
X126766177Y-117039571D01*
X126766177Y-117039571D02*
X122828329Y-113101723D01*
G04 #@! TO.N,FOSC1*
X127610228Y-119228228D02*
X121666000Y-113284000D01*
X121666000Y-113284000D02*
X121158000Y-113284000D01*
X116840000Y-117602000D02*
X121158000Y-113284000D01*
X116840000Y-123190000D02*
X116840000Y-117602000D01*
G04 #@! TO.N,+3V3*
X125730000Y-143510000D02*
X125730000Y-140970000D01*
X133956502Y-109474000D02*
X132334000Y-109474000D01*
X136543999Y-106886503D02*
X133956502Y-109474000D01*
X136144000Y-105410000D02*
X136543999Y-105809999D01*
X136543999Y-105809999D02*
X136543999Y-106886503D01*
X120178999Y-132878999D02*
X120650000Y-133350000D01*
X120178999Y-120301999D02*
X120178999Y-132878999D01*
X124460000Y-117856000D02*
X122624998Y-117856000D01*
X122624998Y-117856000D02*
X120178999Y-120301999D01*
X136603924Y-132185078D02*
X136603924Y-129026473D01*
X134968001Y-133821001D02*
X136603924Y-132185078D01*
X134271999Y-133821001D02*
X134968001Y-133821001D01*
X133350000Y-132080000D02*
X133350000Y-132899002D01*
X133350000Y-132899002D02*
X134271999Y-133821001D01*
X139700000Y-128778000D02*
X139700000Y-126238000D01*
X139700000Y-126238000D02*
X140970000Y-124968000D01*
X139700000Y-129794000D02*
X139700000Y-128778000D01*
X144272000Y-134366000D02*
X139700000Y-129794000D01*
X136038239Y-129026473D02*
X136603924Y-129026473D01*
X135815711Y-129249001D02*
X136038239Y-129026473D01*
X134017999Y-129249001D02*
X135815711Y-129249001D01*
X133604000Y-128835002D02*
X134017999Y-129249001D01*
X133604000Y-124714000D02*
X133604000Y-128835002D01*
X140244999Y-116558307D02*
X141863653Y-114939653D01*
X140970000Y-124968000D02*
X140970000Y-124402315D01*
X140244999Y-123677314D02*
X140244999Y-116558307D01*
X140970000Y-124402315D02*
X140244999Y-123677314D01*
X141863653Y-114939653D02*
X143378347Y-114939653D01*
X143378347Y-114939653D02*
X144521347Y-116082653D01*
G04 #@! TO.N,Net-(D1-Pad1)*
X130048000Y-99060000D02*
X130048000Y-97790000D01*
X130048000Y-97790000D02*
X132080000Y-95758000D01*
G04 #@! TO.N,Net-(D7-Pad2)*
X125730000Y-81410000D02*
X127886000Y-83566000D01*
X127886000Y-83566000D02*
X130302000Y-83566000D01*
X130302000Y-83566000D02*
X138176000Y-91440000D01*
G04 #@! TO.N,Net-(D8-Pad2)*
X129540000Y-81410000D02*
X130940000Y-81410000D01*
X130940000Y-81410000D02*
X138430000Y-88900000D01*
G04 #@! TO.N,Net-(D9-Pad2)*
X134620000Y-81410000D02*
X134620000Y-82550000D01*
X134620000Y-82550000D02*
X138430000Y-86360000D01*
G04 #@! TO.N,Net-(D10-Pad2)*
X138430000Y-81410000D02*
X138430000Y-83058000D01*
X138430000Y-83058000D02*
X138938000Y-83566000D01*
G04 #@! TO.N,Net-(D13-Pad4)*
X143533350Y-112268000D02*
X143580051Y-112314701D01*
X143510000Y-112268000D02*
X143533350Y-112268000D01*
X118872000Y-134112000D02*
X118110000Y-133350000D01*
X118872000Y-136652000D02*
X118872000Y-134112000D01*
X119437990Y-137217990D02*
X118872000Y-136652000D01*
X119437990Y-140519990D02*
X119437990Y-137217990D01*
X124503020Y-145585020D02*
X119437990Y-140519990D01*
X139366802Y-145585020D02*
X124503020Y-145585020D01*
X143580051Y-112314701D02*
X143580051Y-112843231D01*
X146151019Y-138585801D02*
X140505021Y-144231799D01*
X143580051Y-112843231D02*
X146151019Y-115414201D01*
X140505021Y-144231799D02*
X140505020Y-144446802D01*
X146151019Y-115414201D02*
X146151019Y-138585801D01*
X140505020Y-144446802D02*
X139366802Y-145585020D01*
G04 #@! TO.N,Net-(D13-Pad3)*
X119380000Y-135382000D02*
X119380000Y-136398000D01*
X120146653Y-134615347D02*
X119380000Y-135382000D01*
X119380000Y-136398000D02*
X119888000Y-136906000D01*
X119888000Y-136906000D02*
X119888000Y-139954000D01*
X119945990Y-140011990D02*
X119945990Y-140265990D01*
X119888000Y-139954000D02*
X119945990Y-140011990D01*
X139180402Y-145135010D02*
X140055011Y-144260401D01*
X119945990Y-140265990D02*
X124815011Y-145135011D01*
X124815011Y-145135011D02*
X139180402Y-145135010D01*
X140055011Y-144260401D02*
X140055011Y-144045399D01*
X140055011Y-144045399D02*
X145701010Y-138399400D01*
X145701011Y-138399399D02*
X145701010Y-115600600D01*
X145701010Y-138399400D02*
X145701011Y-138399399D01*
X145701010Y-115600600D02*
X142244653Y-112144243D01*
X142244653Y-112144243D02*
X142244653Y-111256653D01*
G04 #@! TO.N,Net-(D13-Pad2)*
X138994001Y-144685001D02*
X139605001Y-144074001D01*
X125127001Y-144685001D02*
X138994001Y-144685001D01*
X120396000Y-135890000D02*
X120396000Y-139954000D01*
X120396000Y-139954000D02*
X125127001Y-144685001D01*
X139605001Y-144074001D02*
X139605001Y-143858999D01*
X139605001Y-143858999D02*
X145034000Y-138430000D01*
X145251001Y-115787001D02*
X141482653Y-112018653D01*
X145034000Y-138430000D02*
X145251001Y-138212999D01*
X145251001Y-138212999D02*
X145251001Y-115787001D01*
G04 #@! TO.N,Net-(D14-Pad2)*
X144526000Y-129794000D02*
X144526000Y-125730000D01*
X144526000Y-125730000D02*
X141732000Y-122936000D01*
X141732000Y-122936000D02*
X140970000Y-122936000D01*
G04 #@! TO.N,SWDIO*
X133858000Y-102108000D02*
X133858000Y-105664000D01*
X133858000Y-105664000D02*
X134112000Y-105918000D01*
G04 #@! TO.N,SWDCLK*
X130043347Y-105601662D02*
X130048000Y-105597009D01*
X130043347Y-106167347D02*
X130043347Y-105601662D01*
X130048000Y-105597009D02*
X130048000Y-101854000D01*
X133350000Y-98552000D02*
X133350000Y-93980000D01*
X130048000Y-101854000D02*
X133350000Y-98552000D01*
G04 #@! TO.N,VCC*
X126035811Y-76490999D02*
X124206000Y-78320810D01*
X126840001Y-76490999D02*
X126035811Y-76490999D01*
X127362001Y-77012999D02*
X126840001Y-76490999D01*
X127762000Y-77724000D02*
X127362001Y-77324001D01*
X127362001Y-77324001D02*
X127362001Y-77012999D01*
X124206000Y-81699190D02*
X127850810Y-85344000D01*
X124206000Y-78320810D02*
X124206000Y-81699190D01*
X137668000Y-94018998D02*
X137668000Y-97282000D01*
X127850810Y-85344000D02*
X128993002Y-85344000D01*
X128993002Y-85344000D02*
X137668000Y-94018998D01*
X137668000Y-97282000D02*
X137668000Y-103124000D01*
G04 #@! TO.N,Net-(J3-Pad3)*
X123444000Y-127057685D02*
X123444000Y-126492000D01*
X128154020Y-131964020D02*
X128154020Y-128787610D01*
X128016000Y-128524000D02*
X124910315Y-128524000D01*
X128154020Y-128787610D02*
X128016000Y-128649590D01*
X124910315Y-128524000D02*
X123444000Y-127057685D01*
X130810000Y-134620000D02*
X128154020Y-131964020D01*
X128016000Y-128649590D02*
X128016000Y-128524000D01*
G04 #@! TO.N,Net-(J3-Pad4)*
X132500001Y-135469999D02*
X133350000Y-134620000D01*
X132174999Y-135795001D02*
X132500001Y-135469999D01*
X122719000Y-126969095D02*
X124723915Y-128974010D01*
X122719000Y-125476000D02*
X122719000Y-126969095D01*
X124723915Y-128974010D02*
X127704010Y-128974010D01*
X127704010Y-128974010D02*
X127704010Y-133253012D01*
X127704010Y-133253012D02*
X130245999Y-135795001D01*
X130245999Y-135795001D02*
X132174999Y-135795001D01*
G04 #@! TO.N,PMOD1*
X128524000Y-126492000D02*
X128981570Y-126034430D01*
X128981570Y-126034430D02*
X128981570Y-120754397D01*
G04 #@! TO.N,PMOD7*
X133528504Y-123565502D02*
X134366000Y-124402998D01*
X133528504Y-120954094D02*
X133528504Y-123565502D01*
X133096000Y-118872000D02*
X133096000Y-120521590D01*
X133096000Y-120521590D02*
X133528504Y-120954094D01*
X134941600Y-125672010D02*
X136709990Y-125672010D01*
X134366000Y-124402998D02*
X134366000Y-125096410D01*
X134366000Y-125096410D02*
X134941600Y-125672010D01*
X136709990Y-125672010D02*
X137021980Y-125984000D01*
X137414000Y-126376020D02*
X137414000Y-129286000D01*
X137021980Y-125984000D02*
X137414000Y-126376020D01*
X137471990Y-129343990D02*
X137471990Y-130867990D01*
X137414000Y-129286000D02*
X137471990Y-129343990D01*
X137471990Y-130867990D02*
X139192000Y-132588000D01*
X139192000Y-132588000D02*
X139192000Y-136642694D01*
X139192000Y-136642694D02*
X138806347Y-137028347D01*
G04 #@! TO.N,PMOD2*
X129706570Y-126382432D02*
X129706570Y-121516643D01*
X128489895Y-127599107D02*
X129706570Y-126382432D01*
X127816892Y-127199108D02*
X128216891Y-127599107D01*
X128216891Y-127599107D02*
X128489895Y-127599107D01*
G04 #@! TO.N,PMOD8*
X137922000Y-130430410D02*
X139700000Y-132208410D01*
X137031590Y-124714000D02*
X137922000Y-125604410D01*
X139700000Y-137347692D02*
X139512308Y-137347692D01*
X134978314Y-122136677D02*
X134978314Y-125072314D01*
X137922000Y-128778000D02*
X137922000Y-130430410D01*
X135123347Y-121416653D02*
X135123347Y-121982338D01*
X139700000Y-132208410D02*
X139700000Y-137347692D01*
X135128000Y-125222000D02*
X136144000Y-125222000D01*
X135128000Y-121986991D02*
X134978314Y-122136677D01*
X134978314Y-125072314D02*
X135128000Y-125222000D01*
X137922000Y-125604410D02*
X137922000Y-128778000D01*
X136144000Y-125222000D02*
X136652000Y-124714000D01*
X136652000Y-124714000D02*
X137031590Y-124714000D01*
X139512308Y-137347692D02*
X139192000Y-137668000D01*
X135123347Y-121982338D02*
X135128000Y-121986991D01*
X131412999Y-138335001D02*
X130048000Y-139700000D01*
X139192000Y-137668000D02*
X138524999Y-138335001D01*
X138524999Y-138335001D02*
X131412999Y-138335001D01*
G04 #@! TO.N,PMOD3*
X130551347Y-121697787D02*
X130706227Y-121542907D01*
X130302000Y-121947134D02*
X130706227Y-121542907D01*
X130302000Y-126423412D02*
X130302000Y-121947134D01*
X129482010Y-129736010D02*
X129482009Y-129353599D01*
X129286000Y-127508000D02*
X129286000Y-127439412D01*
X129482009Y-129353599D02*
X128778000Y-128649590D01*
X129286000Y-127439412D02*
X130302000Y-126423412D01*
X128778000Y-128016000D02*
X129286000Y-127508000D01*
X128778000Y-128649590D02*
X128778000Y-128016000D01*
X129647999Y-129901999D02*
X129482010Y-129736010D01*
X129647999Y-130474022D02*
X129647999Y-129901999D01*
X129248000Y-130874021D02*
X129647999Y-130474022D01*
G04 #@! TO.N,PMOD9*
X135703315Y-124397772D02*
X136403087Y-123698000D01*
X136709002Y-123698000D02*
X137979002Y-124968000D01*
X136403087Y-123698000D02*
X136709002Y-123698000D01*
X137979002Y-124968000D02*
X137979002Y-125025002D01*
X137979002Y-125025002D02*
X138430000Y-125476000D01*
X138430000Y-125476000D02*
X138430000Y-129794000D01*
X138430000Y-129794000D02*
X138430000Y-130302000D01*
X138430000Y-130302000D02*
X140208000Y-132080000D01*
X140208000Y-132080000D02*
X140208000Y-137160000D01*
X140208000Y-137160000D02*
X140208000Y-137912694D01*
X140208000Y-137912694D02*
X140203347Y-137917347D01*
X141224000Y-138684000D02*
X141098410Y-138684000D01*
X141355653Y-138815653D02*
X141224000Y-138684000D01*
X135185990Y-139388010D02*
X134525001Y-140048999D01*
X134525001Y-142334999D02*
X133350000Y-143510000D01*
X141098410Y-138684000D02*
X140394400Y-139388010D01*
X140394400Y-139388010D02*
X135185990Y-139388010D01*
X134525001Y-140048999D02*
X134525001Y-142334999D01*
G04 #@! TO.N,PMOD4*
X132805001Y-125562001D02*
X132805001Y-122645001D01*
X133059001Y-125816001D02*
X132805001Y-125562001D01*
X133059001Y-129953316D02*
X133059001Y-125816001D01*
X134874000Y-132334000D02*
X134874000Y-131768315D01*
X134874000Y-131768315D02*
X133059001Y-129953316D01*
X131295812Y-119357812D02*
X131295812Y-118533461D01*
X132805001Y-122645001D02*
X132805001Y-120867001D01*
X132805001Y-120867001D02*
X131295812Y-119357812D01*
G04 #@! TO.N,PMOD10*
X131985001Y-142334999D02*
X131659999Y-142660001D01*
X132842000Y-138938000D02*
X131985001Y-139794999D01*
X140970000Y-138176000D02*
X140208000Y-138938000D01*
X140970000Y-132080000D02*
X140970000Y-138176000D01*
X139192000Y-124714000D02*
X138974999Y-124931001D01*
X131659999Y-142660001D02*
X130810000Y-143510000D01*
X139249990Y-130359990D02*
X140970000Y-132080000D01*
X131985001Y-139794999D02*
X131985001Y-142334999D01*
X138974999Y-124931001D02*
X138974999Y-129322999D01*
X138684000Y-124206000D02*
X139192000Y-124714000D01*
X139249990Y-129597990D02*
X139249990Y-130359990D01*
X140208000Y-138938000D02*
X132842000Y-138938000D01*
X138974999Y-129322999D02*
X139249990Y-129597990D01*
G04 #@! TO.N,D+*
X136644819Y-110144067D02*
X139700000Y-107088886D01*
X139700000Y-107088886D02*
X139700000Y-81534000D01*
X132899990Y-77412010D02*
X132080000Y-78232000D01*
X139435570Y-77412010D02*
X132899990Y-77412010D01*
X139700000Y-81534000D02*
X139700000Y-77676440D01*
X139700000Y-77676440D02*
X139435570Y-77412010D01*
G04 #@! TO.N,D-*
X137414000Y-110303382D02*
X140462000Y-107255382D01*
X137414000Y-110869067D02*
X137414000Y-110303382D01*
X140462000Y-107255382D02*
X140462000Y-77216000D01*
X140462000Y-77216000D02*
X140208000Y-76962000D01*
X140208000Y-76962000D02*
X132080000Y-76962000D01*
G04 #@! TO.N,BOOT1*
X124403339Y-113403913D02*
X125807426Y-114808000D01*
X124003340Y-107857134D02*
X124403339Y-108257133D01*
X124403339Y-108257133D02*
X124403339Y-113403913D01*
X125807426Y-114808000D02*
X129794000Y-114808000D01*
X129794000Y-114808000D02*
X132685762Y-117699762D01*
X132685762Y-117699762D02*
X134112000Y-117699762D01*
G04 #@! TO.N,LED*
X123278339Y-107509133D02*
X123853472Y-106934000D01*
X123278339Y-112915323D02*
X123278339Y-107509133D01*
X126041017Y-115678001D02*
X123278339Y-112915323D01*
X128524000Y-116078000D02*
X128124001Y-115678001D01*
X128124001Y-115678001D02*
X126041017Y-115678001D01*
X123853472Y-106934000D02*
X123952000Y-106934000D01*
X123952000Y-106934000D02*
X124206000Y-106680000D01*
X135277501Y-107079999D02*
X135677500Y-106680000D01*
X134915500Y-107442000D02*
X135277501Y-107079999D01*
X128524000Y-107442000D02*
X134915500Y-107442000D01*
X127508000Y-106426000D02*
X128524000Y-107442000D01*
G04 #@! TO.N,LED0*
X126600001Y-111868001D02*
X126600001Y-84944001D01*
X127000000Y-112268000D02*
X126600001Y-111868001D01*
X126600001Y-84944001D02*
X125476000Y-83820000D01*
X125476000Y-83820000D02*
X120904000Y-83820000D01*
G04 #@! TO.N,LED1*
X126445299Y-113100051D02*
X126238000Y-112892752D01*
X126238000Y-112892752D02*
X125984000Y-112638752D01*
X125984000Y-112638752D02*
X125984000Y-86868000D01*
X125984000Y-86868000D02*
X125476000Y-86360000D01*
X125476000Y-86360000D02*
X120904000Y-86360000D01*
G04 #@! TO.N,LED2*
X126097298Y-113825052D02*
X125476000Y-113203754D01*
X132588000Y-114300000D02*
X132113052Y-113825052D01*
X132113052Y-113825052D02*
X126097298Y-113825052D01*
X125476000Y-113203754D02*
X125476000Y-89916000D01*
X125476000Y-89916000D02*
X125476000Y-89662000D01*
X125476000Y-89662000D02*
X124714000Y-88900000D01*
X124714000Y-88900000D02*
X120904000Y-88900000D01*
G04 #@! TO.N,LED3*
X124968000Y-91694000D02*
X124714000Y-91440000D01*
X124968000Y-113332164D02*
X124968000Y-91694000D01*
X125935836Y-114300000D02*
X124968000Y-113332164D01*
X124714000Y-91440000D02*
X120904000Y-91440000D01*
X131514998Y-114300000D02*
X125935836Y-114300000D01*
X132842000Y-113538000D02*
X132878999Y-113574999D01*
X132878999Y-113574999D02*
X133132999Y-113574999D01*
X133132999Y-113574999D02*
X133313001Y-113755001D01*
X133313001Y-114648001D02*
X132936001Y-115025001D01*
X133313001Y-113755001D02*
X133313001Y-114648001D01*
X132239999Y-115025001D02*
X131514998Y-114300000D01*
X132936001Y-115025001D02*
X132239999Y-115025001D01*
G04 #@! TO.N,LED4*
X138430000Y-114046000D02*
X143256000Y-109220000D01*
X143256000Y-109220000D02*
X143256000Y-91440000D01*
G04 #@! TO.N,LED5*
X136042610Y-115328140D02*
X142404750Y-108966000D01*
X142404750Y-108966000D02*
X142494000Y-108966000D01*
X142494000Y-108966000D02*
X142494000Y-89662000D01*
X142494000Y-89662000D02*
X143256000Y-88900000D01*
G04 #@! TO.N,LED6*
X135649006Y-114648742D02*
X141585748Y-108712000D01*
X135082433Y-115048741D02*
X135482432Y-114648742D01*
X135482432Y-114648742D02*
X135649006Y-114648742D01*
X141585748Y-108712000D02*
X141585748Y-88030252D01*
X141585748Y-88030252D02*
X143256000Y-86360000D01*
G04 #@! TO.N,LED7*
X134556960Y-114197929D02*
X135230071Y-114197929D01*
X141135738Y-85940262D02*
X143256000Y-83820000D01*
X135230071Y-114197929D02*
X141135738Y-108292262D01*
X141135738Y-108292262D02*
X141135738Y-85940262D01*
G04 #@! TO.N,LEDW0*
X135008762Y-116974762D02*
X133164454Y-116974762D01*
X133164454Y-116974762D02*
X131266346Y-115076654D01*
X134253505Y-122120022D02*
X134253505Y-119238495D01*
X135008762Y-118483238D02*
X135008762Y-116974762D01*
X134253505Y-119238495D02*
X135008762Y-118483238D01*
G04 #@! TO.N,R0*
X131921825Y-111664175D02*
X134461825Y-111664175D01*
X138684000Y-107079580D02*
X138684000Y-106680000D01*
X134461825Y-111664175D02*
X134461825Y-111301755D01*
X134461825Y-111301755D02*
X138684000Y-107079580D01*
G04 #@! TO.N,G0*
X129604527Y-109960243D02*
X130388284Y-110744000D01*
X128898405Y-110360242D02*
X129298404Y-109960243D01*
X129298404Y-109960243D02*
X129604527Y-109960243D01*
X130388284Y-110744000D02*
X134112000Y-110744000D01*
X134112000Y-110744000D02*
X137922000Y-106934000D01*
X138567722Y-105723276D02*
X138975000Y-105723276D01*
X137922000Y-106934000D02*
X137922000Y-106368998D01*
X137922000Y-106368998D02*
X138567722Y-105723276D01*
G04 #@! TO.N,B0*
X128457499Y-109328001D02*
X129648001Y-109328001D01*
X128057500Y-109728000D02*
X128457499Y-109328001D01*
X129648001Y-109328001D02*
X130556000Y-110236000D01*
X130556000Y-110236000D02*
X133194502Y-110236000D01*
X133194502Y-110236000D02*
X133858000Y-110236000D01*
X133858000Y-110236000D02*
X137414000Y-106680000D01*
X137414000Y-106680000D02*
X137414000Y-105664000D01*
G04 #@! TD*
M02*
