G04 #@! TF.GenerationSoftware,KiCad,Pcbnew,5.0.2-bee76a0~70~ubuntu18.04.1*
G04 #@! TF.CreationDate,2019-11-16T15:20:31+01:00*
G04 #@! TF.ProjectId,Eierland,45696572-6c61-46e6-942e-6b696361645f,rev?*
G04 #@! TF.SameCoordinates,Original*
G04 #@! TF.FileFunction,Profile,NP*
%FSLAX46Y46*%
G04 Gerber Fmt 4.6, Leading zero omitted, Abs format (unit mm)*
G04 Created by KiCad (PCBNEW 5.0.2-bee76a0~70~ubuntu18.04.1) date za 16 nov 2019 15:20:31 CET*
%MOMM*%
%LPD*%
G01*
G04 APERTURE LIST*
%ADD10C,0.150000*%
%ADD11C,0.200000*%
G04 APERTURE END LIST*
D10*
X116840000Y-147320000D02*
G75*
G02X115570000Y-146050000I0J1270000D01*
G01*
X148590000Y-146050000D02*
G75*
G02X147320000Y-147320000I-1270000J0D01*
G01*
X146050000Y-93345000D02*
G75*
G02X144780000Y-92075000I0J1270000D01*
G01*
D11*
X115570000Y-94615000D02*
G75*
G02X116840000Y-93345000I1270000J0D01*
G01*
X119380000Y-92075000D02*
G75*
G02X118110000Y-93345000I-1270000J0D01*
G01*
X119380000Y-83185000D02*
G75*
G02X120650000Y-81915000I1270000J0D01*
G01*
X122555000Y-80645000D02*
G75*
G02X121285000Y-81915000I-1270000J0D01*
G01*
X142875000Y-81915000D02*
G75*
G02X141605000Y-80645000I0J1270000D01*
G01*
X143510000Y-81915000D02*
G75*
G02X144780000Y-83185000I0J-1270000D01*
G01*
X147320000Y-93345000D02*
G75*
G02X148590000Y-94615000I0J-1270000D01*
G01*
D10*
X136580880Y-69080380D02*
X136530080Y-67315080D01*
X127564310Y-69083453D02*
G75*
G03X122555000Y-77470000I4515690J-8386547D01*
G01*
X136595801Y-69083513D02*
G75*
G02X141605000Y-77470000I-4515801J-8386487D01*
G01*
X127635000Y-67310000D02*
X127576580Y-69082920D01*
X136525000Y-67310000D02*
X127635000Y-67310000D01*
X115570000Y-94615000D02*
X115570000Y-146050000D01*
X118110000Y-93345000D02*
X116840000Y-93345000D01*
X119380000Y-83185000D02*
X119380000Y-92075000D01*
X121285000Y-81915000D02*
X120650000Y-81915000D01*
X122555000Y-77470000D02*
X122555000Y-80645000D01*
X141605000Y-80645000D02*
X141605000Y-77470000D01*
X143510000Y-81915000D02*
X142875000Y-81915000D01*
X144780000Y-92075000D02*
X144780000Y-83185000D01*
X147320000Y-93345000D02*
X146050000Y-93345000D01*
X148590000Y-146050000D02*
X148590000Y-94615000D01*
X116840000Y-147320000D02*
X147320000Y-147320000D01*
M02*
