G04 #@! TF.GenerationSoftware,KiCad,Pcbnew,5.0.2-bee76a0~70~ubuntu18.04.1*
G04 #@! TF.CreationDate,2019-11-16T15:20:31+01:00*
G04 #@! TF.ProjectId,Eierland,45696572-6c61-46e6-942e-6b696361645f,rev?*
G04 #@! TF.SameCoordinates,Original*
G04 #@! TF.FileFunction,Soldermask,Bot*
G04 #@! TF.FilePolarity,Negative*
%FSLAX46Y46*%
G04 Gerber Fmt 4.6, Leading zero omitted, Abs format (unit mm)*
G04 Created by KiCad (PCBNEW 5.0.2-bee76a0~70~ubuntu18.04.1) date za 16 nov 2019 15:20:31 CET*
%MOMM*%
%LPD*%
G01*
G04 APERTURE LIST*
%ADD10C,0.150000*%
%ADD11C,0.100000*%
G04 APERTURE END LIST*
D10*
G36*
X131572000Y-126111000D02*
X131572000Y-127889000D01*
X132588000Y-127889000D01*
X132588000Y-126111000D01*
X131572000Y-126111000D01*
G37*
X131572000Y-126111000D02*
X131572000Y-127889000D01*
X132588000Y-127889000D01*
X132588000Y-126111000D01*
X131572000Y-126111000D01*
G36*
X131572000Y-103251000D02*
X131572000Y-105029000D01*
X132588000Y-105029000D01*
X132588000Y-103251000D01*
X131572000Y-103251000D01*
G37*
X131572000Y-103251000D02*
X131572000Y-105029000D01*
X132588000Y-105029000D01*
X132588000Y-103251000D01*
X131572000Y-103251000D01*
D11*
G36*
X125840442Y-142615518D02*
X125906627Y-142622037D01*
X126019853Y-142656384D01*
X126076467Y-142673557D01*
X126215087Y-142747652D01*
X126232991Y-142757222D01*
X126268729Y-142786552D01*
X126370186Y-142869814D01*
X126453448Y-142971271D01*
X126482778Y-143007009D01*
X126482779Y-143007011D01*
X126566443Y-143163533D01*
X126566443Y-143163534D01*
X126617963Y-143333373D01*
X126635359Y-143510000D01*
X126617963Y-143686627D01*
X126583616Y-143799853D01*
X126566443Y-143856467D01*
X126492348Y-143995087D01*
X126482778Y-144012991D01*
X126453448Y-144048729D01*
X126370186Y-144150186D01*
X126268729Y-144233448D01*
X126232991Y-144262778D01*
X126232989Y-144262779D01*
X126076467Y-144346443D01*
X126019853Y-144363616D01*
X125906627Y-144397963D01*
X125840443Y-144404481D01*
X125774260Y-144411000D01*
X125685740Y-144411000D01*
X125619557Y-144404481D01*
X125553373Y-144397963D01*
X125440147Y-144363616D01*
X125383533Y-144346443D01*
X125227011Y-144262779D01*
X125227009Y-144262778D01*
X125191271Y-144233448D01*
X125089814Y-144150186D01*
X125006552Y-144048729D01*
X124977222Y-144012991D01*
X124967652Y-143995087D01*
X124893557Y-143856467D01*
X124876384Y-143799853D01*
X124842037Y-143686627D01*
X124824641Y-143510000D01*
X124842037Y-143333373D01*
X124893557Y-143163534D01*
X124893557Y-143163533D01*
X124977221Y-143007011D01*
X124977222Y-143007009D01*
X125006552Y-142971271D01*
X125089814Y-142869814D01*
X125191271Y-142786552D01*
X125227009Y-142757222D01*
X125244913Y-142747652D01*
X125383533Y-142673557D01*
X125440147Y-142656384D01*
X125553373Y-142622037D01*
X125619558Y-142615518D01*
X125685740Y-142609000D01*
X125774260Y-142609000D01*
X125840442Y-142615518D01*
X125840442Y-142615518D01*
G37*
G36*
X136000442Y-142615518D02*
X136066627Y-142622037D01*
X136179853Y-142656384D01*
X136236467Y-142673557D01*
X136375087Y-142747652D01*
X136392991Y-142757222D01*
X136428729Y-142786552D01*
X136530186Y-142869814D01*
X136613448Y-142971271D01*
X136642778Y-143007009D01*
X136642779Y-143007011D01*
X136726443Y-143163533D01*
X136726443Y-143163534D01*
X136777963Y-143333373D01*
X136795359Y-143510000D01*
X136777963Y-143686627D01*
X136743616Y-143799853D01*
X136726443Y-143856467D01*
X136652348Y-143995087D01*
X136642778Y-144012991D01*
X136613448Y-144048729D01*
X136530186Y-144150186D01*
X136428729Y-144233448D01*
X136392991Y-144262778D01*
X136392989Y-144262779D01*
X136236467Y-144346443D01*
X136179853Y-144363616D01*
X136066627Y-144397963D01*
X136000443Y-144404481D01*
X135934260Y-144411000D01*
X135845740Y-144411000D01*
X135779557Y-144404481D01*
X135713373Y-144397963D01*
X135600147Y-144363616D01*
X135543533Y-144346443D01*
X135387011Y-144262779D01*
X135387009Y-144262778D01*
X135351271Y-144233448D01*
X135249814Y-144150186D01*
X135166552Y-144048729D01*
X135137222Y-144012991D01*
X135127652Y-143995087D01*
X135053557Y-143856467D01*
X135036384Y-143799853D01*
X135002037Y-143686627D01*
X134984641Y-143510000D01*
X135002037Y-143333373D01*
X135053557Y-143163534D01*
X135053557Y-143163533D01*
X135137221Y-143007011D01*
X135137222Y-143007009D01*
X135166552Y-142971271D01*
X135249814Y-142869814D01*
X135351271Y-142786552D01*
X135387009Y-142757222D01*
X135404913Y-142747652D01*
X135543533Y-142673557D01*
X135600147Y-142656384D01*
X135713373Y-142622037D01*
X135779558Y-142615518D01*
X135845740Y-142609000D01*
X135934260Y-142609000D01*
X136000442Y-142615518D01*
X136000442Y-142615518D01*
G37*
G36*
X138540442Y-142615518D02*
X138606627Y-142622037D01*
X138719853Y-142656384D01*
X138776467Y-142673557D01*
X138915087Y-142747652D01*
X138932991Y-142757222D01*
X138968729Y-142786552D01*
X139070186Y-142869814D01*
X139153448Y-142971271D01*
X139182778Y-143007009D01*
X139182779Y-143007011D01*
X139266443Y-143163533D01*
X139266443Y-143163534D01*
X139317963Y-143333373D01*
X139335359Y-143510000D01*
X139317963Y-143686627D01*
X139283616Y-143799853D01*
X139266443Y-143856467D01*
X139192348Y-143995087D01*
X139182778Y-144012991D01*
X139153448Y-144048729D01*
X139070186Y-144150186D01*
X138968729Y-144233448D01*
X138932991Y-144262778D01*
X138932989Y-144262779D01*
X138776467Y-144346443D01*
X138719853Y-144363616D01*
X138606627Y-144397963D01*
X138540443Y-144404481D01*
X138474260Y-144411000D01*
X138385740Y-144411000D01*
X138319557Y-144404481D01*
X138253373Y-144397963D01*
X138140147Y-144363616D01*
X138083533Y-144346443D01*
X137927011Y-144262779D01*
X137927009Y-144262778D01*
X137891271Y-144233448D01*
X137789814Y-144150186D01*
X137706552Y-144048729D01*
X137677222Y-144012991D01*
X137667652Y-143995087D01*
X137593557Y-143856467D01*
X137576384Y-143799853D01*
X137542037Y-143686627D01*
X137524641Y-143510000D01*
X137542037Y-143333373D01*
X137593557Y-143163534D01*
X137593557Y-143163533D01*
X137677221Y-143007011D01*
X137677222Y-143007009D01*
X137706552Y-142971271D01*
X137789814Y-142869814D01*
X137891271Y-142786552D01*
X137927009Y-142757222D01*
X137944913Y-142747652D01*
X138083533Y-142673557D01*
X138140147Y-142656384D01*
X138253373Y-142622037D01*
X138319558Y-142615518D01*
X138385740Y-142609000D01*
X138474260Y-142609000D01*
X138540442Y-142615518D01*
X138540442Y-142615518D01*
G37*
G36*
X133460442Y-142615518D02*
X133526627Y-142622037D01*
X133639853Y-142656384D01*
X133696467Y-142673557D01*
X133835087Y-142747652D01*
X133852991Y-142757222D01*
X133888729Y-142786552D01*
X133990186Y-142869814D01*
X134073448Y-142971271D01*
X134102778Y-143007009D01*
X134102779Y-143007011D01*
X134186443Y-143163533D01*
X134186443Y-143163534D01*
X134237963Y-143333373D01*
X134255359Y-143510000D01*
X134237963Y-143686627D01*
X134203616Y-143799853D01*
X134186443Y-143856467D01*
X134112348Y-143995087D01*
X134102778Y-144012991D01*
X134073448Y-144048729D01*
X133990186Y-144150186D01*
X133888729Y-144233448D01*
X133852991Y-144262778D01*
X133852989Y-144262779D01*
X133696467Y-144346443D01*
X133639853Y-144363616D01*
X133526627Y-144397963D01*
X133460443Y-144404481D01*
X133394260Y-144411000D01*
X133305740Y-144411000D01*
X133239557Y-144404481D01*
X133173373Y-144397963D01*
X133060147Y-144363616D01*
X133003533Y-144346443D01*
X132847011Y-144262779D01*
X132847009Y-144262778D01*
X132811271Y-144233448D01*
X132709814Y-144150186D01*
X132626552Y-144048729D01*
X132597222Y-144012991D01*
X132587652Y-143995087D01*
X132513557Y-143856467D01*
X132496384Y-143799853D01*
X132462037Y-143686627D01*
X132444641Y-143510000D01*
X132462037Y-143333373D01*
X132513557Y-143163534D01*
X132513557Y-143163533D01*
X132597221Y-143007011D01*
X132597222Y-143007009D01*
X132626552Y-142971271D01*
X132709814Y-142869814D01*
X132811271Y-142786552D01*
X132847009Y-142757222D01*
X132864913Y-142747652D01*
X133003533Y-142673557D01*
X133060147Y-142656384D01*
X133173373Y-142622037D01*
X133239558Y-142615518D01*
X133305740Y-142609000D01*
X133394260Y-142609000D01*
X133460442Y-142615518D01*
X133460442Y-142615518D01*
G37*
G36*
X130920442Y-142615518D02*
X130986627Y-142622037D01*
X131099853Y-142656384D01*
X131156467Y-142673557D01*
X131295087Y-142747652D01*
X131312991Y-142757222D01*
X131348729Y-142786552D01*
X131450186Y-142869814D01*
X131533448Y-142971271D01*
X131562778Y-143007009D01*
X131562779Y-143007011D01*
X131646443Y-143163533D01*
X131646443Y-143163534D01*
X131697963Y-143333373D01*
X131715359Y-143510000D01*
X131697963Y-143686627D01*
X131663616Y-143799853D01*
X131646443Y-143856467D01*
X131572348Y-143995087D01*
X131562778Y-144012991D01*
X131533448Y-144048729D01*
X131450186Y-144150186D01*
X131348729Y-144233448D01*
X131312991Y-144262778D01*
X131312989Y-144262779D01*
X131156467Y-144346443D01*
X131099853Y-144363616D01*
X130986627Y-144397963D01*
X130920443Y-144404481D01*
X130854260Y-144411000D01*
X130765740Y-144411000D01*
X130699557Y-144404481D01*
X130633373Y-144397963D01*
X130520147Y-144363616D01*
X130463533Y-144346443D01*
X130307011Y-144262779D01*
X130307009Y-144262778D01*
X130271271Y-144233448D01*
X130169814Y-144150186D01*
X130086552Y-144048729D01*
X130057222Y-144012991D01*
X130047652Y-143995087D01*
X129973557Y-143856467D01*
X129956384Y-143799853D01*
X129922037Y-143686627D01*
X129904641Y-143510000D01*
X129922037Y-143333373D01*
X129973557Y-143163534D01*
X129973557Y-143163533D01*
X130057221Y-143007011D01*
X130057222Y-143007009D01*
X130086552Y-142971271D01*
X130169814Y-142869814D01*
X130271271Y-142786552D01*
X130307009Y-142757222D01*
X130324913Y-142747652D01*
X130463533Y-142673557D01*
X130520147Y-142656384D01*
X130633373Y-142622037D01*
X130699558Y-142615518D01*
X130765740Y-142609000D01*
X130854260Y-142609000D01*
X130920442Y-142615518D01*
X130920442Y-142615518D01*
G37*
G36*
X128380442Y-142615518D02*
X128446627Y-142622037D01*
X128559853Y-142656384D01*
X128616467Y-142673557D01*
X128755087Y-142747652D01*
X128772991Y-142757222D01*
X128808729Y-142786552D01*
X128910186Y-142869814D01*
X128993448Y-142971271D01*
X129022778Y-143007009D01*
X129022779Y-143007011D01*
X129106443Y-143163533D01*
X129106443Y-143163534D01*
X129157963Y-143333373D01*
X129175359Y-143510000D01*
X129157963Y-143686627D01*
X129123616Y-143799853D01*
X129106443Y-143856467D01*
X129032348Y-143995087D01*
X129022778Y-144012991D01*
X128993448Y-144048729D01*
X128910186Y-144150186D01*
X128808729Y-144233448D01*
X128772991Y-144262778D01*
X128772989Y-144262779D01*
X128616467Y-144346443D01*
X128559853Y-144363616D01*
X128446627Y-144397963D01*
X128380443Y-144404481D01*
X128314260Y-144411000D01*
X128225740Y-144411000D01*
X128159557Y-144404481D01*
X128093373Y-144397963D01*
X127980147Y-144363616D01*
X127923533Y-144346443D01*
X127767011Y-144262779D01*
X127767009Y-144262778D01*
X127731271Y-144233448D01*
X127629814Y-144150186D01*
X127546552Y-144048729D01*
X127517222Y-144012991D01*
X127507652Y-143995087D01*
X127433557Y-143856467D01*
X127416384Y-143799853D01*
X127382037Y-143686627D01*
X127364641Y-143510000D01*
X127382037Y-143333373D01*
X127433557Y-143163534D01*
X127433557Y-143163533D01*
X127517221Y-143007011D01*
X127517222Y-143007009D01*
X127546552Y-142971271D01*
X127629814Y-142869814D01*
X127731271Y-142786552D01*
X127767009Y-142757222D01*
X127784913Y-142747652D01*
X127923533Y-142673557D01*
X127980147Y-142656384D01*
X128093373Y-142622037D01*
X128159558Y-142615518D01*
X128225740Y-142609000D01*
X128314260Y-142609000D01*
X128380442Y-142615518D01*
X128380442Y-142615518D01*
G37*
G36*
X133460443Y-140075519D02*
X133526627Y-140082037D01*
X133639853Y-140116384D01*
X133696467Y-140133557D01*
X133835087Y-140207652D01*
X133852991Y-140217222D01*
X133888729Y-140246552D01*
X133990186Y-140329814D01*
X134073448Y-140431271D01*
X134102778Y-140467009D01*
X134102779Y-140467011D01*
X134186443Y-140623533D01*
X134186443Y-140623534D01*
X134237963Y-140793373D01*
X134255359Y-140970000D01*
X134237963Y-141146627D01*
X134203616Y-141259853D01*
X134186443Y-141316467D01*
X134112348Y-141455087D01*
X134102778Y-141472991D01*
X134073448Y-141508729D01*
X133990186Y-141610186D01*
X133888729Y-141693448D01*
X133852991Y-141722778D01*
X133852989Y-141722779D01*
X133696467Y-141806443D01*
X133639853Y-141823616D01*
X133526627Y-141857963D01*
X133460443Y-141864481D01*
X133394260Y-141871000D01*
X133305740Y-141871000D01*
X133239557Y-141864481D01*
X133173373Y-141857963D01*
X133060147Y-141823616D01*
X133003533Y-141806443D01*
X132847011Y-141722779D01*
X132847009Y-141722778D01*
X132811271Y-141693448D01*
X132709814Y-141610186D01*
X132626552Y-141508729D01*
X132597222Y-141472991D01*
X132587652Y-141455087D01*
X132513557Y-141316467D01*
X132496384Y-141259853D01*
X132462037Y-141146627D01*
X132444641Y-140970000D01*
X132462037Y-140793373D01*
X132513557Y-140623534D01*
X132513557Y-140623533D01*
X132597221Y-140467011D01*
X132597222Y-140467009D01*
X132626552Y-140431271D01*
X132709814Y-140329814D01*
X132811271Y-140246552D01*
X132847009Y-140217222D01*
X132864913Y-140207652D01*
X133003533Y-140133557D01*
X133060147Y-140116384D01*
X133173373Y-140082037D01*
X133239557Y-140075519D01*
X133305740Y-140069000D01*
X133394260Y-140069000D01*
X133460443Y-140075519D01*
X133460443Y-140075519D01*
G37*
G36*
X125840443Y-140075519D02*
X125906627Y-140082037D01*
X126019853Y-140116384D01*
X126076467Y-140133557D01*
X126215087Y-140207652D01*
X126232991Y-140217222D01*
X126268729Y-140246552D01*
X126370186Y-140329814D01*
X126453448Y-140431271D01*
X126482778Y-140467009D01*
X126482779Y-140467011D01*
X126566443Y-140623533D01*
X126566443Y-140623534D01*
X126617963Y-140793373D01*
X126635359Y-140970000D01*
X126617963Y-141146627D01*
X126583616Y-141259853D01*
X126566443Y-141316467D01*
X126492348Y-141455087D01*
X126482778Y-141472991D01*
X126453448Y-141508729D01*
X126370186Y-141610186D01*
X126268729Y-141693448D01*
X126232991Y-141722778D01*
X126232989Y-141722779D01*
X126076467Y-141806443D01*
X126019853Y-141823616D01*
X125906627Y-141857963D01*
X125840443Y-141864481D01*
X125774260Y-141871000D01*
X125685740Y-141871000D01*
X125619557Y-141864481D01*
X125553373Y-141857963D01*
X125440147Y-141823616D01*
X125383533Y-141806443D01*
X125227011Y-141722779D01*
X125227009Y-141722778D01*
X125191271Y-141693448D01*
X125089814Y-141610186D01*
X125006552Y-141508729D01*
X124977222Y-141472991D01*
X124967652Y-141455087D01*
X124893557Y-141316467D01*
X124876384Y-141259853D01*
X124842037Y-141146627D01*
X124824641Y-140970000D01*
X124842037Y-140793373D01*
X124893557Y-140623534D01*
X124893557Y-140623533D01*
X124977221Y-140467011D01*
X124977222Y-140467009D01*
X125006552Y-140431271D01*
X125089814Y-140329814D01*
X125191271Y-140246552D01*
X125227009Y-140217222D01*
X125244913Y-140207652D01*
X125383533Y-140133557D01*
X125440147Y-140116384D01*
X125553373Y-140082037D01*
X125619557Y-140075519D01*
X125685740Y-140069000D01*
X125774260Y-140069000D01*
X125840443Y-140075519D01*
X125840443Y-140075519D01*
G37*
G36*
X128380443Y-140075519D02*
X128446627Y-140082037D01*
X128559853Y-140116384D01*
X128616467Y-140133557D01*
X128755087Y-140207652D01*
X128772991Y-140217222D01*
X128808729Y-140246552D01*
X128910186Y-140329814D01*
X128993448Y-140431271D01*
X129022778Y-140467009D01*
X129022779Y-140467011D01*
X129106443Y-140623533D01*
X129106443Y-140623534D01*
X129157963Y-140793373D01*
X129175359Y-140970000D01*
X129157963Y-141146627D01*
X129123616Y-141259853D01*
X129106443Y-141316467D01*
X129032348Y-141455087D01*
X129022778Y-141472991D01*
X128993448Y-141508729D01*
X128910186Y-141610186D01*
X128808729Y-141693448D01*
X128772991Y-141722778D01*
X128772989Y-141722779D01*
X128616467Y-141806443D01*
X128559853Y-141823616D01*
X128446627Y-141857963D01*
X128380443Y-141864481D01*
X128314260Y-141871000D01*
X128225740Y-141871000D01*
X128159557Y-141864481D01*
X128093373Y-141857963D01*
X127980147Y-141823616D01*
X127923533Y-141806443D01*
X127767011Y-141722779D01*
X127767009Y-141722778D01*
X127731271Y-141693448D01*
X127629814Y-141610186D01*
X127546552Y-141508729D01*
X127517222Y-141472991D01*
X127507652Y-141455087D01*
X127433557Y-141316467D01*
X127416384Y-141259853D01*
X127382037Y-141146627D01*
X127364641Y-140970000D01*
X127382037Y-140793373D01*
X127433557Y-140623534D01*
X127433557Y-140623533D01*
X127517221Y-140467011D01*
X127517222Y-140467009D01*
X127546552Y-140431271D01*
X127629814Y-140329814D01*
X127731271Y-140246552D01*
X127767009Y-140217222D01*
X127784913Y-140207652D01*
X127923533Y-140133557D01*
X127980147Y-140116384D01*
X128093373Y-140082037D01*
X128159557Y-140075519D01*
X128225740Y-140069000D01*
X128314260Y-140069000D01*
X128380443Y-140075519D01*
X128380443Y-140075519D01*
G37*
G36*
X130920443Y-140075519D02*
X130986627Y-140082037D01*
X131099853Y-140116384D01*
X131156467Y-140133557D01*
X131295087Y-140207652D01*
X131312991Y-140217222D01*
X131348729Y-140246552D01*
X131450186Y-140329814D01*
X131533448Y-140431271D01*
X131562778Y-140467009D01*
X131562779Y-140467011D01*
X131646443Y-140623533D01*
X131646443Y-140623534D01*
X131697963Y-140793373D01*
X131715359Y-140970000D01*
X131697963Y-141146627D01*
X131663616Y-141259853D01*
X131646443Y-141316467D01*
X131572348Y-141455087D01*
X131562778Y-141472991D01*
X131533448Y-141508729D01*
X131450186Y-141610186D01*
X131348729Y-141693448D01*
X131312991Y-141722778D01*
X131312989Y-141722779D01*
X131156467Y-141806443D01*
X131099853Y-141823616D01*
X130986627Y-141857963D01*
X130920443Y-141864481D01*
X130854260Y-141871000D01*
X130765740Y-141871000D01*
X130699557Y-141864481D01*
X130633373Y-141857963D01*
X130520147Y-141823616D01*
X130463533Y-141806443D01*
X130307011Y-141722779D01*
X130307009Y-141722778D01*
X130271271Y-141693448D01*
X130169814Y-141610186D01*
X130086552Y-141508729D01*
X130057222Y-141472991D01*
X130047652Y-141455087D01*
X129973557Y-141316467D01*
X129956384Y-141259853D01*
X129922037Y-141146627D01*
X129904641Y-140970000D01*
X129922037Y-140793373D01*
X129973557Y-140623534D01*
X129973557Y-140623533D01*
X130057221Y-140467011D01*
X130057222Y-140467009D01*
X130086552Y-140431271D01*
X130169814Y-140329814D01*
X130271271Y-140246552D01*
X130307009Y-140217222D01*
X130324913Y-140207652D01*
X130463533Y-140133557D01*
X130520147Y-140116384D01*
X130633373Y-140082037D01*
X130699557Y-140075519D01*
X130765740Y-140069000D01*
X130854260Y-140069000D01*
X130920443Y-140075519D01*
X130920443Y-140075519D01*
G37*
G36*
X136000443Y-140075519D02*
X136066627Y-140082037D01*
X136179853Y-140116384D01*
X136236467Y-140133557D01*
X136375087Y-140207652D01*
X136392991Y-140217222D01*
X136428729Y-140246552D01*
X136530186Y-140329814D01*
X136613448Y-140431271D01*
X136642778Y-140467009D01*
X136642779Y-140467011D01*
X136726443Y-140623533D01*
X136726443Y-140623534D01*
X136777963Y-140793373D01*
X136795359Y-140970000D01*
X136777963Y-141146627D01*
X136743616Y-141259853D01*
X136726443Y-141316467D01*
X136652348Y-141455087D01*
X136642778Y-141472991D01*
X136613448Y-141508729D01*
X136530186Y-141610186D01*
X136428729Y-141693448D01*
X136392991Y-141722778D01*
X136392989Y-141722779D01*
X136236467Y-141806443D01*
X136179853Y-141823616D01*
X136066627Y-141857963D01*
X136000443Y-141864481D01*
X135934260Y-141871000D01*
X135845740Y-141871000D01*
X135779557Y-141864481D01*
X135713373Y-141857963D01*
X135600147Y-141823616D01*
X135543533Y-141806443D01*
X135387011Y-141722779D01*
X135387009Y-141722778D01*
X135351271Y-141693448D01*
X135249814Y-141610186D01*
X135166552Y-141508729D01*
X135137222Y-141472991D01*
X135127652Y-141455087D01*
X135053557Y-141316467D01*
X135036384Y-141259853D01*
X135002037Y-141146627D01*
X134984641Y-140970000D01*
X135002037Y-140793373D01*
X135053557Y-140623534D01*
X135053557Y-140623533D01*
X135137221Y-140467011D01*
X135137222Y-140467009D01*
X135166552Y-140431271D01*
X135249814Y-140329814D01*
X135351271Y-140246552D01*
X135387009Y-140217222D01*
X135404913Y-140207652D01*
X135543533Y-140133557D01*
X135600147Y-140116384D01*
X135713373Y-140082037D01*
X135779557Y-140075519D01*
X135845740Y-140069000D01*
X135934260Y-140069000D01*
X136000443Y-140075519D01*
X136000443Y-140075519D01*
G37*
G36*
X139331000Y-141871000D02*
X137529000Y-141871000D01*
X137529000Y-140069000D01*
X139331000Y-140069000D01*
X139331000Y-141871000D01*
X139331000Y-141871000D01*
G37*
G36*
X133460443Y-136265519D02*
X133526627Y-136272037D01*
X133639853Y-136306384D01*
X133696467Y-136323557D01*
X133835087Y-136397652D01*
X133852991Y-136407222D01*
X133888729Y-136436552D01*
X133990186Y-136519814D01*
X134073448Y-136621271D01*
X134102778Y-136657009D01*
X134102779Y-136657011D01*
X134186443Y-136813533D01*
X134186443Y-136813534D01*
X134237963Y-136983373D01*
X134255359Y-137160000D01*
X134237963Y-137336627D01*
X134203616Y-137449853D01*
X134186443Y-137506467D01*
X134112348Y-137645087D01*
X134102778Y-137662991D01*
X134073448Y-137698729D01*
X133990186Y-137800186D01*
X133888729Y-137883448D01*
X133852991Y-137912778D01*
X133852989Y-137912779D01*
X133696467Y-137996443D01*
X133639853Y-138013616D01*
X133526627Y-138047963D01*
X133460442Y-138054482D01*
X133394260Y-138061000D01*
X133305740Y-138061000D01*
X133239558Y-138054482D01*
X133173373Y-138047963D01*
X133060147Y-138013616D01*
X133003533Y-137996443D01*
X132847011Y-137912779D01*
X132847009Y-137912778D01*
X132811271Y-137883448D01*
X132709814Y-137800186D01*
X132626552Y-137698729D01*
X132597222Y-137662991D01*
X132587652Y-137645087D01*
X132513557Y-137506467D01*
X132496384Y-137449853D01*
X132462037Y-137336627D01*
X132444641Y-137160000D01*
X132462037Y-136983373D01*
X132513557Y-136813534D01*
X132513557Y-136813533D01*
X132597221Y-136657011D01*
X132597222Y-136657009D01*
X132626552Y-136621271D01*
X132709814Y-136519814D01*
X132811271Y-136436552D01*
X132847009Y-136407222D01*
X132864913Y-136397652D01*
X133003533Y-136323557D01*
X133060147Y-136306384D01*
X133173373Y-136272037D01*
X133239557Y-136265519D01*
X133305740Y-136259000D01*
X133394260Y-136259000D01*
X133460443Y-136265519D01*
X133460443Y-136265519D01*
G37*
G36*
X130920443Y-136265519D02*
X130986627Y-136272037D01*
X131099853Y-136306384D01*
X131156467Y-136323557D01*
X131295087Y-136397652D01*
X131312991Y-136407222D01*
X131348729Y-136436552D01*
X131450186Y-136519814D01*
X131533448Y-136621271D01*
X131562778Y-136657009D01*
X131562779Y-136657011D01*
X131646443Y-136813533D01*
X131646443Y-136813534D01*
X131697963Y-136983373D01*
X131715359Y-137160000D01*
X131697963Y-137336627D01*
X131663616Y-137449853D01*
X131646443Y-137506467D01*
X131572348Y-137645087D01*
X131562778Y-137662991D01*
X131533448Y-137698729D01*
X131450186Y-137800186D01*
X131348729Y-137883448D01*
X131312991Y-137912778D01*
X131312989Y-137912779D01*
X131156467Y-137996443D01*
X131099853Y-138013616D01*
X130986627Y-138047963D01*
X130920442Y-138054482D01*
X130854260Y-138061000D01*
X130765740Y-138061000D01*
X130699558Y-138054482D01*
X130633373Y-138047963D01*
X130520147Y-138013616D01*
X130463533Y-137996443D01*
X130307011Y-137912779D01*
X130307009Y-137912778D01*
X130271271Y-137883448D01*
X130169814Y-137800186D01*
X130086552Y-137698729D01*
X130057222Y-137662991D01*
X130047652Y-137645087D01*
X129973557Y-137506467D01*
X129956384Y-137449853D01*
X129922037Y-137336627D01*
X129904641Y-137160000D01*
X129922037Y-136983373D01*
X129973557Y-136813534D01*
X129973557Y-136813533D01*
X130057221Y-136657011D01*
X130057222Y-136657009D01*
X130086552Y-136621271D01*
X130169814Y-136519814D01*
X130271271Y-136436552D01*
X130307009Y-136407222D01*
X130324913Y-136397652D01*
X130463533Y-136323557D01*
X130520147Y-136306384D01*
X130633373Y-136272037D01*
X130699557Y-136265519D01*
X130765740Y-136259000D01*
X130854260Y-136259000D01*
X130920443Y-136265519D01*
X130920443Y-136265519D01*
G37*
G36*
X133460443Y-133725519D02*
X133526627Y-133732037D01*
X133639853Y-133766384D01*
X133696467Y-133783557D01*
X133835087Y-133857652D01*
X133852991Y-133867222D01*
X133888729Y-133896552D01*
X133990186Y-133979814D01*
X134073448Y-134081271D01*
X134102778Y-134117009D01*
X134102779Y-134117011D01*
X134186443Y-134273533D01*
X134186443Y-134273534D01*
X134237963Y-134443373D01*
X134255359Y-134620000D01*
X134237963Y-134796627D01*
X134203616Y-134909853D01*
X134186443Y-134966467D01*
X134112348Y-135105087D01*
X134102778Y-135122991D01*
X134073448Y-135158729D01*
X133990186Y-135260186D01*
X133888729Y-135343448D01*
X133852991Y-135372778D01*
X133852989Y-135372779D01*
X133696467Y-135456443D01*
X133639853Y-135473616D01*
X133526627Y-135507963D01*
X133460443Y-135514481D01*
X133394260Y-135521000D01*
X133305740Y-135521000D01*
X133239557Y-135514481D01*
X133173373Y-135507963D01*
X133060147Y-135473616D01*
X133003533Y-135456443D01*
X132847011Y-135372779D01*
X132847009Y-135372778D01*
X132811271Y-135343448D01*
X132709814Y-135260186D01*
X132626552Y-135158729D01*
X132597222Y-135122991D01*
X132587652Y-135105087D01*
X132513557Y-134966467D01*
X132496384Y-134909853D01*
X132462037Y-134796627D01*
X132444641Y-134620000D01*
X132462037Y-134443373D01*
X132513557Y-134273534D01*
X132513557Y-134273533D01*
X132597221Y-134117011D01*
X132597222Y-134117009D01*
X132626552Y-134081271D01*
X132709814Y-133979814D01*
X132811271Y-133896552D01*
X132847009Y-133867222D01*
X132864913Y-133857652D01*
X133003533Y-133783557D01*
X133060147Y-133766384D01*
X133173373Y-133732037D01*
X133239557Y-133725519D01*
X133305740Y-133719000D01*
X133394260Y-133719000D01*
X133460443Y-133725519D01*
X133460443Y-133725519D01*
G37*
G36*
X130920443Y-133725519D02*
X130986627Y-133732037D01*
X131099853Y-133766384D01*
X131156467Y-133783557D01*
X131295087Y-133857652D01*
X131312991Y-133867222D01*
X131348729Y-133896552D01*
X131450186Y-133979814D01*
X131533448Y-134081271D01*
X131562778Y-134117009D01*
X131562779Y-134117011D01*
X131646443Y-134273533D01*
X131646443Y-134273534D01*
X131697963Y-134443373D01*
X131715359Y-134620000D01*
X131697963Y-134796627D01*
X131663616Y-134909853D01*
X131646443Y-134966467D01*
X131572348Y-135105087D01*
X131562778Y-135122991D01*
X131533448Y-135158729D01*
X131450186Y-135260186D01*
X131348729Y-135343448D01*
X131312991Y-135372778D01*
X131312989Y-135372779D01*
X131156467Y-135456443D01*
X131099853Y-135473616D01*
X130986627Y-135507963D01*
X130920443Y-135514481D01*
X130854260Y-135521000D01*
X130765740Y-135521000D01*
X130699557Y-135514481D01*
X130633373Y-135507963D01*
X130520147Y-135473616D01*
X130463533Y-135456443D01*
X130307011Y-135372779D01*
X130307009Y-135372778D01*
X130271271Y-135343448D01*
X130169814Y-135260186D01*
X130086552Y-135158729D01*
X130057222Y-135122991D01*
X130047652Y-135105087D01*
X129973557Y-134966467D01*
X129956384Y-134909853D01*
X129922037Y-134796627D01*
X129904641Y-134620000D01*
X129922037Y-134443373D01*
X129973557Y-134273534D01*
X129973557Y-134273533D01*
X130057221Y-134117011D01*
X130057222Y-134117009D01*
X130086552Y-134081271D01*
X130169814Y-133979814D01*
X130271271Y-133896552D01*
X130307009Y-133867222D01*
X130324913Y-133857652D01*
X130463533Y-133783557D01*
X130520147Y-133766384D01*
X130633373Y-133732037D01*
X130699557Y-133725519D01*
X130765740Y-133719000D01*
X130854260Y-133719000D01*
X130920443Y-133725519D01*
X130920443Y-133725519D01*
G37*
G36*
X131711000Y-132981000D02*
X129909000Y-132981000D01*
X129909000Y-131179000D01*
X131711000Y-131179000D01*
X131711000Y-132981000D01*
X131711000Y-132981000D01*
G37*
G36*
X133460442Y-131185518D02*
X133526627Y-131192037D01*
X133639853Y-131226384D01*
X133696467Y-131243557D01*
X133835087Y-131317652D01*
X133852991Y-131327222D01*
X133888729Y-131356552D01*
X133990186Y-131439814D01*
X134073448Y-131541271D01*
X134102778Y-131577009D01*
X134102779Y-131577011D01*
X134186443Y-131733533D01*
X134186443Y-131733534D01*
X134237963Y-131903373D01*
X134255359Y-132080000D01*
X134237963Y-132256627D01*
X134203616Y-132369853D01*
X134186443Y-132426467D01*
X134112348Y-132565087D01*
X134102778Y-132582991D01*
X134073448Y-132618729D01*
X133990186Y-132720186D01*
X133888729Y-132803448D01*
X133852991Y-132832778D01*
X133852989Y-132832779D01*
X133696467Y-132916443D01*
X133639853Y-132933616D01*
X133526627Y-132967963D01*
X133460443Y-132974481D01*
X133394260Y-132981000D01*
X133305740Y-132981000D01*
X133239557Y-132974481D01*
X133173373Y-132967963D01*
X133060147Y-132933616D01*
X133003533Y-132916443D01*
X132847011Y-132832779D01*
X132847009Y-132832778D01*
X132811271Y-132803448D01*
X132709814Y-132720186D01*
X132626552Y-132618729D01*
X132597222Y-132582991D01*
X132587652Y-132565087D01*
X132513557Y-132426467D01*
X132496384Y-132369853D01*
X132462037Y-132256627D01*
X132444641Y-132080000D01*
X132462037Y-131903373D01*
X132513557Y-131733534D01*
X132513557Y-131733533D01*
X132597221Y-131577011D01*
X132597222Y-131577009D01*
X132626552Y-131541271D01*
X132709814Y-131439814D01*
X132811271Y-131356552D01*
X132847009Y-131327222D01*
X132864913Y-131317652D01*
X133003533Y-131243557D01*
X133060147Y-131226384D01*
X133173373Y-131192037D01*
X133239558Y-131185518D01*
X133305740Y-131179000D01*
X133394260Y-131179000D01*
X133460442Y-131185518D01*
X133460442Y-131185518D01*
G37*
G36*
X133460443Y-93085519D02*
X133526627Y-93092037D01*
X133639853Y-93126384D01*
X133696467Y-93143557D01*
X133835087Y-93217652D01*
X133852991Y-93227222D01*
X133888729Y-93256552D01*
X133990186Y-93339814D01*
X134073448Y-93441271D01*
X134102778Y-93477009D01*
X134102779Y-93477011D01*
X134186443Y-93633533D01*
X134186443Y-93633534D01*
X134237963Y-93803373D01*
X134255359Y-93980000D01*
X134237963Y-94156627D01*
X134203616Y-94269853D01*
X134186443Y-94326467D01*
X134112348Y-94465087D01*
X134102778Y-94482991D01*
X134073448Y-94518729D01*
X133990186Y-94620186D01*
X133888729Y-94703448D01*
X133852991Y-94732778D01*
X133852989Y-94732779D01*
X133696467Y-94816443D01*
X133639853Y-94833616D01*
X133526627Y-94867963D01*
X133460443Y-94874481D01*
X133394260Y-94881000D01*
X133305740Y-94881000D01*
X133239557Y-94874481D01*
X133173373Y-94867963D01*
X133060147Y-94833616D01*
X133003533Y-94816443D01*
X132847011Y-94732779D01*
X132847009Y-94732778D01*
X132811271Y-94703448D01*
X132709814Y-94620186D01*
X132626552Y-94518729D01*
X132597222Y-94482991D01*
X132587652Y-94465087D01*
X132513557Y-94326467D01*
X132496384Y-94269853D01*
X132462037Y-94156627D01*
X132444641Y-93980000D01*
X132462037Y-93803373D01*
X132513557Y-93633534D01*
X132513557Y-93633533D01*
X132597221Y-93477011D01*
X132597222Y-93477009D01*
X132626552Y-93441271D01*
X132709814Y-93339814D01*
X132811271Y-93256552D01*
X132847009Y-93227222D01*
X132864913Y-93217652D01*
X133003533Y-93143557D01*
X133060147Y-93126384D01*
X133173373Y-93092037D01*
X133239557Y-93085519D01*
X133305740Y-93079000D01*
X133394260Y-93079000D01*
X133460443Y-93085519D01*
X133460443Y-93085519D01*
G37*
G36*
X136000443Y-93085519D02*
X136066627Y-93092037D01*
X136179853Y-93126384D01*
X136236467Y-93143557D01*
X136375087Y-93217652D01*
X136392991Y-93227222D01*
X136428729Y-93256552D01*
X136530186Y-93339814D01*
X136613448Y-93441271D01*
X136642778Y-93477009D01*
X136642779Y-93477011D01*
X136726443Y-93633533D01*
X136726443Y-93633534D01*
X136777963Y-93803373D01*
X136795359Y-93980000D01*
X136777963Y-94156627D01*
X136743616Y-94269853D01*
X136726443Y-94326467D01*
X136652348Y-94465087D01*
X136642778Y-94482991D01*
X136613448Y-94518729D01*
X136530186Y-94620186D01*
X136428729Y-94703448D01*
X136392991Y-94732778D01*
X136392989Y-94732779D01*
X136236467Y-94816443D01*
X136179853Y-94833616D01*
X136066627Y-94867963D01*
X136000443Y-94874481D01*
X135934260Y-94881000D01*
X135845740Y-94881000D01*
X135779557Y-94874481D01*
X135713373Y-94867963D01*
X135600147Y-94833616D01*
X135543533Y-94816443D01*
X135387011Y-94732779D01*
X135387009Y-94732778D01*
X135351271Y-94703448D01*
X135249814Y-94620186D01*
X135166552Y-94518729D01*
X135137222Y-94482991D01*
X135127652Y-94465087D01*
X135053557Y-94326467D01*
X135036384Y-94269853D01*
X135002037Y-94156627D01*
X134984641Y-93980000D01*
X135002037Y-93803373D01*
X135053557Y-93633534D01*
X135053557Y-93633533D01*
X135137221Y-93477011D01*
X135137222Y-93477009D01*
X135166552Y-93441271D01*
X135249814Y-93339814D01*
X135351271Y-93256552D01*
X135387009Y-93227222D01*
X135404913Y-93217652D01*
X135543533Y-93143557D01*
X135600147Y-93126384D01*
X135713373Y-93092037D01*
X135779557Y-93085519D01*
X135845740Y-93079000D01*
X135934260Y-93079000D01*
X136000443Y-93085519D01*
X136000443Y-93085519D01*
G37*
G36*
X130920443Y-93085519D02*
X130986627Y-93092037D01*
X131099853Y-93126384D01*
X131156467Y-93143557D01*
X131295087Y-93217652D01*
X131312991Y-93227222D01*
X131348729Y-93256552D01*
X131450186Y-93339814D01*
X131533448Y-93441271D01*
X131562778Y-93477009D01*
X131562779Y-93477011D01*
X131646443Y-93633533D01*
X131646443Y-93633534D01*
X131697963Y-93803373D01*
X131715359Y-93980000D01*
X131697963Y-94156627D01*
X131663616Y-94269853D01*
X131646443Y-94326467D01*
X131572348Y-94465087D01*
X131562778Y-94482991D01*
X131533448Y-94518729D01*
X131450186Y-94620186D01*
X131348729Y-94703448D01*
X131312991Y-94732778D01*
X131312989Y-94732779D01*
X131156467Y-94816443D01*
X131099853Y-94833616D01*
X130986627Y-94867963D01*
X130920443Y-94874481D01*
X130854260Y-94881000D01*
X130765740Y-94881000D01*
X130699557Y-94874481D01*
X130633373Y-94867963D01*
X130520147Y-94833616D01*
X130463533Y-94816443D01*
X130307011Y-94732779D01*
X130307009Y-94732778D01*
X130271271Y-94703448D01*
X130169814Y-94620186D01*
X130086552Y-94518729D01*
X130057222Y-94482991D01*
X130047652Y-94465087D01*
X129973557Y-94326467D01*
X129956384Y-94269853D01*
X129922037Y-94156627D01*
X129904641Y-93980000D01*
X129922037Y-93803373D01*
X129973557Y-93633534D01*
X129973557Y-93633533D01*
X130057221Y-93477011D01*
X130057222Y-93477009D01*
X130086552Y-93441271D01*
X130169814Y-93339814D01*
X130271271Y-93256552D01*
X130307009Y-93227222D01*
X130324913Y-93217652D01*
X130463533Y-93143557D01*
X130520147Y-93126384D01*
X130633373Y-93092037D01*
X130699557Y-93085519D01*
X130765740Y-93079000D01*
X130854260Y-93079000D01*
X130920443Y-93085519D01*
X130920443Y-93085519D01*
G37*
G36*
X129171000Y-94881000D02*
X127369000Y-94881000D01*
X127369000Y-93079000D01*
X129171000Y-93079000D01*
X129171000Y-94881000D01*
X129171000Y-94881000D01*
G37*
G36*
X139198604Y-80738347D02*
X139235145Y-80749432D01*
X139268820Y-80767431D01*
X139298341Y-80791659D01*
X139322569Y-80821180D01*
X139340568Y-80854855D01*
X139351653Y-80891396D01*
X139356000Y-80935538D01*
X139356000Y-81884462D01*
X139351653Y-81928604D01*
X139340568Y-81965145D01*
X139322569Y-81998820D01*
X139298341Y-82028341D01*
X139268820Y-82052569D01*
X139235145Y-82070568D01*
X139198604Y-82081653D01*
X139154462Y-82086000D01*
X137705538Y-82086000D01*
X137661396Y-82081653D01*
X137624855Y-82070568D01*
X137591180Y-82052569D01*
X137561659Y-82028341D01*
X137537431Y-81998820D01*
X137519432Y-81965145D01*
X137508347Y-81928604D01*
X137504000Y-81884462D01*
X137504000Y-80935538D01*
X137508347Y-80891396D01*
X137519432Y-80854855D01*
X137537431Y-80821180D01*
X137561659Y-80791659D01*
X137591180Y-80767431D01*
X137624855Y-80749432D01*
X137661396Y-80738347D01*
X137705538Y-80734000D01*
X139154462Y-80734000D01*
X139198604Y-80738347D01*
X139198604Y-80738347D01*
G37*
G36*
X130308604Y-80738347D02*
X130345145Y-80749432D01*
X130378820Y-80767431D01*
X130408341Y-80791659D01*
X130432569Y-80821180D01*
X130450568Y-80854855D01*
X130461653Y-80891396D01*
X130466000Y-80935538D01*
X130466000Y-81884462D01*
X130461653Y-81928604D01*
X130450568Y-81965145D01*
X130432569Y-81998820D01*
X130408341Y-82028341D01*
X130378820Y-82052569D01*
X130345145Y-82070568D01*
X130308604Y-82081653D01*
X130264462Y-82086000D01*
X128815538Y-82086000D01*
X128771396Y-82081653D01*
X128734855Y-82070568D01*
X128701180Y-82052569D01*
X128671659Y-82028341D01*
X128647431Y-81998820D01*
X128629432Y-81965145D01*
X128618347Y-81928604D01*
X128614000Y-81884462D01*
X128614000Y-80935538D01*
X128618347Y-80891396D01*
X128629432Y-80854855D01*
X128647431Y-80821180D01*
X128671659Y-80791659D01*
X128701180Y-80767431D01*
X128734855Y-80749432D01*
X128771396Y-80738347D01*
X128815538Y-80734000D01*
X130264462Y-80734000D01*
X130308604Y-80738347D01*
X130308604Y-80738347D01*
G37*
G36*
X126498604Y-80738347D02*
X126535145Y-80749432D01*
X126568820Y-80767431D01*
X126598341Y-80791659D01*
X126622569Y-80821180D01*
X126640568Y-80854855D01*
X126651653Y-80891396D01*
X126656000Y-80935538D01*
X126656000Y-81884462D01*
X126651653Y-81928604D01*
X126640568Y-81965145D01*
X126622569Y-81998820D01*
X126598341Y-82028341D01*
X126568820Y-82052569D01*
X126535145Y-82070568D01*
X126498604Y-82081653D01*
X126454462Y-82086000D01*
X125005538Y-82086000D01*
X124961396Y-82081653D01*
X124924855Y-82070568D01*
X124891180Y-82052569D01*
X124861659Y-82028341D01*
X124837431Y-81998820D01*
X124819432Y-81965145D01*
X124808347Y-81928604D01*
X124804000Y-81884462D01*
X124804000Y-80935538D01*
X124808347Y-80891396D01*
X124819432Y-80854855D01*
X124837431Y-80821180D01*
X124861659Y-80791659D01*
X124891180Y-80767431D01*
X124924855Y-80749432D01*
X124961396Y-80738347D01*
X125005538Y-80734000D01*
X126454462Y-80734000D01*
X126498604Y-80738347D01*
X126498604Y-80738347D01*
G37*
G36*
X135388604Y-80738347D02*
X135425145Y-80749432D01*
X135458820Y-80767431D01*
X135488341Y-80791659D01*
X135512569Y-80821180D01*
X135530568Y-80854855D01*
X135541653Y-80891396D01*
X135546000Y-80935538D01*
X135546000Y-81884462D01*
X135541653Y-81928604D01*
X135530568Y-81965145D01*
X135512569Y-81998820D01*
X135488341Y-82028341D01*
X135458820Y-82052569D01*
X135425145Y-82070568D01*
X135388604Y-82081653D01*
X135344462Y-82086000D01*
X133895538Y-82086000D01*
X133851396Y-82081653D01*
X133814855Y-82070568D01*
X133781180Y-82052569D01*
X133751659Y-82028341D01*
X133727431Y-81998820D01*
X133709432Y-81965145D01*
X133698347Y-81928604D01*
X133694000Y-81884462D01*
X133694000Y-80935538D01*
X133698347Y-80891396D01*
X133709432Y-80854855D01*
X133727431Y-80821180D01*
X133751659Y-80791659D01*
X133781180Y-80767431D01*
X133814855Y-80749432D01*
X133851396Y-80738347D01*
X133895538Y-80734000D01*
X135344462Y-80734000D01*
X135388604Y-80738347D01*
X135388604Y-80738347D01*
G37*
G36*
X130308604Y-77938347D02*
X130345145Y-77949432D01*
X130378820Y-77967431D01*
X130408341Y-77991659D01*
X130432569Y-78021180D01*
X130450568Y-78054855D01*
X130461653Y-78091396D01*
X130466000Y-78135538D01*
X130466000Y-79084462D01*
X130461653Y-79128604D01*
X130450568Y-79165145D01*
X130432569Y-79198820D01*
X130408341Y-79228341D01*
X130378820Y-79252569D01*
X130345145Y-79270568D01*
X130308604Y-79281653D01*
X130264462Y-79286000D01*
X128815538Y-79286000D01*
X128771396Y-79281653D01*
X128734855Y-79270568D01*
X128701180Y-79252569D01*
X128671659Y-79228341D01*
X128647431Y-79198820D01*
X128629432Y-79165145D01*
X128618347Y-79128604D01*
X128614000Y-79084462D01*
X128614000Y-78135538D01*
X128618347Y-78091396D01*
X128629432Y-78054855D01*
X128647431Y-78021180D01*
X128671659Y-77991659D01*
X128701180Y-77967431D01*
X128734855Y-77949432D01*
X128771396Y-77938347D01*
X128815538Y-77934000D01*
X130264462Y-77934000D01*
X130308604Y-77938347D01*
X130308604Y-77938347D01*
G37*
G36*
X126498604Y-77938347D02*
X126535145Y-77949432D01*
X126568820Y-77967431D01*
X126598341Y-77991659D01*
X126622569Y-78021180D01*
X126640568Y-78054855D01*
X126651653Y-78091396D01*
X126656000Y-78135538D01*
X126656000Y-79084462D01*
X126651653Y-79128604D01*
X126640568Y-79165145D01*
X126622569Y-79198820D01*
X126598341Y-79228341D01*
X126568820Y-79252569D01*
X126535145Y-79270568D01*
X126498604Y-79281653D01*
X126454462Y-79286000D01*
X125005538Y-79286000D01*
X124961396Y-79281653D01*
X124924855Y-79270568D01*
X124891180Y-79252569D01*
X124861659Y-79228341D01*
X124837431Y-79198820D01*
X124819432Y-79165145D01*
X124808347Y-79128604D01*
X124804000Y-79084462D01*
X124804000Y-78135538D01*
X124808347Y-78091396D01*
X124819432Y-78054855D01*
X124837431Y-78021180D01*
X124861659Y-77991659D01*
X124891180Y-77967431D01*
X124924855Y-77949432D01*
X124961396Y-77938347D01*
X125005538Y-77934000D01*
X126454462Y-77934000D01*
X126498604Y-77938347D01*
X126498604Y-77938347D01*
G37*
G36*
X135388604Y-77938347D02*
X135425145Y-77949432D01*
X135458820Y-77967431D01*
X135488341Y-77991659D01*
X135512569Y-78021180D01*
X135530568Y-78054855D01*
X135541653Y-78091396D01*
X135546000Y-78135538D01*
X135546000Y-79084462D01*
X135541653Y-79128604D01*
X135530568Y-79165145D01*
X135512569Y-79198820D01*
X135488341Y-79228341D01*
X135458820Y-79252569D01*
X135425145Y-79270568D01*
X135388604Y-79281653D01*
X135344462Y-79286000D01*
X133895538Y-79286000D01*
X133851396Y-79281653D01*
X133814855Y-79270568D01*
X133781180Y-79252569D01*
X133751659Y-79228341D01*
X133727431Y-79198820D01*
X133709432Y-79165145D01*
X133698347Y-79128604D01*
X133694000Y-79084462D01*
X133694000Y-78135538D01*
X133698347Y-78091396D01*
X133709432Y-78054855D01*
X133727431Y-78021180D01*
X133751659Y-77991659D01*
X133781180Y-77967431D01*
X133814855Y-77949432D01*
X133851396Y-77938347D01*
X133895538Y-77934000D01*
X135344462Y-77934000D01*
X135388604Y-77938347D01*
X135388604Y-77938347D01*
G37*
G36*
X139198604Y-77938347D02*
X139235145Y-77949432D01*
X139268820Y-77967431D01*
X139298341Y-77991659D01*
X139322569Y-78021180D01*
X139340568Y-78054855D01*
X139351653Y-78091396D01*
X139356000Y-78135538D01*
X139356000Y-79084462D01*
X139351653Y-79128604D01*
X139340568Y-79165145D01*
X139322569Y-79198820D01*
X139298341Y-79228341D01*
X139268820Y-79252569D01*
X139235145Y-79270568D01*
X139198604Y-79281653D01*
X139154462Y-79286000D01*
X137705538Y-79286000D01*
X137661396Y-79281653D01*
X137624855Y-79270568D01*
X137591180Y-79252569D01*
X137561659Y-79228341D01*
X137537431Y-79198820D01*
X137519432Y-79165145D01*
X137508347Y-79128604D01*
X137504000Y-79084462D01*
X137504000Y-78135538D01*
X137508347Y-78091396D01*
X137519432Y-78054855D01*
X137537431Y-78021180D01*
X137561659Y-77991659D01*
X137591180Y-77967431D01*
X137624855Y-77949432D01*
X137661396Y-77938347D01*
X137705538Y-77934000D01*
X139154462Y-77934000D01*
X139198604Y-77938347D01*
X139198604Y-77938347D01*
G37*
G36*
X135767915Y-67657334D02*
X135876491Y-67690271D01*
X135976556Y-67743756D01*
X136064264Y-67815736D01*
X136136244Y-67903443D01*
X136189729Y-68003508D01*
X136222666Y-68112084D01*
X136231000Y-68196702D01*
X136231000Y-69103298D01*
X136222666Y-69187916D01*
X136189729Y-69296492D01*
X136136244Y-69396557D01*
X136064264Y-69484264D01*
X135976557Y-69556244D01*
X135876492Y-69609729D01*
X135767916Y-69642666D01*
X135655000Y-69653787D01*
X135542085Y-69642666D01*
X135433509Y-69609729D01*
X135333444Y-69556244D01*
X135245737Y-69484264D01*
X135173757Y-69396557D01*
X135120272Y-69296492D01*
X135087335Y-69187916D01*
X135079000Y-69103298D01*
X135079000Y-68196703D01*
X135087334Y-68112085D01*
X135120271Y-68003509D01*
X135173756Y-67903444D01*
X135245736Y-67815736D01*
X135333443Y-67743756D01*
X135433508Y-67690271D01*
X135542084Y-67657334D01*
X135655000Y-67646213D01*
X135767915Y-67657334D01*
X135767915Y-67657334D01*
G37*
G36*
X128617916Y-67657334D02*
X128726492Y-67690271D01*
X128826557Y-67743756D01*
X128914264Y-67815736D01*
X128986244Y-67903443D01*
X129039729Y-68003508D01*
X129072666Y-68112084D01*
X129081000Y-68196702D01*
X129081000Y-69103298D01*
X129072666Y-69187916D01*
X129039729Y-69296492D01*
X128986244Y-69396557D01*
X128914264Y-69484264D01*
X128826556Y-69556244D01*
X128726491Y-69609729D01*
X128617915Y-69642666D01*
X128505000Y-69653787D01*
X128392084Y-69642666D01*
X128283508Y-69609729D01*
X128183443Y-69556244D01*
X128095736Y-69484264D01*
X128023756Y-69396556D01*
X127970271Y-69296491D01*
X127937334Y-69187915D01*
X127929000Y-69103297D01*
X127929000Y-68196702D01*
X127937335Y-68112084D01*
X127970272Y-68003508D01*
X128023757Y-67903443D01*
X128095737Y-67815736D01*
X128183444Y-67743756D01*
X128283509Y-67690271D01*
X128392085Y-67657334D01*
X128505000Y-67646213D01*
X128617916Y-67657334D01*
X128617916Y-67657334D01*
G37*
M02*
