G04 #@! TF.GenerationSoftware,KiCad,Pcbnew,5.0.2-bee76a0~70~ubuntu18.04.1*
G04 #@! TF.CreationDate,2019-11-16T15:20:31+01:00*
G04 #@! TF.ProjectId,Eierland,45696572-6c61-46e6-942e-6b696361645f,rev?*
G04 #@! TF.SameCoordinates,Original*
G04 #@! TF.FileFunction,Paste,Top*
G04 #@! TF.FilePolarity,Positive*
%FSLAX46Y46*%
G04 Gerber Fmt 4.6, Leading zero omitted, Abs format (unit mm)*
G04 Created by KiCad (PCBNEW 5.0.2-bee76a0~70~ubuntu18.04.1) date za 16 nov 2019 15:20:31 CET*
%MOMM*%
%LPD*%
G01*
G04 APERTURE LIST*
%ADD10C,0.250000*%
%ADD11C,0.100000*%
%ADD12C,0.975000*%
%ADD13C,1.250000*%
%ADD14R,0.800000X1.000000*%
%ADD15R,1.750000X1.900000*%
%ADD16R,0.400000X1.400000*%
%ADD17R,1.150000X1.450000*%
%ADD18R,1.000000X2.750000*%
%ADD19R,1.000000X1.800000*%
%ADD20R,2.000000X4.500000*%
%ADD21R,2.000000X3.800000*%
%ADD22R,2.000000X1.500000*%
G04 APERTURE END LIST*
D10*
G04 #@! TO.C,U2*
X127059542Y-116701371D03*
D11*
G36*
X126688311Y-117249379D02*
X126511534Y-117072602D01*
X127430773Y-116153363D01*
X127607550Y-116330140D01*
X126688311Y-117249379D01*
X126688311Y-117249379D01*
G37*
D10*
X127413095Y-117054924D03*
D11*
G36*
X127041864Y-117602932D02*
X126865087Y-117426155D01*
X127784326Y-116506916D01*
X127961103Y-116683693D01*
X127041864Y-117602932D01*
X127041864Y-117602932D01*
G37*
D10*
X127766649Y-117408478D03*
D11*
G36*
X127395418Y-117956486D02*
X127218641Y-117779709D01*
X128137880Y-116860470D01*
X128314657Y-117037247D01*
X127395418Y-117956486D01*
X127395418Y-117956486D01*
G37*
D10*
X128120202Y-117762031D03*
D11*
G36*
X127748971Y-118310039D02*
X127572194Y-118133262D01*
X128491433Y-117214023D01*
X128668210Y-117390800D01*
X127748971Y-118310039D01*
X127748971Y-118310039D01*
G37*
D10*
X128473755Y-118115584D03*
D11*
G36*
X128102524Y-118663592D02*
X127925747Y-118486815D01*
X128844986Y-117567576D01*
X129021763Y-117744353D01*
X128102524Y-118663592D01*
X128102524Y-118663592D01*
G37*
D10*
X128827309Y-118469138D03*
D11*
G36*
X128456078Y-119017146D02*
X128279301Y-118840369D01*
X129198540Y-117921130D01*
X129375317Y-118097907D01*
X128456078Y-119017146D01*
X128456078Y-119017146D01*
G37*
D10*
X129180862Y-118822691D03*
D11*
G36*
X128809631Y-119370699D02*
X128632854Y-119193922D01*
X129552093Y-118274683D01*
X129728870Y-118451460D01*
X128809631Y-119370699D01*
X128809631Y-119370699D01*
G37*
D10*
X129534416Y-119176245D03*
D11*
G36*
X129163185Y-119724253D02*
X128986408Y-119547476D01*
X129905647Y-118628237D01*
X130082424Y-118805014D01*
X129163185Y-119724253D01*
X129163185Y-119724253D01*
G37*
D10*
X129887969Y-119529798D03*
D11*
G36*
X129516738Y-120077806D02*
X129339961Y-119901029D01*
X130259200Y-118981790D01*
X130435977Y-119158567D01*
X129516738Y-120077806D01*
X129516738Y-120077806D01*
G37*
D10*
X130241522Y-119883351D03*
D11*
G36*
X129870291Y-120431359D02*
X129693514Y-120254582D01*
X130612753Y-119335343D01*
X130789530Y-119512120D01*
X129870291Y-120431359D01*
X129870291Y-120431359D01*
G37*
D10*
X130595076Y-120236905D03*
D11*
G36*
X130223845Y-120784913D02*
X130047068Y-120608136D01*
X130966307Y-119688897D01*
X131143084Y-119865674D01*
X130223845Y-120784913D01*
X130223845Y-120784913D01*
G37*
D10*
X130948629Y-120590458D03*
D11*
G36*
X130577398Y-121138466D02*
X130400621Y-120961689D01*
X131319860Y-120042450D01*
X131496637Y-120219227D01*
X130577398Y-121138466D01*
X130577398Y-121138466D01*
G37*
D10*
X133211371Y-120590458D03*
D11*
G36*
X133759379Y-120961689D02*
X133582602Y-121138466D01*
X132663363Y-120219227D01*
X132840140Y-120042450D01*
X133759379Y-120961689D01*
X133759379Y-120961689D01*
G37*
D10*
X133564924Y-120236905D03*
D11*
G36*
X134112932Y-120608136D02*
X133936155Y-120784913D01*
X133016916Y-119865674D01*
X133193693Y-119688897D01*
X134112932Y-120608136D01*
X134112932Y-120608136D01*
G37*
D10*
X133918478Y-119883351D03*
D11*
G36*
X134466486Y-120254582D02*
X134289709Y-120431359D01*
X133370470Y-119512120D01*
X133547247Y-119335343D01*
X134466486Y-120254582D01*
X134466486Y-120254582D01*
G37*
D10*
X134272031Y-119529798D03*
D11*
G36*
X134820039Y-119901029D02*
X134643262Y-120077806D01*
X133724023Y-119158567D01*
X133900800Y-118981790D01*
X134820039Y-119901029D01*
X134820039Y-119901029D01*
G37*
D10*
X134625584Y-119176245D03*
D11*
G36*
X135173592Y-119547476D02*
X134996815Y-119724253D01*
X134077576Y-118805014D01*
X134254353Y-118628237D01*
X135173592Y-119547476D01*
X135173592Y-119547476D01*
G37*
D10*
X134979138Y-118822691D03*
D11*
G36*
X135527146Y-119193922D02*
X135350369Y-119370699D01*
X134431130Y-118451460D01*
X134607907Y-118274683D01*
X135527146Y-119193922D01*
X135527146Y-119193922D01*
G37*
D10*
X135332691Y-118469138D03*
D11*
G36*
X135880699Y-118840369D02*
X135703922Y-119017146D01*
X134784683Y-118097907D01*
X134961460Y-117921130D01*
X135880699Y-118840369D01*
X135880699Y-118840369D01*
G37*
D10*
X135686245Y-118115584D03*
D11*
G36*
X136234253Y-118486815D02*
X136057476Y-118663592D01*
X135138237Y-117744353D01*
X135315014Y-117567576D01*
X136234253Y-118486815D01*
X136234253Y-118486815D01*
G37*
D10*
X136039798Y-117762031D03*
D11*
G36*
X136587806Y-118133262D02*
X136411029Y-118310039D01*
X135491790Y-117390800D01*
X135668567Y-117214023D01*
X136587806Y-118133262D01*
X136587806Y-118133262D01*
G37*
D10*
X136393351Y-117408478D03*
D11*
G36*
X136941359Y-117779709D02*
X136764582Y-117956486D01*
X135845343Y-117037247D01*
X136022120Y-116860470D01*
X136941359Y-117779709D01*
X136941359Y-117779709D01*
G37*
D10*
X136746905Y-117054924D03*
D11*
G36*
X137294913Y-117426155D02*
X137118136Y-117602932D01*
X136198897Y-116683693D01*
X136375674Y-116506916D01*
X137294913Y-117426155D01*
X137294913Y-117426155D01*
G37*
D10*
X137100458Y-116701371D03*
D11*
G36*
X137648466Y-117072602D02*
X137471689Y-117249379D01*
X136552450Y-116330140D01*
X136729227Y-116153363D01*
X137648466Y-117072602D01*
X137648466Y-117072602D01*
G37*
D10*
X137100458Y-114438629D03*
D11*
G36*
X136729227Y-114986637D02*
X136552450Y-114809860D01*
X137471689Y-113890621D01*
X137648466Y-114067398D01*
X136729227Y-114986637D01*
X136729227Y-114986637D01*
G37*
D10*
X136746905Y-114085076D03*
D11*
G36*
X136375674Y-114633084D02*
X136198897Y-114456307D01*
X137118136Y-113537068D01*
X137294913Y-113713845D01*
X136375674Y-114633084D01*
X136375674Y-114633084D01*
G37*
D10*
X136393351Y-113731522D03*
D11*
G36*
X136022120Y-114279530D02*
X135845343Y-114102753D01*
X136764582Y-113183514D01*
X136941359Y-113360291D01*
X136022120Y-114279530D01*
X136022120Y-114279530D01*
G37*
D10*
X136039798Y-113377969D03*
D11*
G36*
X135668567Y-113925977D02*
X135491790Y-113749200D01*
X136411029Y-112829961D01*
X136587806Y-113006738D01*
X135668567Y-113925977D01*
X135668567Y-113925977D01*
G37*
D10*
X135686245Y-113024416D03*
D11*
G36*
X135315014Y-113572424D02*
X135138237Y-113395647D01*
X136057476Y-112476408D01*
X136234253Y-112653185D01*
X135315014Y-113572424D01*
X135315014Y-113572424D01*
G37*
D10*
X135332691Y-112670862D03*
D11*
G36*
X134961460Y-113218870D02*
X134784683Y-113042093D01*
X135703922Y-112122854D01*
X135880699Y-112299631D01*
X134961460Y-113218870D01*
X134961460Y-113218870D01*
G37*
D10*
X134979138Y-112317309D03*
D11*
G36*
X134607907Y-112865317D02*
X134431130Y-112688540D01*
X135350369Y-111769301D01*
X135527146Y-111946078D01*
X134607907Y-112865317D01*
X134607907Y-112865317D01*
G37*
D10*
X134625584Y-111963755D03*
D11*
G36*
X134254353Y-112511763D02*
X134077576Y-112334986D01*
X134996815Y-111415747D01*
X135173592Y-111592524D01*
X134254353Y-112511763D01*
X134254353Y-112511763D01*
G37*
D10*
X134272031Y-111610202D03*
D11*
G36*
X133900800Y-112158210D02*
X133724023Y-111981433D01*
X134643262Y-111062194D01*
X134820039Y-111238971D01*
X133900800Y-112158210D01*
X133900800Y-112158210D01*
G37*
D10*
X133918478Y-111256649D03*
D11*
G36*
X133547247Y-111804657D02*
X133370470Y-111627880D01*
X134289709Y-110708641D01*
X134466486Y-110885418D01*
X133547247Y-111804657D01*
X133547247Y-111804657D01*
G37*
D10*
X133564924Y-110903095D03*
D11*
G36*
X133193693Y-111451103D02*
X133016916Y-111274326D01*
X133936155Y-110355087D01*
X134112932Y-110531864D01*
X133193693Y-111451103D01*
X133193693Y-111451103D01*
G37*
D10*
X133211371Y-110549542D03*
D11*
G36*
X132840140Y-111097550D02*
X132663363Y-110920773D01*
X133582602Y-110001534D01*
X133759379Y-110178311D01*
X132840140Y-111097550D01*
X132840140Y-111097550D01*
G37*
D10*
X130948629Y-110549542D03*
D11*
G36*
X131496637Y-110920773D02*
X131319860Y-111097550D01*
X130400621Y-110178311D01*
X130577398Y-110001534D01*
X131496637Y-110920773D01*
X131496637Y-110920773D01*
G37*
D10*
X130595076Y-110903095D03*
D11*
G36*
X131143084Y-111274326D02*
X130966307Y-111451103D01*
X130047068Y-110531864D01*
X130223845Y-110355087D01*
X131143084Y-111274326D01*
X131143084Y-111274326D01*
G37*
D10*
X130241522Y-111256649D03*
D11*
G36*
X130789530Y-111627880D02*
X130612753Y-111804657D01*
X129693514Y-110885418D01*
X129870291Y-110708641D01*
X130789530Y-111627880D01*
X130789530Y-111627880D01*
G37*
D10*
X129887969Y-111610202D03*
D11*
G36*
X130435977Y-111981433D02*
X130259200Y-112158210D01*
X129339961Y-111238971D01*
X129516738Y-111062194D01*
X130435977Y-111981433D01*
X130435977Y-111981433D01*
G37*
D10*
X129534416Y-111963755D03*
D11*
G36*
X130082424Y-112334986D02*
X129905647Y-112511763D01*
X128986408Y-111592524D01*
X129163185Y-111415747D01*
X130082424Y-112334986D01*
X130082424Y-112334986D01*
G37*
D10*
X129180862Y-112317309D03*
D11*
G36*
X129728870Y-112688540D02*
X129552093Y-112865317D01*
X128632854Y-111946078D01*
X128809631Y-111769301D01*
X129728870Y-112688540D01*
X129728870Y-112688540D01*
G37*
D10*
X128827309Y-112670862D03*
D11*
G36*
X129375317Y-113042093D02*
X129198540Y-113218870D01*
X128279301Y-112299631D01*
X128456078Y-112122854D01*
X129375317Y-113042093D01*
X129375317Y-113042093D01*
G37*
D10*
X128473755Y-113024416D03*
D11*
G36*
X129021763Y-113395647D02*
X128844986Y-113572424D01*
X127925747Y-112653185D01*
X128102524Y-112476408D01*
X129021763Y-113395647D01*
X129021763Y-113395647D01*
G37*
D10*
X128120202Y-113377969D03*
D11*
G36*
X128668210Y-113749200D02*
X128491433Y-113925977D01*
X127572194Y-113006738D01*
X127748971Y-112829961D01*
X128668210Y-113749200D01*
X128668210Y-113749200D01*
G37*
D10*
X127766649Y-113731522D03*
D11*
G36*
X128314657Y-114102753D02*
X128137880Y-114279530D01*
X127218641Y-113360291D01*
X127395418Y-113183514D01*
X128314657Y-114102753D01*
X128314657Y-114102753D01*
G37*
D10*
X127413095Y-114085076D03*
D11*
G36*
X127961103Y-114456307D02*
X127784326Y-114633084D01*
X126865087Y-113713845D01*
X127041864Y-113537068D01*
X127961103Y-114456307D01*
X127961103Y-114456307D01*
G37*
D10*
X127059542Y-114438629D03*
D11*
G36*
X127607550Y-114809860D02*
X127430773Y-114986637D01*
X126511534Y-114067398D01*
X126688311Y-113890621D01*
X127607550Y-114809860D01*
X127607550Y-114809860D01*
G37*
G04 #@! TD*
G04 #@! TO.C,C1*
G36*
X126935142Y-125031174D02*
X126958803Y-125034684D01*
X126982007Y-125040496D01*
X127004529Y-125048554D01*
X127026153Y-125058782D01*
X127046670Y-125071079D01*
X127065883Y-125085329D01*
X127083607Y-125101393D01*
X127099671Y-125119117D01*
X127113921Y-125138330D01*
X127126218Y-125158847D01*
X127136446Y-125180471D01*
X127144504Y-125202993D01*
X127150316Y-125226197D01*
X127153826Y-125249858D01*
X127155000Y-125273750D01*
X127155000Y-126186250D01*
X127153826Y-126210142D01*
X127150316Y-126233803D01*
X127144504Y-126257007D01*
X127136446Y-126279529D01*
X127126218Y-126301153D01*
X127113921Y-126321670D01*
X127099671Y-126340883D01*
X127083607Y-126358607D01*
X127065883Y-126374671D01*
X127046670Y-126388921D01*
X127026153Y-126401218D01*
X127004529Y-126411446D01*
X126982007Y-126419504D01*
X126958803Y-126425316D01*
X126935142Y-126428826D01*
X126911250Y-126430000D01*
X126423750Y-126430000D01*
X126399858Y-126428826D01*
X126376197Y-126425316D01*
X126352993Y-126419504D01*
X126330471Y-126411446D01*
X126308847Y-126401218D01*
X126288330Y-126388921D01*
X126269117Y-126374671D01*
X126251393Y-126358607D01*
X126235329Y-126340883D01*
X126221079Y-126321670D01*
X126208782Y-126301153D01*
X126198554Y-126279529D01*
X126190496Y-126257007D01*
X126184684Y-126233803D01*
X126181174Y-126210142D01*
X126180000Y-126186250D01*
X126180000Y-125273750D01*
X126181174Y-125249858D01*
X126184684Y-125226197D01*
X126190496Y-125202993D01*
X126198554Y-125180471D01*
X126208782Y-125158847D01*
X126221079Y-125138330D01*
X126235329Y-125119117D01*
X126251393Y-125101393D01*
X126269117Y-125085329D01*
X126288330Y-125071079D01*
X126308847Y-125058782D01*
X126330471Y-125048554D01*
X126352993Y-125040496D01*
X126376197Y-125034684D01*
X126399858Y-125031174D01*
X126423750Y-125030000D01*
X126911250Y-125030000D01*
X126935142Y-125031174D01*
X126935142Y-125031174D01*
G37*
D12*
X126667500Y-125730000D03*
D11*
G36*
X125060142Y-125031174D02*
X125083803Y-125034684D01*
X125107007Y-125040496D01*
X125129529Y-125048554D01*
X125151153Y-125058782D01*
X125171670Y-125071079D01*
X125190883Y-125085329D01*
X125208607Y-125101393D01*
X125224671Y-125119117D01*
X125238921Y-125138330D01*
X125251218Y-125158847D01*
X125261446Y-125180471D01*
X125269504Y-125202993D01*
X125275316Y-125226197D01*
X125278826Y-125249858D01*
X125280000Y-125273750D01*
X125280000Y-126186250D01*
X125278826Y-126210142D01*
X125275316Y-126233803D01*
X125269504Y-126257007D01*
X125261446Y-126279529D01*
X125251218Y-126301153D01*
X125238921Y-126321670D01*
X125224671Y-126340883D01*
X125208607Y-126358607D01*
X125190883Y-126374671D01*
X125171670Y-126388921D01*
X125151153Y-126401218D01*
X125129529Y-126411446D01*
X125107007Y-126419504D01*
X125083803Y-126425316D01*
X125060142Y-126428826D01*
X125036250Y-126430000D01*
X124548750Y-126430000D01*
X124524858Y-126428826D01*
X124501197Y-126425316D01*
X124477993Y-126419504D01*
X124455471Y-126411446D01*
X124433847Y-126401218D01*
X124413330Y-126388921D01*
X124394117Y-126374671D01*
X124376393Y-126358607D01*
X124360329Y-126340883D01*
X124346079Y-126321670D01*
X124333782Y-126301153D01*
X124323554Y-126279529D01*
X124315496Y-126257007D01*
X124309684Y-126233803D01*
X124306174Y-126210142D01*
X124305000Y-126186250D01*
X124305000Y-125273750D01*
X124306174Y-125249858D01*
X124309684Y-125226197D01*
X124315496Y-125202993D01*
X124323554Y-125180471D01*
X124333782Y-125158847D01*
X124346079Y-125138330D01*
X124360329Y-125119117D01*
X124376393Y-125101393D01*
X124394117Y-125085329D01*
X124413330Y-125071079D01*
X124433847Y-125058782D01*
X124455471Y-125048554D01*
X124477993Y-125040496D01*
X124501197Y-125034684D01*
X124524858Y-125031174D01*
X124548750Y-125030000D01*
X125036250Y-125030000D01*
X125060142Y-125031174D01*
X125060142Y-125031174D01*
G37*
D12*
X124792500Y-125730000D03*
G04 #@! TD*
D11*
G04 #@! TO.C,C2*
G36*
X120585142Y-125031174D02*
X120608803Y-125034684D01*
X120632007Y-125040496D01*
X120654529Y-125048554D01*
X120676153Y-125058782D01*
X120696670Y-125071079D01*
X120715883Y-125085329D01*
X120733607Y-125101393D01*
X120749671Y-125119117D01*
X120763921Y-125138330D01*
X120776218Y-125158847D01*
X120786446Y-125180471D01*
X120794504Y-125202993D01*
X120800316Y-125226197D01*
X120803826Y-125249858D01*
X120805000Y-125273750D01*
X120805000Y-126186250D01*
X120803826Y-126210142D01*
X120800316Y-126233803D01*
X120794504Y-126257007D01*
X120786446Y-126279529D01*
X120776218Y-126301153D01*
X120763921Y-126321670D01*
X120749671Y-126340883D01*
X120733607Y-126358607D01*
X120715883Y-126374671D01*
X120696670Y-126388921D01*
X120676153Y-126401218D01*
X120654529Y-126411446D01*
X120632007Y-126419504D01*
X120608803Y-126425316D01*
X120585142Y-126428826D01*
X120561250Y-126430000D01*
X120073750Y-126430000D01*
X120049858Y-126428826D01*
X120026197Y-126425316D01*
X120002993Y-126419504D01*
X119980471Y-126411446D01*
X119958847Y-126401218D01*
X119938330Y-126388921D01*
X119919117Y-126374671D01*
X119901393Y-126358607D01*
X119885329Y-126340883D01*
X119871079Y-126321670D01*
X119858782Y-126301153D01*
X119848554Y-126279529D01*
X119840496Y-126257007D01*
X119834684Y-126233803D01*
X119831174Y-126210142D01*
X119830000Y-126186250D01*
X119830000Y-125273750D01*
X119831174Y-125249858D01*
X119834684Y-125226197D01*
X119840496Y-125202993D01*
X119848554Y-125180471D01*
X119858782Y-125158847D01*
X119871079Y-125138330D01*
X119885329Y-125119117D01*
X119901393Y-125101393D01*
X119919117Y-125085329D01*
X119938330Y-125071079D01*
X119958847Y-125058782D01*
X119980471Y-125048554D01*
X120002993Y-125040496D01*
X120026197Y-125034684D01*
X120049858Y-125031174D01*
X120073750Y-125030000D01*
X120561250Y-125030000D01*
X120585142Y-125031174D01*
X120585142Y-125031174D01*
G37*
D12*
X120317500Y-125730000D03*
D11*
G36*
X118710142Y-125031174D02*
X118733803Y-125034684D01*
X118757007Y-125040496D01*
X118779529Y-125048554D01*
X118801153Y-125058782D01*
X118821670Y-125071079D01*
X118840883Y-125085329D01*
X118858607Y-125101393D01*
X118874671Y-125119117D01*
X118888921Y-125138330D01*
X118901218Y-125158847D01*
X118911446Y-125180471D01*
X118919504Y-125202993D01*
X118925316Y-125226197D01*
X118928826Y-125249858D01*
X118930000Y-125273750D01*
X118930000Y-126186250D01*
X118928826Y-126210142D01*
X118925316Y-126233803D01*
X118919504Y-126257007D01*
X118911446Y-126279529D01*
X118901218Y-126301153D01*
X118888921Y-126321670D01*
X118874671Y-126340883D01*
X118858607Y-126358607D01*
X118840883Y-126374671D01*
X118821670Y-126388921D01*
X118801153Y-126401218D01*
X118779529Y-126411446D01*
X118757007Y-126419504D01*
X118733803Y-126425316D01*
X118710142Y-126428826D01*
X118686250Y-126430000D01*
X118198750Y-126430000D01*
X118174858Y-126428826D01*
X118151197Y-126425316D01*
X118127993Y-126419504D01*
X118105471Y-126411446D01*
X118083847Y-126401218D01*
X118063330Y-126388921D01*
X118044117Y-126374671D01*
X118026393Y-126358607D01*
X118010329Y-126340883D01*
X117996079Y-126321670D01*
X117983782Y-126301153D01*
X117973554Y-126279529D01*
X117965496Y-126257007D01*
X117959684Y-126233803D01*
X117956174Y-126210142D01*
X117955000Y-126186250D01*
X117955000Y-125273750D01*
X117956174Y-125249858D01*
X117959684Y-125226197D01*
X117965496Y-125202993D01*
X117973554Y-125180471D01*
X117983782Y-125158847D01*
X117996079Y-125138330D01*
X118010329Y-125119117D01*
X118026393Y-125101393D01*
X118044117Y-125085329D01*
X118063330Y-125071079D01*
X118083847Y-125058782D01*
X118105471Y-125048554D01*
X118127993Y-125040496D01*
X118151197Y-125034684D01*
X118174858Y-125031174D01*
X118198750Y-125030000D01*
X118686250Y-125030000D01*
X118710142Y-125031174D01*
X118710142Y-125031174D01*
G37*
D12*
X118442500Y-125730000D03*
G04 #@! TD*
D11*
G04 #@! TO.C,C3*
G36*
X122400142Y-95701174D02*
X122423803Y-95704684D01*
X122447007Y-95710496D01*
X122469529Y-95718554D01*
X122491153Y-95728782D01*
X122511670Y-95741079D01*
X122530883Y-95755329D01*
X122548607Y-95771393D01*
X122564671Y-95789117D01*
X122578921Y-95808330D01*
X122591218Y-95828847D01*
X122601446Y-95850471D01*
X122609504Y-95872993D01*
X122615316Y-95896197D01*
X122618826Y-95919858D01*
X122620000Y-95943750D01*
X122620000Y-96431250D01*
X122618826Y-96455142D01*
X122615316Y-96478803D01*
X122609504Y-96502007D01*
X122601446Y-96524529D01*
X122591218Y-96546153D01*
X122578921Y-96566670D01*
X122564671Y-96585883D01*
X122548607Y-96603607D01*
X122530883Y-96619671D01*
X122511670Y-96633921D01*
X122491153Y-96646218D01*
X122469529Y-96656446D01*
X122447007Y-96664504D01*
X122423803Y-96670316D01*
X122400142Y-96673826D01*
X122376250Y-96675000D01*
X121463750Y-96675000D01*
X121439858Y-96673826D01*
X121416197Y-96670316D01*
X121392993Y-96664504D01*
X121370471Y-96656446D01*
X121348847Y-96646218D01*
X121328330Y-96633921D01*
X121309117Y-96619671D01*
X121291393Y-96603607D01*
X121275329Y-96585883D01*
X121261079Y-96566670D01*
X121248782Y-96546153D01*
X121238554Y-96524529D01*
X121230496Y-96502007D01*
X121224684Y-96478803D01*
X121221174Y-96455142D01*
X121220000Y-96431250D01*
X121220000Y-95943750D01*
X121221174Y-95919858D01*
X121224684Y-95896197D01*
X121230496Y-95872993D01*
X121238554Y-95850471D01*
X121248782Y-95828847D01*
X121261079Y-95808330D01*
X121275329Y-95789117D01*
X121291393Y-95771393D01*
X121309117Y-95755329D01*
X121328330Y-95741079D01*
X121348847Y-95728782D01*
X121370471Y-95718554D01*
X121392993Y-95710496D01*
X121416197Y-95704684D01*
X121439858Y-95701174D01*
X121463750Y-95700000D01*
X122376250Y-95700000D01*
X122400142Y-95701174D01*
X122400142Y-95701174D01*
G37*
D12*
X121920000Y-96187500D03*
D11*
G36*
X122400142Y-93826174D02*
X122423803Y-93829684D01*
X122447007Y-93835496D01*
X122469529Y-93843554D01*
X122491153Y-93853782D01*
X122511670Y-93866079D01*
X122530883Y-93880329D01*
X122548607Y-93896393D01*
X122564671Y-93914117D01*
X122578921Y-93933330D01*
X122591218Y-93953847D01*
X122601446Y-93975471D01*
X122609504Y-93997993D01*
X122615316Y-94021197D01*
X122618826Y-94044858D01*
X122620000Y-94068750D01*
X122620000Y-94556250D01*
X122618826Y-94580142D01*
X122615316Y-94603803D01*
X122609504Y-94627007D01*
X122601446Y-94649529D01*
X122591218Y-94671153D01*
X122578921Y-94691670D01*
X122564671Y-94710883D01*
X122548607Y-94728607D01*
X122530883Y-94744671D01*
X122511670Y-94758921D01*
X122491153Y-94771218D01*
X122469529Y-94781446D01*
X122447007Y-94789504D01*
X122423803Y-94795316D01*
X122400142Y-94798826D01*
X122376250Y-94800000D01*
X121463750Y-94800000D01*
X121439858Y-94798826D01*
X121416197Y-94795316D01*
X121392993Y-94789504D01*
X121370471Y-94781446D01*
X121348847Y-94771218D01*
X121328330Y-94758921D01*
X121309117Y-94744671D01*
X121291393Y-94728607D01*
X121275329Y-94710883D01*
X121261079Y-94691670D01*
X121248782Y-94671153D01*
X121238554Y-94649529D01*
X121230496Y-94627007D01*
X121224684Y-94603803D01*
X121221174Y-94580142D01*
X121220000Y-94556250D01*
X121220000Y-94068750D01*
X121221174Y-94044858D01*
X121224684Y-94021197D01*
X121230496Y-93997993D01*
X121238554Y-93975471D01*
X121248782Y-93953847D01*
X121261079Y-93933330D01*
X121275329Y-93914117D01*
X121291393Y-93896393D01*
X121309117Y-93880329D01*
X121328330Y-93866079D01*
X121348847Y-93853782D01*
X121370471Y-93843554D01*
X121392993Y-93835496D01*
X121416197Y-93829684D01*
X121439858Y-93826174D01*
X121463750Y-93825000D01*
X122376250Y-93825000D01*
X122400142Y-93826174D01*
X122400142Y-93826174D01*
G37*
D12*
X121920000Y-94312500D03*
G04 #@! TD*
D11*
G04 #@! TO.C,C4*
G36*
X125060142Y-119951174D02*
X125083803Y-119954684D01*
X125107007Y-119960496D01*
X125129529Y-119968554D01*
X125151153Y-119978782D01*
X125171670Y-119991079D01*
X125190883Y-120005329D01*
X125208607Y-120021393D01*
X125224671Y-120039117D01*
X125238921Y-120058330D01*
X125251218Y-120078847D01*
X125261446Y-120100471D01*
X125269504Y-120122993D01*
X125275316Y-120146197D01*
X125278826Y-120169858D01*
X125280000Y-120193750D01*
X125280000Y-121106250D01*
X125278826Y-121130142D01*
X125275316Y-121153803D01*
X125269504Y-121177007D01*
X125261446Y-121199529D01*
X125251218Y-121221153D01*
X125238921Y-121241670D01*
X125224671Y-121260883D01*
X125208607Y-121278607D01*
X125190883Y-121294671D01*
X125171670Y-121308921D01*
X125151153Y-121321218D01*
X125129529Y-121331446D01*
X125107007Y-121339504D01*
X125083803Y-121345316D01*
X125060142Y-121348826D01*
X125036250Y-121350000D01*
X124548750Y-121350000D01*
X124524858Y-121348826D01*
X124501197Y-121345316D01*
X124477993Y-121339504D01*
X124455471Y-121331446D01*
X124433847Y-121321218D01*
X124413330Y-121308921D01*
X124394117Y-121294671D01*
X124376393Y-121278607D01*
X124360329Y-121260883D01*
X124346079Y-121241670D01*
X124333782Y-121221153D01*
X124323554Y-121199529D01*
X124315496Y-121177007D01*
X124309684Y-121153803D01*
X124306174Y-121130142D01*
X124305000Y-121106250D01*
X124305000Y-120193750D01*
X124306174Y-120169858D01*
X124309684Y-120146197D01*
X124315496Y-120122993D01*
X124323554Y-120100471D01*
X124333782Y-120078847D01*
X124346079Y-120058330D01*
X124360329Y-120039117D01*
X124376393Y-120021393D01*
X124394117Y-120005329D01*
X124413330Y-119991079D01*
X124433847Y-119978782D01*
X124455471Y-119968554D01*
X124477993Y-119960496D01*
X124501197Y-119954684D01*
X124524858Y-119951174D01*
X124548750Y-119950000D01*
X125036250Y-119950000D01*
X125060142Y-119951174D01*
X125060142Y-119951174D01*
G37*
D12*
X124792500Y-120650000D03*
D11*
G36*
X126935142Y-119951174D02*
X126958803Y-119954684D01*
X126982007Y-119960496D01*
X127004529Y-119968554D01*
X127026153Y-119978782D01*
X127046670Y-119991079D01*
X127065883Y-120005329D01*
X127083607Y-120021393D01*
X127099671Y-120039117D01*
X127113921Y-120058330D01*
X127126218Y-120078847D01*
X127136446Y-120100471D01*
X127144504Y-120122993D01*
X127150316Y-120146197D01*
X127153826Y-120169858D01*
X127155000Y-120193750D01*
X127155000Y-121106250D01*
X127153826Y-121130142D01*
X127150316Y-121153803D01*
X127144504Y-121177007D01*
X127136446Y-121199529D01*
X127126218Y-121221153D01*
X127113921Y-121241670D01*
X127099671Y-121260883D01*
X127083607Y-121278607D01*
X127065883Y-121294671D01*
X127046670Y-121308921D01*
X127026153Y-121321218D01*
X127004529Y-121331446D01*
X126982007Y-121339504D01*
X126958803Y-121345316D01*
X126935142Y-121348826D01*
X126911250Y-121350000D01*
X126423750Y-121350000D01*
X126399858Y-121348826D01*
X126376197Y-121345316D01*
X126352993Y-121339504D01*
X126330471Y-121331446D01*
X126308847Y-121321218D01*
X126288330Y-121308921D01*
X126269117Y-121294671D01*
X126251393Y-121278607D01*
X126235329Y-121260883D01*
X126221079Y-121241670D01*
X126208782Y-121221153D01*
X126198554Y-121199529D01*
X126190496Y-121177007D01*
X126184684Y-121153803D01*
X126181174Y-121130142D01*
X126180000Y-121106250D01*
X126180000Y-120193750D01*
X126181174Y-120169858D01*
X126184684Y-120146197D01*
X126190496Y-120122993D01*
X126198554Y-120100471D01*
X126208782Y-120078847D01*
X126221079Y-120058330D01*
X126235329Y-120039117D01*
X126251393Y-120021393D01*
X126269117Y-120005329D01*
X126288330Y-119991079D01*
X126308847Y-119978782D01*
X126330471Y-119968554D01*
X126352993Y-119960496D01*
X126376197Y-119954684D01*
X126399858Y-119951174D01*
X126423750Y-119950000D01*
X126911250Y-119950000D01*
X126935142Y-119951174D01*
X126935142Y-119951174D01*
G37*
D12*
X126667500Y-120650000D03*
G04 #@! TD*
D11*
G04 #@! TO.C,C5*
G36*
X120585142Y-107251174D02*
X120608803Y-107254684D01*
X120632007Y-107260496D01*
X120654529Y-107268554D01*
X120676153Y-107278782D01*
X120696670Y-107291079D01*
X120715883Y-107305329D01*
X120733607Y-107321393D01*
X120749671Y-107339117D01*
X120763921Y-107358330D01*
X120776218Y-107378847D01*
X120786446Y-107400471D01*
X120794504Y-107422993D01*
X120800316Y-107446197D01*
X120803826Y-107469858D01*
X120805000Y-107493750D01*
X120805000Y-108406250D01*
X120803826Y-108430142D01*
X120800316Y-108453803D01*
X120794504Y-108477007D01*
X120786446Y-108499529D01*
X120776218Y-108521153D01*
X120763921Y-108541670D01*
X120749671Y-108560883D01*
X120733607Y-108578607D01*
X120715883Y-108594671D01*
X120696670Y-108608921D01*
X120676153Y-108621218D01*
X120654529Y-108631446D01*
X120632007Y-108639504D01*
X120608803Y-108645316D01*
X120585142Y-108648826D01*
X120561250Y-108650000D01*
X120073750Y-108650000D01*
X120049858Y-108648826D01*
X120026197Y-108645316D01*
X120002993Y-108639504D01*
X119980471Y-108631446D01*
X119958847Y-108621218D01*
X119938330Y-108608921D01*
X119919117Y-108594671D01*
X119901393Y-108578607D01*
X119885329Y-108560883D01*
X119871079Y-108541670D01*
X119858782Y-108521153D01*
X119848554Y-108499529D01*
X119840496Y-108477007D01*
X119834684Y-108453803D01*
X119831174Y-108430142D01*
X119830000Y-108406250D01*
X119830000Y-107493750D01*
X119831174Y-107469858D01*
X119834684Y-107446197D01*
X119840496Y-107422993D01*
X119848554Y-107400471D01*
X119858782Y-107378847D01*
X119871079Y-107358330D01*
X119885329Y-107339117D01*
X119901393Y-107321393D01*
X119919117Y-107305329D01*
X119938330Y-107291079D01*
X119958847Y-107278782D01*
X119980471Y-107268554D01*
X120002993Y-107260496D01*
X120026197Y-107254684D01*
X120049858Y-107251174D01*
X120073750Y-107250000D01*
X120561250Y-107250000D01*
X120585142Y-107251174D01*
X120585142Y-107251174D01*
G37*
D12*
X120317500Y-107950000D03*
D11*
G36*
X118710142Y-107251174D02*
X118733803Y-107254684D01*
X118757007Y-107260496D01*
X118779529Y-107268554D01*
X118801153Y-107278782D01*
X118821670Y-107291079D01*
X118840883Y-107305329D01*
X118858607Y-107321393D01*
X118874671Y-107339117D01*
X118888921Y-107358330D01*
X118901218Y-107378847D01*
X118911446Y-107400471D01*
X118919504Y-107422993D01*
X118925316Y-107446197D01*
X118928826Y-107469858D01*
X118930000Y-107493750D01*
X118930000Y-108406250D01*
X118928826Y-108430142D01*
X118925316Y-108453803D01*
X118919504Y-108477007D01*
X118911446Y-108499529D01*
X118901218Y-108521153D01*
X118888921Y-108541670D01*
X118874671Y-108560883D01*
X118858607Y-108578607D01*
X118840883Y-108594671D01*
X118821670Y-108608921D01*
X118801153Y-108621218D01*
X118779529Y-108631446D01*
X118757007Y-108639504D01*
X118733803Y-108645316D01*
X118710142Y-108648826D01*
X118686250Y-108650000D01*
X118198750Y-108650000D01*
X118174858Y-108648826D01*
X118151197Y-108645316D01*
X118127993Y-108639504D01*
X118105471Y-108631446D01*
X118083847Y-108621218D01*
X118063330Y-108608921D01*
X118044117Y-108594671D01*
X118026393Y-108578607D01*
X118010329Y-108560883D01*
X117996079Y-108541670D01*
X117983782Y-108521153D01*
X117973554Y-108499529D01*
X117965496Y-108477007D01*
X117959684Y-108453803D01*
X117956174Y-108430142D01*
X117955000Y-108406250D01*
X117955000Y-107493750D01*
X117956174Y-107469858D01*
X117959684Y-107446197D01*
X117965496Y-107422993D01*
X117973554Y-107400471D01*
X117983782Y-107378847D01*
X117996079Y-107358330D01*
X118010329Y-107339117D01*
X118026393Y-107321393D01*
X118044117Y-107305329D01*
X118063330Y-107291079D01*
X118083847Y-107278782D01*
X118105471Y-107268554D01*
X118127993Y-107260496D01*
X118151197Y-107254684D01*
X118174858Y-107251174D01*
X118198750Y-107250000D01*
X118686250Y-107250000D01*
X118710142Y-107251174D01*
X118710142Y-107251174D01*
G37*
D12*
X118442500Y-107950000D03*
G04 #@! TD*
D11*
G04 #@! TO.C,C6*
G36*
X124940142Y-116021174D02*
X124963803Y-116024684D01*
X124987007Y-116030496D01*
X125009529Y-116038554D01*
X125031153Y-116048782D01*
X125051670Y-116061079D01*
X125070883Y-116075329D01*
X125088607Y-116091393D01*
X125104671Y-116109117D01*
X125118921Y-116128330D01*
X125131218Y-116148847D01*
X125141446Y-116170471D01*
X125149504Y-116192993D01*
X125155316Y-116216197D01*
X125158826Y-116239858D01*
X125160000Y-116263750D01*
X125160000Y-116751250D01*
X125158826Y-116775142D01*
X125155316Y-116798803D01*
X125149504Y-116822007D01*
X125141446Y-116844529D01*
X125131218Y-116866153D01*
X125118921Y-116886670D01*
X125104671Y-116905883D01*
X125088607Y-116923607D01*
X125070883Y-116939671D01*
X125051670Y-116953921D01*
X125031153Y-116966218D01*
X125009529Y-116976446D01*
X124987007Y-116984504D01*
X124963803Y-116990316D01*
X124940142Y-116993826D01*
X124916250Y-116995000D01*
X124003750Y-116995000D01*
X123979858Y-116993826D01*
X123956197Y-116990316D01*
X123932993Y-116984504D01*
X123910471Y-116976446D01*
X123888847Y-116966218D01*
X123868330Y-116953921D01*
X123849117Y-116939671D01*
X123831393Y-116923607D01*
X123815329Y-116905883D01*
X123801079Y-116886670D01*
X123788782Y-116866153D01*
X123778554Y-116844529D01*
X123770496Y-116822007D01*
X123764684Y-116798803D01*
X123761174Y-116775142D01*
X123760000Y-116751250D01*
X123760000Y-116263750D01*
X123761174Y-116239858D01*
X123764684Y-116216197D01*
X123770496Y-116192993D01*
X123778554Y-116170471D01*
X123788782Y-116148847D01*
X123801079Y-116128330D01*
X123815329Y-116109117D01*
X123831393Y-116091393D01*
X123849117Y-116075329D01*
X123868330Y-116061079D01*
X123888847Y-116048782D01*
X123910471Y-116038554D01*
X123932993Y-116030496D01*
X123956197Y-116024684D01*
X123979858Y-116021174D01*
X124003750Y-116020000D01*
X124916250Y-116020000D01*
X124940142Y-116021174D01*
X124940142Y-116021174D01*
G37*
D12*
X124460000Y-116507500D03*
D11*
G36*
X124940142Y-114146174D02*
X124963803Y-114149684D01*
X124987007Y-114155496D01*
X125009529Y-114163554D01*
X125031153Y-114173782D01*
X125051670Y-114186079D01*
X125070883Y-114200329D01*
X125088607Y-114216393D01*
X125104671Y-114234117D01*
X125118921Y-114253330D01*
X125131218Y-114273847D01*
X125141446Y-114295471D01*
X125149504Y-114317993D01*
X125155316Y-114341197D01*
X125158826Y-114364858D01*
X125160000Y-114388750D01*
X125160000Y-114876250D01*
X125158826Y-114900142D01*
X125155316Y-114923803D01*
X125149504Y-114947007D01*
X125141446Y-114969529D01*
X125131218Y-114991153D01*
X125118921Y-115011670D01*
X125104671Y-115030883D01*
X125088607Y-115048607D01*
X125070883Y-115064671D01*
X125051670Y-115078921D01*
X125031153Y-115091218D01*
X125009529Y-115101446D01*
X124987007Y-115109504D01*
X124963803Y-115115316D01*
X124940142Y-115118826D01*
X124916250Y-115120000D01*
X124003750Y-115120000D01*
X123979858Y-115118826D01*
X123956197Y-115115316D01*
X123932993Y-115109504D01*
X123910471Y-115101446D01*
X123888847Y-115091218D01*
X123868330Y-115078921D01*
X123849117Y-115064671D01*
X123831393Y-115048607D01*
X123815329Y-115030883D01*
X123801079Y-115011670D01*
X123788782Y-114991153D01*
X123778554Y-114969529D01*
X123770496Y-114947007D01*
X123764684Y-114923803D01*
X123761174Y-114900142D01*
X123760000Y-114876250D01*
X123760000Y-114388750D01*
X123761174Y-114364858D01*
X123764684Y-114341197D01*
X123770496Y-114317993D01*
X123778554Y-114295471D01*
X123788782Y-114273847D01*
X123801079Y-114253330D01*
X123815329Y-114234117D01*
X123831393Y-114216393D01*
X123849117Y-114200329D01*
X123868330Y-114186079D01*
X123888847Y-114173782D01*
X123910471Y-114163554D01*
X123932993Y-114155496D01*
X123956197Y-114149684D01*
X123979858Y-114146174D01*
X124003750Y-114145000D01*
X124916250Y-114145000D01*
X124940142Y-114146174D01*
X124940142Y-114146174D01*
G37*
D12*
X124460000Y-114632500D03*
G04 #@! TD*
D11*
G04 #@! TO.C,C7*
G36*
X131410142Y-107251174D02*
X131433803Y-107254684D01*
X131457007Y-107260496D01*
X131479529Y-107268554D01*
X131501153Y-107278782D01*
X131521670Y-107291079D01*
X131540883Y-107305329D01*
X131558607Y-107321393D01*
X131574671Y-107339117D01*
X131588921Y-107358330D01*
X131601218Y-107378847D01*
X131611446Y-107400471D01*
X131619504Y-107422993D01*
X131625316Y-107446197D01*
X131628826Y-107469858D01*
X131630000Y-107493750D01*
X131630000Y-108406250D01*
X131628826Y-108430142D01*
X131625316Y-108453803D01*
X131619504Y-108477007D01*
X131611446Y-108499529D01*
X131601218Y-108521153D01*
X131588921Y-108541670D01*
X131574671Y-108560883D01*
X131558607Y-108578607D01*
X131540883Y-108594671D01*
X131521670Y-108608921D01*
X131501153Y-108621218D01*
X131479529Y-108631446D01*
X131457007Y-108639504D01*
X131433803Y-108645316D01*
X131410142Y-108648826D01*
X131386250Y-108650000D01*
X130898750Y-108650000D01*
X130874858Y-108648826D01*
X130851197Y-108645316D01*
X130827993Y-108639504D01*
X130805471Y-108631446D01*
X130783847Y-108621218D01*
X130763330Y-108608921D01*
X130744117Y-108594671D01*
X130726393Y-108578607D01*
X130710329Y-108560883D01*
X130696079Y-108541670D01*
X130683782Y-108521153D01*
X130673554Y-108499529D01*
X130665496Y-108477007D01*
X130659684Y-108453803D01*
X130656174Y-108430142D01*
X130655000Y-108406250D01*
X130655000Y-107493750D01*
X130656174Y-107469858D01*
X130659684Y-107446197D01*
X130665496Y-107422993D01*
X130673554Y-107400471D01*
X130683782Y-107378847D01*
X130696079Y-107358330D01*
X130710329Y-107339117D01*
X130726393Y-107321393D01*
X130744117Y-107305329D01*
X130763330Y-107291079D01*
X130783847Y-107278782D01*
X130805471Y-107268554D01*
X130827993Y-107260496D01*
X130851197Y-107254684D01*
X130874858Y-107251174D01*
X130898750Y-107250000D01*
X131386250Y-107250000D01*
X131410142Y-107251174D01*
X131410142Y-107251174D01*
G37*
D12*
X131142500Y-107950000D03*
D11*
G36*
X133285142Y-107251174D02*
X133308803Y-107254684D01*
X133332007Y-107260496D01*
X133354529Y-107268554D01*
X133376153Y-107278782D01*
X133396670Y-107291079D01*
X133415883Y-107305329D01*
X133433607Y-107321393D01*
X133449671Y-107339117D01*
X133463921Y-107358330D01*
X133476218Y-107378847D01*
X133486446Y-107400471D01*
X133494504Y-107422993D01*
X133500316Y-107446197D01*
X133503826Y-107469858D01*
X133505000Y-107493750D01*
X133505000Y-108406250D01*
X133503826Y-108430142D01*
X133500316Y-108453803D01*
X133494504Y-108477007D01*
X133486446Y-108499529D01*
X133476218Y-108521153D01*
X133463921Y-108541670D01*
X133449671Y-108560883D01*
X133433607Y-108578607D01*
X133415883Y-108594671D01*
X133396670Y-108608921D01*
X133376153Y-108621218D01*
X133354529Y-108631446D01*
X133332007Y-108639504D01*
X133308803Y-108645316D01*
X133285142Y-108648826D01*
X133261250Y-108650000D01*
X132773750Y-108650000D01*
X132749858Y-108648826D01*
X132726197Y-108645316D01*
X132702993Y-108639504D01*
X132680471Y-108631446D01*
X132658847Y-108621218D01*
X132638330Y-108608921D01*
X132619117Y-108594671D01*
X132601393Y-108578607D01*
X132585329Y-108560883D01*
X132571079Y-108541670D01*
X132558782Y-108521153D01*
X132548554Y-108499529D01*
X132540496Y-108477007D01*
X132534684Y-108453803D01*
X132531174Y-108430142D01*
X132530000Y-108406250D01*
X132530000Y-107493750D01*
X132531174Y-107469858D01*
X132534684Y-107446197D01*
X132540496Y-107422993D01*
X132548554Y-107400471D01*
X132558782Y-107378847D01*
X132571079Y-107358330D01*
X132585329Y-107339117D01*
X132601393Y-107321393D01*
X132619117Y-107305329D01*
X132638330Y-107291079D01*
X132658847Y-107278782D01*
X132680471Y-107268554D01*
X132702993Y-107260496D01*
X132726197Y-107254684D01*
X132749858Y-107251174D01*
X132773750Y-107250000D01*
X133261250Y-107250000D01*
X133285142Y-107251174D01*
X133285142Y-107251174D01*
G37*
D12*
X133017500Y-107950000D03*
G04 #@! TD*
D11*
G04 #@! TO.C,C8*
G36*
X142175142Y-95821174D02*
X142198803Y-95824684D01*
X142222007Y-95830496D01*
X142244529Y-95838554D01*
X142266153Y-95848782D01*
X142286670Y-95861079D01*
X142305883Y-95875329D01*
X142323607Y-95891393D01*
X142339671Y-95909117D01*
X142353921Y-95928330D01*
X142366218Y-95948847D01*
X142376446Y-95970471D01*
X142384504Y-95992993D01*
X142390316Y-96016197D01*
X142393826Y-96039858D01*
X142395000Y-96063750D01*
X142395000Y-96976250D01*
X142393826Y-97000142D01*
X142390316Y-97023803D01*
X142384504Y-97047007D01*
X142376446Y-97069529D01*
X142366218Y-97091153D01*
X142353921Y-97111670D01*
X142339671Y-97130883D01*
X142323607Y-97148607D01*
X142305883Y-97164671D01*
X142286670Y-97178921D01*
X142266153Y-97191218D01*
X142244529Y-97201446D01*
X142222007Y-97209504D01*
X142198803Y-97215316D01*
X142175142Y-97218826D01*
X142151250Y-97220000D01*
X141663750Y-97220000D01*
X141639858Y-97218826D01*
X141616197Y-97215316D01*
X141592993Y-97209504D01*
X141570471Y-97201446D01*
X141548847Y-97191218D01*
X141528330Y-97178921D01*
X141509117Y-97164671D01*
X141491393Y-97148607D01*
X141475329Y-97130883D01*
X141461079Y-97111670D01*
X141448782Y-97091153D01*
X141438554Y-97069529D01*
X141430496Y-97047007D01*
X141424684Y-97023803D01*
X141421174Y-97000142D01*
X141420000Y-96976250D01*
X141420000Y-96063750D01*
X141421174Y-96039858D01*
X141424684Y-96016197D01*
X141430496Y-95992993D01*
X141438554Y-95970471D01*
X141448782Y-95948847D01*
X141461079Y-95928330D01*
X141475329Y-95909117D01*
X141491393Y-95891393D01*
X141509117Y-95875329D01*
X141528330Y-95861079D01*
X141548847Y-95848782D01*
X141570471Y-95838554D01*
X141592993Y-95830496D01*
X141616197Y-95824684D01*
X141639858Y-95821174D01*
X141663750Y-95820000D01*
X142151250Y-95820000D01*
X142175142Y-95821174D01*
X142175142Y-95821174D01*
G37*
D12*
X141907500Y-96520000D03*
D11*
G36*
X140300142Y-95821174D02*
X140323803Y-95824684D01*
X140347007Y-95830496D01*
X140369529Y-95838554D01*
X140391153Y-95848782D01*
X140411670Y-95861079D01*
X140430883Y-95875329D01*
X140448607Y-95891393D01*
X140464671Y-95909117D01*
X140478921Y-95928330D01*
X140491218Y-95948847D01*
X140501446Y-95970471D01*
X140509504Y-95992993D01*
X140515316Y-96016197D01*
X140518826Y-96039858D01*
X140520000Y-96063750D01*
X140520000Y-96976250D01*
X140518826Y-97000142D01*
X140515316Y-97023803D01*
X140509504Y-97047007D01*
X140501446Y-97069529D01*
X140491218Y-97091153D01*
X140478921Y-97111670D01*
X140464671Y-97130883D01*
X140448607Y-97148607D01*
X140430883Y-97164671D01*
X140411670Y-97178921D01*
X140391153Y-97191218D01*
X140369529Y-97201446D01*
X140347007Y-97209504D01*
X140323803Y-97215316D01*
X140300142Y-97218826D01*
X140276250Y-97220000D01*
X139788750Y-97220000D01*
X139764858Y-97218826D01*
X139741197Y-97215316D01*
X139717993Y-97209504D01*
X139695471Y-97201446D01*
X139673847Y-97191218D01*
X139653330Y-97178921D01*
X139634117Y-97164671D01*
X139616393Y-97148607D01*
X139600329Y-97130883D01*
X139586079Y-97111670D01*
X139573782Y-97091153D01*
X139563554Y-97069529D01*
X139555496Y-97047007D01*
X139549684Y-97023803D01*
X139546174Y-97000142D01*
X139545000Y-96976250D01*
X139545000Y-96063750D01*
X139546174Y-96039858D01*
X139549684Y-96016197D01*
X139555496Y-95992993D01*
X139563554Y-95970471D01*
X139573782Y-95948847D01*
X139586079Y-95928330D01*
X139600329Y-95909117D01*
X139616393Y-95891393D01*
X139634117Y-95875329D01*
X139653330Y-95861079D01*
X139673847Y-95848782D01*
X139695471Y-95838554D01*
X139717993Y-95830496D01*
X139741197Y-95824684D01*
X139764858Y-95821174D01*
X139788750Y-95820000D01*
X140276250Y-95820000D01*
X140300142Y-95821174D01*
X140300142Y-95821174D01*
G37*
D12*
X140032500Y-96520000D03*
G04 #@! TD*
D11*
G04 #@! TO.C,C9*
G36*
X140180142Y-114146174D02*
X140203803Y-114149684D01*
X140227007Y-114155496D01*
X140249529Y-114163554D01*
X140271153Y-114173782D01*
X140291670Y-114186079D01*
X140310883Y-114200329D01*
X140328607Y-114216393D01*
X140344671Y-114234117D01*
X140358921Y-114253330D01*
X140371218Y-114273847D01*
X140381446Y-114295471D01*
X140389504Y-114317993D01*
X140395316Y-114341197D01*
X140398826Y-114364858D01*
X140400000Y-114388750D01*
X140400000Y-114876250D01*
X140398826Y-114900142D01*
X140395316Y-114923803D01*
X140389504Y-114947007D01*
X140381446Y-114969529D01*
X140371218Y-114991153D01*
X140358921Y-115011670D01*
X140344671Y-115030883D01*
X140328607Y-115048607D01*
X140310883Y-115064671D01*
X140291670Y-115078921D01*
X140271153Y-115091218D01*
X140249529Y-115101446D01*
X140227007Y-115109504D01*
X140203803Y-115115316D01*
X140180142Y-115118826D01*
X140156250Y-115120000D01*
X139243750Y-115120000D01*
X139219858Y-115118826D01*
X139196197Y-115115316D01*
X139172993Y-115109504D01*
X139150471Y-115101446D01*
X139128847Y-115091218D01*
X139108330Y-115078921D01*
X139089117Y-115064671D01*
X139071393Y-115048607D01*
X139055329Y-115030883D01*
X139041079Y-115011670D01*
X139028782Y-114991153D01*
X139018554Y-114969529D01*
X139010496Y-114947007D01*
X139004684Y-114923803D01*
X139001174Y-114900142D01*
X139000000Y-114876250D01*
X139000000Y-114388750D01*
X139001174Y-114364858D01*
X139004684Y-114341197D01*
X139010496Y-114317993D01*
X139018554Y-114295471D01*
X139028782Y-114273847D01*
X139041079Y-114253330D01*
X139055329Y-114234117D01*
X139071393Y-114216393D01*
X139089117Y-114200329D01*
X139108330Y-114186079D01*
X139128847Y-114173782D01*
X139150471Y-114163554D01*
X139172993Y-114155496D01*
X139196197Y-114149684D01*
X139219858Y-114146174D01*
X139243750Y-114145000D01*
X140156250Y-114145000D01*
X140180142Y-114146174D01*
X140180142Y-114146174D01*
G37*
D12*
X139700000Y-114632500D03*
D11*
G36*
X140180142Y-116021174D02*
X140203803Y-116024684D01*
X140227007Y-116030496D01*
X140249529Y-116038554D01*
X140271153Y-116048782D01*
X140291670Y-116061079D01*
X140310883Y-116075329D01*
X140328607Y-116091393D01*
X140344671Y-116109117D01*
X140358921Y-116128330D01*
X140371218Y-116148847D01*
X140381446Y-116170471D01*
X140389504Y-116192993D01*
X140395316Y-116216197D01*
X140398826Y-116239858D01*
X140400000Y-116263750D01*
X140400000Y-116751250D01*
X140398826Y-116775142D01*
X140395316Y-116798803D01*
X140389504Y-116822007D01*
X140381446Y-116844529D01*
X140371218Y-116866153D01*
X140358921Y-116886670D01*
X140344671Y-116905883D01*
X140328607Y-116923607D01*
X140310883Y-116939671D01*
X140291670Y-116953921D01*
X140271153Y-116966218D01*
X140249529Y-116976446D01*
X140227007Y-116984504D01*
X140203803Y-116990316D01*
X140180142Y-116993826D01*
X140156250Y-116995000D01*
X139243750Y-116995000D01*
X139219858Y-116993826D01*
X139196197Y-116990316D01*
X139172993Y-116984504D01*
X139150471Y-116976446D01*
X139128847Y-116966218D01*
X139108330Y-116953921D01*
X139089117Y-116939671D01*
X139071393Y-116923607D01*
X139055329Y-116905883D01*
X139041079Y-116886670D01*
X139028782Y-116866153D01*
X139018554Y-116844529D01*
X139010496Y-116822007D01*
X139004684Y-116798803D01*
X139001174Y-116775142D01*
X139000000Y-116751250D01*
X139000000Y-116263750D01*
X139001174Y-116239858D01*
X139004684Y-116216197D01*
X139010496Y-116192993D01*
X139018554Y-116170471D01*
X139028782Y-116148847D01*
X139041079Y-116128330D01*
X139055329Y-116109117D01*
X139071393Y-116091393D01*
X139089117Y-116075329D01*
X139108330Y-116061079D01*
X139128847Y-116048782D01*
X139150471Y-116038554D01*
X139172993Y-116030496D01*
X139196197Y-116024684D01*
X139219858Y-116021174D01*
X139243750Y-116020000D01*
X140156250Y-116020000D01*
X140180142Y-116021174D01*
X140180142Y-116021174D01*
G37*
D12*
X139700000Y-116507500D03*
G04 #@! TD*
D11*
G04 #@! TO.C,C10*
G36*
X131410142Y-122491174D02*
X131433803Y-122494684D01*
X131457007Y-122500496D01*
X131479529Y-122508554D01*
X131501153Y-122518782D01*
X131521670Y-122531079D01*
X131540883Y-122545329D01*
X131558607Y-122561393D01*
X131574671Y-122579117D01*
X131588921Y-122598330D01*
X131601218Y-122618847D01*
X131611446Y-122640471D01*
X131619504Y-122662993D01*
X131625316Y-122686197D01*
X131628826Y-122709858D01*
X131630000Y-122733750D01*
X131630000Y-123646250D01*
X131628826Y-123670142D01*
X131625316Y-123693803D01*
X131619504Y-123717007D01*
X131611446Y-123739529D01*
X131601218Y-123761153D01*
X131588921Y-123781670D01*
X131574671Y-123800883D01*
X131558607Y-123818607D01*
X131540883Y-123834671D01*
X131521670Y-123848921D01*
X131501153Y-123861218D01*
X131479529Y-123871446D01*
X131457007Y-123879504D01*
X131433803Y-123885316D01*
X131410142Y-123888826D01*
X131386250Y-123890000D01*
X130898750Y-123890000D01*
X130874858Y-123888826D01*
X130851197Y-123885316D01*
X130827993Y-123879504D01*
X130805471Y-123871446D01*
X130783847Y-123861218D01*
X130763330Y-123848921D01*
X130744117Y-123834671D01*
X130726393Y-123818607D01*
X130710329Y-123800883D01*
X130696079Y-123781670D01*
X130683782Y-123761153D01*
X130673554Y-123739529D01*
X130665496Y-123717007D01*
X130659684Y-123693803D01*
X130656174Y-123670142D01*
X130655000Y-123646250D01*
X130655000Y-122733750D01*
X130656174Y-122709858D01*
X130659684Y-122686197D01*
X130665496Y-122662993D01*
X130673554Y-122640471D01*
X130683782Y-122618847D01*
X130696079Y-122598330D01*
X130710329Y-122579117D01*
X130726393Y-122561393D01*
X130744117Y-122545329D01*
X130763330Y-122531079D01*
X130783847Y-122518782D01*
X130805471Y-122508554D01*
X130827993Y-122500496D01*
X130851197Y-122494684D01*
X130874858Y-122491174D01*
X130898750Y-122490000D01*
X131386250Y-122490000D01*
X131410142Y-122491174D01*
X131410142Y-122491174D01*
G37*
D12*
X131142500Y-123190000D03*
D11*
G36*
X133285142Y-122491174D02*
X133308803Y-122494684D01*
X133332007Y-122500496D01*
X133354529Y-122508554D01*
X133376153Y-122518782D01*
X133396670Y-122531079D01*
X133415883Y-122545329D01*
X133433607Y-122561393D01*
X133449671Y-122579117D01*
X133463921Y-122598330D01*
X133476218Y-122618847D01*
X133486446Y-122640471D01*
X133494504Y-122662993D01*
X133500316Y-122686197D01*
X133503826Y-122709858D01*
X133505000Y-122733750D01*
X133505000Y-123646250D01*
X133503826Y-123670142D01*
X133500316Y-123693803D01*
X133494504Y-123717007D01*
X133486446Y-123739529D01*
X133476218Y-123761153D01*
X133463921Y-123781670D01*
X133449671Y-123800883D01*
X133433607Y-123818607D01*
X133415883Y-123834671D01*
X133396670Y-123848921D01*
X133376153Y-123861218D01*
X133354529Y-123871446D01*
X133332007Y-123879504D01*
X133308803Y-123885316D01*
X133285142Y-123888826D01*
X133261250Y-123890000D01*
X132773750Y-123890000D01*
X132749858Y-123888826D01*
X132726197Y-123885316D01*
X132702993Y-123879504D01*
X132680471Y-123871446D01*
X132658847Y-123861218D01*
X132638330Y-123848921D01*
X132619117Y-123834671D01*
X132601393Y-123818607D01*
X132585329Y-123800883D01*
X132571079Y-123781670D01*
X132558782Y-123761153D01*
X132548554Y-123739529D01*
X132540496Y-123717007D01*
X132534684Y-123693803D01*
X132531174Y-123670142D01*
X132530000Y-123646250D01*
X132530000Y-122733750D01*
X132531174Y-122709858D01*
X132534684Y-122686197D01*
X132540496Y-122662993D01*
X132548554Y-122640471D01*
X132558782Y-122618847D01*
X132571079Y-122598330D01*
X132585329Y-122579117D01*
X132601393Y-122561393D01*
X132619117Y-122545329D01*
X132638330Y-122531079D01*
X132658847Y-122518782D01*
X132680471Y-122508554D01*
X132702993Y-122500496D01*
X132726197Y-122494684D01*
X132749858Y-122491174D01*
X132773750Y-122490000D01*
X133261250Y-122490000D01*
X133285142Y-122491174D01*
X133285142Y-122491174D01*
G37*
D12*
X133017500Y-123190000D03*
G04 #@! TD*
D11*
G04 #@! TO.C,C11*
G36*
X138910142Y-125576174D02*
X138933803Y-125579684D01*
X138957007Y-125585496D01*
X138979529Y-125593554D01*
X139001153Y-125603782D01*
X139021670Y-125616079D01*
X139040883Y-125630329D01*
X139058607Y-125646393D01*
X139074671Y-125664117D01*
X139088921Y-125683330D01*
X139101218Y-125703847D01*
X139111446Y-125725471D01*
X139119504Y-125747993D01*
X139125316Y-125771197D01*
X139128826Y-125794858D01*
X139130000Y-125818750D01*
X139130000Y-126306250D01*
X139128826Y-126330142D01*
X139125316Y-126353803D01*
X139119504Y-126377007D01*
X139111446Y-126399529D01*
X139101218Y-126421153D01*
X139088921Y-126441670D01*
X139074671Y-126460883D01*
X139058607Y-126478607D01*
X139040883Y-126494671D01*
X139021670Y-126508921D01*
X139001153Y-126521218D01*
X138979529Y-126531446D01*
X138957007Y-126539504D01*
X138933803Y-126545316D01*
X138910142Y-126548826D01*
X138886250Y-126550000D01*
X137973750Y-126550000D01*
X137949858Y-126548826D01*
X137926197Y-126545316D01*
X137902993Y-126539504D01*
X137880471Y-126531446D01*
X137858847Y-126521218D01*
X137838330Y-126508921D01*
X137819117Y-126494671D01*
X137801393Y-126478607D01*
X137785329Y-126460883D01*
X137771079Y-126441670D01*
X137758782Y-126421153D01*
X137748554Y-126399529D01*
X137740496Y-126377007D01*
X137734684Y-126353803D01*
X137731174Y-126330142D01*
X137730000Y-126306250D01*
X137730000Y-125818750D01*
X137731174Y-125794858D01*
X137734684Y-125771197D01*
X137740496Y-125747993D01*
X137748554Y-125725471D01*
X137758782Y-125703847D01*
X137771079Y-125683330D01*
X137785329Y-125664117D01*
X137801393Y-125646393D01*
X137819117Y-125630329D01*
X137838330Y-125616079D01*
X137858847Y-125603782D01*
X137880471Y-125593554D01*
X137902993Y-125585496D01*
X137926197Y-125579684D01*
X137949858Y-125576174D01*
X137973750Y-125575000D01*
X138886250Y-125575000D01*
X138910142Y-125576174D01*
X138910142Y-125576174D01*
G37*
D12*
X138430000Y-126062500D03*
D11*
G36*
X138910142Y-127451174D02*
X138933803Y-127454684D01*
X138957007Y-127460496D01*
X138979529Y-127468554D01*
X139001153Y-127478782D01*
X139021670Y-127491079D01*
X139040883Y-127505329D01*
X139058607Y-127521393D01*
X139074671Y-127539117D01*
X139088921Y-127558330D01*
X139101218Y-127578847D01*
X139111446Y-127600471D01*
X139119504Y-127622993D01*
X139125316Y-127646197D01*
X139128826Y-127669858D01*
X139130000Y-127693750D01*
X139130000Y-128181250D01*
X139128826Y-128205142D01*
X139125316Y-128228803D01*
X139119504Y-128252007D01*
X139111446Y-128274529D01*
X139101218Y-128296153D01*
X139088921Y-128316670D01*
X139074671Y-128335883D01*
X139058607Y-128353607D01*
X139040883Y-128369671D01*
X139021670Y-128383921D01*
X139001153Y-128396218D01*
X138979529Y-128406446D01*
X138957007Y-128414504D01*
X138933803Y-128420316D01*
X138910142Y-128423826D01*
X138886250Y-128425000D01*
X137973750Y-128425000D01*
X137949858Y-128423826D01*
X137926197Y-128420316D01*
X137902993Y-128414504D01*
X137880471Y-128406446D01*
X137858847Y-128396218D01*
X137838330Y-128383921D01*
X137819117Y-128369671D01*
X137801393Y-128353607D01*
X137785329Y-128335883D01*
X137771079Y-128316670D01*
X137758782Y-128296153D01*
X137748554Y-128274529D01*
X137740496Y-128252007D01*
X137734684Y-128228803D01*
X137731174Y-128205142D01*
X137730000Y-128181250D01*
X137730000Y-127693750D01*
X137731174Y-127669858D01*
X137734684Y-127646197D01*
X137740496Y-127622993D01*
X137748554Y-127600471D01*
X137758782Y-127578847D01*
X137771079Y-127558330D01*
X137785329Y-127539117D01*
X137801393Y-127521393D01*
X137819117Y-127505329D01*
X137838330Y-127491079D01*
X137858847Y-127478782D01*
X137880471Y-127468554D01*
X137902993Y-127460496D01*
X137926197Y-127454684D01*
X137949858Y-127451174D01*
X137973750Y-127450000D01*
X138886250Y-127450000D01*
X138910142Y-127451174D01*
X138910142Y-127451174D01*
G37*
D12*
X138430000Y-127937500D03*
G04 #@! TD*
D11*
G04 #@! TO.C,C12*
G36*
X143990142Y-127451174D02*
X144013803Y-127454684D01*
X144037007Y-127460496D01*
X144059529Y-127468554D01*
X144081153Y-127478782D01*
X144101670Y-127491079D01*
X144120883Y-127505329D01*
X144138607Y-127521393D01*
X144154671Y-127539117D01*
X144168921Y-127558330D01*
X144181218Y-127578847D01*
X144191446Y-127600471D01*
X144199504Y-127622993D01*
X144205316Y-127646197D01*
X144208826Y-127669858D01*
X144210000Y-127693750D01*
X144210000Y-128181250D01*
X144208826Y-128205142D01*
X144205316Y-128228803D01*
X144199504Y-128252007D01*
X144191446Y-128274529D01*
X144181218Y-128296153D01*
X144168921Y-128316670D01*
X144154671Y-128335883D01*
X144138607Y-128353607D01*
X144120883Y-128369671D01*
X144101670Y-128383921D01*
X144081153Y-128396218D01*
X144059529Y-128406446D01*
X144037007Y-128414504D01*
X144013803Y-128420316D01*
X143990142Y-128423826D01*
X143966250Y-128425000D01*
X143053750Y-128425000D01*
X143029858Y-128423826D01*
X143006197Y-128420316D01*
X142982993Y-128414504D01*
X142960471Y-128406446D01*
X142938847Y-128396218D01*
X142918330Y-128383921D01*
X142899117Y-128369671D01*
X142881393Y-128353607D01*
X142865329Y-128335883D01*
X142851079Y-128316670D01*
X142838782Y-128296153D01*
X142828554Y-128274529D01*
X142820496Y-128252007D01*
X142814684Y-128228803D01*
X142811174Y-128205142D01*
X142810000Y-128181250D01*
X142810000Y-127693750D01*
X142811174Y-127669858D01*
X142814684Y-127646197D01*
X142820496Y-127622993D01*
X142828554Y-127600471D01*
X142838782Y-127578847D01*
X142851079Y-127558330D01*
X142865329Y-127539117D01*
X142881393Y-127521393D01*
X142899117Y-127505329D01*
X142918330Y-127491079D01*
X142938847Y-127478782D01*
X142960471Y-127468554D01*
X142982993Y-127460496D01*
X143006197Y-127454684D01*
X143029858Y-127451174D01*
X143053750Y-127450000D01*
X143966250Y-127450000D01*
X143990142Y-127451174D01*
X143990142Y-127451174D01*
G37*
D12*
X143510000Y-127937500D03*
D11*
G36*
X143990142Y-125576174D02*
X144013803Y-125579684D01*
X144037007Y-125585496D01*
X144059529Y-125593554D01*
X144081153Y-125603782D01*
X144101670Y-125616079D01*
X144120883Y-125630329D01*
X144138607Y-125646393D01*
X144154671Y-125664117D01*
X144168921Y-125683330D01*
X144181218Y-125703847D01*
X144191446Y-125725471D01*
X144199504Y-125747993D01*
X144205316Y-125771197D01*
X144208826Y-125794858D01*
X144210000Y-125818750D01*
X144210000Y-126306250D01*
X144208826Y-126330142D01*
X144205316Y-126353803D01*
X144199504Y-126377007D01*
X144191446Y-126399529D01*
X144181218Y-126421153D01*
X144168921Y-126441670D01*
X144154671Y-126460883D01*
X144138607Y-126478607D01*
X144120883Y-126494671D01*
X144101670Y-126508921D01*
X144081153Y-126521218D01*
X144059529Y-126531446D01*
X144037007Y-126539504D01*
X144013803Y-126545316D01*
X143990142Y-126548826D01*
X143966250Y-126550000D01*
X143053750Y-126550000D01*
X143029858Y-126548826D01*
X143006197Y-126545316D01*
X142982993Y-126539504D01*
X142960471Y-126531446D01*
X142938847Y-126521218D01*
X142918330Y-126508921D01*
X142899117Y-126494671D01*
X142881393Y-126478607D01*
X142865329Y-126460883D01*
X142851079Y-126441670D01*
X142838782Y-126421153D01*
X142828554Y-126399529D01*
X142820496Y-126377007D01*
X142814684Y-126353803D01*
X142811174Y-126330142D01*
X142810000Y-126306250D01*
X142810000Y-125818750D01*
X142811174Y-125794858D01*
X142814684Y-125771197D01*
X142820496Y-125747993D01*
X142828554Y-125725471D01*
X142838782Y-125703847D01*
X142851079Y-125683330D01*
X142865329Y-125664117D01*
X142881393Y-125646393D01*
X142899117Y-125630329D01*
X142918330Y-125616079D01*
X142938847Y-125603782D01*
X142960471Y-125593554D01*
X142982993Y-125585496D01*
X143006197Y-125579684D01*
X143029858Y-125576174D01*
X143053750Y-125575000D01*
X143966250Y-125575000D01*
X143990142Y-125576174D01*
X143990142Y-125576174D01*
G37*
D12*
X143510000Y-126062500D03*
G04 #@! TD*
D11*
G04 #@! TO.C,D1*
G36*
X130189504Y-99706204D02*
X130213773Y-99709804D01*
X130237571Y-99715765D01*
X130260671Y-99724030D01*
X130282849Y-99734520D01*
X130303893Y-99747133D01*
X130323598Y-99761747D01*
X130341777Y-99778223D01*
X130358253Y-99796402D01*
X130372867Y-99816107D01*
X130385480Y-99837151D01*
X130395970Y-99859329D01*
X130404235Y-99882429D01*
X130410196Y-99906227D01*
X130413796Y-99930496D01*
X130415000Y-99955000D01*
X130415000Y-100705000D01*
X130413796Y-100729504D01*
X130410196Y-100753773D01*
X130404235Y-100777571D01*
X130395970Y-100800671D01*
X130385480Y-100822849D01*
X130372867Y-100843893D01*
X130358253Y-100863598D01*
X130341777Y-100881777D01*
X130323598Y-100898253D01*
X130303893Y-100912867D01*
X130282849Y-100925480D01*
X130260671Y-100935970D01*
X130237571Y-100944235D01*
X130213773Y-100950196D01*
X130189504Y-100953796D01*
X130165000Y-100955000D01*
X128915000Y-100955000D01*
X128890496Y-100953796D01*
X128866227Y-100950196D01*
X128842429Y-100944235D01*
X128819329Y-100935970D01*
X128797151Y-100925480D01*
X128776107Y-100912867D01*
X128756402Y-100898253D01*
X128738223Y-100881777D01*
X128721747Y-100863598D01*
X128707133Y-100843893D01*
X128694520Y-100822849D01*
X128684030Y-100800671D01*
X128675765Y-100777571D01*
X128669804Y-100753773D01*
X128666204Y-100729504D01*
X128665000Y-100705000D01*
X128665000Y-99955000D01*
X128666204Y-99930496D01*
X128669804Y-99906227D01*
X128675765Y-99882429D01*
X128684030Y-99859329D01*
X128694520Y-99837151D01*
X128707133Y-99816107D01*
X128721747Y-99796402D01*
X128738223Y-99778223D01*
X128756402Y-99761747D01*
X128776107Y-99747133D01*
X128797151Y-99734520D01*
X128819329Y-99724030D01*
X128842429Y-99715765D01*
X128866227Y-99709804D01*
X128890496Y-99706204D01*
X128915000Y-99705000D01*
X130165000Y-99705000D01*
X130189504Y-99706204D01*
X130189504Y-99706204D01*
G37*
D13*
X129540000Y-100330000D03*
D11*
G36*
X130189504Y-96906204D02*
X130213773Y-96909804D01*
X130237571Y-96915765D01*
X130260671Y-96924030D01*
X130282849Y-96934520D01*
X130303893Y-96947133D01*
X130323598Y-96961747D01*
X130341777Y-96978223D01*
X130358253Y-96996402D01*
X130372867Y-97016107D01*
X130385480Y-97037151D01*
X130395970Y-97059329D01*
X130404235Y-97082429D01*
X130410196Y-97106227D01*
X130413796Y-97130496D01*
X130415000Y-97155000D01*
X130415000Y-97905000D01*
X130413796Y-97929504D01*
X130410196Y-97953773D01*
X130404235Y-97977571D01*
X130395970Y-98000671D01*
X130385480Y-98022849D01*
X130372867Y-98043893D01*
X130358253Y-98063598D01*
X130341777Y-98081777D01*
X130323598Y-98098253D01*
X130303893Y-98112867D01*
X130282849Y-98125480D01*
X130260671Y-98135970D01*
X130237571Y-98144235D01*
X130213773Y-98150196D01*
X130189504Y-98153796D01*
X130165000Y-98155000D01*
X128915000Y-98155000D01*
X128890496Y-98153796D01*
X128866227Y-98150196D01*
X128842429Y-98144235D01*
X128819329Y-98135970D01*
X128797151Y-98125480D01*
X128776107Y-98112867D01*
X128756402Y-98098253D01*
X128738223Y-98081777D01*
X128721747Y-98063598D01*
X128707133Y-98043893D01*
X128694520Y-98022849D01*
X128684030Y-98000671D01*
X128675765Y-97977571D01*
X128669804Y-97953773D01*
X128666204Y-97929504D01*
X128665000Y-97905000D01*
X128665000Y-97155000D01*
X128666204Y-97130496D01*
X128669804Y-97106227D01*
X128675765Y-97082429D01*
X128684030Y-97059329D01*
X128694520Y-97037151D01*
X128707133Y-97016107D01*
X128721747Y-96996402D01*
X128738223Y-96978223D01*
X128756402Y-96961747D01*
X128776107Y-96947133D01*
X128797151Y-96934520D01*
X128819329Y-96924030D01*
X128842429Y-96915765D01*
X128866227Y-96909804D01*
X128890496Y-96906204D01*
X128915000Y-96905000D01*
X130165000Y-96905000D01*
X130189504Y-96906204D01*
X130189504Y-96906204D01*
G37*
D13*
X129540000Y-97530000D03*
G04 #@! TD*
D11*
G04 #@! TO.C,D2*
G36*
X135269504Y-97036204D02*
X135293773Y-97039804D01*
X135317571Y-97045765D01*
X135340671Y-97054030D01*
X135362849Y-97064520D01*
X135383893Y-97077133D01*
X135403598Y-97091747D01*
X135421777Y-97108223D01*
X135438253Y-97126402D01*
X135452867Y-97146107D01*
X135465480Y-97167151D01*
X135475970Y-97189329D01*
X135484235Y-97212429D01*
X135490196Y-97236227D01*
X135493796Y-97260496D01*
X135495000Y-97285000D01*
X135495000Y-98035000D01*
X135493796Y-98059504D01*
X135490196Y-98083773D01*
X135484235Y-98107571D01*
X135475970Y-98130671D01*
X135465480Y-98152849D01*
X135452867Y-98173893D01*
X135438253Y-98193598D01*
X135421777Y-98211777D01*
X135403598Y-98228253D01*
X135383893Y-98242867D01*
X135362849Y-98255480D01*
X135340671Y-98265970D01*
X135317571Y-98274235D01*
X135293773Y-98280196D01*
X135269504Y-98283796D01*
X135245000Y-98285000D01*
X133995000Y-98285000D01*
X133970496Y-98283796D01*
X133946227Y-98280196D01*
X133922429Y-98274235D01*
X133899329Y-98265970D01*
X133877151Y-98255480D01*
X133856107Y-98242867D01*
X133836402Y-98228253D01*
X133818223Y-98211777D01*
X133801747Y-98193598D01*
X133787133Y-98173893D01*
X133774520Y-98152849D01*
X133764030Y-98130671D01*
X133755765Y-98107571D01*
X133749804Y-98083773D01*
X133746204Y-98059504D01*
X133745000Y-98035000D01*
X133745000Y-97285000D01*
X133746204Y-97260496D01*
X133749804Y-97236227D01*
X133755765Y-97212429D01*
X133764030Y-97189329D01*
X133774520Y-97167151D01*
X133787133Y-97146107D01*
X133801747Y-97126402D01*
X133818223Y-97108223D01*
X133836402Y-97091747D01*
X133856107Y-97077133D01*
X133877151Y-97064520D01*
X133899329Y-97054030D01*
X133922429Y-97045765D01*
X133946227Y-97039804D01*
X133970496Y-97036204D01*
X133995000Y-97035000D01*
X135245000Y-97035000D01*
X135269504Y-97036204D01*
X135269504Y-97036204D01*
G37*
D13*
X134620000Y-97660000D03*
D11*
G36*
X135269504Y-99836204D02*
X135293773Y-99839804D01*
X135317571Y-99845765D01*
X135340671Y-99854030D01*
X135362849Y-99864520D01*
X135383893Y-99877133D01*
X135403598Y-99891747D01*
X135421777Y-99908223D01*
X135438253Y-99926402D01*
X135452867Y-99946107D01*
X135465480Y-99967151D01*
X135475970Y-99989329D01*
X135484235Y-100012429D01*
X135490196Y-100036227D01*
X135493796Y-100060496D01*
X135495000Y-100085000D01*
X135495000Y-100835000D01*
X135493796Y-100859504D01*
X135490196Y-100883773D01*
X135484235Y-100907571D01*
X135475970Y-100930671D01*
X135465480Y-100952849D01*
X135452867Y-100973893D01*
X135438253Y-100993598D01*
X135421777Y-101011777D01*
X135403598Y-101028253D01*
X135383893Y-101042867D01*
X135362849Y-101055480D01*
X135340671Y-101065970D01*
X135317571Y-101074235D01*
X135293773Y-101080196D01*
X135269504Y-101083796D01*
X135245000Y-101085000D01*
X133995000Y-101085000D01*
X133970496Y-101083796D01*
X133946227Y-101080196D01*
X133922429Y-101074235D01*
X133899329Y-101065970D01*
X133877151Y-101055480D01*
X133856107Y-101042867D01*
X133836402Y-101028253D01*
X133818223Y-101011777D01*
X133801747Y-100993598D01*
X133787133Y-100973893D01*
X133774520Y-100952849D01*
X133764030Y-100930671D01*
X133755765Y-100907571D01*
X133749804Y-100883773D01*
X133746204Y-100859504D01*
X133745000Y-100835000D01*
X133745000Y-100085000D01*
X133746204Y-100060496D01*
X133749804Y-100036227D01*
X133755765Y-100012429D01*
X133764030Y-99989329D01*
X133774520Y-99967151D01*
X133787133Y-99946107D01*
X133801747Y-99926402D01*
X133818223Y-99908223D01*
X133836402Y-99891747D01*
X133856107Y-99877133D01*
X133877151Y-99864520D01*
X133899329Y-99854030D01*
X133922429Y-99845765D01*
X133946227Y-99839804D01*
X133970496Y-99836204D01*
X133995000Y-99835000D01*
X135245000Y-99835000D01*
X135269504Y-99836204D01*
X135269504Y-99836204D01*
G37*
D13*
X134620000Y-100460000D03*
G04 #@! TD*
D11*
G04 #@! TO.C,D3*
G36*
X126379504Y-80786204D02*
X126403773Y-80789804D01*
X126427571Y-80795765D01*
X126450671Y-80804030D01*
X126472849Y-80814520D01*
X126493893Y-80827133D01*
X126513598Y-80841747D01*
X126531777Y-80858223D01*
X126548253Y-80876402D01*
X126562867Y-80896107D01*
X126575480Y-80917151D01*
X126585970Y-80939329D01*
X126594235Y-80962429D01*
X126600196Y-80986227D01*
X126603796Y-81010496D01*
X126605000Y-81035000D01*
X126605000Y-81785000D01*
X126603796Y-81809504D01*
X126600196Y-81833773D01*
X126594235Y-81857571D01*
X126585970Y-81880671D01*
X126575480Y-81902849D01*
X126562867Y-81923893D01*
X126548253Y-81943598D01*
X126531777Y-81961777D01*
X126513598Y-81978253D01*
X126493893Y-81992867D01*
X126472849Y-82005480D01*
X126450671Y-82015970D01*
X126427571Y-82024235D01*
X126403773Y-82030196D01*
X126379504Y-82033796D01*
X126355000Y-82035000D01*
X125105000Y-82035000D01*
X125080496Y-82033796D01*
X125056227Y-82030196D01*
X125032429Y-82024235D01*
X125009329Y-82015970D01*
X124987151Y-82005480D01*
X124966107Y-81992867D01*
X124946402Y-81978253D01*
X124928223Y-81961777D01*
X124911747Y-81943598D01*
X124897133Y-81923893D01*
X124884520Y-81902849D01*
X124874030Y-81880671D01*
X124865765Y-81857571D01*
X124859804Y-81833773D01*
X124856204Y-81809504D01*
X124855000Y-81785000D01*
X124855000Y-81035000D01*
X124856204Y-81010496D01*
X124859804Y-80986227D01*
X124865765Y-80962429D01*
X124874030Y-80939329D01*
X124884520Y-80917151D01*
X124897133Y-80896107D01*
X124911747Y-80876402D01*
X124928223Y-80858223D01*
X124946402Y-80841747D01*
X124966107Y-80827133D01*
X124987151Y-80814520D01*
X125009329Y-80804030D01*
X125032429Y-80795765D01*
X125056227Y-80789804D01*
X125080496Y-80786204D01*
X125105000Y-80785000D01*
X126355000Y-80785000D01*
X126379504Y-80786204D01*
X126379504Y-80786204D01*
G37*
D13*
X125730000Y-81410000D03*
D11*
G36*
X126379504Y-77986204D02*
X126403773Y-77989804D01*
X126427571Y-77995765D01*
X126450671Y-78004030D01*
X126472849Y-78014520D01*
X126493893Y-78027133D01*
X126513598Y-78041747D01*
X126531777Y-78058223D01*
X126548253Y-78076402D01*
X126562867Y-78096107D01*
X126575480Y-78117151D01*
X126585970Y-78139329D01*
X126594235Y-78162429D01*
X126600196Y-78186227D01*
X126603796Y-78210496D01*
X126605000Y-78235000D01*
X126605000Y-78985000D01*
X126603796Y-79009504D01*
X126600196Y-79033773D01*
X126594235Y-79057571D01*
X126585970Y-79080671D01*
X126575480Y-79102849D01*
X126562867Y-79123893D01*
X126548253Y-79143598D01*
X126531777Y-79161777D01*
X126513598Y-79178253D01*
X126493893Y-79192867D01*
X126472849Y-79205480D01*
X126450671Y-79215970D01*
X126427571Y-79224235D01*
X126403773Y-79230196D01*
X126379504Y-79233796D01*
X126355000Y-79235000D01*
X125105000Y-79235000D01*
X125080496Y-79233796D01*
X125056227Y-79230196D01*
X125032429Y-79224235D01*
X125009329Y-79215970D01*
X124987151Y-79205480D01*
X124966107Y-79192867D01*
X124946402Y-79178253D01*
X124928223Y-79161777D01*
X124911747Y-79143598D01*
X124897133Y-79123893D01*
X124884520Y-79102849D01*
X124874030Y-79080671D01*
X124865765Y-79057571D01*
X124859804Y-79033773D01*
X124856204Y-79009504D01*
X124855000Y-78985000D01*
X124855000Y-78235000D01*
X124856204Y-78210496D01*
X124859804Y-78186227D01*
X124865765Y-78162429D01*
X124874030Y-78139329D01*
X124884520Y-78117151D01*
X124897133Y-78096107D01*
X124911747Y-78076402D01*
X124928223Y-78058223D01*
X124946402Y-78041747D01*
X124966107Y-78027133D01*
X124987151Y-78014520D01*
X125009329Y-78004030D01*
X125032429Y-77995765D01*
X125056227Y-77989804D01*
X125080496Y-77986204D01*
X125105000Y-77985000D01*
X126355000Y-77985000D01*
X126379504Y-77986204D01*
X126379504Y-77986204D01*
G37*
D13*
X125730000Y-78610000D03*
G04 #@! TD*
D11*
G04 #@! TO.C,D4*
G36*
X130189504Y-77986204D02*
X130213773Y-77989804D01*
X130237571Y-77995765D01*
X130260671Y-78004030D01*
X130282849Y-78014520D01*
X130303893Y-78027133D01*
X130323598Y-78041747D01*
X130341777Y-78058223D01*
X130358253Y-78076402D01*
X130372867Y-78096107D01*
X130385480Y-78117151D01*
X130395970Y-78139329D01*
X130404235Y-78162429D01*
X130410196Y-78186227D01*
X130413796Y-78210496D01*
X130415000Y-78235000D01*
X130415000Y-78985000D01*
X130413796Y-79009504D01*
X130410196Y-79033773D01*
X130404235Y-79057571D01*
X130395970Y-79080671D01*
X130385480Y-79102849D01*
X130372867Y-79123893D01*
X130358253Y-79143598D01*
X130341777Y-79161777D01*
X130323598Y-79178253D01*
X130303893Y-79192867D01*
X130282849Y-79205480D01*
X130260671Y-79215970D01*
X130237571Y-79224235D01*
X130213773Y-79230196D01*
X130189504Y-79233796D01*
X130165000Y-79235000D01*
X128915000Y-79235000D01*
X128890496Y-79233796D01*
X128866227Y-79230196D01*
X128842429Y-79224235D01*
X128819329Y-79215970D01*
X128797151Y-79205480D01*
X128776107Y-79192867D01*
X128756402Y-79178253D01*
X128738223Y-79161777D01*
X128721747Y-79143598D01*
X128707133Y-79123893D01*
X128694520Y-79102849D01*
X128684030Y-79080671D01*
X128675765Y-79057571D01*
X128669804Y-79033773D01*
X128666204Y-79009504D01*
X128665000Y-78985000D01*
X128665000Y-78235000D01*
X128666204Y-78210496D01*
X128669804Y-78186227D01*
X128675765Y-78162429D01*
X128684030Y-78139329D01*
X128694520Y-78117151D01*
X128707133Y-78096107D01*
X128721747Y-78076402D01*
X128738223Y-78058223D01*
X128756402Y-78041747D01*
X128776107Y-78027133D01*
X128797151Y-78014520D01*
X128819329Y-78004030D01*
X128842429Y-77995765D01*
X128866227Y-77989804D01*
X128890496Y-77986204D01*
X128915000Y-77985000D01*
X130165000Y-77985000D01*
X130189504Y-77986204D01*
X130189504Y-77986204D01*
G37*
D13*
X129540000Y-78610000D03*
D11*
G36*
X130189504Y-80786204D02*
X130213773Y-80789804D01*
X130237571Y-80795765D01*
X130260671Y-80804030D01*
X130282849Y-80814520D01*
X130303893Y-80827133D01*
X130323598Y-80841747D01*
X130341777Y-80858223D01*
X130358253Y-80876402D01*
X130372867Y-80896107D01*
X130385480Y-80917151D01*
X130395970Y-80939329D01*
X130404235Y-80962429D01*
X130410196Y-80986227D01*
X130413796Y-81010496D01*
X130415000Y-81035000D01*
X130415000Y-81785000D01*
X130413796Y-81809504D01*
X130410196Y-81833773D01*
X130404235Y-81857571D01*
X130395970Y-81880671D01*
X130385480Y-81902849D01*
X130372867Y-81923893D01*
X130358253Y-81943598D01*
X130341777Y-81961777D01*
X130323598Y-81978253D01*
X130303893Y-81992867D01*
X130282849Y-82005480D01*
X130260671Y-82015970D01*
X130237571Y-82024235D01*
X130213773Y-82030196D01*
X130189504Y-82033796D01*
X130165000Y-82035000D01*
X128915000Y-82035000D01*
X128890496Y-82033796D01*
X128866227Y-82030196D01*
X128842429Y-82024235D01*
X128819329Y-82015970D01*
X128797151Y-82005480D01*
X128776107Y-81992867D01*
X128756402Y-81978253D01*
X128738223Y-81961777D01*
X128721747Y-81943598D01*
X128707133Y-81923893D01*
X128694520Y-81902849D01*
X128684030Y-81880671D01*
X128675765Y-81857571D01*
X128669804Y-81833773D01*
X128666204Y-81809504D01*
X128665000Y-81785000D01*
X128665000Y-81035000D01*
X128666204Y-81010496D01*
X128669804Y-80986227D01*
X128675765Y-80962429D01*
X128684030Y-80939329D01*
X128694520Y-80917151D01*
X128707133Y-80896107D01*
X128721747Y-80876402D01*
X128738223Y-80858223D01*
X128756402Y-80841747D01*
X128776107Y-80827133D01*
X128797151Y-80814520D01*
X128819329Y-80804030D01*
X128842429Y-80795765D01*
X128866227Y-80789804D01*
X128890496Y-80786204D01*
X128915000Y-80785000D01*
X130165000Y-80785000D01*
X130189504Y-80786204D01*
X130189504Y-80786204D01*
G37*
D13*
X129540000Y-81410000D03*
G04 #@! TD*
D11*
G04 #@! TO.C,D5*
G36*
X135269504Y-77986204D02*
X135293773Y-77989804D01*
X135317571Y-77995765D01*
X135340671Y-78004030D01*
X135362849Y-78014520D01*
X135383893Y-78027133D01*
X135403598Y-78041747D01*
X135421777Y-78058223D01*
X135438253Y-78076402D01*
X135452867Y-78096107D01*
X135465480Y-78117151D01*
X135475970Y-78139329D01*
X135484235Y-78162429D01*
X135490196Y-78186227D01*
X135493796Y-78210496D01*
X135495000Y-78235000D01*
X135495000Y-78985000D01*
X135493796Y-79009504D01*
X135490196Y-79033773D01*
X135484235Y-79057571D01*
X135475970Y-79080671D01*
X135465480Y-79102849D01*
X135452867Y-79123893D01*
X135438253Y-79143598D01*
X135421777Y-79161777D01*
X135403598Y-79178253D01*
X135383893Y-79192867D01*
X135362849Y-79205480D01*
X135340671Y-79215970D01*
X135317571Y-79224235D01*
X135293773Y-79230196D01*
X135269504Y-79233796D01*
X135245000Y-79235000D01*
X133995000Y-79235000D01*
X133970496Y-79233796D01*
X133946227Y-79230196D01*
X133922429Y-79224235D01*
X133899329Y-79215970D01*
X133877151Y-79205480D01*
X133856107Y-79192867D01*
X133836402Y-79178253D01*
X133818223Y-79161777D01*
X133801747Y-79143598D01*
X133787133Y-79123893D01*
X133774520Y-79102849D01*
X133764030Y-79080671D01*
X133755765Y-79057571D01*
X133749804Y-79033773D01*
X133746204Y-79009504D01*
X133745000Y-78985000D01*
X133745000Y-78235000D01*
X133746204Y-78210496D01*
X133749804Y-78186227D01*
X133755765Y-78162429D01*
X133764030Y-78139329D01*
X133774520Y-78117151D01*
X133787133Y-78096107D01*
X133801747Y-78076402D01*
X133818223Y-78058223D01*
X133836402Y-78041747D01*
X133856107Y-78027133D01*
X133877151Y-78014520D01*
X133899329Y-78004030D01*
X133922429Y-77995765D01*
X133946227Y-77989804D01*
X133970496Y-77986204D01*
X133995000Y-77985000D01*
X135245000Y-77985000D01*
X135269504Y-77986204D01*
X135269504Y-77986204D01*
G37*
D13*
X134620000Y-78610000D03*
D11*
G36*
X135269504Y-80786204D02*
X135293773Y-80789804D01*
X135317571Y-80795765D01*
X135340671Y-80804030D01*
X135362849Y-80814520D01*
X135383893Y-80827133D01*
X135403598Y-80841747D01*
X135421777Y-80858223D01*
X135438253Y-80876402D01*
X135452867Y-80896107D01*
X135465480Y-80917151D01*
X135475970Y-80939329D01*
X135484235Y-80962429D01*
X135490196Y-80986227D01*
X135493796Y-81010496D01*
X135495000Y-81035000D01*
X135495000Y-81785000D01*
X135493796Y-81809504D01*
X135490196Y-81833773D01*
X135484235Y-81857571D01*
X135475970Y-81880671D01*
X135465480Y-81902849D01*
X135452867Y-81923893D01*
X135438253Y-81943598D01*
X135421777Y-81961777D01*
X135403598Y-81978253D01*
X135383893Y-81992867D01*
X135362849Y-82005480D01*
X135340671Y-82015970D01*
X135317571Y-82024235D01*
X135293773Y-82030196D01*
X135269504Y-82033796D01*
X135245000Y-82035000D01*
X133995000Y-82035000D01*
X133970496Y-82033796D01*
X133946227Y-82030196D01*
X133922429Y-82024235D01*
X133899329Y-82015970D01*
X133877151Y-82005480D01*
X133856107Y-81992867D01*
X133836402Y-81978253D01*
X133818223Y-81961777D01*
X133801747Y-81943598D01*
X133787133Y-81923893D01*
X133774520Y-81902849D01*
X133764030Y-81880671D01*
X133755765Y-81857571D01*
X133749804Y-81833773D01*
X133746204Y-81809504D01*
X133745000Y-81785000D01*
X133745000Y-81035000D01*
X133746204Y-81010496D01*
X133749804Y-80986227D01*
X133755765Y-80962429D01*
X133764030Y-80939329D01*
X133774520Y-80917151D01*
X133787133Y-80896107D01*
X133801747Y-80876402D01*
X133818223Y-80858223D01*
X133836402Y-80841747D01*
X133856107Y-80827133D01*
X133877151Y-80814520D01*
X133899329Y-80804030D01*
X133922429Y-80795765D01*
X133946227Y-80789804D01*
X133970496Y-80786204D01*
X133995000Y-80785000D01*
X135245000Y-80785000D01*
X135269504Y-80786204D01*
X135269504Y-80786204D01*
G37*
D13*
X134620000Y-81410000D03*
G04 #@! TD*
D11*
G04 #@! TO.C,D6*
G36*
X139079504Y-80786204D02*
X139103773Y-80789804D01*
X139127571Y-80795765D01*
X139150671Y-80804030D01*
X139172849Y-80814520D01*
X139193893Y-80827133D01*
X139213598Y-80841747D01*
X139231777Y-80858223D01*
X139248253Y-80876402D01*
X139262867Y-80896107D01*
X139275480Y-80917151D01*
X139285970Y-80939329D01*
X139294235Y-80962429D01*
X139300196Y-80986227D01*
X139303796Y-81010496D01*
X139305000Y-81035000D01*
X139305000Y-81785000D01*
X139303796Y-81809504D01*
X139300196Y-81833773D01*
X139294235Y-81857571D01*
X139285970Y-81880671D01*
X139275480Y-81902849D01*
X139262867Y-81923893D01*
X139248253Y-81943598D01*
X139231777Y-81961777D01*
X139213598Y-81978253D01*
X139193893Y-81992867D01*
X139172849Y-82005480D01*
X139150671Y-82015970D01*
X139127571Y-82024235D01*
X139103773Y-82030196D01*
X139079504Y-82033796D01*
X139055000Y-82035000D01*
X137805000Y-82035000D01*
X137780496Y-82033796D01*
X137756227Y-82030196D01*
X137732429Y-82024235D01*
X137709329Y-82015970D01*
X137687151Y-82005480D01*
X137666107Y-81992867D01*
X137646402Y-81978253D01*
X137628223Y-81961777D01*
X137611747Y-81943598D01*
X137597133Y-81923893D01*
X137584520Y-81902849D01*
X137574030Y-81880671D01*
X137565765Y-81857571D01*
X137559804Y-81833773D01*
X137556204Y-81809504D01*
X137555000Y-81785000D01*
X137555000Y-81035000D01*
X137556204Y-81010496D01*
X137559804Y-80986227D01*
X137565765Y-80962429D01*
X137574030Y-80939329D01*
X137584520Y-80917151D01*
X137597133Y-80896107D01*
X137611747Y-80876402D01*
X137628223Y-80858223D01*
X137646402Y-80841747D01*
X137666107Y-80827133D01*
X137687151Y-80814520D01*
X137709329Y-80804030D01*
X137732429Y-80795765D01*
X137756227Y-80789804D01*
X137780496Y-80786204D01*
X137805000Y-80785000D01*
X139055000Y-80785000D01*
X139079504Y-80786204D01*
X139079504Y-80786204D01*
G37*
D13*
X138430000Y-81410000D03*
D11*
G36*
X139079504Y-77986204D02*
X139103773Y-77989804D01*
X139127571Y-77995765D01*
X139150671Y-78004030D01*
X139172849Y-78014520D01*
X139193893Y-78027133D01*
X139213598Y-78041747D01*
X139231777Y-78058223D01*
X139248253Y-78076402D01*
X139262867Y-78096107D01*
X139275480Y-78117151D01*
X139285970Y-78139329D01*
X139294235Y-78162429D01*
X139300196Y-78186227D01*
X139303796Y-78210496D01*
X139305000Y-78235000D01*
X139305000Y-78985000D01*
X139303796Y-79009504D01*
X139300196Y-79033773D01*
X139294235Y-79057571D01*
X139285970Y-79080671D01*
X139275480Y-79102849D01*
X139262867Y-79123893D01*
X139248253Y-79143598D01*
X139231777Y-79161777D01*
X139213598Y-79178253D01*
X139193893Y-79192867D01*
X139172849Y-79205480D01*
X139150671Y-79215970D01*
X139127571Y-79224235D01*
X139103773Y-79230196D01*
X139079504Y-79233796D01*
X139055000Y-79235000D01*
X137805000Y-79235000D01*
X137780496Y-79233796D01*
X137756227Y-79230196D01*
X137732429Y-79224235D01*
X137709329Y-79215970D01*
X137687151Y-79205480D01*
X137666107Y-79192867D01*
X137646402Y-79178253D01*
X137628223Y-79161777D01*
X137611747Y-79143598D01*
X137597133Y-79123893D01*
X137584520Y-79102849D01*
X137574030Y-79080671D01*
X137565765Y-79057571D01*
X137559804Y-79033773D01*
X137556204Y-79009504D01*
X137555000Y-78985000D01*
X137555000Y-78235000D01*
X137556204Y-78210496D01*
X137559804Y-78186227D01*
X137565765Y-78162429D01*
X137574030Y-78139329D01*
X137584520Y-78117151D01*
X137597133Y-78096107D01*
X137611747Y-78076402D01*
X137628223Y-78058223D01*
X137646402Y-78041747D01*
X137666107Y-78027133D01*
X137687151Y-78014520D01*
X137709329Y-78004030D01*
X137732429Y-77995765D01*
X137756227Y-77989804D01*
X137780496Y-77986204D01*
X137805000Y-77985000D01*
X139055000Y-77985000D01*
X139079504Y-77986204D01*
X139079504Y-77986204D01*
G37*
D13*
X138430000Y-78610000D03*
G04 #@! TD*
D11*
G04 #@! TO.C,D11*
G36*
X131079504Y-126126204D02*
X131103773Y-126129804D01*
X131127571Y-126135765D01*
X131150671Y-126144030D01*
X131172849Y-126154520D01*
X131193893Y-126167133D01*
X131213598Y-126181747D01*
X131231777Y-126198223D01*
X131248253Y-126216402D01*
X131262867Y-126236107D01*
X131275480Y-126257151D01*
X131285970Y-126279329D01*
X131294235Y-126302429D01*
X131300196Y-126326227D01*
X131303796Y-126350496D01*
X131305000Y-126375000D01*
X131305000Y-127625000D01*
X131303796Y-127649504D01*
X131300196Y-127673773D01*
X131294235Y-127697571D01*
X131285970Y-127720671D01*
X131275480Y-127742849D01*
X131262867Y-127763893D01*
X131248253Y-127783598D01*
X131231777Y-127801777D01*
X131213598Y-127818253D01*
X131193893Y-127832867D01*
X131172849Y-127845480D01*
X131150671Y-127855970D01*
X131127571Y-127864235D01*
X131103773Y-127870196D01*
X131079504Y-127873796D01*
X131055000Y-127875000D01*
X130305000Y-127875000D01*
X130280496Y-127873796D01*
X130256227Y-127870196D01*
X130232429Y-127864235D01*
X130209329Y-127855970D01*
X130187151Y-127845480D01*
X130166107Y-127832867D01*
X130146402Y-127818253D01*
X130128223Y-127801777D01*
X130111747Y-127783598D01*
X130097133Y-127763893D01*
X130084520Y-127742849D01*
X130074030Y-127720671D01*
X130065765Y-127697571D01*
X130059804Y-127673773D01*
X130056204Y-127649504D01*
X130055000Y-127625000D01*
X130055000Y-126375000D01*
X130056204Y-126350496D01*
X130059804Y-126326227D01*
X130065765Y-126302429D01*
X130074030Y-126279329D01*
X130084520Y-126257151D01*
X130097133Y-126236107D01*
X130111747Y-126216402D01*
X130128223Y-126198223D01*
X130146402Y-126181747D01*
X130166107Y-126167133D01*
X130187151Y-126154520D01*
X130209329Y-126144030D01*
X130232429Y-126135765D01*
X130256227Y-126129804D01*
X130280496Y-126126204D01*
X130305000Y-126125000D01*
X131055000Y-126125000D01*
X131079504Y-126126204D01*
X131079504Y-126126204D01*
G37*
D13*
X130680000Y-127000000D03*
D11*
G36*
X133879504Y-126126204D02*
X133903773Y-126129804D01*
X133927571Y-126135765D01*
X133950671Y-126144030D01*
X133972849Y-126154520D01*
X133993893Y-126167133D01*
X134013598Y-126181747D01*
X134031777Y-126198223D01*
X134048253Y-126216402D01*
X134062867Y-126236107D01*
X134075480Y-126257151D01*
X134085970Y-126279329D01*
X134094235Y-126302429D01*
X134100196Y-126326227D01*
X134103796Y-126350496D01*
X134105000Y-126375000D01*
X134105000Y-127625000D01*
X134103796Y-127649504D01*
X134100196Y-127673773D01*
X134094235Y-127697571D01*
X134085970Y-127720671D01*
X134075480Y-127742849D01*
X134062867Y-127763893D01*
X134048253Y-127783598D01*
X134031777Y-127801777D01*
X134013598Y-127818253D01*
X133993893Y-127832867D01*
X133972849Y-127845480D01*
X133950671Y-127855970D01*
X133927571Y-127864235D01*
X133903773Y-127870196D01*
X133879504Y-127873796D01*
X133855000Y-127875000D01*
X133105000Y-127875000D01*
X133080496Y-127873796D01*
X133056227Y-127870196D01*
X133032429Y-127864235D01*
X133009329Y-127855970D01*
X132987151Y-127845480D01*
X132966107Y-127832867D01*
X132946402Y-127818253D01*
X132928223Y-127801777D01*
X132911747Y-127783598D01*
X132897133Y-127763893D01*
X132884520Y-127742849D01*
X132874030Y-127720671D01*
X132865765Y-127697571D01*
X132859804Y-127673773D01*
X132856204Y-127649504D01*
X132855000Y-127625000D01*
X132855000Y-126375000D01*
X132856204Y-126350496D01*
X132859804Y-126326227D01*
X132865765Y-126302429D01*
X132874030Y-126279329D01*
X132884520Y-126257151D01*
X132897133Y-126236107D01*
X132911747Y-126216402D01*
X132928223Y-126198223D01*
X132946402Y-126181747D01*
X132966107Y-126167133D01*
X132987151Y-126154520D01*
X133009329Y-126144030D01*
X133032429Y-126135765D01*
X133056227Y-126129804D01*
X133080496Y-126126204D01*
X133105000Y-126125000D01*
X133855000Y-126125000D01*
X133879504Y-126126204D01*
X133879504Y-126126204D01*
G37*
D13*
X133480000Y-127000000D03*
G04 #@! TD*
D11*
G04 #@! TO.C,D12*
G36*
X133879504Y-103266204D02*
X133903773Y-103269804D01*
X133927571Y-103275765D01*
X133950671Y-103284030D01*
X133972849Y-103294520D01*
X133993893Y-103307133D01*
X134013598Y-103321747D01*
X134031777Y-103338223D01*
X134048253Y-103356402D01*
X134062867Y-103376107D01*
X134075480Y-103397151D01*
X134085970Y-103419329D01*
X134094235Y-103442429D01*
X134100196Y-103466227D01*
X134103796Y-103490496D01*
X134105000Y-103515000D01*
X134105000Y-104765000D01*
X134103796Y-104789504D01*
X134100196Y-104813773D01*
X134094235Y-104837571D01*
X134085970Y-104860671D01*
X134075480Y-104882849D01*
X134062867Y-104903893D01*
X134048253Y-104923598D01*
X134031777Y-104941777D01*
X134013598Y-104958253D01*
X133993893Y-104972867D01*
X133972849Y-104985480D01*
X133950671Y-104995970D01*
X133927571Y-105004235D01*
X133903773Y-105010196D01*
X133879504Y-105013796D01*
X133855000Y-105015000D01*
X133105000Y-105015000D01*
X133080496Y-105013796D01*
X133056227Y-105010196D01*
X133032429Y-105004235D01*
X133009329Y-104995970D01*
X132987151Y-104985480D01*
X132966107Y-104972867D01*
X132946402Y-104958253D01*
X132928223Y-104941777D01*
X132911747Y-104923598D01*
X132897133Y-104903893D01*
X132884520Y-104882849D01*
X132874030Y-104860671D01*
X132865765Y-104837571D01*
X132859804Y-104813773D01*
X132856204Y-104789504D01*
X132855000Y-104765000D01*
X132855000Y-103515000D01*
X132856204Y-103490496D01*
X132859804Y-103466227D01*
X132865765Y-103442429D01*
X132874030Y-103419329D01*
X132884520Y-103397151D01*
X132897133Y-103376107D01*
X132911747Y-103356402D01*
X132928223Y-103338223D01*
X132946402Y-103321747D01*
X132966107Y-103307133D01*
X132987151Y-103294520D01*
X133009329Y-103284030D01*
X133032429Y-103275765D01*
X133056227Y-103269804D01*
X133080496Y-103266204D01*
X133105000Y-103265000D01*
X133855000Y-103265000D01*
X133879504Y-103266204D01*
X133879504Y-103266204D01*
G37*
D13*
X133480000Y-104140000D03*
D11*
G36*
X131079504Y-103266204D02*
X131103773Y-103269804D01*
X131127571Y-103275765D01*
X131150671Y-103284030D01*
X131172849Y-103294520D01*
X131193893Y-103307133D01*
X131213598Y-103321747D01*
X131231777Y-103338223D01*
X131248253Y-103356402D01*
X131262867Y-103376107D01*
X131275480Y-103397151D01*
X131285970Y-103419329D01*
X131294235Y-103442429D01*
X131300196Y-103466227D01*
X131303796Y-103490496D01*
X131305000Y-103515000D01*
X131305000Y-104765000D01*
X131303796Y-104789504D01*
X131300196Y-104813773D01*
X131294235Y-104837571D01*
X131285970Y-104860671D01*
X131275480Y-104882849D01*
X131262867Y-104903893D01*
X131248253Y-104923598D01*
X131231777Y-104941777D01*
X131213598Y-104958253D01*
X131193893Y-104972867D01*
X131172849Y-104985480D01*
X131150671Y-104995970D01*
X131127571Y-105004235D01*
X131103773Y-105010196D01*
X131079504Y-105013796D01*
X131055000Y-105015000D01*
X130305000Y-105015000D01*
X130280496Y-105013796D01*
X130256227Y-105010196D01*
X130232429Y-105004235D01*
X130209329Y-104995970D01*
X130187151Y-104985480D01*
X130166107Y-104972867D01*
X130146402Y-104958253D01*
X130128223Y-104941777D01*
X130111747Y-104923598D01*
X130097133Y-104903893D01*
X130084520Y-104882849D01*
X130074030Y-104860671D01*
X130065765Y-104837571D01*
X130059804Y-104813773D01*
X130056204Y-104789504D01*
X130055000Y-104765000D01*
X130055000Y-103515000D01*
X130056204Y-103490496D01*
X130059804Y-103466227D01*
X130065765Y-103442429D01*
X130074030Y-103419329D01*
X130084520Y-103397151D01*
X130097133Y-103376107D01*
X130111747Y-103356402D01*
X130128223Y-103338223D01*
X130146402Y-103321747D01*
X130166107Y-103307133D01*
X130187151Y-103294520D01*
X130209329Y-103284030D01*
X130232429Y-103275765D01*
X130256227Y-103269804D01*
X130280496Y-103266204D01*
X130305000Y-103265000D01*
X131055000Y-103265000D01*
X131079504Y-103266204D01*
X131079504Y-103266204D01*
G37*
D13*
X130680000Y-104140000D03*
G04 #@! TD*
D14*
G04 #@! TO.C,D13*
X117410000Y-134600000D03*
X117410000Y-132100000D03*
X118810000Y-132100000D03*
X118810000Y-134600000D03*
G04 #@! TD*
G04 #@! TO.C,D14*
X146750000Y-134600000D03*
X146750000Y-132100000D03*
X145350000Y-132100000D03*
X145350000Y-134600000D03*
G04 #@! TD*
D15*
G04 #@! TO.C,J2*
X130955000Y-68650000D03*
D16*
X132730000Y-71300000D03*
X133380000Y-71300000D03*
X130780000Y-71300000D03*
X131430000Y-71300000D03*
X132080000Y-71300000D03*
D15*
X133205000Y-68650000D03*
D17*
X129760000Y-70880000D03*
X134400000Y-70880000D03*
G04 #@! TD*
D11*
G04 #@! TO.C,R1*
G36*
X125665142Y-111061174D02*
X125688803Y-111064684D01*
X125712007Y-111070496D01*
X125734529Y-111078554D01*
X125756153Y-111088782D01*
X125776670Y-111101079D01*
X125795883Y-111115329D01*
X125813607Y-111131393D01*
X125829671Y-111149117D01*
X125843921Y-111168330D01*
X125856218Y-111188847D01*
X125866446Y-111210471D01*
X125874504Y-111232993D01*
X125880316Y-111256197D01*
X125883826Y-111279858D01*
X125885000Y-111303750D01*
X125885000Y-112216250D01*
X125883826Y-112240142D01*
X125880316Y-112263803D01*
X125874504Y-112287007D01*
X125866446Y-112309529D01*
X125856218Y-112331153D01*
X125843921Y-112351670D01*
X125829671Y-112370883D01*
X125813607Y-112388607D01*
X125795883Y-112404671D01*
X125776670Y-112418921D01*
X125756153Y-112431218D01*
X125734529Y-112441446D01*
X125712007Y-112449504D01*
X125688803Y-112455316D01*
X125665142Y-112458826D01*
X125641250Y-112460000D01*
X125153750Y-112460000D01*
X125129858Y-112458826D01*
X125106197Y-112455316D01*
X125082993Y-112449504D01*
X125060471Y-112441446D01*
X125038847Y-112431218D01*
X125018330Y-112418921D01*
X124999117Y-112404671D01*
X124981393Y-112388607D01*
X124965329Y-112370883D01*
X124951079Y-112351670D01*
X124938782Y-112331153D01*
X124928554Y-112309529D01*
X124920496Y-112287007D01*
X124914684Y-112263803D01*
X124911174Y-112240142D01*
X124910000Y-112216250D01*
X124910000Y-111303750D01*
X124911174Y-111279858D01*
X124914684Y-111256197D01*
X124920496Y-111232993D01*
X124928554Y-111210471D01*
X124938782Y-111188847D01*
X124951079Y-111168330D01*
X124965329Y-111149117D01*
X124981393Y-111131393D01*
X124999117Y-111115329D01*
X125018330Y-111101079D01*
X125038847Y-111088782D01*
X125060471Y-111078554D01*
X125082993Y-111070496D01*
X125106197Y-111064684D01*
X125129858Y-111061174D01*
X125153750Y-111060000D01*
X125641250Y-111060000D01*
X125665142Y-111061174D01*
X125665142Y-111061174D01*
G37*
D12*
X125397500Y-111760000D03*
D11*
G36*
X123790142Y-111061174D02*
X123813803Y-111064684D01*
X123837007Y-111070496D01*
X123859529Y-111078554D01*
X123881153Y-111088782D01*
X123901670Y-111101079D01*
X123920883Y-111115329D01*
X123938607Y-111131393D01*
X123954671Y-111149117D01*
X123968921Y-111168330D01*
X123981218Y-111188847D01*
X123991446Y-111210471D01*
X123999504Y-111232993D01*
X124005316Y-111256197D01*
X124008826Y-111279858D01*
X124010000Y-111303750D01*
X124010000Y-112216250D01*
X124008826Y-112240142D01*
X124005316Y-112263803D01*
X123999504Y-112287007D01*
X123991446Y-112309529D01*
X123981218Y-112331153D01*
X123968921Y-112351670D01*
X123954671Y-112370883D01*
X123938607Y-112388607D01*
X123920883Y-112404671D01*
X123901670Y-112418921D01*
X123881153Y-112431218D01*
X123859529Y-112441446D01*
X123837007Y-112449504D01*
X123813803Y-112455316D01*
X123790142Y-112458826D01*
X123766250Y-112460000D01*
X123278750Y-112460000D01*
X123254858Y-112458826D01*
X123231197Y-112455316D01*
X123207993Y-112449504D01*
X123185471Y-112441446D01*
X123163847Y-112431218D01*
X123143330Y-112418921D01*
X123124117Y-112404671D01*
X123106393Y-112388607D01*
X123090329Y-112370883D01*
X123076079Y-112351670D01*
X123063782Y-112331153D01*
X123053554Y-112309529D01*
X123045496Y-112287007D01*
X123039684Y-112263803D01*
X123036174Y-112240142D01*
X123035000Y-112216250D01*
X123035000Y-111303750D01*
X123036174Y-111279858D01*
X123039684Y-111256197D01*
X123045496Y-111232993D01*
X123053554Y-111210471D01*
X123063782Y-111188847D01*
X123076079Y-111168330D01*
X123090329Y-111149117D01*
X123106393Y-111131393D01*
X123124117Y-111115329D01*
X123143330Y-111101079D01*
X123163847Y-111088782D01*
X123185471Y-111078554D01*
X123207993Y-111070496D01*
X123231197Y-111064684D01*
X123254858Y-111061174D01*
X123278750Y-111060000D01*
X123766250Y-111060000D01*
X123790142Y-111061174D01*
X123790142Y-111061174D01*
G37*
D12*
X123522500Y-111760000D03*
G04 #@! TD*
D11*
G04 #@! TO.C,R2*
G36*
X124940142Y-95701174D02*
X124963803Y-95704684D01*
X124987007Y-95710496D01*
X125009529Y-95718554D01*
X125031153Y-95728782D01*
X125051670Y-95741079D01*
X125070883Y-95755329D01*
X125088607Y-95771393D01*
X125104671Y-95789117D01*
X125118921Y-95808330D01*
X125131218Y-95828847D01*
X125141446Y-95850471D01*
X125149504Y-95872993D01*
X125155316Y-95896197D01*
X125158826Y-95919858D01*
X125160000Y-95943750D01*
X125160000Y-96431250D01*
X125158826Y-96455142D01*
X125155316Y-96478803D01*
X125149504Y-96502007D01*
X125141446Y-96524529D01*
X125131218Y-96546153D01*
X125118921Y-96566670D01*
X125104671Y-96585883D01*
X125088607Y-96603607D01*
X125070883Y-96619671D01*
X125051670Y-96633921D01*
X125031153Y-96646218D01*
X125009529Y-96656446D01*
X124987007Y-96664504D01*
X124963803Y-96670316D01*
X124940142Y-96673826D01*
X124916250Y-96675000D01*
X124003750Y-96675000D01*
X123979858Y-96673826D01*
X123956197Y-96670316D01*
X123932993Y-96664504D01*
X123910471Y-96656446D01*
X123888847Y-96646218D01*
X123868330Y-96633921D01*
X123849117Y-96619671D01*
X123831393Y-96603607D01*
X123815329Y-96585883D01*
X123801079Y-96566670D01*
X123788782Y-96546153D01*
X123778554Y-96524529D01*
X123770496Y-96502007D01*
X123764684Y-96478803D01*
X123761174Y-96455142D01*
X123760000Y-96431250D01*
X123760000Y-95943750D01*
X123761174Y-95919858D01*
X123764684Y-95896197D01*
X123770496Y-95872993D01*
X123778554Y-95850471D01*
X123788782Y-95828847D01*
X123801079Y-95808330D01*
X123815329Y-95789117D01*
X123831393Y-95771393D01*
X123849117Y-95755329D01*
X123868330Y-95741079D01*
X123888847Y-95728782D01*
X123910471Y-95718554D01*
X123932993Y-95710496D01*
X123956197Y-95704684D01*
X123979858Y-95701174D01*
X124003750Y-95700000D01*
X124916250Y-95700000D01*
X124940142Y-95701174D01*
X124940142Y-95701174D01*
G37*
D12*
X124460000Y-96187500D03*
D11*
G36*
X124940142Y-93826174D02*
X124963803Y-93829684D01*
X124987007Y-93835496D01*
X125009529Y-93843554D01*
X125031153Y-93853782D01*
X125051670Y-93866079D01*
X125070883Y-93880329D01*
X125088607Y-93896393D01*
X125104671Y-93914117D01*
X125118921Y-93933330D01*
X125131218Y-93953847D01*
X125141446Y-93975471D01*
X125149504Y-93997993D01*
X125155316Y-94021197D01*
X125158826Y-94044858D01*
X125160000Y-94068750D01*
X125160000Y-94556250D01*
X125158826Y-94580142D01*
X125155316Y-94603803D01*
X125149504Y-94627007D01*
X125141446Y-94649529D01*
X125131218Y-94671153D01*
X125118921Y-94691670D01*
X125104671Y-94710883D01*
X125088607Y-94728607D01*
X125070883Y-94744671D01*
X125051670Y-94758921D01*
X125031153Y-94771218D01*
X125009529Y-94781446D01*
X124987007Y-94789504D01*
X124963803Y-94795316D01*
X124940142Y-94798826D01*
X124916250Y-94800000D01*
X124003750Y-94800000D01*
X123979858Y-94798826D01*
X123956197Y-94795316D01*
X123932993Y-94789504D01*
X123910471Y-94781446D01*
X123888847Y-94771218D01*
X123868330Y-94758921D01*
X123849117Y-94744671D01*
X123831393Y-94728607D01*
X123815329Y-94710883D01*
X123801079Y-94691670D01*
X123788782Y-94671153D01*
X123778554Y-94649529D01*
X123770496Y-94627007D01*
X123764684Y-94603803D01*
X123761174Y-94580142D01*
X123760000Y-94556250D01*
X123760000Y-94068750D01*
X123761174Y-94044858D01*
X123764684Y-94021197D01*
X123770496Y-93997993D01*
X123778554Y-93975471D01*
X123788782Y-93953847D01*
X123801079Y-93933330D01*
X123815329Y-93914117D01*
X123831393Y-93896393D01*
X123849117Y-93880329D01*
X123868330Y-93866079D01*
X123888847Y-93853782D01*
X123910471Y-93843554D01*
X123932993Y-93835496D01*
X123956197Y-93829684D01*
X123979858Y-93826174D01*
X124003750Y-93825000D01*
X124916250Y-93825000D01*
X124940142Y-93826174D01*
X124940142Y-93826174D01*
G37*
D12*
X124460000Y-94312500D03*
G04 #@! TD*
D11*
G04 #@! TO.C,R3*
G36*
X130020142Y-73506174D02*
X130043803Y-73509684D01*
X130067007Y-73515496D01*
X130089529Y-73523554D01*
X130111153Y-73533782D01*
X130131670Y-73546079D01*
X130150883Y-73560329D01*
X130168607Y-73576393D01*
X130184671Y-73594117D01*
X130198921Y-73613330D01*
X130211218Y-73633847D01*
X130221446Y-73655471D01*
X130229504Y-73677993D01*
X130235316Y-73701197D01*
X130238826Y-73724858D01*
X130240000Y-73748750D01*
X130240000Y-74236250D01*
X130238826Y-74260142D01*
X130235316Y-74283803D01*
X130229504Y-74307007D01*
X130221446Y-74329529D01*
X130211218Y-74351153D01*
X130198921Y-74371670D01*
X130184671Y-74390883D01*
X130168607Y-74408607D01*
X130150883Y-74424671D01*
X130131670Y-74438921D01*
X130111153Y-74451218D01*
X130089529Y-74461446D01*
X130067007Y-74469504D01*
X130043803Y-74475316D01*
X130020142Y-74478826D01*
X129996250Y-74480000D01*
X129083750Y-74480000D01*
X129059858Y-74478826D01*
X129036197Y-74475316D01*
X129012993Y-74469504D01*
X128990471Y-74461446D01*
X128968847Y-74451218D01*
X128948330Y-74438921D01*
X128929117Y-74424671D01*
X128911393Y-74408607D01*
X128895329Y-74390883D01*
X128881079Y-74371670D01*
X128868782Y-74351153D01*
X128858554Y-74329529D01*
X128850496Y-74307007D01*
X128844684Y-74283803D01*
X128841174Y-74260142D01*
X128840000Y-74236250D01*
X128840000Y-73748750D01*
X128841174Y-73724858D01*
X128844684Y-73701197D01*
X128850496Y-73677993D01*
X128858554Y-73655471D01*
X128868782Y-73633847D01*
X128881079Y-73613330D01*
X128895329Y-73594117D01*
X128911393Y-73576393D01*
X128929117Y-73560329D01*
X128948330Y-73546079D01*
X128968847Y-73533782D01*
X128990471Y-73523554D01*
X129012993Y-73515496D01*
X129036197Y-73509684D01*
X129059858Y-73506174D01*
X129083750Y-73505000D01*
X129996250Y-73505000D01*
X130020142Y-73506174D01*
X130020142Y-73506174D01*
G37*
D12*
X129540000Y-73992500D03*
D11*
G36*
X130020142Y-75381174D02*
X130043803Y-75384684D01*
X130067007Y-75390496D01*
X130089529Y-75398554D01*
X130111153Y-75408782D01*
X130131670Y-75421079D01*
X130150883Y-75435329D01*
X130168607Y-75451393D01*
X130184671Y-75469117D01*
X130198921Y-75488330D01*
X130211218Y-75508847D01*
X130221446Y-75530471D01*
X130229504Y-75552993D01*
X130235316Y-75576197D01*
X130238826Y-75599858D01*
X130240000Y-75623750D01*
X130240000Y-76111250D01*
X130238826Y-76135142D01*
X130235316Y-76158803D01*
X130229504Y-76182007D01*
X130221446Y-76204529D01*
X130211218Y-76226153D01*
X130198921Y-76246670D01*
X130184671Y-76265883D01*
X130168607Y-76283607D01*
X130150883Y-76299671D01*
X130131670Y-76313921D01*
X130111153Y-76326218D01*
X130089529Y-76336446D01*
X130067007Y-76344504D01*
X130043803Y-76350316D01*
X130020142Y-76353826D01*
X129996250Y-76355000D01*
X129083750Y-76355000D01*
X129059858Y-76353826D01*
X129036197Y-76350316D01*
X129012993Y-76344504D01*
X128990471Y-76336446D01*
X128968847Y-76326218D01*
X128948330Y-76313921D01*
X128929117Y-76299671D01*
X128911393Y-76283607D01*
X128895329Y-76265883D01*
X128881079Y-76246670D01*
X128868782Y-76226153D01*
X128858554Y-76204529D01*
X128850496Y-76182007D01*
X128844684Y-76158803D01*
X128841174Y-76135142D01*
X128840000Y-76111250D01*
X128840000Y-75623750D01*
X128841174Y-75599858D01*
X128844684Y-75576197D01*
X128850496Y-75552993D01*
X128858554Y-75530471D01*
X128868782Y-75508847D01*
X128881079Y-75488330D01*
X128895329Y-75469117D01*
X128911393Y-75451393D01*
X128929117Y-75435329D01*
X128948330Y-75421079D01*
X128968847Y-75408782D01*
X128990471Y-75398554D01*
X129012993Y-75390496D01*
X129036197Y-75384684D01*
X129059858Y-75381174D01*
X129083750Y-75380000D01*
X129996250Y-75380000D01*
X130020142Y-75381174D01*
X130020142Y-75381174D01*
G37*
D12*
X129540000Y-75867500D03*
G04 #@! TD*
D11*
G04 #@! TO.C,R4*
G36*
X132560142Y-75381174D02*
X132583803Y-75384684D01*
X132607007Y-75390496D01*
X132629529Y-75398554D01*
X132651153Y-75408782D01*
X132671670Y-75421079D01*
X132690883Y-75435329D01*
X132708607Y-75451393D01*
X132724671Y-75469117D01*
X132738921Y-75488330D01*
X132751218Y-75508847D01*
X132761446Y-75530471D01*
X132769504Y-75552993D01*
X132775316Y-75576197D01*
X132778826Y-75599858D01*
X132780000Y-75623750D01*
X132780000Y-76111250D01*
X132778826Y-76135142D01*
X132775316Y-76158803D01*
X132769504Y-76182007D01*
X132761446Y-76204529D01*
X132751218Y-76226153D01*
X132738921Y-76246670D01*
X132724671Y-76265883D01*
X132708607Y-76283607D01*
X132690883Y-76299671D01*
X132671670Y-76313921D01*
X132651153Y-76326218D01*
X132629529Y-76336446D01*
X132607007Y-76344504D01*
X132583803Y-76350316D01*
X132560142Y-76353826D01*
X132536250Y-76355000D01*
X131623750Y-76355000D01*
X131599858Y-76353826D01*
X131576197Y-76350316D01*
X131552993Y-76344504D01*
X131530471Y-76336446D01*
X131508847Y-76326218D01*
X131488330Y-76313921D01*
X131469117Y-76299671D01*
X131451393Y-76283607D01*
X131435329Y-76265883D01*
X131421079Y-76246670D01*
X131408782Y-76226153D01*
X131398554Y-76204529D01*
X131390496Y-76182007D01*
X131384684Y-76158803D01*
X131381174Y-76135142D01*
X131380000Y-76111250D01*
X131380000Y-75623750D01*
X131381174Y-75599858D01*
X131384684Y-75576197D01*
X131390496Y-75552993D01*
X131398554Y-75530471D01*
X131408782Y-75508847D01*
X131421079Y-75488330D01*
X131435329Y-75469117D01*
X131451393Y-75451393D01*
X131469117Y-75435329D01*
X131488330Y-75421079D01*
X131508847Y-75408782D01*
X131530471Y-75398554D01*
X131552993Y-75390496D01*
X131576197Y-75384684D01*
X131599858Y-75381174D01*
X131623750Y-75380000D01*
X132536250Y-75380000D01*
X132560142Y-75381174D01*
X132560142Y-75381174D01*
G37*
D12*
X132080000Y-75867500D03*
D11*
G36*
X132560142Y-73506174D02*
X132583803Y-73509684D01*
X132607007Y-73515496D01*
X132629529Y-73523554D01*
X132651153Y-73533782D01*
X132671670Y-73546079D01*
X132690883Y-73560329D01*
X132708607Y-73576393D01*
X132724671Y-73594117D01*
X132738921Y-73613330D01*
X132751218Y-73633847D01*
X132761446Y-73655471D01*
X132769504Y-73677993D01*
X132775316Y-73701197D01*
X132778826Y-73724858D01*
X132780000Y-73748750D01*
X132780000Y-74236250D01*
X132778826Y-74260142D01*
X132775316Y-74283803D01*
X132769504Y-74307007D01*
X132761446Y-74329529D01*
X132751218Y-74351153D01*
X132738921Y-74371670D01*
X132724671Y-74390883D01*
X132708607Y-74408607D01*
X132690883Y-74424671D01*
X132671670Y-74438921D01*
X132651153Y-74451218D01*
X132629529Y-74461446D01*
X132607007Y-74469504D01*
X132583803Y-74475316D01*
X132560142Y-74478826D01*
X132536250Y-74480000D01*
X131623750Y-74480000D01*
X131599858Y-74478826D01*
X131576197Y-74475316D01*
X131552993Y-74469504D01*
X131530471Y-74461446D01*
X131508847Y-74451218D01*
X131488330Y-74438921D01*
X131469117Y-74424671D01*
X131451393Y-74408607D01*
X131435329Y-74390883D01*
X131421079Y-74371670D01*
X131408782Y-74351153D01*
X131398554Y-74329529D01*
X131390496Y-74307007D01*
X131384684Y-74283803D01*
X131381174Y-74260142D01*
X131380000Y-74236250D01*
X131380000Y-73748750D01*
X131381174Y-73724858D01*
X131384684Y-73701197D01*
X131390496Y-73677993D01*
X131398554Y-73655471D01*
X131408782Y-73633847D01*
X131421079Y-73613330D01*
X131435329Y-73594117D01*
X131451393Y-73576393D01*
X131469117Y-73560329D01*
X131488330Y-73546079D01*
X131508847Y-73533782D01*
X131530471Y-73523554D01*
X131552993Y-73515496D01*
X131576197Y-73509684D01*
X131599858Y-73506174D01*
X131623750Y-73505000D01*
X132536250Y-73505000D01*
X132560142Y-73506174D01*
X132560142Y-73506174D01*
G37*
D12*
X132080000Y-73992500D03*
G04 #@! TD*
D11*
G04 #@! TO.C,R5*
G36*
X125665142Y-108521174D02*
X125688803Y-108524684D01*
X125712007Y-108530496D01*
X125734529Y-108538554D01*
X125756153Y-108548782D01*
X125776670Y-108561079D01*
X125795883Y-108575329D01*
X125813607Y-108591393D01*
X125829671Y-108609117D01*
X125843921Y-108628330D01*
X125856218Y-108648847D01*
X125866446Y-108670471D01*
X125874504Y-108692993D01*
X125880316Y-108716197D01*
X125883826Y-108739858D01*
X125885000Y-108763750D01*
X125885000Y-109676250D01*
X125883826Y-109700142D01*
X125880316Y-109723803D01*
X125874504Y-109747007D01*
X125866446Y-109769529D01*
X125856218Y-109791153D01*
X125843921Y-109811670D01*
X125829671Y-109830883D01*
X125813607Y-109848607D01*
X125795883Y-109864671D01*
X125776670Y-109878921D01*
X125756153Y-109891218D01*
X125734529Y-109901446D01*
X125712007Y-109909504D01*
X125688803Y-109915316D01*
X125665142Y-109918826D01*
X125641250Y-109920000D01*
X125153750Y-109920000D01*
X125129858Y-109918826D01*
X125106197Y-109915316D01*
X125082993Y-109909504D01*
X125060471Y-109901446D01*
X125038847Y-109891218D01*
X125018330Y-109878921D01*
X124999117Y-109864671D01*
X124981393Y-109848607D01*
X124965329Y-109830883D01*
X124951079Y-109811670D01*
X124938782Y-109791153D01*
X124928554Y-109769529D01*
X124920496Y-109747007D01*
X124914684Y-109723803D01*
X124911174Y-109700142D01*
X124910000Y-109676250D01*
X124910000Y-108763750D01*
X124911174Y-108739858D01*
X124914684Y-108716197D01*
X124920496Y-108692993D01*
X124928554Y-108670471D01*
X124938782Y-108648847D01*
X124951079Y-108628330D01*
X124965329Y-108609117D01*
X124981393Y-108591393D01*
X124999117Y-108575329D01*
X125018330Y-108561079D01*
X125038847Y-108548782D01*
X125060471Y-108538554D01*
X125082993Y-108530496D01*
X125106197Y-108524684D01*
X125129858Y-108521174D01*
X125153750Y-108520000D01*
X125641250Y-108520000D01*
X125665142Y-108521174D01*
X125665142Y-108521174D01*
G37*
D12*
X125397500Y-109220000D03*
D11*
G36*
X123790142Y-108521174D02*
X123813803Y-108524684D01*
X123837007Y-108530496D01*
X123859529Y-108538554D01*
X123881153Y-108548782D01*
X123901670Y-108561079D01*
X123920883Y-108575329D01*
X123938607Y-108591393D01*
X123954671Y-108609117D01*
X123968921Y-108628330D01*
X123981218Y-108648847D01*
X123991446Y-108670471D01*
X123999504Y-108692993D01*
X124005316Y-108716197D01*
X124008826Y-108739858D01*
X124010000Y-108763750D01*
X124010000Y-109676250D01*
X124008826Y-109700142D01*
X124005316Y-109723803D01*
X123999504Y-109747007D01*
X123991446Y-109769529D01*
X123981218Y-109791153D01*
X123968921Y-109811670D01*
X123954671Y-109830883D01*
X123938607Y-109848607D01*
X123920883Y-109864671D01*
X123901670Y-109878921D01*
X123881153Y-109891218D01*
X123859529Y-109901446D01*
X123837007Y-109909504D01*
X123813803Y-109915316D01*
X123790142Y-109918826D01*
X123766250Y-109920000D01*
X123278750Y-109920000D01*
X123254858Y-109918826D01*
X123231197Y-109915316D01*
X123207993Y-109909504D01*
X123185471Y-109901446D01*
X123163847Y-109891218D01*
X123143330Y-109878921D01*
X123124117Y-109864671D01*
X123106393Y-109848607D01*
X123090329Y-109830883D01*
X123076079Y-109811670D01*
X123063782Y-109791153D01*
X123053554Y-109769529D01*
X123045496Y-109747007D01*
X123039684Y-109723803D01*
X123036174Y-109700142D01*
X123035000Y-109676250D01*
X123035000Y-108763750D01*
X123036174Y-108739858D01*
X123039684Y-108716197D01*
X123045496Y-108692993D01*
X123053554Y-108670471D01*
X123063782Y-108648847D01*
X123076079Y-108628330D01*
X123090329Y-108609117D01*
X123106393Y-108591393D01*
X123124117Y-108575329D01*
X123143330Y-108561079D01*
X123163847Y-108548782D01*
X123185471Y-108538554D01*
X123207993Y-108530496D01*
X123231197Y-108524684D01*
X123254858Y-108521174D01*
X123278750Y-108520000D01*
X123766250Y-108520000D01*
X123790142Y-108521174D01*
X123790142Y-108521174D01*
G37*
D12*
X123522500Y-109220000D03*
G04 #@! TD*
D11*
G04 #@! TO.C,R6*
G36*
X135100142Y-75381174D02*
X135123803Y-75384684D01*
X135147007Y-75390496D01*
X135169529Y-75398554D01*
X135191153Y-75408782D01*
X135211670Y-75421079D01*
X135230883Y-75435329D01*
X135248607Y-75451393D01*
X135264671Y-75469117D01*
X135278921Y-75488330D01*
X135291218Y-75508847D01*
X135301446Y-75530471D01*
X135309504Y-75552993D01*
X135315316Y-75576197D01*
X135318826Y-75599858D01*
X135320000Y-75623750D01*
X135320000Y-76111250D01*
X135318826Y-76135142D01*
X135315316Y-76158803D01*
X135309504Y-76182007D01*
X135301446Y-76204529D01*
X135291218Y-76226153D01*
X135278921Y-76246670D01*
X135264671Y-76265883D01*
X135248607Y-76283607D01*
X135230883Y-76299671D01*
X135211670Y-76313921D01*
X135191153Y-76326218D01*
X135169529Y-76336446D01*
X135147007Y-76344504D01*
X135123803Y-76350316D01*
X135100142Y-76353826D01*
X135076250Y-76355000D01*
X134163750Y-76355000D01*
X134139858Y-76353826D01*
X134116197Y-76350316D01*
X134092993Y-76344504D01*
X134070471Y-76336446D01*
X134048847Y-76326218D01*
X134028330Y-76313921D01*
X134009117Y-76299671D01*
X133991393Y-76283607D01*
X133975329Y-76265883D01*
X133961079Y-76246670D01*
X133948782Y-76226153D01*
X133938554Y-76204529D01*
X133930496Y-76182007D01*
X133924684Y-76158803D01*
X133921174Y-76135142D01*
X133920000Y-76111250D01*
X133920000Y-75623750D01*
X133921174Y-75599858D01*
X133924684Y-75576197D01*
X133930496Y-75552993D01*
X133938554Y-75530471D01*
X133948782Y-75508847D01*
X133961079Y-75488330D01*
X133975329Y-75469117D01*
X133991393Y-75451393D01*
X134009117Y-75435329D01*
X134028330Y-75421079D01*
X134048847Y-75408782D01*
X134070471Y-75398554D01*
X134092993Y-75390496D01*
X134116197Y-75384684D01*
X134139858Y-75381174D01*
X134163750Y-75380000D01*
X135076250Y-75380000D01*
X135100142Y-75381174D01*
X135100142Y-75381174D01*
G37*
D12*
X134620000Y-75867500D03*
D11*
G36*
X135100142Y-73506174D02*
X135123803Y-73509684D01*
X135147007Y-73515496D01*
X135169529Y-73523554D01*
X135191153Y-73533782D01*
X135211670Y-73546079D01*
X135230883Y-73560329D01*
X135248607Y-73576393D01*
X135264671Y-73594117D01*
X135278921Y-73613330D01*
X135291218Y-73633847D01*
X135301446Y-73655471D01*
X135309504Y-73677993D01*
X135315316Y-73701197D01*
X135318826Y-73724858D01*
X135320000Y-73748750D01*
X135320000Y-74236250D01*
X135318826Y-74260142D01*
X135315316Y-74283803D01*
X135309504Y-74307007D01*
X135301446Y-74329529D01*
X135291218Y-74351153D01*
X135278921Y-74371670D01*
X135264671Y-74390883D01*
X135248607Y-74408607D01*
X135230883Y-74424671D01*
X135211670Y-74438921D01*
X135191153Y-74451218D01*
X135169529Y-74461446D01*
X135147007Y-74469504D01*
X135123803Y-74475316D01*
X135100142Y-74478826D01*
X135076250Y-74480000D01*
X134163750Y-74480000D01*
X134139858Y-74478826D01*
X134116197Y-74475316D01*
X134092993Y-74469504D01*
X134070471Y-74461446D01*
X134048847Y-74451218D01*
X134028330Y-74438921D01*
X134009117Y-74424671D01*
X133991393Y-74408607D01*
X133975329Y-74390883D01*
X133961079Y-74371670D01*
X133948782Y-74351153D01*
X133938554Y-74329529D01*
X133930496Y-74307007D01*
X133924684Y-74283803D01*
X133921174Y-74260142D01*
X133920000Y-74236250D01*
X133920000Y-73748750D01*
X133921174Y-73724858D01*
X133924684Y-73701197D01*
X133930496Y-73677993D01*
X133938554Y-73655471D01*
X133948782Y-73633847D01*
X133961079Y-73613330D01*
X133975329Y-73594117D01*
X133991393Y-73576393D01*
X134009117Y-73560329D01*
X134028330Y-73546079D01*
X134048847Y-73533782D01*
X134070471Y-73523554D01*
X134092993Y-73515496D01*
X134116197Y-73509684D01*
X134139858Y-73506174D01*
X134163750Y-73505000D01*
X135076250Y-73505000D01*
X135100142Y-73506174D01*
X135100142Y-73506174D01*
G37*
D12*
X134620000Y-73992500D03*
G04 #@! TD*
D11*
G04 #@! TO.C,R7*
G36*
X132560142Y-98241174D02*
X132583803Y-98244684D01*
X132607007Y-98250496D01*
X132629529Y-98258554D01*
X132651153Y-98268782D01*
X132671670Y-98281079D01*
X132690883Y-98295329D01*
X132708607Y-98311393D01*
X132724671Y-98329117D01*
X132738921Y-98348330D01*
X132751218Y-98368847D01*
X132761446Y-98390471D01*
X132769504Y-98412993D01*
X132775316Y-98436197D01*
X132778826Y-98459858D01*
X132780000Y-98483750D01*
X132780000Y-98971250D01*
X132778826Y-98995142D01*
X132775316Y-99018803D01*
X132769504Y-99042007D01*
X132761446Y-99064529D01*
X132751218Y-99086153D01*
X132738921Y-99106670D01*
X132724671Y-99125883D01*
X132708607Y-99143607D01*
X132690883Y-99159671D01*
X132671670Y-99173921D01*
X132651153Y-99186218D01*
X132629529Y-99196446D01*
X132607007Y-99204504D01*
X132583803Y-99210316D01*
X132560142Y-99213826D01*
X132536250Y-99215000D01*
X131623750Y-99215000D01*
X131599858Y-99213826D01*
X131576197Y-99210316D01*
X131552993Y-99204504D01*
X131530471Y-99196446D01*
X131508847Y-99186218D01*
X131488330Y-99173921D01*
X131469117Y-99159671D01*
X131451393Y-99143607D01*
X131435329Y-99125883D01*
X131421079Y-99106670D01*
X131408782Y-99086153D01*
X131398554Y-99064529D01*
X131390496Y-99042007D01*
X131384684Y-99018803D01*
X131381174Y-98995142D01*
X131380000Y-98971250D01*
X131380000Y-98483750D01*
X131381174Y-98459858D01*
X131384684Y-98436197D01*
X131390496Y-98412993D01*
X131398554Y-98390471D01*
X131408782Y-98368847D01*
X131421079Y-98348330D01*
X131435329Y-98329117D01*
X131451393Y-98311393D01*
X131469117Y-98295329D01*
X131488330Y-98281079D01*
X131508847Y-98268782D01*
X131530471Y-98258554D01*
X131552993Y-98250496D01*
X131576197Y-98244684D01*
X131599858Y-98241174D01*
X131623750Y-98240000D01*
X132536250Y-98240000D01*
X132560142Y-98241174D01*
X132560142Y-98241174D01*
G37*
D12*
X132080000Y-98727500D03*
D11*
G36*
X132560142Y-96366174D02*
X132583803Y-96369684D01*
X132607007Y-96375496D01*
X132629529Y-96383554D01*
X132651153Y-96393782D01*
X132671670Y-96406079D01*
X132690883Y-96420329D01*
X132708607Y-96436393D01*
X132724671Y-96454117D01*
X132738921Y-96473330D01*
X132751218Y-96493847D01*
X132761446Y-96515471D01*
X132769504Y-96537993D01*
X132775316Y-96561197D01*
X132778826Y-96584858D01*
X132780000Y-96608750D01*
X132780000Y-97096250D01*
X132778826Y-97120142D01*
X132775316Y-97143803D01*
X132769504Y-97167007D01*
X132761446Y-97189529D01*
X132751218Y-97211153D01*
X132738921Y-97231670D01*
X132724671Y-97250883D01*
X132708607Y-97268607D01*
X132690883Y-97284671D01*
X132671670Y-97298921D01*
X132651153Y-97311218D01*
X132629529Y-97321446D01*
X132607007Y-97329504D01*
X132583803Y-97335316D01*
X132560142Y-97338826D01*
X132536250Y-97340000D01*
X131623750Y-97340000D01*
X131599858Y-97338826D01*
X131576197Y-97335316D01*
X131552993Y-97329504D01*
X131530471Y-97321446D01*
X131508847Y-97311218D01*
X131488330Y-97298921D01*
X131469117Y-97284671D01*
X131451393Y-97268607D01*
X131435329Y-97250883D01*
X131421079Y-97231670D01*
X131408782Y-97211153D01*
X131398554Y-97189529D01*
X131390496Y-97167007D01*
X131384684Y-97143803D01*
X131381174Y-97120142D01*
X131380000Y-97096250D01*
X131380000Y-96608750D01*
X131381174Y-96584858D01*
X131384684Y-96561197D01*
X131390496Y-96537993D01*
X131398554Y-96515471D01*
X131408782Y-96493847D01*
X131421079Y-96473330D01*
X131435329Y-96454117D01*
X131451393Y-96436393D01*
X131469117Y-96420329D01*
X131488330Y-96406079D01*
X131508847Y-96393782D01*
X131530471Y-96383554D01*
X131552993Y-96375496D01*
X131576197Y-96369684D01*
X131599858Y-96366174D01*
X131623750Y-96365000D01*
X132536250Y-96365000D01*
X132560142Y-96366174D01*
X132560142Y-96366174D01*
G37*
D12*
X132080000Y-96852500D03*
G04 #@! TD*
D11*
G04 #@! TO.C,R8*
G36*
X137095142Y-107251174D02*
X137118803Y-107254684D01*
X137142007Y-107260496D01*
X137164529Y-107268554D01*
X137186153Y-107278782D01*
X137206670Y-107291079D01*
X137225883Y-107305329D01*
X137243607Y-107321393D01*
X137259671Y-107339117D01*
X137273921Y-107358330D01*
X137286218Y-107378847D01*
X137296446Y-107400471D01*
X137304504Y-107422993D01*
X137310316Y-107446197D01*
X137313826Y-107469858D01*
X137315000Y-107493750D01*
X137315000Y-108406250D01*
X137313826Y-108430142D01*
X137310316Y-108453803D01*
X137304504Y-108477007D01*
X137296446Y-108499529D01*
X137286218Y-108521153D01*
X137273921Y-108541670D01*
X137259671Y-108560883D01*
X137243607Y-108578607D01*
X137225883Y-108594671D01*
X137206670Y-108608921D01*
X137186153Y-108621218D01*
X137164529Y-108631446D01*
X137142007Y-108639504D01*
X137118803Y-108645316D01*
X137095142Y-108648826D01*
X137071250Y-108650000D01*
X136583750Y-108650000D01*
X136559858Y-108648826D01*
X136536197Y-108645316D01*
X136512993Y-108639504D01*
X136490471Y-108631446D01*
X136468847Y-108621218D01*
X136448330Y-108608921D01*
X136429117Y-108594671D01*
X136411393Y-108578607D01*
X136395329Y-108560883D01*
X136381079Y-108541670D01*
X136368782Y-108521153D01*
X136358554Y-108499529D01*
X136350496Y-108477007D01*
X136344684Y-108453803D01*
X136341174Y-108430142D01*
X136340000Y-108406250D01*
X136340000Y-107493750D01*
X136341174Y-107469858D01*
X136344684Y-107446197D01*
X136350496Y-107422993D01*
X136358554Y-107400471D01*
X136368782Y-107378847D01*
X136381079Y-107358330D01*
X136395329Y-107339117D01*
X136411393Y-107321393D01*
X136429117Y-107305329D01*
X136448330Y-107291079D01*
X136468847Y-107278782D01*
X136490471Y-107268554D01*
X136512993Y-107260496D01*
X136536197Y-107254684D01*
X136559858Y-107251174D01*
X136583750Y-107250000D01*
X137071250Y-107250000D01*
X137095142Y-107251174D01*
X137095142Y-107251174D01*
G37*
D12*
X136827500Y-107950000D03*
D11*
G36*
X135220142Y-107251174D02*
X135243803Y-107254684D01*
X135267007Y-107260496D01*
X135289529Y-107268554D01*
X135311153Y-107278782D01*
X135331670Y-107291079D01*
X135350883Y-107305329D01*
X135368607Y-107321393D01*
X135384671Y-107339117D01*
X135398921Y-107358330D01*
X135411218Y-107378847D01*
X135421446Y-107400471D01*
X135429504Y-107422993D01*
X135435316Y-107446197D01*
X135438826Y-107469858D01*
X135440000Y-107493750D01*
X135440000Y-108406250D01*
X135438826Y-108430142D01*
X135435316Y-108453803D01*
X135429504Y-108477007D01*
X135421446Y-108499529D01*
X135411218Y-108521153D01*
X135398921Y-108541670D01*
X135384671Y-108560883D01*
X135368607Y-108578607D01*
X135350883Y-108594671D01*
X135331670Y-108608921D01*
X135311153Y-108621218D01*
X135289529Y-108631446D01*
X135267007Y-108639504D01*
X135243803Y-108645316D01*
X135220142Y-108648826D01*
X135196250Y-108650000D01*
X134708750Y-108650000D01*
X134684858Y-108648826D01*
X134661197Y-108645316D01*
X134637993Y-108639504D01*
X134615471Y-108631446D01*
X134593847Y-108621218D01*
X134573330Y-108608921D01*
X134554117Y-108594671D01*
X134536393Y-108578607D01*
X134520329Y-108560883D01*
X134506079Y-108541670D01*
X134493782Y-108521153D01*
X134483554Y-108499529D01*
X134475496Y-108477007D01*
X134469684Y-108453803D01*
X134466174Y-108430142D01*
X134465000Y-108406250D01*
X134465000Y-107493750D01*
X134466174Y-107469858D01*
X134469684Y-107446197D01*
X134475496Y-107422993D01*
X134483554Y-107400471D01*
X134493782Y-107378847D01*
X134506079Y-107358330D01*
X134520329Y-107339117D01*
X134536393Y-107321393D01*
X134554117Y-107305329D01*
X134573330Y-107291079D01*
X134593847Y-107278782D01*
X134615471Y-107268554D01*
X134637993Y-107260496D01*
X134661197Y-107254684D01*
X134684858Y-107251174D01*
X134708750Y-107250000D01*
X135196250Y-107250000D01*
X135220142Y-107251174D01*
X135220142Y-107251174D01*
G37*
D12*
X134952500Y-107950000D03*
G04 #@! TD*
D11*
G04 #@! TO.C,R9*
G36*
X136370142Y-127451174D02*
X136393803Y-127454684D01*
X136417007Y-127460496D01*
X136439529Y-127468554D01*
X136461153Y-127478782D01*
X136481670Y-127491079D01*
X136500883Y-127505329D01*
X136518607Y-127521393D01*
X136534671Y-127539117D01*
X136548921Y-127558330D01*
X136561218Y-127578847D01*
X136571446Y-127600471D01*
X136579504Y-127622993D01*
X136585316Y-127646197D01*
X136588826Y-127669858D01*
X136590000Y-127693750D01*
X136590000Y-128181250D01*
X136588826Y-128205142D01*
X136585316Y-128228803D01*
X136579504Y-128252007D01*
X136571446Y-128274529D01*
X136561218Y-128296153D01*
X136548921Y-128316670D01*
X136534671Y-128335883D01*
X136518607Y-128353607D01*
X136500883Y-128369671D01*
X136481670Y-128383921D01*
X136461153Y-128396218D01*
X136439529Y-128406446D01*
X136417007Y-128414504D01*
X136393803Y-128420316D01*
X136370142Y-128423826D01*
X136346250Y-128425000D01*
X135433750Y-128425000D01*
X135409858Y-128423826D01*
X135386197Y-128420316D01*
X135362993Y-128414504D01*
X135340471Y-128406446D01*
X135318847Y-128396218D01*
X135298330Y-128383921D01*
X135279117Y-128369671D01*
X135261393Y-128353607D01*
X135245329Y-128335883D01*
X135231079Y-128316670D01*
X135218782Y-128296153D01*
X135208554Y-128274529D01*
X135200496Y-128252007D01*
X135194684Y-128228803D01*
X135191174Y-128205142D01*
X135190000Y-128181250D01*
X135190000Y-127693750D01*
X135191174Y-127669858D01*
X135194684Y-127646197D01*
X135200496Y-127622993D01*
X135208554Y-127600471D01*
X135218782Y-127578847D01*
X135231079Y-127558330D01*
X135245329Y-127539117D01*
X135261393Y-127521393D01*
X135279117Y-127505329D01*
X135298330Y-127491079D01*
X135318847Y-127478782D01*
X135340471Y-127468554D01*
X135362993Y-127460496D01*
X135386197Y-127454684D01*
X135409858Y-127451174D01*
X135433750Y-127450000D01*
X136346250Y-127450000D01*
X136370142Y-127451174D01*
X136370142Y-127451174D01*
G37*
D12*
X135890000Y-127937500D03*
D11*
G36*
X136370142Y-125576174D02*
X136393803Y-125579684D01*
X136417007Y-125585496D01*
X136439529Y-125593554D01*
X136461153Y-125603782D01*
X136481670Y-125616079D01*
X136500883Y-125630329D01*
X136518607Y-125646393D01*
X136534671Y-125664117D01*
X136548921Y-125683330D01*
X136561218Y-125703847D01*
X136571446Y-125725471D01*
X136579504Y-125747993D01*
X136585316Y-125771197D01*
X136588826Y-125794858D01*
X136590000Y-125818750D01*
X136590000Y-126306250D01*
X136588826Y-126330142D01*
X136585316Y-126353803D01*
X136579504Y-126377007D01*
X136571446Y-126399529D01*
X136561218Y-126421153D01*
X136548921Y-126441670D01*
X136534671Y-126460883D01*
X136518607Y-126478607D01*
X136500883Y-126494671D01*
X136481670Y-126508921D01*
X136461153Y-126521218D01*
X136439529Y-126531446D01*
X136417007Y-126539504D01*
X136393803Y-126545316D01*
X136370142Y-126548826D01*
X136346250Y-126550000D01*
X135433750Y-126550000D01*
X135409858Y-126548826D01*
X135386197Y-126545316D01*
X135362993Y-126539504D01*
X135340471Y-126531446D01*
X135318847Y-126521218D01*
X135298330Y-126508921D01*
X135279117Y-126494671D01*
X135261393Y-126478607D01*
X135245329Y-126460883D01*
X135231079Y-126441670D01*
X135218782Y-126421153D01*
X135208554Y-126399529D01*
X135200496Y-126377007D01*
X135194684Y-126353803D01*
X135191174Y-126330142D01*
X135190000Y-126306250D01*
X135190000Y-125818750D01*
X135191174Y-125794858D01*
X135194684Y-125771197D01*
X135200496Y-125747993D01*
X135208554Y-125725471D01*
X135218782Y-125703847D01*
X135231079Y-125683330D01*
X135245329Y-125664117D01*
X135261393Y-125646393D01*
X135279117Y-125630329D01*
X135298330Y-125616079D01*
X135318847Y-125603782D01*
X135340471Y-125593554D01*
X135362993Y-125585496D01*
X135386197Y-125579684D01*
X135409858Y-125576174D01*
X135433750Y-125575000D01*
X136346250Y-125575000D01*
X136370142Y-125576174D01*
X136370142Y-125576174D01*
G37*
D12*
X135890000Y-126062500D03*
G04 #@! TD*
D11*
G04 #@! TO.C,R10*
G36*
X122520142Y-83121174D02*
X122543803Y-83124684D01*
X122567007Y-83130496D01*
X122589529Y-83138554D01*
X122611153Y-83148782D01*
X122631670Y-83161079D01*
X122650883Y-83175329D01*
X122668607Y-83191393D01*
X122684671Y-83209117D01*
X122698921Y-83228330D01*
X122711218Y-83248847D01*
X122721446Y-83270471D01*
X122729504Y-83292993D01*
X122735316Y-83316197D01*
X122738826Y-83339858D01*
X122740000Y-83363750D01*
X122740000Y-84276250D01*
X122738826Y-84300142D01*
X122735316Y-84323803D01*
X122729504Y-84347007D01*
X122721446Y-84369529D01*
X122711218Y-84391153D01*
X122698921Y-84411670D01*
X122684671Y-84430883D01*
X122668607Y-84448607D01*
X122650883Y-84464671D01*
X122631670Y-84478921D01*
X122611153Y-84491218D01*
X122589529Y-84501446D01*
X122567007Y-84509504D01*
X122543803Y-84515316D01*
X122520142Y-84518826D01*
X122496250Y-84520000D01*
X122008750Y-84520000D01*
X121984858Y-84518826D01*
X121961197Y-84515316D01*
X121937993Y-84509504D01*
X121915471Y-84501446D01*
X121893847Y-84491218D01*
X121873330Y-84478921D01*
X121854117Y-84464671D01*
X121836393Y-84448607D01*
X121820329Y-84430883D01*
X121806079Y-84411670D01*
X121793782Y-84391153D01*
X121783554Y-84369529D01*
X121775496Y-84347007D01*
X121769684Y-84323803D01*
X121766174Y-84300142D01*
X121765000Y-84276250D01*
X121765000Y-83363750D01*
X121766174Y-83339858D01*
X121769684Y-83316197D01*
X121775496Y-83292993D01*
X121783554Y-83270471D01*
X121793782Y-83248847D01*
X121806079Y-83228330D01*
X121820329Y-83209117D01*
X121836393Y-83191393D01*
X121854117Y-83175329D01*
X121873330Y-83161079D01*
X121893847Y-83148782D01*
X121915471Y-83138554D01*
X121937993Y-83130496D01*
X121961197Y-83124684D01*
X121984858Y-83121174D01*
X122008750Y-83120000D01*
X122496250Y-83120000D01*
X122520142Y-83121174D01*
X122520142Y-83121174D01*
G37*
D12*
X122252500Y-83820000D03*
D11*
G36*
X124395142Y-83121174D02*
X124418803Y-83124684D01*
X124442007Y-83130496D01*
X124464529Y-83138554D01*
X124486153Y-83148782D01*
X124506670Y-83161079D01*
X124525883Y-83175329D01*
X124543607Y-83191393D01*
X124559671Y-83209117D01*
X124573921Y-83228330D01*
X124586218Y-83248847D01*
X124596446Y-83270471D01*
X124604504Y-83292993D01*
X124610316Y-83316197D01*
X124613826Y-83339858D01*
X124615000Y-83363750D01*
X124615000Y-84276250D01*
X124613826Y-84300142D01*
X124610316Y-84323803D01*
X124604504Y-84347007D01*
X124596446Y-84369529D01*
X124586218Y-84391153D01*
X124573921Y-84411670D01*
X124559671Y-84430883D01*
X124543607Y-84448607D01*
X124525883Y-84464671D01*
X124506670Y-84478921D01*
X124486153Y-84491218D01*
X124464529Y-84501446D01*
X124442007Y-84509504D01*
X124418803Y-84515316D01*
X124395142Y-84518826D01*
X124371250Y-84520000D01*
X123883750Y-84520000D01*
X123859858Y-84518826D01*
X123836197Y-84515316D01*
X123812993Y-84509504D01*
X123790471Y-84501446D01*
X123768847Y-84491218D01*
X123748330Y-84478921D01*
X123729117Y-84464671D01*
X123711393Y-84448607D01*
X123695329Y-84430883D01*
X123681079Y-84411670D01*
X123668782Y-84391153D01*
X123658554Y-84369529D01*
X123650496Y-84347007D01*
X123644684Y-84323803D01*
X123641174Y-84300142D01*
X123640000Y-84276250D01*
X123640000Y-83363750D01*
X123641174Y-83339858D01*
X123644684Y-83316197D01*
X123650496Y-83292993D01*
X123658554Y-83270471D01*
X123668782Y-83248847D01*
X123681079Y-83228330D01*
X123695329Y-83209117D01*
X123711393Y-83191393D01*
X123729117Y-83175329D01*
X123748330Y-83161079D01*
X123768847Y-83148782D01*
X123790471Y-83138554D01*
X123812993Y-83130496D01*
X123836197Y-83124684D01*
X123859858Y-83121174D01*
X123883750Y-83120000D01*
X124371250Y-83120000D01*
X124395142Y-83121174D01*
X124395142Y-83121174D01*
G37*
D12*
X124127500Y-83820000D03*
G04 #@! TD*
D11*
G04 #@! TO.C,R11*
G36*
X124395142Y-85661174D02*
X124418803Y-85664684D01*
X124442007Y-85670496D01*
X124464529Y-85678554D01*
X124486153Y-85688782D01*
X124506670Y-85701079D01*
X124525883Y-85715329D01*
X124543607Y-85731393D01*
X124559671Y-85749117D01*
X124573921Y-85768330D01*
X124586218Y-85788847D01*
X124596446Y-85810471D01*
X124604504Y-85832993D01*
X124610316Y-85856197D01*
X124613826Y-85879858D01*
X124615000Y-85903750D01*
X124615000Y-86816250D01*
X124613826Y-86840142D01*
X124610316Y-86863803D01*
X124604504Y-86887007D01*
X124596446Y-86909529D01*
X124586218Y-86931153D01*
X124573921Y-86951670D01*
X124559671Y-86970883D01*
X124543607Y-86988607D01*
X124525883Y-87004671D01*
X124506670Y-87018921D01*
X124486153Y-87031218D01*
X124464529Y-87041446D01*
X124442007Y-87049504D01*
X124418803Y-87055316D01*
X124395142Y-87058826D01*
X124371250Y-87060000D01*
X123883750Y-87060000D01*
X123859858Y-87058826D01*
X123836197Y-87055316D01*
X123812993Y-87049504D01*
X123790471Y-87041446D01*
X123768847Y-87031218D01*
X123748330Y-87018921D01*
X123729117Y-87004671D01*
X123711393Y-86988607D01*
X123695329Y-86970883D01*
X123681079Y-86951670D01*
X123668782Y-86931153D01*
X123658554Y-86909529D01*
X123650496Y-86887007D01*
X123644684Y-86863803D01*
X123641174Y-86840142D01*
X123640000Y-86816250D01*
X123640000Y-85903750D01*
X123641174Y-85879858D01*
X123644684Y-85856197D01*
X123650496Y-85832993D01*
X123658554Y-85810471D01*
X123668782Y-85788847D01*
X123681079Y-85768330D01*
X123695329Y-85749117D01*
X123711393Y-85731393D01*
X123729117Y-85715329D01*
X123748330Y-85701079D01*
X123768847Y-85688782D01*
X123790471Y-85678554D01*
X123812993Y-85670496D01*
X123836197Y-85664684D01*
X123859858Y-85661174D01*
X123883750Y-85660000D01*
X124371250Y-85660000D01*
X124395142Y-85661174D01*
X124395142Y-85661174D01*
G37*
D12*
X124127500Y-86360000D03*
D11*
G36*
X122520142Y-85661174D02*
X122543803Y-85664684D01*
X122567007Y-85670496D01*
X122589529Y-85678554D01*
X122611153Y-85688782D01*
X122631670Y-85701079D01*
X122650883Y-85715329D01*
X122668607Y-85731393D01*
X122684671Y-85749117D01*
X122698921Y-85768330D01*
X122711218Y-85788847D01*
X122721446Y-85810471D01*
X122729504Y-85832993D01*
X122735316Y-85856197D01*
X122738826Y-85879858D01*
X122740000Y-85903750D01*
X122740000Y-86816250D01*
X122738826Y-86840142D01*
X122735316Y-86863803D01*
X122729504Y-86887007D01*
X122721446Y-86909529D01*
X122711218Y-86931153D01*
X122698921Y-86951670D01*
X122684671Y-86970883D01*
X122668607Y-86988607D01*
X122650883Y-87004671D01*
X122631670Y-87018921D01*
X122611153Y-87031218D01*
X122589529Y-87041446D01*
X122567007Y-87049504D01*
X122543803Y-87055316D01*
X122520142Y-87058826D01*
X122496250Y-87060000D01*
X122008750Y-87060000D01*
X121984858Y-87058826D01*
X121961197Y-87055316D01*
X121937993Y-87049504D01*
X121915471Y-87041446D01*
X121893847Y-87031218D01*
X121873330Y-87018921D01*
X121854117Y-87004671D01*
X121836393Y-86988607D01*
X121820329Y-86970883D01*
X121806079Y-86951670D01*
X121793782Y-86931153D01*
X121783554Y-86909529D01*
X121775496Y-86887007D01*
X121769684Y-86863803D01*
X121766174Y-86840142D01*
X121765000Y-86816250D01*
X121765000Y-85903750D01*
X121766174Y-85879858D01*
X121769684Y-85856197D01*
X121775496Y-85832993D01*
X121783554Y-85810471D01*
X121793782Y-85788847D01*
X121806079Y-85768330D01*
X121820329Y-85749117D01*
X121836393Y-85731393D01*
X121854117Y-85715329D01*
X121873330Y-85701079D01*
X121893847Y-85688782D01*
X121915471Y-85678554D01*
X121937993Y-85670496D01*
X121961197Y-85664684D01*
X121984858Y-85661174D01*
X122008750Y-85660000D01*
X122496250Y-85660000D01*
X122520142Y-85661174D01*
X122520142Y-85661174D01*
G37*
D12*
X122252500Y-86360000D03*
G04 #@! TD*
D11*
G04 #@! TO.C,R12*
G36*
X122520142Y-88201174D02*
X122543803Y-88204684D01*
X122567007Y-88210496D01*
X122589529Y-88218554D01*
X122611153Y-88228782D01*
X122631670Y-88241079D01*
X122650883Y-88255329D01*
X122668607Y-88271393D01*
X122684671Y-88289117D01*
X122698921Y-88308330D01*
X122711218Y-88328847D01*
X122721446Y-88350471D01*
X122729504Y-88372993D01*
X122735316Y-88396197D01*
X122738826Y-88419858D01*
X122740000Y-88443750D01*
X122740000Y-89356250D01*
X122738826Y-89380142D01*
X122735316Y-89403803D01*
X122729504Y-89427007D01*
X122721446Y-89449529D01*
X122711218Y-89471153D01*
X122698921Y-89491670D01*
X122684671Y-89510883D01*
X122668607Y-89528607D01*
X122650883Y-89544671D01*
X122631670Y-89558921D01*
X122611153Y-89571218D01*
X122589529Y-89581446D01*
X122567007Y-89589504D01*
X122543803Y-89595316D01*
X122520142Y-89598826D01*
X122496250Y-89600000D01*
X122008750Y-89600000D01*
X121984858Y-89598826D01*
X121961197Y-89595316D01*
X121937993Y-89589504D01*
X121915471Y-89581446D01*
X121893847Y-89571218D01*
X121873330Y-89558921D01*
X121854117Y-89544671D01*
X121836393Y-89528607D01*
X121820329Y-89510883D01*
X121806079Y-89491670D01*
X121793782Y-89471153D01*
X121783554Y-89449529D01*
X121775496Y-89427007D01*
X121769684Y-89403803D01*
X121766174Y-89380142D01*
X121765000Y-89356250D01*
X121765000Y-88443750D01*
X121766174Y-88419858D01*
X121769684Y-88396197D01*
X121775496Y-88372993D01*
X121783554Y-88350471D01*
X121793782Y-88328847D01*
X121806079Y-88308330D01*
X121820329Y-88289117D01*
X121836393Y-88271393D01*
X121854117Y-88255329D01*
X121873330Y-88241079D01*
X121893847Y-88228782D01*
X121915471Y-88218554D01*
X121937993Y-88210496D01*
X121961197Y-88204684D01*
X121984858Y-88201174D01*
X122008750Y-88200000D01*
X122496250Y-88200000D01*
X122520142Y-88201174D01*
X122520142Y-88201174D01*
G37*
D12*
X122252500Y-88900000D03*
D11*
G36*
X124395142Y-88201174D02*
X124418803Y-88204684D01*
X124442007Y-88210496D01*
X124464529Y-88218554D01*
X124486153Y-88228782D01*
X124506670Y-88241079D01*
X124525883Y-88255329D01*
X124543607Y-88271393D01*
X124559671Y-88289117D01*
X124573921Y-88308330D01*
X124586218Y-88328847D01*
X124596446Y-88350471D01*
X124604504Y-88372993D01*
X124610316Y-88396197D01*
X124613826Y-88419858D01*
X124615000Y-88443750D01*
X124615000Y-89356250D01*
X124613826Y-89380142D01*
X124610316Y-89403803D01*
X124604504Y-89427007D01*
X124596446Y-89449529D01*
X124586218Y-89471153D01*
X124573921Y-89491670D01*
X124559671Y-89510883D01*
X124543607Y-89528607D01*
X124525883Y-89544671D01*
X124506670Y-89558921D01*
X124486153Y-89571218D01*
X124464529Y-89581446D01*
X124442007Y-89589504D01*
X124418803Y-89595316D01*
X124395142Y-89598826D01*
X124371250Y-89600000D01*
X123883750Y-89600000D01*
X123859858Y-89598826D01*
X123836197Y-89595316D01*
X123812993Y-89589504D01*
X123790471Y-89581446D01*
X123768847Y-89571218D01*
X123748330Y-89558921D01*
X123729117Y-89544671D01*
X123711393Y-89528607D01*
X123695329Y-89510883D01*
X123681079Y-89491670D01*
X123668782Y-89471153D01*
X123658554Y-89449529D01*
X123650496Y-89427007D01*
X123644684Y-89403803D01*
X123641174Y-89380142D01*
X123640000Y-89356250D01*
X123640000Y-88443750D01*
X123641174Y-88419858D01*
X123644684Y-88396197D01*
X123650496Y-88372993D01*
X123658554Y-88350471D01*
X123668782Y-88328847D01*
X123681079Y-88308330D01*
X123695329Y-88289117D01*
X123711393Y-88271393D01*
X123729117Y-88255329D01*
X123748330Y-88241079D01*
X123768847Y-88228782D01*
X123790471Y-88218554D01*
X123812993Y-88210496D01*
X123836197Y-88204684D01*
X123859858Y-88201174D01*
X123883750Y-88200000D01*
X124371250Y-88200000D01*
X124395142Y-88201174D01*
X124395142Y-88201174D01*
G37*
D12*
X124127500Y-88900000D03*
G04 #@! TD*
D11*
G04 #@! TO.C,R13*
G36*
X124395142Y-90741174D02*
X124418803Y-90744684D01*
X124442007Y-90750496D01*
X124464529Y-90758554D01*
X124486153Y-90768782D01*
X124506670Y-90781079D01*
X124525883Y-90795329D01*
X124543607Y-90811393D01*
X124559671Y-90829117D01*
X124573921Y-90848330D01*
X124586218Y-90868847D01*
X124596446Y-90890471D01*
X124604504Y-90912993D01*
X124610316Y-90936197D01*
X124613826Y-90959858D01*
X124615000Y-90983750D01*
X124615000Y-91896250D01*
X124613826Y-91920142D01*
X124610316Y-91943803D01*
X124604504Y-91967007D01*
X124596446Y-91989529D01*
X124586218Y-92011153D01*
X124573921Y-92031670D01*
X124559671Y-92050883D01*
X124543607Y-92068607D01*
X124525883Y-92084671D01*
X124506670Y-92098921D01*
X124486153Y-92111218D01*
X124464529Y-92121446D01*
X124442007Y-92129504D01*
X124418803Y-92135316D01*
X124395142Y-92138826D01*
X124371250Y-92140000D01*
X123883750Y-92140000D01*
X123859858Y-92138826D01*
X123836197Y-92135316D01*
X123812993Y-92129504D01*
X123790471Y-92121446D01*
X123768847Y-92111218D01*
X123748330Y-92098921D01*
X123729117Y-92084671D01*
X123711393Y-92068607D01*
X123695329Y-92050883D01*
X123681079Y-92031670D01*
X123668782Y-92011153D01*
X123658554Y-91989529D01*
X123650496Y-91967007D01*
X123644684Y-91943803D01*
X123641174Y-91920142D01*
X123640000Y-91896250D01*
X123640000Y-90983750D01*
X123641174Y-90959858D01*
X123644684Y-90936197D01*
X123650496Y-90912993D01*
X123658554Y-90890471D01*
X123668782Y-90868847D01*
X123681079Y-90848330D01*
X123695329Y-90829117D01*
X123711393Y-90811393D01*
X123729117Y-90795329D01*
X123748330Y-90781079D01*
X123768847Y-90768782D01*
X123790471Y-90758554D01*
X123812993Y-90750496D01*
X123836197Y-90744684D01*
X123859858Y-90741174D01*
X123883750Y-90740000D01*
X124371250Y-90740000D01*
X124395142Y-90741174D01*
X124395142Y-90741174D01*
G37*
D12*
X124127500Y-91440000D03*
D11*
G36*
X122520142Y-90741174D02*
X122543803Y-90744684D01*
X122567007Y-90750496D01*
X122589529Y-90758554D01*
X122611153Y-90768782D01*
X122631670Y-90781079D01*
X122650883Y-90795329D01*
X122668607Y-90811393D01*
X122684671Y-90829117D01*
X122698921Y-90848330D01*
X122711218Y-90868847D01*
X122721446Y-90890471D01*
X122729504Y-90912993D01*
X122735316Y-90936197D01*
X122738826Y-90959858D01*
X122740000Y-90983750D01*
X122740000Y-91896250D01*
X122738826Y-91920142D01*
X122735316Y-91943803D01*
X122729504Y-91967007D01*
X122721446Y-91989529D01*
X122711218Y-92011153D01*
X122698921Y-92031670D01*
X122684671Y-92050883D01*
X122668607Y-92068607D01*
X122650883Y-92084671D01*
X122631670Y-92098921D01*
X122611153Y-92111218D01*
X122589529Y-92121446D01*
X122567007Y-92129504D01*
X122543803Y-92135316D01*
X122520142Y-92138826D01*
X122496250Y-92140000D01*
X122008750Y-92140000D01*
X121984858Y-92138826D01*
X121961197Y-92135316D01*
X121937993Y-92129504D01*
X121915471Y-92121446D01*
X121893847Y-92111218D01*
X121873330Y-92098921D01*
X121854117Y-92084671D01*
X121836393Y-92068607D01*
X121820329Y-92050883D01*
X121806079Y-92031670D01*
X121793782Y-92011153D01*
X121783554Y-91989529D01*
X121775496Y-91967007D01*
X121769684Y-91943803D01*
X121766174Y-91920142D01*
X121765000Y-91896250D01*
X121765000Y-90983750D01*
X121766174Y-90959858D01*
X121769684Y-90936197D01*
X121775496Y-90912993D01*
X121783554Y-90890471D01*
X121793782Y-90868847D01*
X121806079Y-90848330D01*
X121820329Y-90829117D01*
X121836393Y-90811393D01*
X121854117Y-90795329D01*
X121873330Y-90781079D01*
X121893847Y-90768782D01*
X121915471Y-90758554D01*
X121937993Y-90750496D01*
X121961197Y-90744684D01*
X121984858Y-90741174D01*
X122008750Y-90740000D01*
X122496250Y-90740000D01*
X122520142Y-90741174D01*
X122520142Y-90741174D01*
G37*
D12*
X122252500Y-91440000D03*
G04 #@! TD*
D11*
G04 #@! TO.C,R14*
G36*
X142175142Y-90741174D02*
X142198803Y-90744684D01*
X142222007Y-90750496D01*
X142244529Y-90758554D01*
X142266153Y-90768782D01*
X142286670Y-90781079D01*
X142305883Y-90795329D01*
X142323607Y-90811393D01*
X142339671Y-90829117D01*
X142353921Y-90848330D01*
X142366218Y-90868847D01*
X142376446Y-90890471D01*
X142384504Y-90912993D01*
X142390316Y-90936197D01*
X142393826Y-90959858D01*
X142395000Y-90983750D01*
X142395000Y-91896250D01*
X142393826Y-91920142D01*
X142390316Y-91943803D01*
X142384504Y-91967007D01*
X142376446Y-91989529D01*
X142366218Y-92011153D01*
X142353921Y-92031670D01*
X142339671Y-92050883D01*
X142323607Y-92068607D01*
X142305883Y-92084671D01*
X142286670Y-92098921D01*
X142266153Y-92111218D01*
X142244529Y-92121446D01*
X142222007Y-92129504D01*
X142198803Y-92135316D01*
X142175142Y-92138826D01*
X142151250Y-92140000D01*
X141663750Y-92140000D01*
X141639858Y-92138826D01*
X141616197Y-92135316D01*
X141592993Y-92129504D01*
X141570471Y-92121446D01*
X141548847Y-92111218D01*
X141528330Y-92098921D01*
X141509117Y-92084671D01*
X141491393Y-92068607D01*
X141475329Y-92050883D01*
X141461079Y-92031670D01*
X141448782Y-92011153D01*
X141438554Y-91989529D01*
X141430496Y-91967007D01*
X141424684Y-91943803D01*
X141421174Y-91920142D01*
X141420000Y-91896250D01*
X141420000Y-90983750D01*
X141421174Y-90959858D01*
X141424684Y-90936197D01*
X141430496Y-90912993D01*
X141438554Y-90890471D01*
X141448782Y-90868847D01*
X141461079Y-90848330D01*
X141475329Y-90829117D01*
X141491393Y-90811393D01*
X141509117Y-90795329D01*
X141528330Y-90781079D01*
X141548847Y-90768782D01*
X141570471Y-90758554D01*
X141592993Y-90750496D01*
X141616197Y-90744684D01*
X141639858Y-90741174D01*
X141663750Y-90740000D01*
X142151250Y-90740000D01*
X142175142Y-90741174D01*
X142175142Y-90741174D01*
G37*
D12*
X141907500Y-91440000D03*
D11*
G36*
X140300142Y-90741174D02*
X140323803Y-90744684D01*
X140347007Y-90750496D01*
X140369529Y-90758554D01*
X140391153Y-90768782D01*
X140411670Y-90781079D01*
X140430883Y-90795329D01*
X140448607Y-90811393D01*
X140464671Y-90829117D01*
X140478921Y-90848330D01*
X140491218Y-90868847D01*
X140501446Y-90890471D01*
X140509504Y-90912993D01*
X140515316Y-90936197D01*
X140518826Y-90959858D01*
X140520000Y-90983750D01*
X140520000Y-91896250D01*
X140518826Y-91920142D01*
X140515316Y-91943803D01*
X140509504Y-91967007D01*
X140501446Y-91989529D01*
X140491218Y-92011153D01*
X140478921Y-92031670D01*
X140464671Y-92050883D01*
X140448607Y-92068607D01*
X140430883Y-92084671D01*
X140411670Y-92098921D01*
X140391153Y-92111218D01*
X140369529Y-92121446D01*
X140347007Y-92129504D01*
X140323803Y-92135316D01*
X140300142Y-92138826D01*
X140276250Y-92140000D01*
X139788750Y-92140000D01*
X139764858Y-92138826D01*
X139741197Y-92135316D01*
X139717993Y-92129504D01*
X139695471Y-92121446D01*
X139673847Y-92111218D01*
X139653330Y-92098921D01*
X139634117Y-92084671D01*
X139616393Y-92068607D01*
X139600329Y-92050883D01*
X139586079Y-92031670D01*
X139573782Y-92011153D01*
X139563554Y-91989529D01*
X139555496Y-91967007D01*
X139549684Y-91943803D01*
X139546174Y-91920142D01*
X139545000Y-91896250D01*
X139545000Y-90983750D01*
X139546174Y-90959858D01*
X139549684Y-90936197D01*
X139555496Y-90912993D01*
X139563554Y-90890471D01*
X139573782Y-90868847D01*
X139586079Y-90848330D01*
X139600329Y-90829117D01*
X139616393Y-90811393D01*
X139634117Y-90795329D01*
X139653330Y-90781079D01*
X139673847Y-90768782D01*
X139695471Y-90758554D01*
X139717993Y-90750496D01*
X139741197Y-90744684D01*
X139764858Y-90741174D01*
X139788750Y-90740000D01*
X140276250Y-90740000D01*
X140300142Y-90741174D01*
X140300142Y-90741174D01*
G37*
D12*
X140032500Y-91440000D03*
G04 #@! TD*
D11*
G04 #@! TO.C,R15*
G36*
X140300142Y-88201174D02*
X140323803Y-88204684D01*
X140347007Y-88210496D01*
X140369529Y-88218554D01*
X140391153Y-88228782D01*
X140411670Y-88241079D01*
X140430883Y-88255329D01*
X140448607Y-88271393D01*
X140464671Y-88289117D01*
X140478921Y-88308330D01*
X140491218Y-88328847D01*
X140501446Y-88350471D01*
X140509504Y-88372993D01*
X140515316Y-88396197D01*
X140518826Y-88419858D01*
X140520000Y-88443750D01*
X140520000Y-89356250D01*
X140518826Y-89380142D01*
X140515316Y-89403803D01*
X140509504Y-89427007D01*
X140501446Y-89449529D01*
X140491218Y-89471153D01*
X140478921Y-89491670D01*
X140464671Y-89510883D01*
X140448607Y-89528607D01*
X140430883Y-89544671D01*
X140411670Y-89558921D01*
X140391153Y-89571218D01*
X140369529Y-89581446D01*
X140347007Y-89589504D01*
X140323803Y-89595316D01*
X140300142Y-89598826D01*
X140276250Y-89600000D01*
X139788750Y-89600000D01*
X139764858Y-89598826D01*
X139741197Y-89595316D01*
X139717993Y-89589504D01*
X139695471Y-89581446D01*
X139673847Y-89571218D01*
X139653330Y-89558921D01*
X139634117Y-89544671D01*
X139616393Y-89528607D01*
X139600329Y-89510883D01*
X139586079Y-89491670D01*
X139573782Y-89471153D01*
X139563554Y-89449529D01*
X139555496Y-89427007D01*
X139549684Y-89403803D01*
X139546174Y-89380142D01*
X139545000Y-89356250D01*
X139545000Y-88443750D01*
X139546174Y-88419858D01*
X139549684Y-88396197D01*
X139555496Y-88372993D01*
X139563554Y-88350471D01*
X139573782Y-88328847D01*
X139586079Y-88308330D01*
X139600329Y-88289117D01*
X139616393Y-88271393D01*
X139634117Y-88255329D01*
X139653330Y-88241079D01*
X139673847Y-88228782D01*
X139695471Y-88218554D01*
X139717993Y-88210496D01*
X139741197Y-88204684D01*
X139764858Y-88201174D01*
X139788750Y-88200000D01*
X140276250Y-88200000D01*
X140300142Y-88201174D01*
X140300142Y-88201174D01*
G37*
D12*
X140032500Y-88900000D03*
D11*
G36*
X142175142Y-88201174D02*
X142198803Y-88204684D01*
X142222007Y-88210496D01*
X142244529Y-88218554D01*
X142266153Y-88228782D01*
X142286670Y-88241079D01*
X142305883Y-88255329D01*
X142323607Y-88271393D01*
X142339671Y-88289117D01*
X142353921Y-88308330D01*
X142366218Y-88328847D01*
X142376446Y-88350471D01*
X142384504Y-88372993D01*
X142390316Y-88396197D01*
X142393826Y-88419858D01*
X142395000Y-88443750D01*
X142395000Y-89356250D01*
X142393826Y-89380142D01*
X142390316Y-89403803D01*
X142384504Y-89427007D01*
X142376446Y-89449529D01*
X142366218Y-89471153D01*
X142353921Y-89491670D01*
X142339671Y-89510883D01*
X142323607Y-89528607D01*
X142305883Y-89544671D01*
X142286670Y-89558921D01*
X142266153Y-89571218D01*
X142244529Y-89581446D01*
X142222007Y-89589504D01*
X142198803Y-89595316D01*
X142175142Y-89598826D01*
X142151250Y-89600000D01*
X141663750Y-89600000D01*
X141639858Y-89598826D01*
X141616197Y-89595316D01*
X141592993Y-89589504D01*
X141570471Y-89581446D01*
X141548847Y-89571218D01*
X141528330Y-89558921D01*
X141509117Y-89544671D01*
X141491393Y-89528607D01*
X141475329Y-89510883D01*
X141461079Y-89491670D01*
X141448782Y-89471153D01*
X141438554Y-89449529D01*
X141430496Y-89427007D01*
X141424684Y-89403803D01*
X141421174Y-89380142D01*
X141420000Y-89356250D01*
X141420000Y-88443750D01*
X141421174Y-88419858D01*
X141424684Y-88396197D01*
X141430496Y-88372993D01*
X141438554Y-88350471D01*
X141448782Y-88328847D01*
X141461079Y-88308330D01*
X141475329Y-88289117D01*
X141491393Y-88271393D01*
X141509117Y-88255329D01*
X141528330Y-88241079D01*
X141548847Y-88228782D01*
X141570471Y-88218554D01*
X141592993Y-88210496D01*
X141616197Y-88204684D01*
X141639858Y-88201174D01*
X141663750Y-88200000D01*
X142151250Y-88200000D01*
X142175142Y-88201174D01*
X142175142Y-88201174D01*
G37*
D12*
X141907500Y-88900000D03*
G04 #@! TD*
D11*
G04 #@! TO.C,R16*
G36*
X142175142Y-85661174D02*
X142198803Y-85664684D01*
X142222007Y-85670496D01*
X142244529Y-85678554D01*
X142266153Y-85688782D01*
X142286670Y-85701079D01*
X142305883Y-85715329D01*
X142323607Y-85731393D01*
X142339671Y-85749117D01*
X142353921Y-85768330D01*
X142366218Y-85788847D01*
X142376446Y-85810471D01*
X142384504Y-85832993D01*
X142390316Y-85856197D01*
X142393826Y-85879858D01*
X142395000Y-85903750D01*
X142395000Y-86816250D01*
X142393826Y-86840142D01*
X142390316Y-86863803D01*
X142384504Y-86887007D01*
X142376446Y-86909529D01*
X142366218Y-86931153D01*
X142353921Y-86951670D01*
X142339671Y-86970883D01*
X142323607Y-86988607D01*
X142305883Y-87004671D01*
X142286670Y-87018921D01*
X142266153Y-87031218D01*
X142244529Y-87041446D01*
X142222007Y-87049504D01*
X142198803Y-87055316D01*
X142175142Y-87058826D01*
X142151250Y-87060000D01*
X141663750Y-87060000D01*
X141639858Y-87058826D01*
X141616197Y-87055316D01*
X141592993Y-87049504D01*
X141570471Y-87041446D01*
X141548847Y-87031218D01*
X141528330Y-87018921D01*
X141509117Y-87004671D01*
X141491393Y-86988607D01*
X141475329Y-86970883D01*
X141461079Y-86951670D01*
X141448782Y-86931153D01*
X141438554Y-86909529D01*
X141430496Y-86887007D01*
X141424684Y-86863803D01*
X141421174Y-86840142D01*
X141420000Y-86816250D01*
X141420000Y-85903750D01*
X141421174Y-85879858D01*
X141424684Y-85856197D01*
X141430496Y-85832993D01*
X141438554Y-85810471D01*
X141448782Y-85788847D01*
X141461079Y-85768330D01*
X141475329Y-85749117D01*
X141491393Y-85731393D01*
X141509117Y-85715329D01*
X141528330Y-85701079D01*
X141548847Y-85688782D01*
X141570471Y-85678554D01*
X141592993Y-85670496D01*
X141616197Y-85664684D01*
X141639858Y-85661174D01*
X141663750Y-85660000D01*
X142151250Y-85660000D01*
X142175142Y-85661174D01*
X142175142Y-85661174D01*
G37*
D12*
X141907500Y-86360000D03*
D11*
G36*
X140300142Y-85661174D02*
X140323803Y-85664684D01*
X140347007Y-85670496D01*
X140369529Y-85678554D01*
X140391153Y-85688782D01*
X140411670Y-85701079D01*
X140430883Y-85715329D01*
X140448607Y-85731393D01*
X140464671Y-85749117D01*
X140478921Y-85768330D01*
X140491218Y-85788847D01*
X140501446Y-85810471D01*
X140509504Y-85832993D01*
X140515316Y-85856197D01*
X140518826Y-85879858D01*
X140520000Y-85903750D01*
X140520000Y-86816250D01*
X140518826Y-86840142D01*
X140515316Y-86863803D01*
X140509504Y-86887007D01*
X140501446Y-86909529D01*
X140491218Y-86931153D01*
X140478921Y-86951670D01*
X140464671Y-86970883D01*
X140448607Y-86988607D01*
X140430883Y-87004671D01*
X140411670Y-87018921D01*
X140391153Y-87031218D01*
X140369529Y-87041446D01*
X140347007Y-87049504D01*
X140323803Y-87055316D01*
X140300142Y-87058826D01*
X140276250Y-87060000D01*
X139788750Y-87060000D01*
X139764858Y-87058826D01*
X139741197Y-87055316D01*
X139717993Y-87049504D01*
X139695471Y-87041446D01*
X139673847Y-87031218D01*
X139653330Y-87018921D01*
X139634117Y-87004671D01*
X139616393Y-86988607D01*
X139600329Y-86970883D01*
X139586079Y-86951670D01*
X139573782Y-86931153D01*
X139563554Y-86909529D01*
X139555496Y-86887007D01*
X139549684Y-86863803D01*
X139546174Y-86840142D01*
X139545000Y-86816250D01*
X139545000Y-85903750D01*
X139546174Y-85879858D01*
X139549684Y-85856197D01*
X139555496Y-85832993D01*
X139563554Y-85810471D01*
X139573782Y-85788847D01*
X139586079Y-85768330D01*
X139600329Y-85749117D01*
X139616393Y-85731393D01*
X139634117Y-85715329D01*
X139653330Y-85701079D01*
X139673847Y-85688782D01*
X139695471Y-85678554D01*
X139717993Y-85670496D01*
X139741197Y-85664684D01*
X139764858Y-85661174D01*
X139788750Y-85660000D01*
X140276250Y-85660000D01*
X140300142Y-85661174D01*
X140300142Y-85661174D01*
G37*
D12*
X140032500Y-86360000D03*
G04 #@! TD*
D11*
G04 #@! TO.C,R17*
G36*
X140300142Y-83121174D02*
X140323803Y-83124684D01*
X140347007Y-83130496D01*
X140369529Y-83138554D01*
X140391153Y-83148782D01*
X140411670Y-83161079D01*
X140430883Y-83175329D01*
X140448607Y-83191393D01*
X140464671Y-83209117D01*
X140478921Y-83228330D01*
X140491218Y-83248847D01*
X140501446Y-83270471D01*
X140509504Y-83292993D01*
X140515316Y-83316197D01*
X140518826Y-83339858D01*
X140520000Y-83363750D01*
X140520000Y-84276250D01*
X140518826Y-84300142D01*
X140515316Y-84323803D01*
X140509504Y-84347007D01*
X140501446Y-84369529D01*
X140491218Y-84391153D01*
X140478921Y-84411670D01*
X140464671Y-84430883D01*
X140448607Y-84448607D01*
X140430883Y-84464671D01*
X140411670Y-84478921D01*
X140391153Y-84491218D01*
X140369529Y-84501446D01*
X140347007Y-84509504D01*
X140323803Y-84515316D01*
X140300142Y-84518826D01*
X140276250Y-84520000D01*
X139788750Y-84520000D01*
X139764858Y-84518826D01*
X139741197Y-84515316D01*
X139717993Y-84509504D01*
X139695471Y-84501446D01*
X139673847Y-84491218D01*
X139653330Y-84478921D01*
X139634117Y-84464671D01*
X139616393Y-84448607D01*
X139600329Y-84430883D01*
X139586079Y-84411670D01*
X139573782Y-84391153D01*
X139563554Y-84369529D01*
X139555496Y-84347007D01*
X139549684Y-84323803D01*
X139546174Y-84300142D01*
X139545000Y-84276250D01*
X139545000Y-83363750D01*
X139546174Y-83339858D01*
X139549684Y-83316197D01*
X139555496Y-83292993D01*
X139563554Y-83270471D01*
X139573782Y-83248847D01*
X139586079Y-83228330D01*
X139600329Y-83209117D01*
X139616393Y-83191393D01*
X139634117Y-83175329D01*
X139653330Y-83161079D01*
X139673847Y-83148782D01*
X139695471Y-83138554D01*
X139717993Y-83130496D01*
X139741197Y-83124684D01*
X139764858Y-83121174D01*
X139788750Y-83120000D01*
X140276250Y-83120000D01*
X140300142Y-83121174D01*
X140300142Y-83121174D01*
G37*
D12*
X140032500Y-83820000D03*
D11*
G36*
X142175142Y-83121174D02*
X142198803Y-83124684D01*
X142222007Y-83130496D01*
X142244529Y-83138554D01*
X142266153Y-83148782D01*
X142286670Y-83161079D01*
X142305883Y-83175329D01*
X142323607Y-83191393D01*
X142339671Y-83209117D01*
X142353921Y-83228330D01*
X142366218Y-83248847D01*
X142376446Y-83270471D01*
X142384504Y-83292993D01*
X142390316Y-83316197D01*
X142393826Y-83339858D01*
X142395000Y-83363750D01*
X142395000Y-84276250D01*
X142393826Y-84300142D01*
X142390316Y-84323803D01*
X142384504Y-84347007D01*
X142376446Y-84369529D01*
X142366218Y-84391153D01*
X142353921Y-84411670D01*
X142339671Y-84430883D01*
X142323607Y-84448607D01*
X142305883Y-84464671D01*
X142286670Y-84478921D01*
X142266153Y-84491218D01*
X142244529Y-84501446D01*
X142222007Y-84509504D01*
X142198803Y-84515316D01*
X142175142Y-84518826D01*
X142151250Y-84520000D01*
X141663750Y-84520000D01*
X141639858Y-84518826D01*
X141616197Y-84515316D01*
X141592993Y-84509504D01*
X141570471Y-84501446D01*
X141548847Y-84491218D01*
X141528330Y-84478921D01*
X141509117Y-84464671D01*
X141491393Y-84448607D01*
X141475329Y-84430883D01*
X141461079Y-84411670D01*
X141448782Y-84391153D01*
X141438554Y-84369529D01*
X141430496Y-84347007D01*
X141424684Y-84323803D01*
X141421174Y-84300142D01*
X141420000Y-84276250D01*
X141420000Y-83363750D01*
X141421174Y-83339858D01*
X141424684Y-83316197D01*
X141430496Y-83292993D01*
X141438554Y-83270471D01*
X141448782Y-83248847D01*
X141461079Y-83228330D01*
X141475329Y-83209117D01*
X141491393Y-83191393D01*
X141509117Y-83175329D01*
X141528330Y-83161079D01*
X141548847Y-83148782D01*
X141570471Y-83138554D01*
X141592993Y-83130496D01*
X141616197Y-83124684D01*
X141639858Y-83121174D01*
X141663750Y-83120000D01*
X142151250Y-83120000D01*
X142175142Y-83121174D01*
X142175142Y-83121174D01*
G37*
D12*
X141907500Y-83820000D03*
G04 #@! TD*
D11*
G04 #@! TO.C,R18*
G36*
X135220142Y-122491174D02*
X135243803Y-122494684D01*
X135267007Y-122500496D01*
X135289529Y-122508554D01*
X135311153Y-122518782D01*
X135331670Y-122531079D01*
X135350883Y-122545329D01*
X135368607Y-122561393D01*
X135384671Y-122579117D01*
X135398921Y-122598330D01*
X135411218Y-122618847D01*
X135421446Y-122640471D01*
X135429504Y-122662993D01*
X135435316Y-122686197D01*
X135438826Y-122709858D01*
X135440000Y-122733750D01*
X135440000Y-123646250D01*
X135438826Y-123670142D01*
X135435316Y-123693803D01*
X135429504Y-123717007D01*
X135421446Y-123739529D01*
X135411218Y-123761153D01*
X135398921Y-123781670D01*
X135384671Y-123800883D01*
X135368607Y-123818607D01*
X135350883Y-123834671D01*
X135331670Y-123848921D01*
X135311153Y-123861218D01*
X135289529Y-123871446D01*
X135267007Y-123879504D01*
X135243803Y-123885316D01*
X135220142Y-123888826D01*
X135196250Y-123890000D01*
X134708750Y-123890000D01*
X134684858Y-123888826D01*
X134661197Y-123885316D01*
X134637993Y-123879504D01*
X134615471Y-123871446D01*
X134593847Y-123861218D01*
X134573330Y-123848921D01*
X134554117Y-123834671D01*
X134536393Y-123818607D01*
X134520329Y-123800883D01*
X134506079Y-123781670D01*
X134493782Y-123761153D01*
X134483554Y-123739529D01*
X134475496Y-123717007D01*
X134469684Y-123693803D01*
X134466174Y-123670142D01*
X134465000Y-123646250D01*
X134465000Y-122733750D01*
X134466174Y-122709858D01*
X134469684Y-122686197D01*
X134475496Y-122662993D01*
X134483554Y-122640471D01*
X134493782Y-122618847D01*
X134506079Y-122598330D01*
X134520329Y-122579117D01*
X134536393Y-122561393D01*
X134554117Y-122545329D01*
X134573330Y-122531079D01*
X134593847Y-122518782D01*
X134615471Y-122508554D01*
X134637993Y-122500496D01*
X134661197Y-122494684D01*
X134684858Y-122491174D01*
X134708750Y-122490000D01*
X135196250Y-122490000D01*
X135220142Y-122491174D01*
X135220142Y-122491174D01*
G37*
D12*
X134952500Y-123190000D03*
D11*
G36*
X137095142Y-122491174D02*
X137118803Y-122494684D01*
X137142007Y-122500496D01*
X137164529Y-122508554D01*
X137186153Y-122518782D01*
X137206670Y-122531079D01*
X137225883Y-122545329D01*
X137243607Y-122561393D01*
X137259671Y-122579117D01*
X137273921Y-122598330D01*
X137286218Y-122618847D01*
X137296446Y-122640471D01*
X137304504Y-122662993D01*
X137310316Y-122686197D01*
X137313826Y-122709858D01*
X137315000Y-122733750D01*
X137315000Y-123646250D01*
X137313826Y-123670142D01*
X137310316Y-123693803D01*
X137304504Y-123717007D01*
X137296446Y-123739529D01*
X137286218Y-123761153D01*
X137273921Y-123781670D01*
X137259671Y-123800883D01*
X137243607Y-123818607D01*
X137225883Y-123834671D01*
X137206670Y-123848921D01*
X137186153Y-123861218D01*
X137164529Y-123871446D01*
X137142007Y-123879504D01*
X137118803Y-123885316D01*
X137095142Y-123888826D01*
X137071250Y-123890000D01*
X136583750Y-123890000D01*
X136559858Y-123888826D01*
X136536197Y-123885316D01*
X136512993Y-123879504D01*
X136490471Y-123871446D01*
X136468847Y-123861218D01*
X136448330Y-123848921D01*
X136429117Y-123834671D01*
X136411393Y-123818607D01*
X136395329Y-123800883D01*
X136381079Y-123781670D01*
X136368782Y-123761153D01*
X136358554Y-123739529D01*
X136350496Y-123717007D01*
X136344684Y-123693803D01*
X136341174Y-123670142D01*
X136340000Y-123646250D01*
X136340000Y-122733750D01*
X136341174Y-122709858D01*
X136344684Y-122686197D01*
X136350496Y-122662993D01*
X136358554Y-122640471D01*
X136368782Y-122618847D01*
X136381079Y-122598330D01*
X136395329Y-122579117D01*
X136411393Y-122561393D01*
X136429117Y-122545329D01*
X136448330Y-122531079D01*
X136468847Y-122518782D01*
X136490471Y-122508554D01*
X136512993Y-122500496D01*
X136536197Y-122494684D01*
X136559858Y-122491174D01*
X136583750Y-122490000D01*
X137071250Y-122490000D01*
X137095142Y-122491174D01*
X137095142Y-122491174D01*
G37*
D12*
X136827500Y-123190000D03*
G04 #@! TD*
D11*
G04 #@! TO.C,R19*
G36*
X129475142Y-107251174D02*
X129498803Y-107254684D01*
X129522007Y-107260496D01*
X129544529Y-107268554D01*
X129566153Y-107278782D01*
X129586670Y-107291079D01*
X129605883Y-107305329D01*
X129623607Y-107321393D01*
X129639671Y-107339117D01*
X129653921Y-107358330D01*
X129666218Y-107378847D01*
X129676446Y-107400471D01*
X129684504Y-107422993D01*
X129690316Y-107446197D01*
X129693826Y-107469858D01*
X129695000Y-107493750D01*
X129695000Y-108406250D01*
X129693826Y-108430142D01*
X129690316Y-108453803D01*
X129684504Y-108477007D01*
X129676446Y-108499529D01*
X129666218Y-108521153D01*
X129653921Y-108541670D01*
X129639671Y-108560883D01*
X129623607Y-108578607D01*
X129605883Y-108594671D01*
X129586670Y-108608921D01*
X129566153Y-108621218D01*
X129544529Y-108631446D01*
X129522007Y-108639504D01*
X129498803Y-108645316D01*
X129475142Y-108648826D01*
X129451250Y-108650000D01*
X128963750Y-108650000D01*
X128939858Y-108648826D01*
X128916197Y-108645316D01*
X128892993Y-108639504D01*
X128870471Y-108631446D01*
X128848847Y-108621218D01*
X128828330Y-108608921D01*
X128809117Y-108594671D01*
X128791393Y-108578607D01*
X128775329Y-108560883D01*
X128761079Y-108541670D01*
X128748782Y-108521153D01*
X128738554Y-108499529D01*
X128730496Y-108477007D01*
X128724684Y-108453803D01*
X128721174Y-108430142D01*
X128720000Y-108406250D01*
X128720000Y-107493750D01*
X128721174Y-107469858D01*
X128724684Y-107446197D01*
X128730496Y-107422993D01*
X128738554Y-107400471D01*
X128748782Y-107378847D01*
X128761079Y-107358330D01*
X128775329Y-107339117D01*
X128791393Y-107321393D01*
X128809117Y-107305329D01*
X128828330Y-107291079D01*
X128848847Y-107278782D01*
X128870471Y-107268554D01*
X128892993Y-107260496D01*
X128916197Y-107254684D01*
X128939858Y-107251174D01*
X128963750Y-107250000D01*
X129451250Y-107250000D01*
X129475142Y-107251174D01*
X129475142Y-107251174D01*
G37*
D12*
X129207500Y-107950000D03*
D11*
G36*
X127600142Y-107251174D02*
X127623803Y-107254684D01*
X127647007Y-107260496D01*
X127669529Y-107268554D01*
X127691153Y-107278782D01*
X127711670Y-107291079D01*
X127730883Y-107305329D01*
X127748607Y-107321393D01*
X127764671Y-107339117D01*
X127778921Y-107358330D01*
X127791218Y-107378847D01*
X127801446Y-107400471D01*
X127809504Y-107422993D01*
X127815316Y-107446197D01*
X127818826Y-107469858D01*
X127820000Y-107493750D01*
X127820000Y-108406250D01*
X127818826Y-108430142D01*
X127815316Y-108453803D01*
X127809504Y-108477007D01*
X127801446Y-108499529D01*
X127791218Y-108521153D01*
X127778921Y-108541670D01*
X127764671Y-108560883D01*
X127748607Y-108578607D01*
X127730883Y-108594671D01*
X127711670Y-108608921D01*
X127691153Y-108621218D01*
X127669529Y-108631446D01*
X127647007Y-108639504D01*
X127623803Y-108645316D01*
X127600142Y-108648826D01*
X127576250Y-108650000D01*
X127088750Y-108650000D01*
X127064858Y-108648826D01*
X127041197Y-108645316D01*
X127017993Y-108639504D01*
X126995471Y-108631446D01*
X126973847Y-108621218D01*
X126953330Y-108608921D01*
X126934117Y-108594671D01*
X126916393Y-108578607D01*
X126900329Y-108560883D01*
X126886079Y-108541670D01*
X126873782Y-108521153D01*
X126863554Y-108499529D01*
X126855496Y-108477007D01*
X126849684Y-108453803D01*
X126846174Y-108430142D01*
X126845000Y-108406250D01*
X126845000Y-107493750D01*
X126846174Y-107469858D01*
X126849684Y-107446197D01*
X126855496Y-107422993D01*
X126863554Y-107400471D01*
X126873782Y-107378847D01*
X126886079Y-107358330D01*
X126900329Y-107339117D01*
X126916393Y-107321393D01*
X126934117Y-107305329D01*
X126953330Y-107291079D01*
X126973847Y-107278782D01*
X126995471Y-107268554D01*
X127017993Y-107260496D01*
X127041197Y-107254684D01*
X127064858Y-107251174D01*
X127088750Y-107250000D01*
X127576250Y-107250000D01*
X127600142Y-107251174D01*
X127600142Y-107251174D01*
G37*
D12*
X127332500Y-107950000D03*
G04 #@! TD*
D11*
G04 #@! TO.C,R20*
G36*
X141450142Y-127451174D02*
X141473803Y-127454684D01*
X141497007Y-127460496D01*
X141519529Y-127468554D01*
X141541153Y-127478782D01*
X141561670Y-127491079D01*
X141580883Y-127505329D01*
X141598607Y-127521393D01*
X141614671Y-127539117D01*
X141628921Y-127558330D01*
X141641218Y-127578847D01*
X141651446Y-127600471D01*
X141659504Y-127622993D01*
X141665316Y-127646197D01*
X141668826Y-127669858D01*
X141670000Y-127693750D01*
X141670000Y-128181250D01*
X141668826Y-128205142D01*
X141665316Y-128228803D01*
X141659504Y-128252007D01*
X141651446Y-128274529D01*
X141641218Y-128296153D01*
X141628921Y-128316670D01*
X141614671Y-128335883D01*
X141598607Y-128353607D01*
X141580883Y-128369671D01*
X141561670Y-128383921D01*
X141541153Y-128396218D01*
X141519529Y-128406446D01*
X141497007Y-128414504D01*
X141473803Y-128420316D01*
X141450142Y-128423826D01*
X141426250Y-128425000D01*
X140513750Y-128425000D01*
X140489858Y-128423826D01*
X140466197Y-128420316D01*
X140442993Y-128414504D01*
X140420471Y-128406446D01*
X140398847Y-128396218D01*
X140378330Y-128383921D01*
X140359117Y-128369671D01*
X140341393Y-128353607D01*
X140325329Y-128335883D01*
X140311079Y-128316670D01*
X140298782Y-128296153D01*
X140288554Y-128274529D01*
X140280496Y-128252007D01*
X140274684Y-128228803D01*
X140271174Y-128205142D01*
X140270000Y-128181250D01*
X140270000Y-127693750D01*
X140271174Y-127669858D01*
X140274684Y-127646197D01*
X140280496Y-127622993D01*
X140288554Y-127600471D01*
X140298782Y-127578847D01*
X140311079Y-127558330D01*
X140325329Y-127539117D01*
X140341393Y-127521393D01*
X140359117Y-127505329D01*
X140378330Y-127491079D01*
X140398847Y-127478782D01*
X140420471Y-127468554D01*
X140442993Y-127460496D01*
X140466197Y-127454684D01*
X140489858Y-127451174D01*
X140513750Y-127450000D01*
X141426250Y-127450000D01*
X141450142Y-127451174D01*
X141450142Y-127451174D01*
G37*
D12*
X140970000Y-127937500D03*
D11*
G36*
X141450142Y-125576174D02*
X141473803Y-125579684D01*
X141497007Y-125585496D01*
X141519529Y-125593554D01*
X141541153Y-125603782D01*
X141561670Y-125616079D01*
X141580883Y-125630329D01*
X141598607Y-125646393D01*
X141614671Y-125664117D01*
X141628921Y-125683330D01*
X141641218Y-125703847D01*
X141651446Y-125725471D01*
X141659504Y-125747993D01*
X141665316Y-125771197D01*
X141668826Y-125794858D01*
X141670000Y-125818750D01*
X141670000Y-126306250D01*
X141668826Y-126330142D01*
X141665316Y-126353803D01*
X141659504Y-126377007D01*
X141651446Y-126399529D01*
X141641218Y-126421153D01*
X141628921Y-126441670D01*
X141614671Y-126460883D01*
X141598607Y-126478607D01*
X141580883Y-126494671D01*
X141561670Y-126508921D01*
X141541153Y-126521218D01*
X141519529Y-126531446D01*
X141497007Y-126539504D01*
X141473803Y-126545316D01*
X141450142Y-126548826D01*
X141426250Y-126550000D01*
X140513750Y-126550000D01*
X140489858Y-126548826D01*
X140466197Y-126545316D01*
X140442993Y-126539504D01*
X140420471Y-126531446D01*
X140398847Y-126521218D01*
X140378330Y-126508921D01*
X140359117Y-126494671D01*
X140341393Y-126478607D01*
X140325329Y-126460883D01*
X140311079Y-126441670D01*
X140298782Y-126421153D01*
X140288554Y-126399529D01*
X140280496Y-126377007D01*
X140274684Y-126353803D01*
X140271174Y-126330142D01*
X140270000Y-126306250D01*
X140270000Y-125818750D01*
X140271174Y-125794858D01*
X140274684Y-125771197D01*
X140280496Y-125747993D01*
X140288554Y-125725471D01*
X140298782Y-125703847D01*
X140311079Y-125683330D01*
X140325329Y-125664117D01*
X140341393Y-125646393D01*
X140359117Y-125630329D01*
X140378330Y-125616079D01*
X140398847Y-125603782D01*
X140420471Y-125593554D01*
X140442993Y-125585496D01*
X140466197Y-125579684D01*
X140489858Y-125576174D01*
X140513750Y-125575000D01*
X141426250Y-125575000D01*
X141450142Y-125576174D01*
X141450142Y-125576174D01*
G37*
D12*
X140970000Y-126062500D03*
G04 #@! TD*
D11*
G04 #@! TO.C,R21*
G36*
X140180142Y-109163174D02*
X140203803Y-109166684D01*
X140227007Y-109172496D01*
X140249529Y-109180554D01*
X140271153Y-109190782D01*
X140291670Y-109203079D01*
X140310883Y-109217329D01*
X140328607Y-109233393D01*
X140344671Y-109251117D01*
X140358921Y-109270330D01*
X140371218Y-109290847D01*
X140381446Y-109312471D01*
X140389504Y-109334993D01*
X140395316Y-109358197D01*
X140398826Y-109381858D01*
X140400000Y-109405750D01*
X140400000Y-109893250D01*
X140398826Y-109917142D01*
X140395316Y-109940803D01*
X140389504Y-109964007D01*
X140381446Y-109986529D01*
X140371218Y-110008153D01*
X140358921Y-110028670D01*
X140344671Y-110047883D01*
X140328607Y-110065607D01*
X140310883Y-110081671D01*
X140291670Y-110095921D01*
X140271153Y-110108218D01*
X140249529Y-110118446D01*
X140227007Y-110126504D01*
X140203803Y-110132316D01*
X140180142Y-110135826D01*
X140156250Y-110137000D01*
X139243750Y-110137000D01*
X139219858Y-110135826D01*
X139196197Y-110132316D01*
X139172993Y-110126504D01*
X139150471Y-110118446D01*
X139128847Y-110108218D01*
X139108330Y-110095921D01*
X139089117Y-110081671D01*
X139071393Y-110065607D01*
X139055329Y-110047883D01*
X139041079Y-110028670D01*
X139028782Y-110008153D01*
X139018554Y-109986529D01*
X139010496Y-109964007D01*
X139004684Y-109940803D01*
X139001174Y-109917142D01*
X139000000Y-109893250D01*
X139000000Y-109405750D01*
X139001174Y-109381858D01*
X139004684Y-109358197D01*
X139010496Y-109334993D01*
X139018554Y-109312471D01*
X139028782Y-109290847D01*
X139041079Y-109270330D01*
X139055329Y-109251117D01*
X139071393Y-109233393D01*
X139089117Y-109217329D01*
X139108330Y-109203079D01*
X139128847Y-109190782D01*
X139150471Y-109180554D01*
X139172993Y-109172496D01*
X139196197Y-109166684D01*
X139219858Y-109163174D01*
X139243750Y-109162000D01*
X140156250Y-109162000D01*
X140180142Y-109163174D01*
X140180142Y-109163174D01*
G37*
D12*
X139700000Y-109649500D03*
D11*
G36*
X140180142Y-107288174D02*
X140203803Y-107291684D01*
X140227007Y-107297496D01*
X140249529Y-107305554D01*
X140271153Y-107315782D01*
X140291670Y-107328079D01*
X140310883Y-107342329D01*
X140328607Y-107358393D01*
X140344671Y-107376117D01*
X140358921Y-107395330D01*
X140371218Y-107415847D01*
X140381446Y-107437471D01*
X140389504Y-107459993D01*
X140395316Y-107483197D01*
X140398826Y-107506858D01*
X140400000Y-107530750D01*
X140400000Y-108018250D01*
X140398826Y-108042142D01*
X140395316Y-108065803D01*
X140389504Y-108089007D01*
X140381446Y-108111529D01*
X140371218Y-108133153D01*
X140358921Y-108153670D01*
X140344671Y-108172883D01*
X140328607Y-108190607D01*
X140310883Y-108206671D01*
X140291670Y-108220921D01*
X140271153Y-108233218D01*
X140249529Y-108243446D01*
X140227007Y-108251504D01*
X140203803Y-108257316D01*
X140180142Y-108260826D01*
X140156250Y-108262000D01*
X139243750Y-108262000D01*
X139219858Y-108260826D01*
X139196197Y-108257316D01*
X139172993Y-108251504D01*
X139150471Y-108243446D01*
X139128847Y-108233218D01*
X139108330Y-108220921D01*
X139089117Y-108206671D01*
X139071393Y-108190607D01*
X139055329Y-108172883D01*
X139041079Y-108153670D01*
X139028782Y-108133153D01*
X139018554Y-108111529D01*
X139010496Y-108089007D01*
X139004684Y-108065803D01*
X139001174Y-108042142D01*
X139000000Y-108018250D01*
X139000000Y-107530750D01*
X139001174Y-107506858D01*
X139004684Y-107483197D01*
X139010496Y-107459993D01*
X139018554Y-107437471D01*
X139028782Y-107415847D01*
X139041079Y-107395330D01*
X139055329Y-107376117D01*
X139071393Y-107358393D01*
X139089117Y-107342329D01*
X139108330Y-107328079D01*
X139128847Y-107315782D01*
X139150471Y-107305554D01*
X139172993Y-107297496D01*
X139196197Y-107291684D01*
X139219858Y-107288174D01*
X139243750Y-107287000D01*
X140156250Y-107287000D01*
X140180142Y-107288174D01*
X140180142Y-107288174D01*
G37*
D12*
X139700000Y-107774500D03*
G04 #@! TD*
D11*
G04 #@! TO.C,R22*
G36*
X142720142Y-107288174D02*
X142743803Y-107291684D01*
X142767007Y-107297496D01*
X142789529Y-107305554D01*
X142811153Y-107315782D01*
X142831670Y-107328079D01*
X142850883Y-107342329D01*
X142868607Y-107358393D01*
X142884671Y-107376117D01*
X142898921Y-107395330D01*
X142911218Y-107415847D01*
X142921446Y-107437471D01*
X142929504Y-107459993D01*
X142935316Y-107483197D01*
X142938826Y-107506858D01*
X142940000Y-107530750D01*
X142940000Y-108018250D01*
X142938826Y-108042142D01*
X142935316Y-108065803D01*
X142929504Y-108089007D01*
X142921446Y-108111529D01*
X142911218Y-108133153D01*
X142898921Y-108153670D01*
X142884671Y-108172883D01*
X142868607Y-108190607D01*
X142850883Y-108206671D01*
X142831670Y-108220921D01*
X142811153Y-108233218D01*
X142789529Y-108243446D01*
X142767007Y-108251504D01*
X142743803Y-108257316D01*
X142720142Y-108260826D01*
X142696250Y-108262000D01*
X141783750Y-108262000D01*
X141759858Y-108260826D01*
X141736197Y-108257316D01*
X141712993Y-108251504D01*
X141690471Y-108243446D01*
X141668847Y-108233218D01*
X141648330Y-108220921D01*
X141629117Y-108206671D01*
X141611393Y-108190607D01*
X141595329Y-108172883D01*
X141581079Y-108153670D01*
X141568782Y-108133153D01*
X141558554Y-108111529D01*
X141550496Y-108089007D01*
X141544684Y-108065803D01*
X141541174Y-108042142D01*
X141540000Y-108018250D01*
X141540000Y-107530750D01*
X141541174Y-107506858D01*
X141544684Y-107483197D01*
X141550496Y-107459993D01*
X141558554Y-107437471D01*
X141568782Y-107415847D01*
X141581079Y-107395330D01*
X141595329Y-107376117D01*
X141611393Y-107358393D01*
X141629117Y-107342329D01*
X141648330Y-107328079D01*
X141668847Y-107315782D01*
X141690471Y-107305554D01*
X141712993Y-107297496D01*
X141736197Y-107291684D01*
X141759858Y-107288174D01*
X141783750Y-107287000D01*
X142696250Y-107287000D01*
X142720142Y-107288174D01*
X142720142Y-107288174D01*
G37*
D12*
X142240000Y-107774500D03*
D11*
G36*
X142720142Y-109163174D02*
X142743803Y-109166684D01*
X142767007Y-109172496D01*
X142789529Y-109180554D01*
X142811153Y-109190782D01*
X142831670Y-109203079D01*
X142850883Y-109217329D01*
X142868607Y-109233393D01*
X142884671Y-109251117D01*
X142898921Y-109270330D01*
X142911218Y-109290847D01*
X142921446Y-109312471D01*
X142929504Y-109334993D01*
X142935316Y-109358197D01*
X142938826Y-109381858D01*
X142940000Y-109405750D01*
X142940000Y-109893250D01*
X142938826Y-109917142D01*
X142935316Y-109940803D01*
X142929504Y-109964007D01*
X142921446Y-109986529D01*
X142911218Y-110008153D01*
X142898921Y-110028670D01*
X142884671Y-110047883D01*
X142868607Y-110065607D01*
X142850883Y-110081671D01*
X142831670Y-110095921D01*
X142811153Y-110108218D01*
X142789529Y-110118446D01*
X142767007Y-110126504D01*
X142743803Y-110132316D01*
X142720142Y-110135826D01*
X142696250Y-110137000D01*
X141783750Y-110137000D01*
X141759858Y-110135826D01*
X141736197Y-110132316D01*
X141712993Y-110126504D01*
X141690471Y-110118446D01*
X141668847Y-110108218D01*
X141648330Y-110095921D01*
X141629117Y-110081671D01*
X141611393Y-110065607D01*
X141595329Y-110047883D01*
X141581079Y-110028670D01*
X141568782Y-110008153D01*
X141558554Y-109986529D01*
X141550496Y-109964007D01*
X141544684Y-109940803D01*
X141541174Y-109917142D01*
X141540000Y-109893250D01*
X141540000Y-109405750D01*
X141541174Y-109381858D01*
X141544684Y-109358197D01*
X141550496Y-109334993D01*
X141558554Y-109312471D01*
X141568782Y-109290847D01*
X141581079Y-109270330D01*
X141595329Y-109251117D01*
X141611393Y-109233393D01*
X141629117Y-109217329D01*
X141648330Y-109203079D01*
X141668847Y-109190782D01*
X141690471Y-109180554D01*
X141712993Y-109172496D01*
X141736197Y-109166684D01*
X141759858Y-109163174D01*
X141783750Y-109162000D01*
X142696250Y-109162000D01*
X142720142Y-109163174D01*
X142720142Y-109163174D01*
G37*
D12*
X142240000Y-109649500D03*
G04 #@! TD*
D11*
G04 #@! TO.C,R23*
G36*
X145260142Y-109163174D02*
X145283803Y-109166684D01*
X145307007Y-109172496D01*
X145329529Y-109180554D01*
X145351153Y-109190782D01*
X145371670Y-109203079D01*
X145390883Y-109217329D01*
X145408607Y-109233393D01*
X145424671Y-109251117D01*
X145438921Y-109270330D01*
X145451218Y-109290847D01*
X145461446Y-109312471D01*
X145469504Y-109334993D01*
X145475316Y-109358197D01*
X145478826Y-109381858D01*
X145480000Y-109405750D01*
X145480000Y-109893250D01*
X145478826Y-109917142D01*
X145475316Y-109940803D01*
X145469504Y-109964007D01*
X145461446Y-109986529D01*
X145451218Y-110008153D01*
X145438921Y-110028670D01*
X145424671Y-110047883D01*
X145408607Y-110065607D01*
X145390883Y-110081671D01*
X145371670Y-110095921D01*
X145351153Y-110108218D01*
X145329529Y-110118446D01*
X145307007Y-110126504D01*
X145283803Y-110132316D01*
X145260142Y-110135826D01*
X145236250Y-110137000D01*
X144323750Y-110137000D01*
X144299858Y-110135826D01*
X144276197Y-110132316D01*
X144252993Y-110126504D01*
X144230471Y-110118446D01*
X144208847Y-110108218D01*
X144188330Y-110095921D01*
X144169117Y-110081671D01*
X144151393Y-110065607D01*
X144135329Y-110047883D01*
X144121079Y-110028670D01*
X144108782Y-110008153D01*
X144098554Y-109986529D01*
X144090496Y-109964007D01*
X144084684Y-109940803D01*
X144081174Y-109917142D01*
X144080000Y-109893250D01*
X144080000Y-109405750D01*
X144081174Y-109381858D01*
X144084684Y-109358197D01*
X144090496Y-109334993D01*
X144098554Y-109312471D01*
X144108782Y-109290847D01*
X144121079Y-109270330D01*
X144135329Y-109251117D01*
X144151393Y-109233393D01*
X144169117Y-109217329D01*
X144188330Y-109203079D01*
X144208847Y-109190782D01*
X144230471Y-109180554D01*
X144252993Y-109172496D01*
X144276197Y-109166684D01*
X144299858Y-109163174D01*
X144323750Y-109162000D01*
X145236250Y-109162000D01*
X145260142Y-109163174D01*
X145260142Y-109163174D01*
G37*
D12*
X144780000Y-109649500D03*
D11*
G36*
X145260142Y-107288174D02*
X145283803Y-107291684D01*
X145307007Y-107297496D01*
X145329529Y-107305554D01*
X145351153Y-107315782D01*
X145371670Y-107328079D01*
X145390883Y-107342329D01*
X145408607Y-107358393D01*
X145424671Y-107376117D01*
X145438921Y-107395330D01*
X145451218Y-107415847D01*
X145461446Y-107437471D01*
X145469504Y-107459993D01*
X145475316Y-107483197D01*
X145478826Y-107506858D01*
X145480000Y-107530750D01*
X145480000Y-108018250D01*
X145478826Y-108042142D01*
X145475316Y-108065803D01*
X145469504Y-108089007D01*
X145461446Y-108111529D01*
X145451218Y-108133153D01*
X145438921Y-108153670D01*
X145424671Y-108172883D01*
X145408607Y-108190607D01*
X145390883Y-108206671D01*
X145371670Y-108220921D01*
X145351153Y-108233218D01*
X145329529Y-108243446D01*
X145307007Y-108251504D01*
X145283803Y-108257316D01*
X145260142Y-108260826D01*
X145236250Y-108262000D01*
X144323750Y-108262000D01*
X144299858Y-108260826D01*
X144276197Y-108257316D01*
X144252993Y-108251504D01*
X144230471Y-108243446D01*
X144208847Y-108233218D01*
X144188330Y-108220921D01*
X144169117Y-108206671D01*
X144151393Y-108190607D01*
X144135329Y-108172883D01*
X144121079Y-108153670D01*
X144108782Y-108133153D01*
X144098554Y-108111529D01*
X144090496Y-108089007D01*
X144084684Y-108065803D01*
X144081174Y-108042142D01*
X144080000Y-108018250D01*
X144080000Y-107530750D01*
X144081174Y-107506858D01*
X144084684Y-107483197D01*
X144090496Y-107459993D01*
X144098554Y-107437471D01*
X144108782Y-107415847D01*
X144121079Y-107395330D01*
X144135329Y-107376117D01*
X144151393Y-107358393D01*
X144169117Y-107342329D01*
X144188330Y-107328079D01*
X144208847Y-107315782D01*
X144230471Y-107305554D01*
X144252993Y-107297496D01*
X144276197Y-107291684D01*
X144299858Y-107288174D01*
X144323750Y-107287000D01*
X145236250Y-107287000D01*
X145260142Y-107288174D01*
X145260142Y-107288174D01*
G37*
D12*
X144780000Y-107774500D03*
G04 #@! TD*
D11*
G04 #@! TO.C,R24*
G36*
X140180142Y-119226174D02*
X140203803Y-119229684D01*
X140227007Y-119235496D01*
X140249529Y-119243554D01*
X140271153Y-119253782D01*
X140291670Y-119266079D01*
X140310883Y-119280329D01*
X140328607Y-119296393D01*
X140344671Y-119314117D01*
X140358921Y-119333330D01*
X140371218Y-119353847D01*
X140381446Y-119375471D01*
X140389504Y-119397993D01*
X140395316Y-119421197D01*
X140398826Y-119444858D01*
X140400000Y-119468750D01*
X140400000Y-119956250D01*
X140398826Y-119980142D01*
X140395316Y-120003803D01*
X140389504Y-120027007D01*
X140381446Y-120049529D01*
X140371218Y-120071153D01*
X140358921Y-120091670D01*
X140344671Y-120110883D01*
X140328607Y-120128607D01*
X140310883Y-120144671D01*
X140291670Y-120158921D01*
X140271153Y-120171218D01*
X140249529Y-120181446D01*
X140227007Y-120189504D01*
X140203803Y-120195316D01*
X140180142Y-120198826D01*
X140156250Y-120200000D01*
X139243750Y-120200000D01*
X139219858Y-120198826D01*
X139196197Y-120195316D01*
X139172993Y-120189504D01*
X139150471Y-120181446D01*
X139128847Y-120171218D01*
X139108330Y-120158921D01*
X139089117Y-120144671D01*
X139071393Y-120128607D01*
X139055329Y-120110883D01*
X139041079Y-120091670D01*
X139028782Y-120071153D01*
X139018554Y-120049529D01*
X139010496Y-120027007D01*
X139004684Y-120003803D01*
X139001174Y-119980142D01*
X139000000Y-119956250D01*
X139000000Y-119468750D01*
X139001174Y-119444858D01*
X139004684Y-119421197D01*
X139010496Y-119397993D01*
X139018554Y-119375471D01*
X139028782Y-119353847D01*
X139041079Y-119333330D01*
X139055329Y-119314117D01*
X139071393Y-119296393D01*
X139089117Y-119280329D01*
X139108330Y-119266079D01*
X139128847Y-119253782D01*
X139150471Y-119243554D01*
X139172993Y-119235496D01*
X139196197Y-119229684D01*
X139219858Y-119226174D01*
X139243750Y-119225000D01*
X140156250Y-119225000D01*
X140180142Y-119226174D01*
X140180142Y-119226174D01*
G37*
D12*
X139700000Y-119712500D03*
D11*
G36*
X140180142Y-121101174D02*
X140203803Y-121104684D01*
X140227007Y-121110496D01*
X140249529Y-121118554D01*
X140271153Y-121128782D01*
X140291670Y-121141079D01*
X140310883Y-121155329D01*
X140328607Y-121171393D01*
X140344671Y-121189117D01*
X140358921Y-121208330D01*
X140371218Y-121228847D01*
X140381446Y-121250471D01*
X140389504Y-121272993D01*
X140395316Y-121296197D01*
X140398826Y-121319858D01*
X140400000Y-121343750D01*
X140400000Y-121831250D01*
X140398826Y-121855142D01*
X140395316Y-121878803D01*
X140389504Y-121902007D01*
X140381446Y-121924529D01*
X140371218Y-121946153D01*
X140358921Y-121966670D01*
X140344671Y-121985883D01*
X140328607Y-122003607D01*
X140310883Y-122019671D01*
X140291670Y-122033921D01*
X140271153Y-122046218D01*
X140249529Y-122056446D01*
X140227007Y-122064504D01*
X140203803Y-122070316D01*
X140180142Y-122073826D01*
X140156250Y-122075000D01*
X139243750Y-122075000D01*
X139219858Y-122073826D01*
X139196197Y-122070316D01*
X139172993Y-122064504D01*
X139150471Y-122056446D01*
X139128847Y-122046218D01*
X139108330Y-122033921D01*
X139089117Y-122019671D01*
X139071393Y-122003607D01*
X139055329Y-121985883D01*
X139041079Y-121966670D01*
X139028782Y-121946153D01*
X139018554Y-121924529D01*
X139010496Y-121902007D01*
X139004684Y-121878803D01*
X139001174Y-121855142D01*
X139000000Y-121831250D01*
X139000000Y-121343750D01*
X139001174Y-121319858D01*
X139004684Y-121296197D01*
X139010496Y-121272993D01*
X139018554Y-121250471D01*
X139028782Y-121228847D01*
X139041079Y-121208330D01*
X139055329Y-121189117D01*
X139071393Y-121171393D01*
X139089117Y-121155329D01*
X139108330Y-121141079D01*
X139128847Y-121128782D01*
X139150471Y-121118554D01*
X139172993Y-121110496D01*
X139196197Y-121104684D01*
X139219858Y-121101174D01*
X139243750Y-121100000D01*
X140156250Y-121100000D01*
X140180142Y-121101174D01*
X140180142Y-121101174D01*
G37*
D12*
X139700000Y-121587500D03*
G04 #@! TD*
D11*
G04 #@! TO.C,R25*
G36*
X142720142Y-121101174D02*
X142743803Y-121104684D01*
X142767007Y-121110496D01*
X142789529Y-121118554D01*
X142811153Y-121128782D01*
X142831670Y-121141079D01*
X142850883Y-121155329D01*
X142868607Y-121171393D01*
X142884671Y-121189117D01*
X142898921Y-121208330D01*
X142911218Y-121228847D01*
X142921446Y-121250471D01*
X142929504Y-121272993D01*
X142935316Y-121296197D01*
X142938826Y-121319858D01*
X142940000Y-121343750D01*
X142940000Y-121831250D01*
X142938826Y-121855142D01*
X142935316Y-121878803D01*
X142929504Y-121902007D01*
X142921446Y-121924529D01*
X142911218Y-121946153D01*
X142898921Y-121966670D01*
X142884671Y-121985883D01*
X142868607Y-122003607D01*
X142850883Y-122019671D01*
X142831670Y-122033921D01*
X142811153Y-122046218D01*
X142789529Y-122056446D01*
X142767007Y-122064504D01*
X142743803Y-122070316D01*
X142720142Y-122073826D01*
X142696250Y-122075000D01*
X141783750Y-122075000D01*
X141759858Y-122073826D01*
X141736197Y-122070316D01*
X141712993Y-122064504D01*
X141690471Y-122056446D01*
X141668847Y-122046218D01*
X141648330Y-122033921D01*
X141629117Y-122019671D01*
X141611393Y-122003607D01*
X141595329Y-121985883D01*
X141581079Y-121966670D01*
X141568782Y-121946153D01*
X141558554Y-121924529D01*
X141550496Y-121902007D01*
X141544684Y-121878803D01*
X141541174Y-121855142D01*
X141540000Y-121831250D01*
X141540000Y-121343750D01*
X141541174Y-121319858D01*
X141544684Y-121296197D01*
X141550496Y-121272993D01*
X141558554Y-121250471D01*
X141568782Y-121228847D01*
X141581079Y-121208330D01*
X141595329Y-121189117D01*
X141611393Y-121171393D01*
X141629117Y-121155329D01*
X141648330Y-121141079D01*
X141668847Y-121128782D01*
X141690471Y-121118554D01*
X141712993Y-121110496D01*
X141736197Y-121104684D01*
X141759858Y-121101174D01*
X141783750Y-121100000D01*
X142696250Y-121100000D01*
X142720142Y-121101174D01*
X142720142Y-121101174D01*
G37*
D12*
X142240000Y-121587500D03*
D11*
G36*
X142720142Y-119226174D02*
X142743803Y-119229684D01*
X142767007Y-119235496D01*
X142789529Y-119243554D01*
X142811153Y-119253782D01*
X142831670Y-119266079D01*
X142850883Y-119280329D01*
X142868607Y-119296393D01*
X142884671Y-119314117D01*
X142898921Y-119333330D01*
X142911218Y-119353847D01*
X142921446Y-119375471D01*
X142929504Y-119397993D01*
X142935316Y-119421197D01*
X142938826Y-119444858D01*
X142940000Y-119468750D01*
X142940000Y-119956250D01*
X142938826Y-119980142D01*
X142935316Y-120003803D01*
X142929504Y-120027007D01*
X142921446Y-120049529D01*
X142911218Y-120071153D01*
X142898921Y-120091670D01*
X142884671Y-120110883D01*
X142868607Y-120128607D01*
X142850883Y-120144671D01*
X142831670Y-120158921D01*
X142811153Y-120171218D01*
X142789529Y-120181446D01*
X142767007Y-120189504D01*
X142743803Y-120195316D01*
X142720142Y-120198826D01*
X142696250Y-120200000D01*
X141783750Y-120200000D01*
X141759858Y-120198826D01*
X141736197Y-120195316D01*
X141712993Y-120189504D01*
X141690471Y-120181446D01*
X141668847Y-120171218D01*
X141648330Y-120158921D01*
X141629117Y-120144671D01*
X141611393Y-120128607D01*
X141595329Y-120110883D01*
X141581079Y-120091670D01*
X141568782Y-120071153D01*
X141558554Y-120049529D01*
X141550496Y-120027007D01*
X141544684Y-120003803D01*
X141541174Y-119980142D01*
X141540000Y-119956250D01*
X141540000Y-119468750D01*
X141541174Y-119444858D01*
X141544684Y-119421197D01*
X141550496Y-119397993D01*
X141558554Y-119375471D01*
X141568782Y-119353847D01*
X141581079Y-119333330D01*
X141595329Y-119314117D01*
X141611393Y-119296393D01*
X141629117Y-119280329D01*
X141648330Y-119266079D01*
X141668847Y-119253782D01*
X141690471Y-119243554D01*
X141712993Y-119235496D01*
X141736197Y-119229684D01*
X141759858Y-119226174D01*
X141783750Y-119225000D01*
X142696250Y-119225000D01*
X142720142Y-119226174D01*
X142720142Y-119226174D01*
G37*
D12*
X142240000Y-119712500D03*
G04 #@! TD*
D11*
G04 #@! TO.C,R26*
G36*
X145260142Y-119226174D02*
X145283803Y-119229684D01*
X145307007Y-119235496D01*
X145329529Y-119243554D01*
X145351153Y-119253782D01*
X145371670Y-119266079D01*
X145390883Y-119280329D01*
X145408607Y-119296393D01*
X145424671Y-119314117D01*
X145438921Y-119333330D01*
X145451218Y-119353847D01*
X145461446Y-119375471D01*
X145469504Y-119397993D01*
X145475316Y-119421197D01*
X145478826Y-119444858D01*
X145480000Y-119468750D01*
X145480000Y-119956250D01*
X145478826Y-119980142D01*
X145475316Y-120003803D01*
X145469504Y-120027007D01*
X145461446Y-120049529D01*
X145451218Y-120071153D01*
X145438921Y-120091670D01*
X145424671Y-120110883D01*
X145408607Y-120128607D01*
X145390883Y-120144671D01*
X145371670Y-120158921D01*
X145351153Y-120171218D01*
X145329529Y-120181446D01*
X145307007Y-120189504D01*
X145283803Y-120195316D01*
X145260142Y-120198826D01*
X145236250Y-120200000D01*
X144323750Y-120200000D01*
X144299858Y-120198826D01*
X144276197Y-120195316D01*
X144252993Y-120189504D01*
X144230471Y-120181446D01*
X144208847Y-120171218D01*
X144188330Y-120158921D01*
X144169117Y-120144671D01*
X144151393Y-120128607D01*
X144135329Y-120110883D01*
X144121079Y-120091670D01*
X144108782Y-120071153D01*
X144098554Y-120049529D01*
X144090496Y-120027007D01*
X144084684Y-120003803D01*
X144081174Y-119980142D01*
X144080000Y-119956250D01*
X144080000Y-119468750D01*
X144081174Y-119444858D01*
X144084684Y-119421197D01*
X144090496Y-119397993D01*
X144098554Y-119375471D01*
X144108782Y-119353847D01*
X144121079Y-119333330D01*
X144135329Y-119314117D01*
X144151393Y-119296393D01*
X144169117Y-119280329D01*
X144188330Y-119266079D01*
X144208847Y-119253782D01*
X144230471Y-119243554D01*
X144252993Y-119235496D01*
X144276197Y-119229684D01*
X144299858Y-119226174D01*
X144323750Y-119225000D01*
X145236250Y-119225000D01*
X145260142Y-119226174D01*
X145260142Y-119226174D01*
G37*
D12*
X144780000Y-119712500D03*
D11*
G36*
X145260142Y-121101174D02*
X145283803Y-121104684D01*
X145307007Y-121110496D01*
X145329529Y-121118554D01*
X145351153Y-121128782D01*
X145371670Y-121141079D01*
X145390883Y-121155329D01*
X145408607Y-121171393D01*
X145424671Y-121189117D01*
X145438921Y-121208330D01*
X145451218Y-121228847D01*
X145461446Y-121250471D01*
X145469504Y-121272993D01*
X145475316Y-121296197D01*
X145478826Y-121319858D01*
X145480000Y-121343750D01*
X145480000Y-121831250D01*
X145478826Y-121855142D01*
X145475316Y-121878803D01*
X145469504Y-121902007D01*
X145461446Y-121924529D01*
X145451218Y-121946153D01*
X145438921Y-121966670D01*
X145424671Y-121985883D01*
X145408607Y-122003607D01*
X145390883Y-122019671D01*
X145371670Y-122033921D01*
X145351153Y-122046218D01*
X145329529Y-122056446D01*
X145307007Y-122064504D01*
X145283803Y-122070316D01*
X145260142Y-122073826D01*
X145236250Y-122075000D01*
X144323750Y-122075000D01*
X144299858Y-122073826D01*
X144276197Y-122070316D01*
X144252993Y-122064504D01*
X144230471Y-122056446D01*
X144208847Y-122046218D01*
X144188330Y-122033921D01*
X144169117Y-122019671D01*
X144151393Y-122003607D01*
X144135329Y-121985883D01*
X144121079Y-121966670D01*
X144108782Y-121946153D01*
X144098554Y-121924529D01*
X144090496Y-121902007D01*
X144084684Y-121878803D01*
X144081174Y-121855142D01*
X144080000Y-121831250D01*
X144080000Y-121343750D01*
X144081174Y-121319858D01*
X144084684Y-121296197D01*
X144090496Y-121272993D01*
X144098554Y-121250471D01*
X144108782Y-121228847D01*
X144121079Y-121208330D01*
X144135329Y-121189117D01*
X144151393Y-121171393D01*
X144169117Y-121155329D01*
X144188330Y-121141079D01*
X144208847Y-121128782D01*
X144230471Y-121118554D01*
X144252993Y-121110496D01*
X144276197Y-121104684D01*
X144299858Y-121101174D01*
X144323750Y-121100000D01*
X145236250Y-121100000D01*
X145260142Y-121101174D01*
X145260142Y-121101174D01*
G37*
D12*
X144780000Y-121587500D03*
G04 #@! TD*
D18*
G04 #@! TO.C,SW1*
X121190000Y-98720000D03*
X121190000Y-104480000D03*
X125190000Y-104480000D03*
X125190000Y-98720000D03*
G04 #@! TD*
G04 #@! TO.C,SW2*
X122460000Y-136230000D03*
X122460000Y-130470000D03*
X126460000Y-130470000D03*
X126460000Y-136230000D03*
G04 #@! TD*
G04 #@! TO.C,SW3*
X137700000Y-130470000D03*
X137700000Y-136230000D03*
X141700000Y-136230000D03*
X141700000Y-130470000D03*
G04 #@! TD*
D19*
G04 #@! TO.C,Y1*
X126980000Y-123190000D03*
X124480000Y-123190000D03*
G04 #@! TD*
D20*
G04 #@! TO.C,Y2*
X119380000Y-121090000D03*
X119380000Y-112590000D03*
G04 #@! TD*
D11*
G04 #@! TO.C,R27*
G36*
X117755143Y-127481174D02*
X117778804Y-127484684D01*
X117802008Y-127490496D01*
X117824530Y-127498554D01*
X117846154Y-127508782D01*
X117866671Y-127521079D01*
X117885884Y-127535329D01*
X117903608Y-127551393D01*
X117919672Y-127569117D01*
X117933922Y-127588330D01*
X117946219Y-127608847D01*
X117956447Y-127630471D01*
X117964505Y-127652993D01*
X117970317Y-127676197D01*
X117973827Y-127699858D01*
X117975001Y-127723750D01*
X117975001Y-128211250D01*
X117973827Y-128235142D01*
X117970317Y-128258803D01*
X117964505Y-128282007D01*
X117956447Y-128304529D01*
X117946219Y-128326153D01*
X117933922Y-128346670D01*
X117919672Y-128365883D01*
X117903608Y-128383607D01*
X117885884Y-128399671D01*
X117866671Y-128413921D01*
X117846154Y-128426218D01*
X117824530Y-128436446D01*
X117802008Y-128444504D01*
X117778804Y-128450316D01*
X117755143Y-128453826D01*
X117731251Y-128455000D01*
X116818751Y-128455000D01*
X116794859Y-128453826D01*
X116771198Y-128450316D01*
X116747994Y-128444504D01*
X116725472Y-128436446D01*
X116703848Y-128426218D01*
X116683331Y-128413921D01*
X116664118Y-128399671D01*
X116646394Y-128383607D01*
X116630330Y-128365883D01*
X116616080Y-128346670D01*
X116603783Y-128326153D01*
X116593555Y-128304529D01*
X116585497Y-128282007D01*
X116579685Y-128258803D01*
X116576175Y-128235142D01*
X116575001Y-128211250D01*
X116575001Y-127723750D01*
X116576175Y-127699858D01*
X116579685Y-127676197D01*
X116585497Y-127652993D01*
X116593555Y-127630471D01*
X116603783Y-127608847D01*
X116616080Y-127588330D01*
X116630330Y-127569117D01*
X116646394Y-127551393D01*
X116664118Y-127535329D01*
X116683331Y-127521079D01*
X116703848Y-127508782D01*
X116725472Y-127498554D01*
X116747994Y-127490496D01*
X116771198Y-127484684D01*
X116794859Y-127481174D01*
X116818751Y-127480000D01*
X117731251Y-127480000D01*
X117755143Y-127481174D01*
X117755143Y-127481174D01*
G37*
D12*
X117275001Y-127967500D03*
D11*
G36*
X117755143Y-129356174D02*
X117778804Y-129359684D01*
X117802008Y-129365496D01*
X117824530Y-129373554D01*
X117846154Y-129383782D01*
X117866671Y-129396079D01*
X117885884Y-129410329D01*
X117903608Y-129426393D01*
X117919672Y-129444117D01*
X117933922Y-129463330D01*
X117946219Y-129483847D01*
X117956447Y-129505471D01*
X117964505Y-129527993D01*
X117970317Y-129551197D01*
X117973827Y-129574858D01*
X117975001Y-129598750D01*
X117975001Y-130086250D01*
X117973827Y-130110142D01*
X117970317Y-130133803D01*
X117964505Y-130157007D01*
X117956447Y-130179529D01*
X117946219Y-130201153D01*
X117933922Y-130221670D01*
X117919672Y-130240883D01*
X117903608Y-130258607D01*
X117885884Y-130274671D01*
X117866671Y-130288921D01*
X117846154Y-130301218D01*
X117824530Y-130311446D01*
X117802008Y-130319504D01*
X117778804Y-130325316D01*
X117755143Y-130328826D01*
X117731251Y-130330000D01*
X116818751Y-130330000D01*
X116794859Y-130328826D01*
X116771198Y-130325316D01*
X116747994Y-130319504D01*
X116725472Y-130311446D01*
X116703848Y-130301218D01*
X116683331Y-130288921D01*
X116664118Y-130274671D01*
X116646394Y-130258607D01*
X116630330Y-130240883D01*
X116616080Y-130221670D01*
X116603783Y-130201153D01*
X116593555Y-130179529D01*
X116585497Y-130157007D01*
X116579685Y-130133803D01*
X116576175Y-130110142D01*
X116575001Y-130086250D01*
X116575001Y-129598750D01*
X116576175Y-129574858D01*
X116579685Y-129551197D01*
X116585497Y-129527993D01*
X116593555Y-129505471D01*
X116603783Y-129483847D01*
X116616080Y-129463330D01*
X116630330Y-129444117D01*
X116646394Y-129426393D01*
X116664118Y-129410329D01*
X116683331Y-129396079D01*
X116703848Y-129383782D01*
X116725472Y-129373554D01*
X116747994Y-129365496D01*
X116771198Y-129359684D01*
X116794859Y-129356174D01*
X116818751Y-129355000D01*
X117731251Y-129355000D01*
X117755143Y-129356174D01*
X117755143Y-129356174D01*
G37*
D12*
X117275001Y-129842500D03*
G04 #@! TD*
D21*
G04 #@! TO.C,U1*
X146025000Y-100965000D03*
D22*
X139725000Y-100965000D03*
X139725000Y-103265000D03*
X139725000Y-98665000D03*
G04 #@! TD*
M02*
