G04 #@! TF.GenerationSoftware,KiCad,Pcbnew,5.0.2-bee76a0~70~ubuntu18.04.1*
G04 #@! TF.CreationDate,2019-11-16T15:20:31+01:00*
G04 #@! TF.ProjectId,Eierland,45696572-6c61-46e6-942e-6b696361645f,rev?*
G04 #@! TF.SameCoordinates,Original*
G04 #@! TF.FileFunction,Soldermask,Top*
G04 #@! TF.FilePolarity,Negative*
%FSLAX46Y46*%
G04 Gerber Fmt 4.6, Leading zero omitted, Abs format (unit mm)*
G04 Created by KiCad (PCBNEW 5.0.2-bee76a0~70~ubuntu18.04.1) date za 16 nov 2019 15:20:31 CET*
%MOMM*%
%LPD*%
G01*
G04 APERTURE LIST*
%ADD10C,0.150000*%
%ADD11C,0.100000*%
G04 APERTURE END LIST*
D10*
G36*
X131572000Y-103251000D02*
X131572000Y-105029000D01*
X132588000Y-105029000D01*
X132588000Y-103251000D01*
X131572000Y-103251000D01*
G37*
X131572000Y-103251000D02*
X131572000Y-105029000D01*
X132588000Y-105029000D01*
X132588000Y-103251000D01*
X131572000Y-103251000D01*
D11*
G36*
X130920442Y-142615518D02*
X130986627Y-142622037D01*
X131099853Y-142656384D01*
X131156467Y-142673557D01*
X131295087Y-142747652D01*
X131312991Y-142757222D01*
X131348729Y-142786552D01*
X131450186Y-142869814D01*
X131533448Y-142971271D01*
X131562778Y-143007009D01*
X131562779Y-143007011D01*
X131646443Y-143163533D01*
X131646443Y-143163534D01*
X131697963Y-143333373D01*
X131715359Y-143510000D01*
X131697963Y-143686627D01*
X131663616Y-143799853D01*
X131646443Y-143856467D01*
X131572348Y-143995087D01*
X131562778Y-144012991D01*
X131533448Y-144048729D01*
X131450186Y-144150186D01*
X131348729Y-144233448D01*
X131312991Y-144262778D01*
X131312989Y-144262779D01*
X131156467Y-144346443D01*
X131099853Y-144363616D01*
X130986627Y-144397963D01*
X130920443Y-144404481D01*
X130854260Y-144411000D01*
X130765740Y-144411000D01*
X130699557Y-144404481D01*
X130633373Y-144397963D01*
X130520147Y-144363616D01*
X130463533Y-144346443D01*
X130307011Y-144262779D01*
X130307009Y-144262778D01*
X130271271Y-144233448D01*
X130169814Y-144150186D01*
X130086552Y-144048729D01*
X130057222Y-144012991D01*
X130047652Y-143995087D01*
X129973557Y-143856467D01*
X129956384Y-143799853D01*
X129922037Y-143686627D01*
X129904641Y-143510000D01*
X129922037Y-143333373D01*
X129973557Y-143163534D01*
X129973557Y-143163533D01*
X130057221Y-143007011D01*
X130057222Y-143007009D01*
X130086552Y-142971271D01*
X130169814Y-142869814D01*
X130271271Y-142786552D01*
X130307009Y-142757222D01*
X130324913Y-142747652D01*
X130463533Y-142673557D01*
X130520147Y-142656384D01*
X130633373Y-142622037D01*
X130699558Y-142615518D01*
X130765740Y-142609000D01*
X130854260Y-142609000D01*
X130920442Y-142615518D01*
X130920442Y-142615518D01*
G37*
G36*
X125840442Y-142615518D02*
X125906627Y-142622037D01*
X126019853Y-142656384D01*
X126076467Y-142673557D01*
X126215087Y-142747652D01*
X126232991Y-142757222D01*
X126268729Y-142786552D01*
X126370186Y-142869814D01*
X126453448Y-142971271D01*
X126482778Y-143007009D01*
X126482779Y-143007011D01*
X126566443Y-143163533D01*
X126566443Y-143163534D01*
X126617963Y-143333373D01*
X126635359Y-143510000D01*
X126617963Y-143686627D01*
X126583616Y-143799853D01*
X126566443Y-143856467D01*
X126492348Y-143995087D01*
X126482778Y-144012991D01*
X126453448Y-144048729D01*
X126370186Y-144150186D01*
X126268729Y-144233448D01*
X126232991Y-144262778D01*
X126232989Y-144262779D01*
X126076467Y-144346443D01*
X126019853Y-144363616D01*
X125906627Y-144397963D01*
X125840443Y-144404481D01*
X125774260Y-144411000D01*
X125685740Y-144411000D01*
X125619557Y-144404481D01*
X125553373Y-144397963D01*
X125440147Y-144363616D01*
X125383533Y-144346443D01*
X125227011Y-144262779D01*
X125227009Y-144262778D01*
X125191271Y-144233448D01*
X125089814Y-144150186D01*
X125006552Y-144048729D01*
X124977222Y-144012991D01*
X124967652Y-143995087D01*
X124893557Y-143856467D01*
X124876384Y-143799853D01*
X124842037Y-143686627D01*
X124824641Y-143510000D01*
X124842037Y-143333373D01*
X124893557Y-143163534D01*
X124893557Y-143163533D01*
X124977221Y-143007011D01*
X124977222Y-143007009D01*
X125006552Y-142971271D01*
X125089814Y-142869814D01*
X125191271Y-142786552D01*
X125227009Y-142757222D01*
X125244913Y-142747652D01*
X125383533Y-142673557D01*
X125440147Y-142656384D01*
X125553373Y-142622037D01*
X125619558Y-142615518D01*
X125685740Y-142609000D01*
X125774260Y-142609000D01*
X125840442Y-142615518D01*
X125840442Y-142615518D01*
G37*
G36*
X128380442Y-142615518D02*
X128446627Y-142622037D01*
X128559853Y-142656384D01*
X128616467Y-142673557D01*
X128755087Y-142747652D01*
X128772991Y-142757222D01*
X128808729Y-142786552D01*
X128910186Y-142869814D01*
X128993448Y-142971271D01*
X129022778Y-143007009D01*
X129022779Y-143007011D01*
X129106443Y-143163533D01*
X129106443Y-143163534D01*
X129157963Y-143333373D01*
X129175359Y-143510000D01*
X129157963Y-143686627D01*
X129123616Y-143799853D01*
X129106443Y-143856467D01*
X129032348Y-143995087D01*
X129022778Y-144012991D01*
X128993448Y-144048729D01*
X128910186Y-144150186D01*
X128808729Y-144233448D01*
X128772991Y-144262778D01*
X128772989Y-144262779D01*
X128616467Y-144346443D01*
X128559853Y-144363616D01*
X128446627Y-144397963D01*
X128380443Y-144404481D01*
X128314260Y-144411000D01*
X128225740Y-144411000D01*
X128159557Y-144404481D01*
X128093373Y-144397963D01*
X127980147Y-144363616D01*
X127923533Y-144346443D01*
X127767011Y-144262779D01*
X127767009Y-144262778D01*
X127731271Y-144233448D01*
X127629814Y-144150186D01*
X127546552Y-144048729D01*
X127517222Y-144012991D01*
X127507652Y-143995087D01*
X127433557Y-143856467D01*
X127416384Y-143799853D01*
X127382037Y-143686627D01*
X127364641Y-143510000D01*
X127382037Y-143333373D01*
X127433557Y-143163534D01*
X127433557Y-143163533D01*
X127517221Y-143007011D01*
X127517222Y-143007009D01*
X127546552Y-142971271D01*
X127629814Y-142869814D01*
X127731271Y-142786552D01*
X127767009Y-142757222D01*
X127784913Y-142747652D01*
X127923533Y-142673557D01*
X127980147Y-142656384D01*
X128093373Y-142622037D01*
X128159558Y-142615518D01*
X128225740Y-142609000D01*
X128314260Y-142609000D01*
X128380442Y-142615518D01*
X128380442Y-142615518D01*
G37*
G36*
X138540442Y-142615518D02*
X138606627Y-142622037D01*
X138719853Y-142656384D01*
X138776467Y-142673557D01*
X138915087Y-142747652D01*
X138932991Y-142757222D01*
X138968729Y-142786552D01*
X139070186Y-142869814D01*
X139153448Y-142971271D01*
X139182778Y-143007009D01*
X139182779Y-143007011D01*
X139266443Y-143163533D01*
X139266443Y-143163534D01*
X139317963Y-143333373D01*
X139335359Y-143510000D01*
X139317963Y-143686627D01*
X139283616Y-143799853D01*
X139266443Y-143856467D01*
X139192348Y-143995087D01*
X139182778Y-144012991D01*
X139153448Y-144048729D01*
X139070186Y-144150186D01*
X138968729Y-144233448D01*
X138932991Y-144262778D01*
X138932989Y-144262779D01*
X138776467Y-144346443D01*
X138719853Y-144363616D01*
X138606627Y-144397963D01*
X138540443Y-144404481D01*
X138474260Y-144411000D01*
X138385740Y-144411000D01*
X138319557Y-144404481D01*
X138253373Y-144397963D01*
X138140147Y-144363616D01*
X138083533Y-144346443D01*
X137927011Y-144262779D01*
X137927009Y-144262778D01*
X137891271Y-144233448D01*
X137789814Y-144150186D01*
X137706552Y-144048729D01*
X137677222Y-144012991D01*
X137667652Y-143995087D01*
X137593557Y-143856467D01*
X137576384Y-143799853D01*
X137542037Y-143686627D01*
X137524641Y-143510000D01*
X137542037Y-143333373D01*
X137593557Y-143163534D01*
X137593557Y-143163533D01*
X137677221Y-143007011D01*
X137677222Y-143007009D01*
X137706552Y-142971271D01*
X137789814Y-142869814D01*
X137891271Y-142786552D01*
X137927009Y-142757222D01*
X137944913Y-142747652D01*
X138083533Y-142673557D01*
X138140147Y-142656384D01*
X138253373Y-142622037D01*
X138319558Y-142615518D01*
X138385740Y-142609000D01*
X138474260Y-142609000D01*
X138540442Y-142615518D01*
X138540442Y-142615518D01*
G37*
G36*
X133460442Y-142615518D02*
X133526627Y-142622037D01*
X133639853Y-142656384D01*
X133696467Y-142673557D01*
X133835087Y-142747652D01*
X133852991Y-142757222D01*
X133888729Y-142786552D01*
X133990186Y-142869814D01*
X134073448Y-142971271D01*
X134102778Y-143007009D01*
X134102779Y-143007011D01*
X134186443Y-143163533D01*
X134186443Y-143163534D01*
X134237963Y-143333373D01*
X134255359Y-143510000D01*
X134237963Y-143686627D01*
X134203616Y-143799853D01*
X134186443Y-143856467D01*
X134112348Y-143995087D01*
X134102778Y-144012991D01*
X134073448Y-144048729D01*
X133990186Y-144150186D01*
X133888729Y-144233448D01*
X133852991Y-144262778D01*
X133852989Y-144262779D01*
X133696467Y-144346443D01*
X133639853Y-144363616D01*
X133526627Y-144397963D01*
X133460443Y-144404481D01*
X133394260Y-144411000D01*
X133305740Y-144411000D01*
X133239557Y-144404481D01*
X133173373Y-144397963D01*
X133060147Y-144363616D01*
X133003533Y-144346443D01*
X132847011Y-144262779D01*
X132847009Y-144262778D01*
X132811271Y-144233448D01*
X132709814Y-144150186D01*
X132626552Y-144048729D01*
X132597222Y-144012991D01*
X132587652Y-143995087D01*
X132513557Y-143856467D01*
X132496384Y-143799853D01*
X132462037Y-143686627D01*
X132444641Y-143510000D01*
X132462037Y-143333373D01*
X132513557Y-143163534D01*
X132513557Y-143163533D01*
X132597221Y-143007011D01*
X132597222Y-143007009D01*
X132626552Y-142971271D01*
X132709814Y-142869814D01*
X132811271Y-142786552D01*
X132847009Y-142757222D01*
X132864913Y-142747652D01*
X133003533Y-142673557D01*
X133060147Y-142656384D01*
X133173373Y-142622037D01*
X133239558Y-142615518D01*
X133305740Y-142609000D01*
X133394260Y-142609000D01*
X133460442Y-142615518D01*
X133460442Y-142615518D01*
G37*
G36*
X136000442Y-142615518D02*
X136066627Y-142622037D01*
X136179853Y-142656384D01*
X136236467Y-142673557D01*
X136375087Y-142747652D01*
X136392991Y-142757222D01*
X136428729Y-142786552D01*
X136530186Y-142869814D01*
X136613448Y-142971271D01*
X136642778Y-143007009D01*
X136642779Y-143007011D01*
X136726443Y-143163533D01*
X136726443Y-143163534D01*
X136777963Y-143333373D01*
X136795359Y-143510000D01*
X136777963Y-143686627D01*
X136743616Y-143799853D01*
X136726443Y-143856467D01*
X136652348Y-143995087D01*
X136642778Y-144012991D01*
X136613448Y-144048729D01*
X136530186Y-144150186D01*
X136428729Y-144233448D01*
X136392991Y-144262778D01*
X136392989Y-144262779D01*
X136236467Y-144346443D01*
X136179853Y-144363616D01*
X136066627Y-144397963D01*
X136000443Y-144404481D01*
X135934260Y-144411000D01*
X135845740Y-144411000D01*
X135779557Y-144404481D01*
X135713373Y-144397963D01*
X135600147Y-144363616D01*
X135543533Y-144346443D01*
X135387011Y-144262779D01*
X135387009Y-144262778D01*
X135351271Y-144233448D01*
X135249814Y-144150186D01*
X135166552Y-144048729D01*
X135137222Y-144012991D01*
X135127652Y-143995087D01*
X135053557Y-143856467D01*
X135036384Y-143799853D01*
X135002037Y-143686627D01*
X134984641Y-143510000D01*
X135002037Y-143333373D01*
X135053557Y-143163534D01*
X135053557Y-143163533D01*
X135137221Y-143007011D01*
X135137222Y-143007009D01*
X135166552Y-142971271D01*
X135249814Y-142869814D01*
X135351271Y-142786552D01*
X135387009Y-142757222D01*
X135404913Y-142747652D01*
X135543533Y-142673557D01*
X135600147Y-142656384D01*
X135713373Y-142622037D01*
X135779558Y-142615518D01*
X135845740Y-142609000D01*
X135934260Y-142609000D01*
X136000442Y-142615518D01*
X136000442Y-142615518D01*
G37*
G36*
X130920443Y-140075519D02*
X130986627Y-140082037D01*
X131099853Y-140116384D01*
X131156467Y-140133557D01*
X131295087Y-140207652D01*
X131312991Y-140217222D01*
X131348729Y-140246552D01*
X131450186Y-140329814D01*
X131533448Y-140431271D01*
X131562778Y-140467009D01*
X131562779Y-140467011D01*
X131646443Y-140623533D01*
X131646443Y-140623534D01*
X131697963Y-140793373D01*
X131715359Y-140970000D01*
X131697963Y-141146627D01*
X131663616Y-141259853D01*
X131646443Y-141316467D01*
X131572348Y-141455087D01*
X131562778Y-141472991D01*
X131533448Y-141508729D01*
X131450186Y-141610186D01*
X131348729Y-141693448D01*
X131312991Y-141722778D01*
X131312989Y-141722779D01*
X131156467Y-141806443D01*
X131099853Y-141823616D01*
X130986627Y-141857963D01*
X130920443Y-141864481D01*
X130854260Y-141871000D01*
X130765740Y-141871000D01*
X130699557Y-141864481D01*
X130633373Y-141857963D01*
X130520147Y-141823616D01*
X130463533Y-141806443D01*
X130307011Y-141722779D01*
X130307009Y-141722778D01*
X130271271Y-141693448D01*
X130169814Y-141610186D01*
X130086552Y-141508729D01*
X130057222Y-141472991D01*
X130047652Y-141455087D01*
X129973557Y-141316467D01*
X129956384Y-141259853D01*
X129922037Y-141146627D01*
X129904641Y-140970000D01*
X129922037Y-140793373D01*
X129973557Y-140623534D01*
X129973557Y-140623533D01*
X130057221Y-140467011D01*
X130057222Y-140467009D01*
X130086552Y-140431271D01*
X130169814Y-140329814D01*
X130271271Y-140246552D01*
X130307009Y-140217222D01*
X130324913Y-140207652D01*
X130463533Y-140133557D01*
X130520147Y-140116384D01*
X130633373Y-140082037D01*
X130699557Y-140075519D01*
X130765740Y-140069000D01*
X130854260Y-140069000D01*
X130920443Y-140075519D01*
X130920443Y-140075519D01*
G37*
G36*
X133460443Y-140075519D02*
X133526627Y-140082037D01*
X133639853Y-140116384D01*
X133696467Y-140133557D01*
X133835087Y-140207652D01*
X133852991Y-140217222D01*
X133888729Y-140246552D01*
X133990186Y-140329814D01*
X134073448Y-140431271D01*
X134102778Y-140467009D01*
X134102779Y-140467011D01*
X134186443Y-140623533D01*
X134186443Y-140623534D01*
X134237963Y-140793373D01*
X134255359Y-140970000D01*
X134237963Y-141146627D01*
X134203616Y-141259853D01*
X134186443Y-141316467D01*
X134112348Y-141455087D01*
X134102778Y-141472991D01*
X134073448Y-141508729D01*
X133990186Y-141610186D01*
X133888729Y-141693448D01*
X133852991Y-141722778D01*
X133852989Y-141722779D01*
X133696467Y-141806443D01*
X133639853Y-141823616D01*
X133526627Y-141857963D01*
X133460443Y-141864481D01*
X133394260Y-141871000D01*
X133305740Y-141871000D01*
X133239557Y-141864481D01*
X133173373Y-141857963D01*
X133060147Y-141823616D01*
X133003533Y-141806443D01*
X132847011Y-141722779D01*
X132847009Y-141722778D01*
X132811271Y-141693448D01*
X132709814Y-141610186D01*
X132626552Y-141508729D01*
X132597222Y-141472991D01*
X132587652Y-141455087D01*
X132513557Y-141316467D01*
X132496384Y-141259853D01*
X132462037Y-141146627D01*
X132444641Y-140970000D01*
X132462037Y-140793373D01*
X132513557Y-140623534D01*
X132513557Y-140623533D01*
X132597221Y-140467011D01*
X132597222Y-140467009D01*
X132626552Y-140431271D01*
X132709814Y-140329814D01*
X132811271Y-140246552D01*
X132847009Y-140217222D01*
X132864913Y-140207652D01*
X133003533Y-140133557D01*
X133060147Y-140116384D01*
X133173373Y-140082037D01*
X133239557Y-140075519D01*
X133305740Y-140069000D01*
X133394260Y-140069000D01*
X133460443Y-140075519D01*
X133460443Y-140075519D01*
G37*
G36*
X136000443Y-140075519D02*
X136066627Y-140082037D01*
X136179853Y-140116384D01*
X136236467Y-140133557D01*
X136375087Y-140207652D01*
X136392991Y-140217222D01*
X136428729Y-140246552D01*
X136530186Y-140329814D01*
X136613448Y-140431271D01*
X136642778Y-140467009D01*
X136642779Y-140467011D01*
X136726443Y-140623533D01*
X136726443Y-140623534D01*
X136777963Y-140793373D01*
X136795359Y-140970000D01*
X136777963Y-141146627D01*
X136743616Y-141259853D01*
X136726443Y-141316467D01*
X136652348Y-141455087D01*
X136642778Y-141472991D01*
X136613448Y-141508729D01*
X136530186Y-141610186D01*
X136428729Y-141693448D01*
X136392991Y-141722778D01*
X136392989Y-141722779D01*
X136236467Y-141806443D01*
X136179853Y-141823616D01*
X136066627Y-141857963D01*
X136000443Y-141864481D01*
X135934260Y-141871000D01*
X135845740Y-141871000D01*
X135779557Y-141864481D01*
X135713373Y-141857963D01*
X135600147Y-141823616D01*
X135543533Y-141806443D01*
X135387011Y-141722779D01*
X135387009Y-141722778D01*
X135351271Y-141693448D01*
X135249814Y-141610186D01*
X135166552Y-141508729D01*
X135137222Y-141472991D01*
X135127652Y-141455087D01*
X135053557Y-141316467D01*
X135036384Y-141259853D01*
X135002037Y-141146627D01*
X134984641Y-140970000D01*
X135002037Y-140793373D01*
X135053557Y-140623534D01*
X135053557Y-140623533D01*
X135137221Y-140467011D01*
X135137222Y-140467009D01*
X135166552Y-140431271D01*
X135249814Y-140329814D01*
X135351271Y-140246552D01*
X135387009Y-140217222D01*
X135404913Y-140207652D01*
X135543533Y-140133557D01*
X135600147Y-140116384D01*
X135713373Y-140082037D01*
X135779557Y-140075519D01*
X135845740Y-140069000D01*
X135934260Y-140069000D01*
X136000443Y-140075519D01*
X136000443Y-140075519D01*
G37*
G36*
X139331000Y-141871000D02*
X137529000Y-141871000D01*
X137529000Y-140069000D01*
X139331000Y-140069000D01*
X139331000Y-141871000D01*
X139331000Y-141871000D01*
G37*
G36*
X125840443Y-140075519D02*
X125906627Y-140082037D01*
X126019853Y-140116384D01*
X126076467Y-140133557D01*
X126215087Y-140207652D01*
X126232991Y-140217222D01*
X126268729Y-140246552D01*
X126370186Y-140329814D01*
X126453448Y-140431271D01*
X126482778Y-140467009D01*
X126482779Y-140467011D01*
X126566443Y-140623533D01*
X126566443Y-140623534D01*
X126617963Y-140793373D01*
X126635359Y-140970000D01*
X126617963Y-141146627D01*
X126583616Y-141259853D01*
X126566443Y-141316467D01*
X126492348Y-141455087D01*
X126482778Y-141472991D01*
X126453448Y-141508729D01*
X126370186Y-141610186D01*
X126268729Y-141693448D01*
X126232991Y-141722778D01*
X126232989Y-141722779D01*
X126076467Y-141806443D01*
X126019853Y-141823616D01*
X125906627Y-141857963D01*
X125840443Y-141864481D01*
X125774260Y-141871000D01*
X125685740Y-141871000D01*
X125619557Y-141864481D01*
X125553373Y-141857963D01*
X125440147Y-141823616D01*
X125383533Y-141806443D01*
X125227011Y-141722779D01*
X125227009Y-141722778D01*
X125191271Y-141693448D01*
X125089814Y-141610186D01*
X125006552Y-141508729D01*
X124977222Y-141472991D01*
X124967652Y-141455087D01*
X124893557Y-141316467D01*
X124876384Y-141259853D01*
X124842037Y-141146627D01*
X124824641Y-140970000D01*
X124842037Y-140793373D01*
X124893557Y-140623534D01*
X124893557Y-140623533D01*
X124977221Y-140467011D01*
X124977222Y-140467009D01*
X125006552Y-140431271D01*
X125089814Y-140329814D01*
X125191271Y-140246552D01*
X125227009Y-140217222D01*
X125244913Y-140207652D01*
X125383533Y-140133557D01*
X125440147Y-140116384D01*
X125553373Y-140082037D01*
X125619557Y-140075519D01*
X125685740Y-140069000D01*
X125774260Y-140069000D01*
X125840443Y-140075519D01*
X125840443Y-140075519D01*
G37*
G36*
X128380443Y-140075519D02*
X128446627Y-140082037D01*
X128559853Y-140116384D01*
X128616467Y-140133557D01*
X128755087Y-140207652D01*
X128772991Y-140217222D01*
X128808729Y-140246552D01*
X128910186Y-140329814D01*
X128993448Y-140431271D01*
X129022778Y-140467009D01*
X129022779Y-140467011D01*
X129106443Y-140623533D01*
X129106443Y-140623534D01*
X129157963Y-140793373D01*
X129175359Y-140970000D01*
X129157963Y-141146627D01*
X129123616Y-141259853D01*
X129106443Y-141316467D01*
X129032348Y-141455087D01*
X129022778Y-141472991D01*
X128993448Y-141508729D01*
X128910186Y-141610186D01*
X128808729Y-141693448D01*
X128772991Y-141722778D01*
X128772989Y-141722779D01*
X128616467Y-141806443D01*
X128559853Y-141823616D01*
X128446627Y-141857963D01*
X128380443Y-141864481D01*
X128314260Y-141871000D01*
X128225740Y-141871000D01*
X128159557Y-141864481D01*
X128093373Y-141857963D01*
X127980147Y-141823616D01*
X127923533Y-141806443D01*
X127767011Y-141722779D01*
X127767009Y-141722778D01*
X127731271Y-141693448D01*
X127629814Y-141610186D01*
X127546552Y-141508729D01*
X127517222Y-141472991D01*
X127507652Y-141455087D01*
X127433557Y-141316467D01*
X127416384Y-141259853D01*
X127382037Y-141146627D01*
X127364641Y-140970000D01*
X127382037Y-140793373D01*
X127433557Y-140623534D01*
X127433557Y-140623533D01*
X127517221Y-140467011D01*
X127517222Y-140467009D01*
X127546552Y-140431271D01*
X127629814Y-140329814D01*
X127731271Y-140246552D01*
X127767009Y-140217222D01*
X127784913Y-140207652D01*
X127923533Y-140133557D01*
X127980147Y-140116384D01*
X128093373Y-140082037D01*
X128159557Y-140075519D01*
X128225740Y-140069000D01*
X128314260Y-140069000D01*
X128380443Y-140075519D01*
X128380443Y-140075519D01*
G37*
G36*
X133460443Y-136265519D02*
X133526627Y-136272037D01*
X133639853Y-136306384D01*
X133696467Y-136323557D01*
X133835087Y-136397652D01*
X133852991Y-136407222D01*
X133888729Y-136436552D01*
X133990186Y-136519814D01*
X134073448Y-136621271D01*
X134102778Y-136657009D01*
X134102779Y-136657011D01*
X134186443Y-136813533D01*
X134186443Y-136813534D01*
X134237963Y-136983373D01*
X134255359Y-137160000D01*
X134237963Y-137336627D01*
X134203616Y-137449853D01*
X134186443Y-137506467D01*
X134112348Y-137645087D01*
X134102778Y-137662991D01*
X134073448Y-137698729D01*
X133990186Y-137800186D01*
X133888729Y-137883448D01*
X133852991Y-137912778D01*
X133852989Y-137912779D01*
X133696467Y-137996443D01*
X133639853Y-138013616D01*
X133526627Y-138047963D01*
X133460442Y-138054482D01*
X133394260Y-138061000D01*
X133305740Y-138061000D01*
X133239558Y-138054482D01*
X133173373Y-138047963D01*
X133060147Y-138013616D01*
X133003533Y-137996443D01*
X132847011Y-137912779D01*
X132847009Y-137912778D01*
X132811271Y-137883448D01*
X132709814Y-137800186D01*
X132626552Y-137698729D01*
X132597222Y-137662991D01*
X132587652Y-137645087D01*
X132513557Y-137506467D01*
X132496384Y-137449853D01*
X132462037Y-137336627D01*
X132444641Y-137160000D01*
X132462037Y-136983373D01*
X132513557Y-136813534D01*
X132513557Y-136813533D01*
X132597221Y-136657011D01*
X132597222Y-136657009D01*
X132626552Y-136621271D01*
X132709814Y-136519814D01*
X132811271Y-136436552D01*
X132847009Y-136407222D01*
X132864913Y-136397652D01*
X133003533Y-136323557D01*
X133060147Y-136306384D01*
X133173373Y-136272037D01*
X133239557Y-136265519D01*
X133305740Y-136259000D01*
X133394260Y-136259000D01*
X133460443Y-136265519D01*
X133460443Y-136265519D01*
G37*
G36*
X130920443Y-136265519D02*
X130986627Y-136272037D01*
X131099853Y-136306384D01*
X131156467Y-136323557D01*
X131295087Y-136397652D01*
X131312991Y-136407222D01*
X131348729Y-136436552D01*
X131450186Y-136519814D01*
X131533448Y-136621271D01*
X131562778Y-136657009D01*
X131562779Y-136657011D01*
X131646443Y-136813533D01*
X131646443Y-136813534D01*
X131697963Y-136983373D01*
X131715359Y-137160000D01*
X131697963Y-137336627D01*
X131663616Y-137449853D01*
X131646443Y-137506467D01*
X131572348Y-137645087D01*
X131562778Y-137662991D01*
X131533448Y-137698729D01*
X131450186Y-137800186D01*
X131348729Y-137883448D01*
X131312991Y-137912778D01*
X131312989Y-137912779D01*
X131156467Y-137996443D01*
X131099853Y-138013616D01*
X130986627Y-138047963D01*
X130920442Y-138054482D01*
X130854260Y-138061000D01*
X130765740Y-138061000D01*
X130699558Y-138054482D01*
X130633373Y-138047963D01*
X130520147Y-138013616D01*
X130463533Y-137996443D01*
X130307011Y-137912779D01*
X130307009Y-137912778D01*
X130271271Y-137883448D01*
X130169814Y-137800186D01*
X130086552Y-137698729D01*
X130057222Y-137662991D01*
X130047652Y-137645087D01*
X129973557Y-137506467D01*
X129956384Y-137449853D01*
X129922037Y-137336627D01*
X129904641Y-137160000D01*
X129922037Y-136983373D01*
X129973557Y-136813534D01*
X129973557Y-136813533D01*
X130057221Y-136657011D01*
X130057222Y-136657009D01*
X130086552Y-136621271D01*
X130169814Y-136519814D01*
X130271271Y-136436552D01*
X130307009Y-136407222D01*
X130324913Y-136397652D01*
X130463533Y-136323557D01*
X130520147Y-136306384D01*
X130633373Y-136272037D01*
X130699557Y-136265519D01*
X130765740Y-136259000D01*
X130854260Y-136259000D01*
X130920443Y-136265519D01*
X130920443Y-136265519D01*
G37*
G36*
X123011000Y-137656000D02*
X121909000Y-137656000D01*
X121909000Y-134804000D01*
X123011000Y-134804000D01*
X123011000Y-137656000D01*
X123011000Y-137656000D01*
G37*
G36*
X127011000Y-137656000D02*
X125909000Y-137656000D01*
X125909000Y-134804000D01*
X127011000Y-134804000D01*
X127011000Y-137656000D01*
X127011000Y-137656000D01*
G37*
G36*
X138251000Y-137656000D02*
X137149000Y-137656000D01*
X137149000Y-134804000D01*
X138251000Y-134804000D01*
X138251000Y-137656000D01*
X138251000Y-137656000D01*
G37*
G36*
X142251000Y-137656000D02*
X141149000Y-137656000D01*
X141149000Y-134804000D01*
X142251000Y-134804000D01*
X142251000Y-137656000D01*
X142251000Y-137656000D01*
G37*
G36*
X133460443Y-133725519D02*
X133526627Y-133732037D01*
X133639853Y-133766384D01*
X133696467Y-133783557D01*
X133835087Y-133857652D01*
X133852991Y-133867222D01*
X133888729Y-133896552D01*
X133990186Y-133979814D01*
X134073448Y-134081271D01*
X134102778Y-134117009D01*
X134102779Y-134117011D01*
X134186443Y-134273533D01*
X134186443Y-134273534D01*
X134237963Y-134443373D01*
X134255359Y-134620000D01*
X134237963Y-134796627D01*
X134235726Y-134804000D01*
X134186443Y-134966467D01*
X134112348Y-135105087D01*
X134102778Y-135122991D01*
X134079791Y-135151000D01*
X133990186Y-135260186D01*
X133888729Y-135343448D01*
X133852991Y-135372778D01*
X133852989Y-135372779D01*
X133696467Y-135456443D01*
X133639853Y-135473616D01*
X133526627Y-135507963D01*
X133460443Y-135514481D01*
X133394260Y-135521000D01*
X133305740Y-135521000D01*
X133239557Y-135514481D01*
X133173373Y-135507963D01*
X133060147Y-135473616D01*
X133003533Y-135456443D01*
X132847011Y-135372779D01*
X132847009Y-135372778D01*
X132811271Y-135343448D01*
X132709814Y-135260186D01*
X132620209Y-135151000D01*
X132597222Y-135122991D01*
X132587652Y-135105087D01*
X132513557Y-134966467D01*
X132464274Y-134804000D01*
X132462037Y-134796627D01*
X132444641Y-134620000D01*
X132462037Y-134443373D01*
X132513557Y-134273534D01*
X132513557Y-134273533D01*
X132597221Y-134117011D01*
X132597222Y-134117009D01*
X132626552Y-134081271D01*
X132709814Y-133979814D01*
X132811271Y-133896552D01*
X132847009Y-133867222D01*
X132864913Y-133857652D01*
X133003533Y-133783557D01*
X133060147Y-133766384D01*
X133173373Y-133732037D01*
X133239557Y-133725519D01*
X133305740Y-133719000D01*
X133394260Y-133719000D01*
X133460443Y-133725519D01*
X133460443Y-133725519D01*
G37*
G36*
X130920443Y-133725519D02*
X130986627Y-133732037D01*
X131099853Y-133766384D01*
X131156467Y-133783557D01*
X131295087Y-133857652D01*
X131312991Y-133867222D01*
X131348729Y-133896552D01*
X131450186Y-133979814D01*
X131533448Y-134081271D01*
X131562778Y-134117009D01*
X131562779Y-134117011D01*
X131646443Y-134273533D01*
X131646443Y-134273534D01*
X131697963Y-134443373D01*
X131715359Y-134620000D01*
X131697963Y-134796627D01*
X131695726Y-134804000D01*
X131646443Y-134966467D01*
X131572348Y-135105087D01*
X131562778Y-135122991D01*
X131539791Y-135151000D01*
X131450186Y-135260186D01*
X131348729Y-135343448D01*
X131312991Y-135372778D01*
X131312989Y-135372779D01*
X131156467Y-135456443D01*
X131099853Y-135473616D01*
X130986627Y-135507963D01*
X130920443Y-135514481D01*
X130854260Y-135521000D01*
X130765740Y-135521000D01*
X130699557Y-135514481D01*
X130633373Y-135507963D01*
X130520147Y-135473616D01*
X130463533Y-135456443D01*
X130307011Y-135372779D01*
X130307009Y-135372778D01*
X130271271Y-135343448D01*
X130169814Y-135260186D01*
X130080209Y-135151000D01*
X130057222Y-135122991D01*
X130047652Y-135105087D01*
X129973557Y-134966467D01*
X129924274Y-134804000D01*
X129922037Y-134796627D01*
X129904641Y-134620000D01*
X129922037Y-134443373D01*
X129973557Y-134273534D01*
X129973557Y-134273533D01*
X130057221Y-134117011D01*
X130057222Y-134117009D01*
X130086552Y-134081271D01*
X130169814Y-133979814D01*
X130271271Y-133896552D01*
X130307009Y-133867222D01*
X130324913Y-133857652D01*
X130463533Y-133783557D01*
X130520147Y-133766384D01*
X130633373Y-133732037D01*
X130699557Y-133725519D01*
X130765740Y-133719000D01*
X130854260Y-133719000D01*
X130920443Y-133725519D01*
X130920443Y-133725519D01*
G37*
G36*
X147201000Y-135151000D02*
X146299000Y-135151000D01*
X146299000Y-134049000D01*
X147201000Y-134049000D01*
X147201000Y-135151000D01*
X147201000Y-135151000D01*
G37*
G36*
X119261000Y-135151000D02*
X118359000Y-135151000D01*
X118359000Y-134049000D01*
X119261000Y-134049000D01*
X119261000Y-135151000D01*
X119261000Y-135151000D01*
G37*
G36*
X145801000Y-135151000D02*
X144899000Y-135151000D01*
X144899000Y-134049000D01*
X145801000Y-134049000D01*
X145801000Y-135151000D01*
X145801000Y-135151000D01*
G37*
G36*
X117861000Y-135151000D02*
X116959000Y-135151000D01*
X116959000Y-134049000D01*
X117861000Y-134049000D01*
X117861000Y-135151000D01*
X117861000Y-135151000D01*
G37*
G36*
X133460442Y-131185518D02*
X133526627Y-131192037D01*
X133639853Y-131226384D01*
X133696467Y-131243557D01*
X133835087Y-131317652D01*
X133852991Y-131327222D01*
X133888729Y-131356552D01*
X133990186Y-131439814D01*
X134073448Y-131541271D01*
X134102778Y-131577009D01*
X134102779Y-131577011D01*
X134186443Y-131733533D01*
X134186443Y-131733534D01*
X134237963Y-131903373D01*
X134255359Y-132080000D01*
X134237963Y-132256627D01*
X134203616Y-132369853D01*
X134186443Y-132426467D01*
X134112348Y-132565087D01*
X134102778Y-132582991D01*
X134073448Y-132618729D01*
X133990186Y-132720186D01*
X133888729Y-132803448D01*
X133852991Y-132832778D01*
X133852989Y-132832779D01*
X133696467Y-132916443D01*
X133639853Y-132933616D01*
X133526627Y-132967963D01*
X133460443Y-132974481D01*
X133394260Y-132981000D01*
X133305740Y-132981000D01*
X133239557Y-132974481D01*
X133173373Y-132967963D01*
X133060147Y-132933616D01*
X133003533Y-132916443D01*
X132847011Y-132832779D01*
X132847009Y-132832778D01*
X132811271Y-132803448D01*
X132709814Y-132720186D01*
X132626552Y-132618729D01*
X132597222Y-132582991D01*
X132587652Y-132565087D01*
X132513557Y-132426467D01*
X132496384Y-132369853D01*
X132462037Y-132256627D01*
X132444641Y-132080000D01*
X132462037Y-131903373D01*
X132513557Y-131733534D01*
X132513557Y-131733533D01*
X132597221Y-131577011D01*
X132597222Y-131577009D01*
X132626552Y-131541271D01*
X132709814Y-131439814D01*
X132811271Y-131356552D01*
X132847009Y-131327222D01*
X132864913Y-131317652D01*
X133003533Y-131243557D01*
X133060147Y-131226384D01*
X133173373Y-131192037D01*
X133239558Y-131185518D01*
X133305740Y-131179000D01*
X133394260Y-131179000D01*
X133460442Y-131185518D01*
X133460442Y-131185518D01*
G37*
G36*
X131711000Y-132981000D02*
X129909000Y-132981000D01*
X129909000Y-131179000D01*
X131711000Y-131179000D01*
X131711000Y-132981000D01*
X131711000Y-132981000D01*
G37*
G36*
X119261000Y-132651000D02*
X118359000Y-132651000D01*
X118359000Y-131549000D01*
X119261000Y-131549000D01*
X119261000Y-132651000D01*
X119261000Y-132651000D01*
G37*
G36*
X117861000Y-132651000D02*
X116959000Y-132651000D01*
X116959000Y-131549000D01*
X117861000Y-131549000D01*
X117861000Y-132651000D01*
X117861000Y-132651000D01*
G37*
G36*
X145801000Y-132651000D02*
X144899000Y-132651000D01*
X144899000Y-131549000D01*
X145801000Y-131549000D01*
X145801000Y-132651000D01*
X145801000Y-132651000D01*
G37*
G36*
X147201000Y-132651000D02*
X146299000Y-132651000D01*
X146299000Y-131549000D01*
X147201000Y-131549000D01*
X147201000Y-132651000D01*
X147201000Y-132651000D01*
G37*
G36*
X127011000Y-131896000D02*
X125909000Y-131896000D01*
X125909000Y-129044000D01*
X127011000Y-129044000D01*
X127011000Y-131896000D01*
X127011000Y-131896000D01*
G37*
G36*
X142251000Y-131896000D02*
X141149000Y-131896000D01*
X141149000Y-129044000D01*
X142251000Y-129044000D01*
X142251000Y-131896000D01*
X142251000Y-131896000D01*
G37*
G36*
X138251000Y-131896000D02*
X137149000Y-131896000D01*
X137149000Y-129044000D01*
X138251000Y-129044000D01*
X138251000Y-131896000D01*
X138251000Y-131896000D01*
G37*
G36*
X123011000Y-131896000D02*
X121909000Y-131896000D01*
X121909000Y-129044000D01*
X123011000Y-129044000D01*
X123011000Y-131896000D01*
X123011000Y-131896000D01*
G37*
G36*
X117859467Y-129308565D02*
X117898138Y-129320296D01*
X117933780Y-129339348D01*
X117965018Y-129364983D01*
X117990653Y-129396221D01*
X118009705Y-129431863D01*
X118021436Y-129470534D01*
X118026001Y-129516888D01*
X118026001Y-130168112D01*
X118021436Y-130214466D01*
X118009705Y-130253137D01*
X117990653Y-130288779D01*
X117965018Y-130320017D01*
X117933780Y-130345652D01*
X117898138Y-130364704D01*
X117859467Y-130376435D01*
X117813113Y-130381000D01*
X116736889Y-130381000D01*
X116690535Y-130376435D01*
X116651864Y-130364704D01*
X116616222Y-130345652D01*
X116584984Y-130320017D01*
X116559349Y-130288779D01*
X116540297Y-130253137D01*
X116528566Y-130214466D01*
X116524001Y-130168112D01*
X116524001Y-129516888D01*
X116528566Y-129470534D01*
X116540297Y-129431863D01*
X116559349Y-129396221D01*
X116584984Y-129364983D01*
X116616222Y-129339348D01*
X116651864Y-129320296D01*
X116690535Y-129308565D01*
X116736889Y-129304000D01*
X117813113Y-129304000D01*
X117859467Y-129308565D01*
X117859467Y-129308565D01*
G37*
G36*
X117859467Y-127433565D02*
X117898138Y-127445296D01*
X117933780Y-127464348D01*
X117965018Y-127489983D01*
X117990653Y-127521221D01*
X118009705Y-127556863D01*
X118021436Y-127595534D01*
X118026001Y-127641888D01*
X118026001Y-128293112D01*
X118021436Y-128339466D01*
X118009705Y-128378137D01*
X117990653Y-128413779D01*
X117965018Y-128445017D01*
X117933780Y-128470652D01*
X117898138Y-128489704D01*
X117859467Y-128501435D01*
X117813113Y-128506000D01*
X116736889Y-128506000D01*
X116690535Y-128501435D01*
X116651864Y-128489704D01*
X116616222Y-128470652D01*
X116584984Y-128445017D01*
X116559349Y-128413779D01*
X116540297Y-128378137D01*
X116528566Y-128339466D01*
X116524001Y-128293112D01*
X116524001Y-127641888D01*
X116528566Y-127595534D01*
X116540297Y-127556863D01*
X116559349Y-127521221D01*
X116584984Y-127489983D01*
X116616222Y-127464348D01*
X116651864Y-127445296D01*
X116690535Y-127433565D01*
X116736889Y-127429000D01*
X117813113Y-127429000D01*
X117859467Y-127433565D01*
X117859467Y-127433565D01*
G37*
G36*
X136474466Y-127403565D02*
X136513137Y-127415296D01*
X136548779Y-127434348D01*
X136580017Y-127459983D01*
X136605652Y-127491221D01*
X136624704Y-127526863D01*
X136636435Y-127565534D01*
X136641000Y-127611888D01*
X136641000Y-128263112D01*
X136636435Y-128309466D01*
X136624704Y-128348137D01*
X136605652Y-128383779D01*
X136580017Y-128415017D01*
X136548779Y-128440652D01*
X136513137Y-128459704D01*
X136474466Y-128471435D01*
X136428112Y-128476000D01*
X135351888Y-128476000D01*
X135305534Y-128471435D01*
X135266863Y-128459704D01*
X135231221Y-128440652D01*
X135199983Y-128415017D01*
X135174348Y-128383779D01*
X135155296Y-128348137D01*
X135143565Y-128309466D01*
X135139000Y-128263112D01*
X135139000Y-127611888D01*
X135143565Y-127565534D01*
X135155296Y-127526863D01*
X135174348Y-127491221D01*
X135199983Y-127459983D01*
X135231221Y-127434348D01*
X135266863Y-127415296D01*
X135305534Y-127403565D01*
X135351888Y-127399000D01*
X136428112Y-127399000D01*
X136474466Y-127403565D01*
X136474466Y-127403565D01*
G37*
G36*
X139014466Y-127403565D02*
X139053137Y-127415296D01*
X139088779Y-127434348D01*
X139120017Y-127459983D01*
X139145652Y-127491221D01*
X139164704Y-127526863D01*
X139176435Y-127565534D01*
X139181000Y-127611888D01*
X139181000Y-128263112D01*
X139176435Y-128309466D01*
X139164704Y-128348137D01*
X139145652Y-128383779D01*
X139120017Y-128415017D01*
X139088779Y-128440652D01*
X139053137Y-128459704D01*
X139014466Y-128471435D01*
X138968112Y-128476000D01*
X137891888Y-128476000D01*
X137845534Y-128471435D01*
X137806863Y-128459704D01*
X137771221Y-128440652D01*
X137739983Y-128415017D01*
X137714348Y-128383779D01*
X137695296Y-128348137D01*
X137683565Y-128309466D01*
X137679000Y-128263112D01*
X137679000Y-127611888D01*
X137683565Y-127565534D01*
X137695296Y-127526863D01*
X137714348Y-127491221D01*
X137739983Y-127459983D01*
X137771221Y-127434348D01*
X137806863Y-127415296D01*
X137845534Y-127403565D01*
X137891888Y-127399000D01*
X138968112Y-127399000D01*
X139014466Y-127403565D01*
X139014466Y-127403565D01*
G37*
G36*
X141554466Y-127403565D02*
X141593137Y-127415296D01*
X141628779Y-127434348D01*
X141660017Y-127459983D01*
X141685652Y-127491221D01*
X141704704Y-127526863D01*
X141716435Y-127565534D01*
X141721000Y-127611888D01*
X141721000Y-128263112D01*
X141716435Y-128309466D01*
X141704704Y-128348137D01*
X141685652Y-128383779D01*
X141660017Y-128415017D01*
X141628779Y-128440652D01*
X141593137Y-128459704D01*
X141554466Y-128471435D01*
X141508112Y-128476000D01*
X140431888Y-128476000D01*
X140385534Y-128471435D01*
X140346863Y-128459704D01*
X140311221Y-128440652D01*
X140279983Y-128415017D01*
X140254348Y-128383779D01*
X140235296Y-128348137D01*
X140223565Y-128309466D01*
X140219000Y-128263112D01*
X140219000Y-127611888D01*
X140223565Y-127565534D01*
X140235296Y-127526863D01*
X140254348Y-127491221D01*
X140279983Y-127459983D01*
X140311221Y-127434348D01*
X140346863Y-127415296D01*
X140385534Y-127403565D01*
X140431888Y-127399000D01*
X141508112Y-127399000D01*
X141554466Y-127403565D01*
X141554466Y-127403565D01*
G37*
G36*
X144094466Y-127403565D02*
X144133137Y-127415296D01*
X144168779Y-127434348D01*
X144200017Y-127459983D01*
X144225652Y-127491221D01*
X144244704Y-127526863D01*
X144256435Y-127565534D01*
X144261000Y-127611888D01*
X144261000Y-128263112D01*
X144256435Y-128309466D01*
X144244704Y-128348137D01*
X144225652Y-128383779D01*
X144200017Y-128415017D01*
X144168779Y-128440652D01*
X144133137Y-128459704D01*
X144094466Y-128471435D01*
X144048112Y-128476000D01*
X142971888Y-128476000D01*
X142925534Y-128471435D01*
X142886863Y-128459704D01*
X142851221Y-128440652D01*
X142819983Y-128415017D01*
X142794348Y-128383779D01*
X142775296Y-128348137D01*
X142763565Y-128309466D01*
X142759000Y-128263112D01*
X142759000Y-127611888D01*
X142763565Y-127565534D01*
X142775296Y-127526863D01*
X142794348Y-127491221D01*
X142819983Y-127459983D01*
X142851221Y-127434348D01*
X142886863Y-127415296D01*
X142925534Y-127403565D01*
X142971888Y-127399000D01*
X144048112Y-127399000D01*
X144094466Y-127403565D01*
X144094466Y-127403565D01*
G37*
G36*
X133998604Y-126078347D02*
X134035145Y-126089432D01*
X134068820Y-126107431D01*
X134098341Y-126131659D01*
X134122569Y-126161180D01*
X134140568Y-126194855D01*
X134151653Y-126231396D01*
X134156000Y-126275538D01*
X134156000Y-127724462D01*
X134151653Y-127768604D01*
X134140568Y-127805145D01*
X134122569Y-127838820D01*
X134098341Y-127868341D01*
X134068820Y-127892569D01*
X134035145Y-127910568D01*
X133998604Y-127921653D01*
X133954462Y-127926000D01*
X133005538Y-127926000D01*
X132961396Y-127921653D01*
X132924855Y-127910568D01*
X132891180Y-127892569D01*
X132861659Y-127868341D01*
X132837431Y-127838820D01*
X132819432Y-127805145D01*
X132808347Y-127768604D01*
X132804000Y-127724462D01*
X132804000Y-126275538D01*
X132808347Y-126231396D01*
X132819432Y-126194855D01*
X132837431Y-126161180D01*
X132861659Y-126131659D01*
X132891180Y-126107431D01*
X132924855Y-126089432D01*
X132961396Y-126078347D01*
X133005538Y-126074000D01*
X133954462Y-126074000D01*
X133998604Y-126078347D01*
X133998604Y-126078347D01*
G37*
G36*
X131198604Y-126078347D02*
X131235145Y-126089432D01*
X131268820Y-126107431D01*
X131298341Y-126131659D01*
X131322569Y-126161180D01*
X131340568Y-126194855D01*
X131351653Y-126231396D01*
X131356000Y-126275538D01*
X131356000Y-127724462D01*
X131351653Y-127768604D01*
X131340568Y-127805145D01*
X131322569Y-127838820D01*
X131298341Y-127868341D01*
X131268820Y-127892569D01*
X131235145Y-127910568D01*
X131198604Y-127921653D01*
X131154462Y-127926000D01*
X130205538Y-127926000D01*
X130161396Y-127921653D01*
X130124855Y-127910568D01*
X130091180Y-127892569D01*
X130061659Y-127868341D01*
X130037431Y-127838820D01*
X130019432Y-127805145D01*
X130008347Y-127768604D01*
X130004000Y-127724462D01*
X130004000Y-126275538D01*
X130008347Y-126231396D01*
X130019432Y-126194855D01*
X130037431Y-126161180D01*
X130061659Y-126131659D01*
X130091180Y-126107431D01*
X130124855Y-126089432D01*
X130161396Y-126078347D01*
X130205538Y-126074000D01*
X131154462Y-126074000D01*
X131198604Y-126078347D01*
X131198604Y-126078347D01*
G37*
G36*
X141554466Y-125528565D02*
X141593137Y-125540296D01*
X141628779Y-125559348D01*
X141660017Y-125584983D01*
X141685652Y-125616221D01*
X141704704Y-125651863D01*
X141716435Y-125690534D01*
X141721000Y-125736888D01*
X141721000Y-126388112D01*
X141716435Y-126434466D01*
X141704704Y-126473137D01*
X141685652Y-126508779D01*
X141660017Y-126540017D01*
X141628779Y-126565652D01*
X141593137Y-126584704D01*
X141554466Y-126596435D01*
X141508112Y-126601000D01*
X140431888Y-126601000D01*
X140385534Y-126596435D01*
X140346863Y-126584704D01*
X140311221Y-126565652D01*
X140279983Y-126540017D01*
X140254348Y-126508779D01*
X140235296Y-126473137D01*
X140223565Y-126434466D01*
X140219000Y-126388112D01*
X140219000Y-125736888D01*
X140223565Y-125690534D01*
X140235296Y-125651863D01*
X140254348Y-125616221D01*
X140279983Y-125584983D01*
X140311221Y-125559348D01*
X140346863Y-125540296D01*
X140385534Y-125528565D01*
X140431888Y-125524000D01*
X141508112Y-125524000D01*
X141554466Y-125528565D01*
X141554466Y-125528565D01*
G37*
G36*
X144094466Y-125528565D02*
X144133137Y-125540296D01*
X144168779Y-125559348D01*
X144200017Y-125584983D01*
X144225652Y-125616221D01*
X144244704Y-125651863D01*
X144256435Y-125690534D01*
X144261000Y-125736888D01*
X144261000Y-126388112D01*
X144256435Y-126434466D01*
X144244704Y-126473137D01*
X144225652Y-126508779D01*
X144200017Y-126540017D01*
X144168779Y-126565652D01*
X144133137Y-126584704D01*
X144094466Y-126596435D01*
X144048112Y-126601000D01*
X142971888Y-126601000D01*
X142925534Y-126596435D01*
X142886863Y-126584704D01*
X142851221Y-126565652D01*
X142819983Y-126540017D01*
X142794348Y-126508779D01*
X142775296Y-126473137D01*
X142763565Y-126434466D01*
X142759000Y-126388112D01*
X142759000Y-125736888D01*
X142763565Y-125690534D01*
X142775296Y-125651863D01*
X142794348Y-125616221D01*
X142819983Y-125584983D01*
X142851221Y-125559348D01*
X142886863Y-125540296D01*
X142925534Y-125528565D01*
X142971888Y-125524000D01*
X144048112Y-125524000D01*
X144094466Y-125528565D01*
X144094466Y-125528565D01*
G37*
G36*
X136474466Y-125528565D02*
X136513137Y-125540296D01*
X136548779Y-125559348D01*
X136580017Y-125584983D01*
X136605652Y-125616221D01*
X136624704Y-125651863D01*
X136636435Y-125690534D01*
X136641000Y-125736888D01*
X136641000Y-126388112D01*
X136636435Y-126434466D01*
X136624704Y-126473137D01*
X136605652Y-126508779D01*
X136580017Y-126540017D01*
X136548779Y-126565652D01*
X136513137Y-126584704D01*
X136474466Y-126596435D01*
X136428112Y-126601000D01*
X135351888Y-126601000D01*
X135305534Y-126596435D01*
X135266863Y-126584704D01*
X135231221Y-126565652D01*
X135199983Y-126540017D01*
X135174348Y-126508779D01*
X135155296Y-126473137D01*
X135143565Y-126434466D01*
X135139000Y-126388112D01*
X135139000Y-125736888D01*
X135143565Y-125690534D01*
X135155296Y-125651863D01*
X135174348Y-125616221D01*
X135199983Y-125584983D01*
X135231221Y-125559348D01*
X135266863Y-125540296D01*
X135305534Y-125528565D01*
X135351888Y-125524000D01*
X136428112Y-125524000D01*
X136474466Y-125528565D01*
X136474466Y-125528565D01*
G37*
G36*
X139014466Y-125528565D02*
X139053137Y-125540296D01*
X139088779Y-125559348D01*
X139120017Y-125584983D01*
X139145652Y-125616221D01*
X139164704Y-125651863D01*
X139176435Y-125690534D01*
X139181000Y-125736888D01*
X139181000Y-126388112D01*
X139176435Y-126434466D01*
X139164704Y-126473137D01*
X139145652Y-126508779D01*
X139120017Y-126540017D01*
X139088779Y-126565652D01*
X139053137Y-126584704D01*
X139014466Y-126596435D01*
X138968112Y-126601000D01*
X137891888Y-126601000D01*
X137845534Y-126596435D01*
X137806863Y-126584704D01*
X137771221Y-126565652D01*
X137739983Y-126540017D01*
X137714348Y-126508779D01*
X137695296Y-126473137D01*
X137683565Y-126434466D01*
X137679000Y-126388112D01*
X137679000Y-125736888D01*
X137683565Y-125690534D01*
X137695296Y-125651863D01*
X137714348Y-125616221D01*
X137739983Y-125584983D01*
X137771221Y-125559348D01*
X137806863Y-125540296D01*
X137845534Y-125528565D01*
X137891888Y-125524000D01*
X138968112Y-125524000D01*
X139014466Y-125528565D01*
X139014466Y-125528565D01*
G37*
G36*
X118814466Y-124983565D02*
X118853137Y-124995296D01*
X118888779Y-125014348D01*
X118920017Y-125039983D01*
X118945652Y-125071221D01*
X118964704Y-125106863D01*
X118976435Y-125145534D01*
X118981000Y-125191888D01*
X118981000Y-126268112D01*
X118976435Y-126314466D01*
X118964704Y-126353137D01*
X118945652Y-126388779D01*
X118920017Y-126420017D01*
X118888779Y-126445652D01*
X118853137Y-126464704D01*
X118814466Y-126476435D01*
X118768112Y-126481000D01*
X118116888Y-126481000D01*
X118070534Y-126476435D01*
X118031863Y-126464704D01*
X117996221Y-126445652D01*
X117964983Y-126420017D01*
X117939348Y-126388779D01*
X117920296Y-126353137D01*
X117908565Y-126314466D01*
X117904000Y-126268112D01*
X117904000Y-125191888D01*
X117908565Y-125145534D01*
X117920296Y-125106863D01*
X117939348Y-125071221D01*
X117964983Y-125039983D01*
X117996221Y-125014348D01*
X118031863Y-124995296D01*
X118070534Y-124983565D01*
X118116888Y-124979000D01*
X118768112Y-124979000D01*
X118814466Y-124983565D01*
X118814466Y-124983565D01*
G37*
G36*
X127039466Y-124983565D02*
X127078137Y-124995296D01*
X127113779Y-125014348D01*
X127145017Y-125039983D01*
X127170652Y-125071221D01*
X127189704Y-125106863D01*
X127201435Y-125145534D01*
X127206000Y-125191888D01*
X127206000Y-126268112D01*
X127201435Y-126314466D01*
X127189704Y-126353137D01*
X127170652Y-126388779D01*
X127145017Y-126420017D01*
X127113779Y-126445652D01*
X127078137Y-126464704D01*
X127039466Y-126476435D01*
X126993112Y-126481000D01*
X126341888Y-126481000D01*
X126295534Y-126476435D01*
X126256863Y-126464704D01*
X126221221Y-126445652D01*
X126189983Y-126420017D01*
X126164348Y-126388779D01*
X126145296Y-126353137D01*
X126133565Y-126314466D01*
X126129000Y-126268112D01*
X126129000Y-125191888D01*
X126133565Y-125145534D01*
X126145296Y-125106863D01*
X126164348Y-125071221D01*
X126189983Y-125039983D01*
X126221221Y-125014348D01*
X126256863Y-124995296D01*
X126295534Y-124983565D01*
X126341888Y-124979000D01*
X126993112Y-124979000D01*
X127039466Y-124983565D01*
X127039466Y-124983565D01*
G37*
G36*
X125164466Y-124983565D02*
X125203137Y-124995296D01*
X125238779Y-125014348D01*
X125270017Y-125039983D01*
X125295652Y-125071221D01*
X125314704Y-125106863D01*
X125326435Y-125145534D01*
X125331000Y-125191888D01*
X125331000Y-126268112D01*
X125326435Y-126314466D01*
X125314704Y-126353137D01*
X125295652Y-126388779D01*
X125270017Y-126420017D01*
X125238779Y-126445652D01*
X125203137Y-126464704D01*
X125164466Y-126476435D01*
X125118112Y-126481000D01*
X124466888Y-126481000D01*
X124420534Y-126476435D01*
X124381863Y-126464704D01*
X124346221Y-126445652D01*
X124314983Y-126420017D01*
X124289348Y-126388779D01*
X124270296Y-126353137D01*
X124258565Y-126314466D01*
X124254000Y-126268112D01*
X124254000Y-125191888D01*
X124258565Y-125145534D01*
X124270296Y-125106863D01*
X124289348Y-125071221D01*
X124314983Y-125039983D01*
X124346221Y-125014348D01*
X124381863Y-124995296D01*
X124420534Y-124983565D01*
X124466888Y-124979000D01*
X125118112Y-124979000D01*
X125164466Y-124983565D01*
X125164466Y-124983565D01*
G37*
G36*
X120689466Y-124983565D02*
X120728137Y-124995296D01*
X120763779Y-125014348D01*
X120795017Y-125039983D01*
X120820652Y-125071221D01*
X120839704Y-125106863D01*
X120851435Y-125145534D01*
X120856000Y-125191888D01*
X120856000Y-126268112D01*
X120851435Y-126314466D01*
X120839704Y-126353137D01*
X120820652Y-126388779D01*
X120795017Y-126420017D01*
X120763779Y-126445652D01*
X120728137Y-126464704D01*
X120689466Y-126476435D01*
X120643112Y-126481000D01*
X119991888Y-126481000D01*
X119945534Y-126476435D01*
X119906863Y-126464704D01*
X119871221Y-126445652D01*
X119839983Y-126420017D01*
X119814348Y-126388779D01*
X119795296Y-126353137D01*
X119783565Y-126314466D01*
X119779000Y-126268112D01*
X119779000Y-125191888D01*
X119783565Y-125145534D01*
X119795296Y-125106863D01*
X119814348Y-125071221D01*
X119839983Y-125039983D01*
X119871221Y-125014348D01*
X119906863Y-124995296D01*
X119945534Y-124983565D01*
X119991888Y-124979000D01*
X120643112Y-124979000D01*
X120689466Y-124983565D01*
X120689466Y-124983565D01*
G37*
G36*
X125031000Y-124141000D02*
X123929000Y-124141000D01*
X123929000Y-122239000D01*
X125031000Y-122239000D01*
X125031000Y-124141000D01*
X125031000Y-124141000D01*
G37*
G36*
X127531000Y-124141000D02*
X126429000Y-124141000D01*
X126429000Y-122239000D01*
X127531000Y-122239000D01*
X127531000Y-124141000D01*
X127531000Y-124141000D01*
G37*
G36*
X133389466Y-122443565D02*
X133428137Y-122455296D01*
X133463779Y-122474348D01*
X133495017Y-122499983D01*
X133520652Y-122531221D01*
X133539704Y-122566863D01*
X133551435Y-122605534D01*
X133556000Y-122651888D01*
X133556000Y-123728112D01*
X133551435Y-123774466D01*
X133539704Y-123813137D01*
X133520652Y-123848779D01*
X133495017Y-123880017D01*
X133463779Y-123905652D01*
X133428137Y-123924704D01*
X133389466Y-123936435D01*
X133343112Y-123941000D01*
X132691888Y-123941000D01*
X132645534Y-123936435D01*
X132606863Y-123924704D01*
X132571221Y-123905652D01*
X132539983Y-123880017D01*
X132514348Y-123848779D01*
X132495296Y-123813137D01*
X132483565Y-123774466D01*
X132479000Y-123728112D01*
X132479000Y-122651888D01*
X132483565Y-122605534D01*
X132495296Y-122566863D01*
X132514348Y-122531221D01*
X132539983Y-122499983D01*
X132571221Y-122474348D01*
X132606863Y-122455296D01*
X132645534Y-122443565D01*
X132691888Y-122439000D01*
X133343112Y-122439000D01*
X133389466Y-122443565D01*
X133389466Y-122443565D01*
G37*
G36*
X137199466Y-122443565D02*
X137238137Y-122455296D01*
X137273779Y-122474348D01*
X137305017Y-122499983D01*
X137330652Y-122531221D01*
X137349704Y-122566863D01*
X137361435Y-122605534D01*
X137366000Y-122651888D01*
X137366000Y-123728112D01*
X137361435Y-123774466D01*
X137349704Y-123813137D01*
X137330652Y-123848779D01*
X137305017Y-123880017D01*
X137273779Y-123905652D01*
X137238137Y-123924704D01*
X137199466Y-123936435D01*
X137153112Y-123941000D01*
X136501888Y-123941000D01*
X136455534Y-123936435D01*
X136416863Y-123924704D01*
X136381221Y-123905652D01*
X136349983Y-123880017D01*
X136324348Y-123848779D01*
X136305296Y-123813137D01*
X136293565Y-123774466D01*
X136289000Y-123728112D01*
X136289000Y-122651888D01*
X136293565Y-122605534D01*
X136305296Y-122566863D01*
X136324348Y-122531221D01*
X136349983Y-122499983D01*
X136381221Y-122474348D01*
X136416863Y-122455296D01*
X136455534Y-122443565D01*
X136501888Y-122439000D01*
X137153112Y-122439000D01*
X137199466Y-122443565D01*
X137199466Y-122443565D01*
G37*
G36*
X135324466Y-122443565D02*
X135363137Y-122455296D01*
X135398779Y-122474348D01*
X135430017Y-122499983D01*
X135455652Y-122531221D01*
X135474704Y-122566863D01*
X135486435Y-122605534D01*
X135491000Y-122651888D01*
X135491000Y-123728112D01*
X135486435Y-123774466D01*
X135474704Y-123813137D01*
X135455652Y-123848779D01*
X135430017Y-123880017D01*
X135398779Y-123905652D01*
X135363137Y-123924704D01*
X135324466Y-123936435D01*
X135278112Y-123941000D01*
X134626888Y-123941000D01*
X134580534Y-123936435D01*
X134541863Y-123924704D01*
X134506221Y-123905652D01*
X134474983Y-123880017D01*
X134449348Y-123848779D01*
X134430296Y-123813137D01*
X134418565Y-123774466D01*
X134414000Y-123728112D01*
X134414000Y-122651888D01*
X134418565Y-122605534D01*
X134430296Y-122566863D01*
X134449348Y-122531221D01*
X134474983Y-122499983D01*
X134506221Y-122474348D01*
X134541863Y-122455296D01*
X134580534Y-122443565D01*
X134626888Y-122439000D01*
X135278112Y-122439000D01*
X135324466Y-122443565D01*
X135324466Y-122443565D01*
G37*
G36*
X131514466Y-122443565D02*
X131553137Y-122455296D01*
X131588779Y-122474348D01*
X131620017Y-122499983D01*
X131645652Y-122531221D01*
X131664704Y-122566863D01*
X131676435Y-122605534D01*
X131681000Y-122651888D01*
X131681000Y-123728112D01*
X131676435Y-123774466D01*
X131664704Y-123813137D01*
X131645652Y-123848779D01*
X131620017Y-123880017D01*
X131588779Y-123905652D01*
X131553137Y-123924704D01*
X131514466Y-123936435D01*
X131468112Y-123941000D01*
X130816888Y-123941000D01*
X130770534Y-123936435D01*
X130731863Y-123924704D01*
X130696221Y-123905652D01*
X130664983Y-123880017D01*
X130639348Y-123848779D01*
X130620296Y-123813137D01*
X130608565Y-123774466D01*
X130604000Y-123728112D01*
X130604000Y-122651888D01*
X130608565Y-122605534D01*
X130620296Y-122566863D01*
X130639348Y-122531221D01*
X130664983Y-122499983D01*
X130696221Y-122474348D01*
X130731863Y-122455296D01*
X130770534Y-122443565D01*
X130816888Y-122439000D01*
X131468112Y-122439000D01*
X131514466Y-122443565D01*
X131514466Y-122443565D01*
G37*
G36*
X120431000Y-123391000D02*
X118329000Y-123391000D01*
X118329000Y-118789000D01*
X120431000Y-118789000D01*
X120431000Y-123391000D01*
X120431000Y-123391000D01*
G37*
G36*
X140284466Y-121053565D02*
X140323137Y-121065296D01*
X140358779Y-121084348D01*
X140390017Y-121109983D01*
X140415652Y-121141221D01*
X140434704Y-121176863D01*
X140446435Y-121215534D01*
X140451000Y-121261888D01*
X140451000Y-121913112D01*
X140446435Y-121959466D01*
X140434704Y-121998137D01*
X140415652Y-122033779D01*
X140390017Y-122065017D01*
X140358779Y-122090652D01*
X140323137Y-122109704D01*
X140284466Y-122121435D01*
X140238112Y-122126000D01*
X139161888Y-122126000D01*
X139115534Y-122121435D01*
X139076863Y-122109704D01*
X139041221Y-122090652D01*
X139009983Y-122065017D01*
X138984348Y-122033779D01*
X138965296Y-121998137D01*
X138953565Y-121959466D01*
X138949000Y-121913112D01*
X138949000Y-121261888D01*
X138953565Y-121215534D01*
X138965296Y-121176863D01*
X138984348Y-121141221D01*
X139009983Y-121109983D01*
X139041221Y-121084348D01*
X139076863Y-121065296D01*
X139115534Y-121053565D01*
X139161888Y-121049000D01*
X140238112Y-121049000D01*
X140284466Y-121053565D01*
X140284466Y-121053565D01*
G37*
G36*
X145364466Y-121053565D02*
X145403137Y-121065296D01*
X145438779Y-121084348D01*
X145470017Y-121109983D01*
X145495652Y-121141221D01*
X145514704Y-121176863D01*
X145526435Y-121215534D01*
X145531000Y-121261888D01*
X145531000Y-121913112D01*
X145526435Y-121959466D01*
X145514704Y-121998137D01*
X145495652Y-122033779D01*
X145470017Y-122065017D01*
X145438779Y-122090652D01*
X145403137Y-122109704D01*
X145364466Y-122121435D01*
X145318112Y-122126000D01*
X144241888Y-122126000D01*
X144195534Y-122121435D01*
X144156863Y-122109704D01*
X144121221Y-122090652D01*
X144089983Y-122065017D01*
X144064348Y-122033779D01*
X144045296Y-121998137D01*
X144033565Y-121959466D01*
X144029000Y-121913112D01*
X144029000Y-121261888D01*
X144033565Y-121215534D01*
X144045296Y-121176863D01*
X144064348Y-121141221D01*
X144089983Y-121109983D01*
X144121221Y-121084348D01*
X144156863Y-121065296D01*
X144195534Y-121053565D01*
X144241888Y-121049000D01*
X145318112Y-121049000D01*
X145364466Y-121053565D01*
X145364466Y-121053565D01*
G37*
G36*
X142824466Y-121053565D02*
X142863137Y-121065296D01*
X142898779Y-121084348D01*
X142930017Y-121109983D01*
X142955652Y-121141221D01*
X142974704Y-121176863D01*
X142986435Y-121215534D01*
X142991000Y-121261888D01*
X142991000Y-121913112D01*
X142986435Y-121959466D01*
X142974704Y-121998137D01*
X142955652Y-122033779D01*
X142930017Y-122065017D01*
X142898779Y-122090652D01*
X142863137Y-122109704D01*
X142824466Y-122121435D01*
X142778112Y-122126000D01*
X141701888Y-122126000D01*
X141655534Y-122121435D01*
X141616863Y-122109704D01*
X141581221Y-122090652D01*
X141549983Y-122065017D01*
X141524348Y-122033779D01*
X141505296Y-121998137D01*
X141493565Y-121959466D01*
X141489000Y-121913112D01*
X141489000Y-121261888D01*
X141493565Y-121215534D01*
X141505296Y-121176863D01*
X141524348Y-121141221D01*
X141549983Y-121109983D01*
X141581221Y-121084348D01*
X141616863Y-121065296D01*
X141655534Y-121053565D01*
X141701888Y-121049000D01*
X142778112Y-121049000D01*
X142824466Y-121053565D01*
X142824466Y-121053565D01*
G37*
G36*
X127039466Y-119903565D02*
X127078137Y-119915296D01*
X127113779Y-119934348D01*
X127145017Y-119959983D01*
X127170652Y-119991221D01*
X127189704Y-120026863D01*
X127201435Y-120065534D01*
X127206000Y-120111888D01*
X127206000Y-121188112D01*
X127201435Y-121234466D01*
X127189704Y-121273137D01*
X127170652Y-121308779D01*
X127145017Y-121340017D01*
X127113779Y-121365652D01*
X127078137Y-121384704D01*
X127039466Y-121396435D01*
X126993112Y-121401000D01*
X126341888Y-121401000D01*
X126295534Y-121396435D01*
X126256863Y-121384704D01*
X126221221Y-121365652D01*
X126189983Y-121340017D01*
X126164348Y-121308779D01*
X126145296Y-121273137D01*
X126133565Y-121234466D01*
X126129000Y-121188112D01*
X126129000Y-120111888D01*
X126133565Y-120065534D01*
X126145296Y-120026863D01*
X126164348Y-119991221D01*
X126189983Y-119959983D01*
X126221221Y-119934348D01*
X126256863Y-119915296D01*
X126295534Y-119903565D01*
X126341888Y-119899000D01*
X126993112Y-119899000D01*
X127039466Y-119903565D01*
X127039466Y-119903565D01*
G37*
G36*
X125164466Y-119903565D02*
X125203137Y-119915296D01*
X125238779Y-119934348D01*
X125270017Y-119959983D01*
X125295652Y-119991221D01*
X125314704Y-120026863D01*
X125326435Y-120065534D01*
X125331000Y-120111888D01*
X125331000Y-121188112D01*
X125326435Y-121234466D01*
X125314704Y-121273137D01*
X125295652Y-121308779D01*
X125270017Y-121340017D01*
X125238779Y-121365652D01*
X125203137Y-121384704D01*
X125164466Y-121396435D01*
X125118112Y-121401000D01*
X124466888Y-121401000D01*
X124420534Y-121396435D01*
X124381863Y-121384704D01*
X124346221Y-121365652D01*
X124314983Y-121340017D01*
X124289348Y-121308779D01*
X124270296Y-121273137D01*
X124258565Y-121234466D01*
X124254000Y-121188112D01*
X124254000Y-120111888D01*
X124258565Y-120065534D01*
X124270296Y-120026863D01*
X124289348Y-119991221D01*
X124314983Y-119959983D01*
X124346221Y-119934348D01*
X124381863Y-119915296D01*
X124420534Y-119903565D01*
X124466888Y-119899000D01*
X125118112Y-119899000D01*
X125164466Y-119903565D01*
X125164466Y-119903565D01*
G37*
G36*
X131568762Y-120219227D02*
X130577398Y-121210591D01*
X126439409Y-117072602D01*
X127430773Y-116081238D01*
X131568762Y-120219227D01*
X131568762Y-120219227D01*
G37*
G36*
X137720591Y-117072602D02*
X133582602Y-121210591D01*
X132591238Y-120219227D01*
X136729227Y-116081238D01*
X137720591Y-117072602D01*
X137720591Y-117072602D01*
G37*
G36*
X140284466Y-119178565D02*
X140323137Y-119190296D01*
X140358779Y-119209348D01*
X140390017Y-119234983D01*
X140415652Y-119266221D01*
X140434704Y-119301863D01*
X140446435Y-119340534D01*
X140451000Y-119386888D01*
X140451000Y-120038112D01*
X140446435Y-120084466D01*
X140434704Y-120123137D01*
X140415652Y-120158779D01*
X140390017Y-120190017D01*
X140358779Y-120215652D01*
X140323137Y-120234704D01*
X140284466Y-120246435D01*
X140238112Y-120251000D01*
X139161888Y-120251000D01*
X139115534Y-120246435D01*
X139076863Y-120234704D01*
X139041221Y-120215652D01*
X139009983Y-120190017D01*
X138984348Y-120158779D01*
X138965296Y-120123137D01*
X138953565Y-120084466D01*
X138949000Y-120038112D01*
X138949000Y-119386888D01*
X138953565Y-119340534D01*
X138965296Y-119301863D01*
X138984348Y-119266221D01*
X139009983Y-119234983D01*
X139041221Y-119209348D01*
X139076863Y-119190296D01*
X139115534Y-119178565D01*
X139161888Y-119174000D01*
X140238112Y-119174000D01*
X140284466Y-119178565D01*
X140284466Y-119178565D01*
G37*
G36*
X142824466Y-119178565D02*
X142863137Y-119190296D01*
X142898779Y-119209348D01*
X142930017Y-119234983D01*
X142955652Y-119266221D01*
X142974704Y-119301863D01*
X142986435Y-119340534D01*
X142991000Y-119386888D01*
X142991000Y-120038112D01*
X142986435Y-120084466D01*
X142974704Y-120123137D01*
X142955652Y-120158779D01*
X142930017Y-120190017D01*
X142898779Y-120215652D01*
X142863137Y-120234704D01*
X142824466Y-120246435D01*
X142778112Y-120251000D01*
X141701888Y-120251000D01*
X141655534Y-120246435D01*
X141616863Y-120234704D01*
X141581221Y-120215652D01*
X141549983Y-120190017D01*
X141524348Y-120158779D01*
X141505296Y-120123137D01*
X141493565Y-120084466D01*
X141489000Y-120038112D01*
X141489000Y-119386888D01*
X141493565Y-119340534D01*
X141505296Y-119301863D01*
X141524348Y-119266221D01*
X141549983Y-119234983D01*
X141581221Y-119209348D01*
X141616863Y-119190296D01*
X141655534Y-119178565D01*
X141701888Y-119174000D01*
X142778112Y-119174000D01*
X142824466Y-119178565D01*
X142824466Y-119178565D01*
G37*
G36*
X145364466Y-119178565D02*
X145403137Y-119190296D01*
X145438779Y-119209348D01*
X145470017Y-119234983D01*
X145495652Y-119266221D01*
X145514704Y-119301863D01*
X145526435Y-119340534D01*
X145531000Y-119386888D01*
X145531000Y-120038112D01*
X145526435Y-120084466D01*
X145514704Y-120123137D01*
X145495652Y-120158779D01*
X145470017Y-120190017D01*
X145438779Y-120215652D01*
X145403137Y-120234704D01*
X145364466Y-120246435D01*
X145318112Y-120251000D01*
X144241888Y-120251000D01*
X144195534Y-120246435D01*
X144156863Y-120234704D01*
X144121221Y-120215652D01*
X144089983Y-120190017D01*
X144064348Y-120158779D01*
X144045296Y-120123137D01*
X144033565Y-120084466D01*
X144029000Y-120038112D01*
X144029000Y-119386888D01*
X144033565Y-119340534D01*
X144045296Y-119301863D01*
X144064348Y-119266221D01*
X144089983Y-119234983D01*
X144121221Y-119209348D01*
X144156863Y-119190296D01*
X144195534Y-119178565D01*
X144241888Y-119174000D01*
X145318112Y-119174000D01*
X145364466Y-119178565D01*
X145364466Y-119178565D01*
G37*
G36*
X125044466Y-115973565D02*
X125083137Y-115985296D01*
X125118779Y-116004348D01*
X125150017Y-116029983D01*
X125175652Y-116061221D01*
X125194704Y-116096863D01*
X125206435Y-116135534D01*
X125211000Y-116181888D01*
X125211000Y-116833112D01*
X125206435Y-116879466D01*
X125194704Y-116918137D01*
X125175652Y-116953779D01*
X125150017Y-116985017D01*
X125118779Y-117010652D01*
X125083137Y-117029704D01*
X125044466Y-117041435D01*
X124998112Y-117046000D01*
X123921888Y-117046000D01*
X123875534Y-117041435D01*
X123836863Y-117029704D01*
X123801221Y-117010652D01*
X123769983Y-116985017D01*
X123744348Y-116953779D01*
X123725296Y-116918137D01*
X123713565Y-116879466D01*
X123709000Y-116833112D01*
X123709000Y-116181888D01*
X123713565Y-116135534D01*
X123725296Y-116096863D01*
X123744348Y-116061221D01*
X123769983Y-116029983D01*
X123801221Y-116004348D01*
X123836863Y-115985296D01*
X123875534Y-115973565D01*
X123921888Y-115969000D01*
X124998112Y-115969000D01*
X125044466Y-115973565D01*
X125044466Y-115973565D01*
G37*
G36*
X140284466Y-115973565D02*
X140323137Y-115985296D01*
X140358779Y-116004348D01*
X140390017Y-116029983D01*
X140415652Y-116061221D01*
X140434704Y-116096863D01*
X140446435Y-116135534D01*
X140451000Y-116181888D01*
X140451000Y-116833112D01*
X140446435Y-116879466D01*
X140434704Y-116918137D01*
X140415652Y-116953779D01*
X140390017Y-116985017D01*
X140358779Y-117010652D01*
X140323137Y-117029704D01*
X140284466Y-117041435D01*
X140238112Y-117046000D01*
X139161888Y-117046000D01*
X139115534Y-117041435D01*
X139076863Y-117029704D01*
X139041221Y-117010652D01*
X139009983Y-116985017D01*
X138984348Y-116953779D01*
X138965296Y-116918137D01*
X138953565Y-116879466D01*
X138949000Y-116833112D01*
X138949000Y-116181888D01*
X138953565Y-116135534D01*
X138965296Y-116096863D01*
X138984348Y-116061221D01*
X139009983Y-116029983D01*
X139041221Y-116004348D01*
X139076863Y-115985296D01*
X139115534Y-115973565D01*
X139161888Y-115969000D01*
X140238112Y-115969000D01*
X140284466Y-115973565D01*
X140284466Y-115973565D01*
G37*
G36*
X140284466Y-114098565D02*
X140323137Y-114110296D01*
X140358779Y-114129348D01*
X140390017Y-114154983D01*
X140415652Y-114186221D01*
X140434704Y-114221863D01*
X140446435Y-114260534D01*
X140451000Y-114306888D01*
X140451000Y-114958112D01*
X140446435Y-115004466D01*
X140434704Y-115043137D01*
X140415652Y-115078779D01*
X140390017Y-115110017D01*
X140358779Y-115135652D01*
X140323137Y-115154704D01*
X140284466Y-115166435D01*
X140238112Y-115171000D01*
X139161888Y-115171000D01*
X139115534Y-115166435D01*
X139076863Y-115154704D01*
X139041221Y-115135652D01*
X139009983Y-115110017D01*
X138984348Y-115078779D01*
X138965296Y-115043137D01*
X138953565Y-115004466D01*
X138949000Y-114958112D01*
X138949000Y-114306888D01*
X138953565Y-114260534D01*
X138965296Y-114221863D01*
X138984348Y-114186221D01*
X139009983Y-114154983D01*
X139041221Y-114129348D01*
X139076863Y-114110296D01*
X139115534Y-114098565D01*
X139161888Y-114094000D01*
X140238112Y-114094000D01*
X140284466Y-114098565D01*
X140284466Y-114098565D01*
G37*
G36*
X125044466Y-114098565D02*
X125083137Y-114110296D01*
X125118779Y-114129348D01*
X125150017Y-114154983D01*
X125175652Y-114186221D01*
X125194704Y-114221863D01*
X125206435Y-114260534D01*
X125211000Y-114306888D01*
X125211000Y-114958112D01*
X125206435Y-115004466D01*
X125194704Y-115043137D01*
X125175652Y-115078779D01*
X125150017Y-115110017D01*
X125118779Y-115135652D01*
X125083137Y-115154704D01*
X125044466Y-115166435D01*
X124998112Y-115171000D01*
X123921888Y-115171000D01*
X123875534Y-115166435D01*
X123836863Y-115154704D01*
X123801221Y-115135652D01*
X123769983Y-115110017D01*
X123744348Y-115078779D01*
X123725296Y-115043137D01*
X123713565Y-115004466D01*
X123709000Y-114958112D01*
X123709000Y-114306888D01*
X123713565Y-114260534D01*
X123725296Y-114221863D01*
X123744348Y-114186221D01*
X123769983Y-114154983D01*
X123801221Y-114129348D01*
X123836863Y-114110296D01*
X123875534Y-114098565D01*
X123921888Y-114094000D01*
X124998112Y-114094000D01*
X125044466Y-114098565D01*
X125044466Y-114098565D01*
G37*
G36*
X131568762Y-110920773D02*
X127430773Y-115058762D01*
X126439409Y-114067398D01*
X130577398Y-109929409D01*
X131568762Y-110920773D01*
X131568762Y-110920773D01*
G37*
G36*
X137720591Y-114067398D02*
X136729227Y-115058762D01*
X132591238Y-110920773D01*
X133582602Y-109929409D01*
X137720591Y-114067398D01*
X137720591Y-114067398D01*
G37*
G36*
X120431000Y-114891000D02*
X118329000Y-114891000D01*
X118329000Y-110289000D01*
X120431000Y-110289000D01*
X120431000Y-114891000D01*
X120431000Y-114891000D01*
G37*
G36*
X123894466Y-111013565D02*
X123933137Y-111025296D01*
X123968779Y-111044348D01*
X124000017Y-111069983D01*
X124025652Y-111101221D01*
X124044704Y-111136863D01*
X124056435Y-111175534D01*
X124061000Y-111221888D01*
X124061000Y-112298112D01*
X124056435Y-112344466D01*
X124044704Y-112383137D01*
X124025652Y-112418779D01*
X124000017Y-112450017D01*
X123968779Y-112475652D01*
X123933137Y-112494704D01*
X123894466Y-112506435D01*
X123848112Y-112511000D01*
X123196888Y-112511000D01*
X123150534Y-112506435D01*
X123111863Y-112494704D01*
X123076221Y-112475652D01*
X123044983Y-112450017D01*
X123019348Y-112418779D01*
X123000296Y-112383137D01*
X122988565Y-112344466D01*
X122984000Y-112298112D01*
X122984000Y-111221888D01*
X122988565Y-111175534D01*
X123000296Y-111136863D01*
X123019348Y-111101221D01*
X123044983Y-111069983D01*
X123076221Y-111044348D01*
X123111863Y-111025296D01*
X123150534Y-111013565D01*
X123196888Y-111009000D01*
X123848112Y-111009000D01*
X123894466Y-111013565D01*
X123894466Y-111013565D01*
G37*
G36*
X125769466Y-111013565D02*
X125808137Y-111025296D01*
X125843779Y-111044348D01*
X125875017Y-111069983D01*
X125900652Y-111101221D01*
X125919704Y-111136863D01*
X125931435Y-111175534D01*
X125936000Y-111221888D01*
X125936000Y-112298112D01*
X125931435Y-112344466D01*
X125919704Y-112383137D01*
X125900652Y-112418779D01*
X125875017Y-112450017D01*
X125843779Y-112475652D01*
X125808137Y-112494704D01*
X125769466Y-112506435D01*
X125723112Y-112511000D01*
X125071888Y-112511000D01*
X125025534Y-112506435D01*
X124986863Y-112494704D01*
X124951221Y-112475652D01*
X124919983Y-112450017D01*
X124894348Y-112418779D01*
X124875296Y-112383137D01*
X124863565Y-112344466D01*
X124859000Y-112298112D01*
X124859000Y-111221888D01*
X124863565Y-111175534D01*
X124875296Y-111136863D01*
X124894348Y-111101221D01*
X124919983Y-111069983D01*
X124951221Y-111044348D01*
X124986863Y-111025296D01*
X125025534Y-111013565D01*
X125071888Y-111009000D01*
X125723112Y-111009000D01*
X125769466Y-111013565D01*
X125769466Y-111013565D01*
G37*
G36*
X140284466Y-109115565D02*
X140323137Y-109127296D01*
X140358779Y-109146348D01*
X140390017Y-109171983D01*
X140415652Y-109203221D01*
X140434704Y-109238863D01*
X140446435Y-109277534D01*
X140451000Y-109323888D01*
X140451000Y-109975112D01*
X140446435Y-110021466D01*
X140434704Y-110060137D01*
X140415652Y-110095779D01*
X140390017Y-110127017D01*
X140358779Y-110152652D01*
X140323137Y-110171704D01*
X140284466Y-110183435D01*
X140238112Y-110188000D01*
X139161888Y-110188000D01*
X139115534Y-110183435D01*
X139076863Y-110171704D01*
X139041221Y-110152652D01*
X139009983Y-110127017D01*
X138984348Y-110095779D01*
X138965296Y-110060137D01*
X138953565Y-110021466D01*
X138949000Y-109975112D01*
X138949000Y-109323888D01*
X138953565Y-109277534D01*
X138965296Y-109238863D01*
X138984348Y-109203221D01*
X139009983Y-109171983D01*
X139041221Y-109146348D01*
X139076863Y-109127296D01*
X139115534Y-109115565D01*
X139161888Y-109111000D01*
X140238112Y-109111000D01*
X140284466Y-109115565D01*
X140284466Y-109115565D01*
G37*
G36*
X142824466Y-109115565D02*
X142863137Y-109127296D01*
X142898779Y-109146348D01*
X142930017Y-109171983D01*
X142955652Y-109203221D01*
X142974704Y-109238863D01*
X142986435Y-109277534D01*
X142991000Y-109323888D01*
X142991000Y-109975112D01*
X142986435Y-110021466D01*
X142974704Y-110060137D01*
X142955652Y-110095779D01*
X142930017Y-110127017D01*
X142898779Y-110152652D01*
X142863137Y-110171704D01*
X142824466Y-110183435D01*
X142778112Y-110188000D01*
X141701888Y-110188000D01*
X141655534Y-110183435D01*
X141616863Y-110171704D01*
X141581221Y-110152652D01*
X141549983Y-110127017D01*
X141524348Y-110095779D01*
X141505296Y-110060137D01*
X141493565Y-110021466D01*
X141489000Y-109975112D01*
X141489000Y-109323888D01*
X141493565Y-109277534D01*
X141505296Y-109238863D01*
X141524348Y-109203221D01*
X141549983Y-109171983D01*
X141581221Y-109146348D01*
X141616863Y-109127296D01*
X141655534Y-109115565D01*
X141701888Y-109111000D01*
X142778112Y-109111000D01*
X142824466Y-109115565D01*
X142824466Y-109115565D01*
G37*
G36*
X145364466Y-109115565D02*
X145403137Y-109127296D01*
X145438779Y-109146348D01*
X145470017Y-109171983D01*
X145495652Y-109203221D01*
X145514704Y-109238863D01*
X145526435Y-109277534D01*
X145531000Y-109323888D01*
X145531000Y-109975112D01*
X145526435Y-110021466D01*
X145514704Y-110060137D01*
X145495652Y-110095779D01*
X145470017Y-110127017D01*
X145438779Y-110152652D01*
X145403137Y-110171704D01*
X145364466Y-110183435D01*
X145318112Y-110188000D01*
X144241888Y-110188000D01*
X144195534Y-110183435D01*
X144156863Y-110171704D01*
X144121221Y-110152652D01*
X144089983Y-110127017D01*
X144064348Y-110095779D01*
X144045296Y-110060137D01*
X144033565Y-110021466D01*
X144029000Y-109975112D01*
X144029000Y-109323888D01*
X144033565Y-109277534D01*
X144045296Y-109238863D01*
X144064348Y-109203221D01*
X144089983Y-109171983D01*
X144121221Y-109146348D01*
X144156863Y-109127296D01*
X144195534Y-109115565D01*
X144241888Y-109111000D01*
X145318112Y-109111000D01*
X145364466Y-109115565D01*
X145364466Y-109115565D01*
G37*
G36*
X123894466Y-108473565D02*
X123933137Y-108485296D01*
X123968779Y-108504348D01*
X124000017Y-108529983D01*
X124025652Y-108561221D01*
X124044704Y-108596863D01*
X124056435Y-108635534D01*
X124061000Y-108681888D01*
X124061000Y-109758112D01*
X124056435Y-109804466D01*
X124044704Y-109843137D01*
X124025652Y-109878779D01*
X124000017Y-109910017D01*
X123968779Y-109935652D01*
X123933137Y-109954704D01*
X123894466Y-109966435D01*
X123848112Y-109971000D01*
X123196888Y-109971000D01*
X123150534Y-109966435D01*
X123111863Y-109954704D01*
X123076221Y-109935652D01*
X123044983Y-109910017D01*
X123019348Y-109878779D01*
X123000296Y-109843137D01*
X122988565Y-109804466D01*
X122984000Y-109758112D01*
X122984000Y-108681888D01*
X122988565Y-108635534D01*
X123000296Y-108596863D01*
X123019348Y-108561221D01*
X123044983Y-108529983D01*
X123076221Y-108504348D01*
X123111863Y-108485296D01*
X123150534Y-108473565D01*
X123196888Y-108469000D01*
X123848112Y-108469000D01*
X123894466Y-108473565D01*
X123894466Y-108473565D01*
G37*
G36*
X125769466Y-108473565D02*
X125808137Y-108485296D01*
X125843779Y-108504348D01*
X125875017Y-108529983D01*
X125900652Y-108561221D01*
X125919704Y-108596863D01*
X125931435Y-108635534D01*
X125936000Y-108681888D01*
X125936000Y-109758112D01*
X125931435Y-109804466D01*
X125919704Y-109843137D01*
X125900652Y-109878779D01*
X125875017Y-109910017D01*
X125843779Y-109935652D01*
X125808137Y-109954704D01*
X125769466Y-109966435D01*
X125723112Y-109971000D01*
X125071888Y-109971000D01*
X125025534Y-109966435D01*
X124986863Y-109954704D01*
X124951221Y-109935652D01*
X124919983Y-109910017D01*
X124894348Y-109878779D01*
X124875296Y-109843137D01*
X124863565Y-109804466D01*
X124859000Y-109758112D01*
X124859000Y-108681888D01*
X124863565Y-108635534D01*
X124875296Y-108596863D01*
X124894348Y-108561221D01*
X124919983Y-108529983D01*
X124951221Y-108504348D01*
X124986863Y-108485296D01*
X125025534Y-108473565D01*
X125071888Y-108469000D01*
X125723112Y-108469000D01*
X125769466Y-108473565D01*
X125769466Y-108473565D01*
G37*
G36*
X137199466Y-107203565D02*
X137238137Y-107215296D01*
X137273779Y-107234348D01*
X137305017Y-107259983D01*
X137330652Y-107291221D01*
X137349704Y-107326863D01*
X137361435Y-107365534D01*
X137366000Y-107411888D01*
X137366000Y-108488112D01*
X137361435Y-108534466D01*
X137349704Y-108573137D01*
X137330652Y-108608779D01*
X137305017Y-108640017D01*
X137273779Y-108665652D01*
X137238137Y-108684704D01*
X137199466Y-108696435D01*
X137153112Y-108701000D01*
X136501888Y-108701000D01*
X136455534Y-108696435D01*
X136416863Y-108684704D01*
X136381221Y-108665652D01*
X136349983Y-108640017D01*
X136324348Y-108608779D01*
X136305296Y-108573137D01*
X136293565Y-108534466D01*
X136289000Y-108488112D01*
X136289000Y-107411888D01*
X136293565Y-107365534D01*
X136305296Y-107326863D01*
X136324348Y-107291221D01*
X136349983Y-107259983D01*
X136381221Y-107234348D01*
X136416863Y-107215296D01*
X136455534Y-107203565D01*
X136501888Y-107199000D01*
X137153112Y-107199000D01*
X137199466Y-107203565D01*
X137199466Y-107203565D01*
G37*
G36*
X118814466Y-107203565D02*
X118853137Y-107215296D01*
X118888779Y-107234348D01*
X118920017Y-107259983D01*
X118945652Y-107291221D01*
X118964704Y-107326863D01*
X118976435Y-107365534D01*
X118981000Y-107411888D01*
X118981000Y-108488112D01*
X118976435Y-108534466D01*
X118964704Y-108573137D01*
X118945652Y-108608779D01*
X118920017Y-108640017D01*
X118888779Y-108665652D01*
X118853137Y-108684704D01*
X118814466Y-108696435D01*
X118768112Y-108701000D01*
X118116888Y-108701000D01*
X118070534Y-108696435D01*
X118031863Y-108684704D01*
X117996221Y-108665652D01*
X117964983Y-108640017D01*
X117939348Y-108608779D01*
X117920296Y-108573137D01*
X117908565Y-108534466D01*
X117904000Y-108488112D01*
X117904000Y-107411888D01*
X117908565Y-107365534D01*
X117920296Y-107326863D01*
X117939348Y-107291221D01*
X117964983Y-107259983D01*
X117996221Y-107234348D01*
X118031863Y-107215296D01*
X118070534Y-107203565D01*
X118116888Y-107199000D01*
X118768112Y-107199000D01*
X118814466Y-107203565D01*
X118814466Y-107203565D01*
G37*
G36*
X131514466Y-107203565D02*
X131553137Y-107215296D01*
X131588779Y-107234348D01*
X131620017Y-107259983D01*
X131645652Y-107291221D01*
X131664704Y-107326863D01*
X131676435Y-107365534D01*
X131681000Y-107411888D01*
X131681000Y-108488112D01*
X131676435Y-108534466D01*
X131664704Y-108573137D01*
X131645652Y-108608779D01*
X131620017Y-108640017D01*
X131588779Y-108665652D01*
X131553137Y-108684704D01*
X131514466Y-108696435D01*
X131468112Y-108701000D01*
X130816888Y-108701000D01*
X130770534Y-108696435D01*
X130731863Y-108684704D01*
X130696221Y-108665652D01*
X130664983Y-108640017D01*
X130639348Y-108608779D01*
X130620296Y-108573137D01*
X130608565Y-108534466D01*
X130604000Y-108488112D01*
X130604000Y-107411888D01*
X130608565Y-107365534D01*
X130620296Y-107326863D01*
X130639348Y-107291221D01*
X130664983Y-107259983D01*
X130696221Y-107234348D01*
X130731863Y-107215296D01*
X130770534Y-107203565D01*
X130816888Y-107199000D01*
X131468112Y-107199000D01*
X131514466Y-107203565D01*
X131514466Y-107203565D01*
G37*
G36*
X133389466Y-107203565D02*
X133428137Y-107215296D01*
X133463779Y-107234348D01*
X133495017Y-107259983D01*
X133520652Y-107291221D01*
X133539704Y-107326863D01*
X133551435Y-107365534D01*
X133556000Y-107411888D01*
X133556000Y-108488112D01*
X133551435Y-108534466D01*
X133539704Y-108573137D01*
X133520652Y-108608779D01*
X133495017Y-108640017D01*
X133463779Y-108665652D01*
X133428137Y-108684704D01*
X133389466Y-108696435D01*
X133343112Y-108701000D01*
X132691888Y-108701000D01*
X132645534Y-108696435D01*
X132606863Y-108684704D01*
X132571221Y-108665652D01*
X132539983Y-108640017D01*
X132514348Y-108608779D01*
X132495296Y-108573137D01*
X132483565Y-108534466D01*
X132479000Y-108488112D01*
X132479000Y-107411888D01*
X132483565Y-107365534D01*
X132495296Y-107326863D01*
X132514348Y-107291221D01*
X132539983Y-107259983D01*
X132571221Y-107234348D01*
X132606863Y-107215296D01*
X132645534Y-107203565D01*
X132691888Y-107199000D01*
X133343112Y-107199000D01*
X133389466Y-107203565D01*
X133389466Y-107203565D01*
G37*
G36*
X120689466Y-107203565D02*
X120728137Y-107215296D01*
X120763779Y-107234348D01*
X120795017Y-107259983D01*
X120820652Y-107291221D01*
X120839704Y-107326863D01*
X120851435Y-107365534D01*
X120856000Y-107411888D01*
X120856000Y-108488112D01*
X120851435Y-108534466D01*
X120839704Y-108573137D01*
X120820652Y-108608779D01*
X120795017Y-108640017D01*
X120763779Y-108665652D01*
X120728137Y-108684704D01*
X120689466Y-108696435D01*
X120643112Y-108701000D01*
X119991888Y-108701000D01*
X119945534Y-108696435D01*
X119906863Y-108684704D01*
X119871221Y-108665652D01*
X119839983Y-108640017D01*
X119814348Y-108608779D01*
X119795296Y-108573137D01*
X119783565Y-108534466D01*
X119779000Y-108488112D01*
X119779000Y-107411888D01*
X119783565Y-107365534D01*
X119795296Y-107326863D01*
X119814348Y-107291221D01*
X119839983Y-107259983D01*
X119871221Y-107234348D01*
X119906863Y-107215296D01*
X119945534Y-107203565D01*
X119991888Y-107199000D01*
X120643112Y-107199000D01*
X120689466Y-107203565D01*
X120689466Y-107203565D01*
G37*
G36*
X127704466Y-107203565D02*
X127743137Y-107215296D01*
X127778779Y-107234348D01*
X127810017Y-107259983D01*
X127835652Y-107291221D01*
X127854704Y-107326863D01*
X127866435Y-107365534D01*
X127871000Y-107411888D01*
X127871000Y-108488112D01*
X127866435Y-108534466D01*
X127854704Y-108573137D01*
X127835652Y-108608779D01*
X127810017Y-108640017D01*
X127778779Y-108665652D01*
X127743137Y-108684704D01*
X127704466Y-108696435D01*
X127658112Y-108701000D01*
X127006888Y-108701000D01*
X126960534Y-108696435D01*
X126921863Y-108684704D01*
X126886221Y-108665652D01*
X126854983Y-108640017D01*
X126829348Y-108608779D01*
X126810296Y-108573137D01*
X126798565Y-108534466D01*
X126794000Y-108488112D01*
X126794000Y-107411888D01*
X126798565Y-107365534D01*
X126810296Y-107326863D01*
X126829348Y-107291221D01*
X126854983Y-107259983D01*
X126886221Y-107234348D01*
X126921863Y-107215296D01*
X126960534Y-107203565D01*
X127006888Y-107199000D01*
X127658112Y-107199000D01*
X127704466Y-107203565D01*
X127704466Y-107203565D01*
G37*
G36*
X129579466Y-107203565D02*
X129618137Y-107215296D01*
X129653779Y-107234348D01*
X129685017Y-107259983D01*
X129710652Y-107291221D01*
X129729704Y-107326863D01*
X129741435Y-107365534D01*
X129746000Y-107411888D01*
X129746000Y-108488112D01*
X129741435Y-108534466D01*
X129729704Y-108573137D01*
X129710652Y-108608779D01*
X129685017Y-108640017D01*
X129653779Y-108665652D01*
X129618137Y-108684704D01*
X129579466Y-108696435D01*
X129533112Y-108701000D01*
X128881888Y-108701000D01*
X128835534Y-108696435D01*
X128796863Y-108684704D01*
X128761221Y-108665652D01*
X128729983Y-108640017D01*
X128704348Y-108608779D01*
X128685296Y-108573137D01*
X128673565Y-108534466D01*
X128669000Y-108488112D01*
X128669000Y-107411888D01*
X128673565Y-107365534D01*
X128685296Y-107326863D01*
X128704348Y-107291221D01*
X128729983Y-107259983D01*
X128761221Y-107234348D01*
X128796863Y-107215296D01*
X128835534Y-107203565D01*
X128881888Y-107199000D01*
X129533112Y-107199000D01*
X129579466Y-107203565D01*
X129579466Y-107203565D01*
G37*
G36*
X135324466Y-107203565D02*
X135363137Y-107215296D01*
X135398779Y-107234348D01*
X135430017Y-107259983D01*
X135455652Y-107291221D01*
X135474704Y-107326863D01*
X135486435Y-107365534D01*
X135491000Y-107411888D01*
X135491000Y-108488112D01*
X135486435Y-108534466D01*
X135474704Y-108573137D01*
X135455652Y-108608779D01*
X135430017Y-108640017D01*
X135398779Y-108665652D01*
X135363137Y-108684704D01*
X135324466Y-108696435D01*
X135278112Y-108701000D01*
X134626888Y-108701000D01*
X134580534Y-108696435D01*
X134541863Y-108684704D01*
X134506221Y-108665652D01*
X134474983Y-108640017D01*
X134449348Y-108608779D01*
X134430296Y-108573137D01*
X134418565Y-108534466D01*
X134414000Y-108488112D01*
X134414000Y-107411888D01*
X134418565Y-107365534D01*
X134430296Y-107326863D01*
X134449348Y-107291221D01*
X134474983Y-107259983D01*
X134506221Y-107234348D01*
X134541863Y-107215296D01*
X134580534Y-107203565D01*
X134626888Y-107199000D01*
X135278112Y-107199000D01*
X135324466Y-107203565D01*
X135324466Y-107203565D01*
G37*
G36*
X140284466Y-107240565D02*
X140323137Y-107252296D01*
X140358779Y-107271348D01*
X140390017Y-107296983D01*
X140415652Y-107328221D01*
X140434704Y-107363863D01*
X140446435Y-107402534D01*
X140451000Y-107448888D01*
X140451000Y-108100112D01*
X140446435Y-108146466D01*
X140434704Y-108185137D01*
X140415652Y-108220779D01*
X140390017Y-108252017D01*
X140358779Y-108277652D01*
X140323137Y-108296704D01*
X140284466Y-108308435D01*
X140238112Y-108313000D01*
X139161888Y-108313000D01*
X139115534Y-108308435D01*
X139076863Y-108296704D01*
X139041221Y-108277652D01*
X139009983Y-108252017D01*
X138984348Y-108220779D01*
X138965296Y-108185137D01*
X138953565Y-108146466D01*
X138949000Y-108100112D01*
X138949000Y-107448888D01*
X138953565Y-107402534D01*
X138965296Y-107363863D01*
X138984348Y-107328221D01*
X139009983Y-107296983D01*
X139041221Y-107271348D01*
X139076863Y-107252296D01*
X139115534Y-107240565D01*
X139161888Y-107236000D01*
X140238112Y-107236000D01*
X140284466Y-107240565D01*
X140284466Y-107240565D01*
G37*
G36*
X142824466Y-107240565D02*
X142863137Y-107252296D01*
X142898779Y-107271348D01*
X142930017Y-107296983D01*
X142955652Y-107328221D01*
X142974704Y-107363863D01*
X142986435Y-107402534D01*
X142991000Y-107448888D01*
X142991000Y-108100112D01*
X142986435Y-108146466D01*
X142974704Y-108185137D01*
X142955652Y-108220779D01*
X142930017Y-108252017D01*
X142898779Y-108277652D01*
X142863137Y-108296704D01*
X142824466Y-108308435D01*
X142778112Y-108313000D01*
X141701888Y-108313000D01*
X141655534Y-108308435D01*
X141616863Y-108296704D01*
X141581221Y-108277652D01*
X141549983Y-108252017D01*
X141524348Y-108220779D01*
X141505296Y-108185137D01*
X141493565Y-108146466D01*
X141489000Y-108100112D01*
X141489000Y-107448888D01*
X141493565Y-107402534D01*
X141505296Y-107363863D01*
X141524348Y-107328221D01*
X141549983Y-107296983D01*
X141581221Y-107271348D01*
X141616863Y-107252296D01*
X141655534Y-107240565D01*
X141701888Y-107236000D01*
X142778112Y-107236000D01*
X142824466Y-107240565D01*
X142824466Y-107240565D01*
G37*
G36*
X145364466Y-107240565D02*
X145403137Y-107252296D01*
X145438779Y-107271348D01*
X145470017Y-107296983D01*
X145495652Y-107328221D01*
X145514704Y-107363863D01*
X145526435Y-107402534D01*
X145531000Y-107448888D01*
X145531000Y-108100112D01*
X145526435Y-108146466D01*
X145514704Y-108185137D01*
X145495652Y-108220779D01*
X145470017Y-108252017D01*
X145438779Y-108277652D01*
X145403137Y-108296704D01*
X145364466Y-108308435D01*
X145318112Y-108313000D01*
X144241888Y-108313000D01*
X144195534Y-108308435D01*
X144156863Y-108296704D01*
X144121221Y-108277652D01*
X144089983Y-108252017D01*
X144064348Y-108220779D01*
X144045296Y-108185137D01*
X144033565Y-108146466D01*
X144029000Y-108100112D01*
X144029000Y-107448888D01*
X144033565Y-107402534D01*
X144045296Y-107363863D01*
X144064348Y-107328221D01*
X144089983Y-107296983D01*
X144121221Y-107271348D01*
X144156863Y-107252296D01*
X144195534Y-107240565D01*
X144241888Y-107236000D01*
X145318112Y-107236000D01*
X145364466Y-107240565D01*
X145364466Y-107240565D01*
G37*
G36*
X121741000Y-105906000D02*
X120639000Y-105906000D01*
X120639000Y-103054000D01*
X121741000Y-103054000D01*
X121741000Y-105906000D01*
X121741000Y-105906000D01*
G37*
G36*
X125741000Y-105906000D02*
X124639000Y-105906000D01*
X124639000Y-103054000D01*
X125741000Y-103054000D01*
X125741000Y-105906000D01*
X125741000Y-105906000D01*
G37*
G36*
X133998604Y-103218347D02*
X134035145Y-103229432D01*
X134068820Y-103247431D01*
X134098341Y-103271659D01*
X134122569Y-103301180D01*
X134140568Y-103334855D01*
X134151653Y-103371396D01*
X134156000Y-103415538D01*
X134156000Y-104864462D01*
X134151653Y-104908604D01*
X134140568Y-104945145D01*
X134122569Y-104978820D01*
X134098341Y-105008341D01*
X134068820Y-105032569D01*
X134035145Y-105050568D01*
X133998604Y-105061653D01*
X133954462Y-105066000D01*
X133005538Y-105066000D01*
X132961396Y-105061653D01*
X132924855Y-105050568D01*
X132891180Y-105032569D01*
X132861659Y-105008341D01*
X132837431Y-104978820D01*
X132819432Y-104945145D01*
X132808347Y-104908604D01*
X132804000Y-104864462D01*
X132804000Y-103415538D01*
X132808347Y-103371396D01*
X132819432Y-103334855D01*
X132837431Y-103301180D01*
X132861659Y-103271659D01*
X132891180Y-103247431D01*
X132924855Y-103229432D01*
X132961396Y-103218347D01*
X133005538Y-103214000D01*
X133954462Y-103214000D01*
X133998604Y-103218347D01*
X133998604Y-103218347D01*
G37*
G36*
X131198604Y-103218347D02*
X131235145Y-103229432D01*
X131268820Y-103247431D01*
X131298341Y-103271659D01*
X131322569Y-103301180D01*
X131340568Y-103334855D01*
X131351653Y-103371396D01*
X131356000Y-103415538D01*
X131356000Y-104864462D01*
X131351653Y-104908604D01*
X131340568Y-104945145D01*
X131322569Y-104978820D01*
X131298341Y-105008341D01*
X131268820Y-105032569D01*
X131235145Y-105050568D01*
X131198604Y-105061653D01*
X131154462Y-105066000D01*
X130205538Y-105066000D01*
X130161396Y-105061653D01*
X130124855Y-105050568D01*
X130091180Y-105032569D01*
X130061659Y-105008341D01*
X130037431Y-104978820D01*
X130019432Y-104945145D01*
X130008347Y-104908604D01*
X130004000Y-104864462D01*
X130004000Y-103415538D01*
X130008347Y-103371396D01*
X130019432Y-103334855D01*
X130037431Y-103301180D01*
X130061659Y-103271659D01*
X130091180Y-103247431D01*
X130124855Y-103229432D01*
X130161396Y-103218347D01*
X130205538Y-103214000D01*
X131154462Y-103214000D01*
X131198604Y-103218347D01*
X131198604Y-103218347D01*
G37*
G36*
X128430721Y-103610174D02*
X128530995Y-103651709D01*
X128621245Y-103712012D01*
X128697988Y-103788755D01*
X128758291Y-103879005D01*
X128799826Y-103979279D01*
X128821000Y-104085730D01*
X128821000Y-104194270D01*
X128799826Y-104300721D01*
X128758291Y-104400995D01*
X128697988Y-104491245D01*
X128621245Y-104567988D01*
X128530995Y-104628291D01*
X128430721Y-104669826D01*
X128324270Y-104691000D01*
X128215730Y-104691000D01*
X128109279Y-104669826D01*
X128009005Y-104628291D01*
X127918755Y-104567988D01*
X127842012Y-104491245D01*
X127781709Y-104400995D01*
X127740174Y-104300721D01*
X127719000Y-104194270D01*
X127719000Y-104085730D01*
X127740174Y-103979279D01*
X127781709Y-103879005D01*
X127842012Y-103788755D01*
X127918755Y-103712012D01*
X128009005Y-103651709D01*
X128109279Y-103610174D01*
X128215730Y-103589000D01*
X128324270Y-103589000D01*
X128430721Y-103610174D01*
X128430721Y-103610174D01*
G37*
G36*
X140776000Y-104066000D02*
X138674000Y-104066000D01*
X138674000Y-102464000D01*
X140776000Y-102464000D01*
X140776000Y-104066000D01*
X140776000Y-104066000D01*
G37*
G36*
X147076000Y-102916000D02*
X144974000Y-102916000D01*
X144974000Y-99014000D01*
X147076000Y-99014000D01*
X147076000Y-102916000D01*
X147076000Y-102916000D01*
G37*
G36*
X140776000Y-101766000D02*
X138674000Y-101766000D01*
X138674000Y-100164000D01*
X140776000Y-100164000D01*
X140776000Y-101766000D01*
X140776000Y-101766000D01*
G37*
G36*
X135388604Y-99788347D02*
X135425145Y-99799432D01*
X135458820Y-99817431D01*
X135488341Y-99841659D01*
X135512569Y-99871180D01*
X135530568Y-99904855D01*
X135541653Y-99941396D01*
X135546000Y-99985538D01*
X135546000Y-100934462D01*
X135541653Y-100978604D01*
X135530568Y-101015145D01*
X135512569Y-101048820D01*
X135488341Y-101078341D01*
X135458820Y-101102569D01*
X135425145Y-101120568D01*
X135388604Y-101131653D01*
X135344462Y-101136000D01*
X133895538Y-101136000D01*
X133851396Y-101131653D01*
X133814855Y-101120568D01*
X133781180Y-101102569D01*
X133751659Y-101078341D01*
X133727431Y-101048820D01*
X133709432Y-101015145D01*
X133698347Y-100978604D01*
X133694000Y-100934462D01*
X133694000Y-99985538D01*
X133698347Y-99941396D01*
X133709432Y-99904855D01*
X133727431Y-99871180D01*
X133751659Y-99841659D01*
X133781180Y-99817431D01*
X133814855Y-99799432D01*
X133851396Y-99788347D01*
X133895538Y-99784000D01*
X135344462Y-99784000D01*
X135388604Y-99788347D01*
X135388604Y-99788347D01*
G37*
G36*
X130308604Y-99658347D02*
X130345145Y-99669432D01*
X130378820Y-99687431D01*
X130408341Y-99711659D01*
X130432569Y-99741180D01*
X130450568Y-99774855D01*
X130461653Y-99811396D01*
X130466000Y-99855538D01*
X130466000Y-100804462D01*
X130461653Y-100848604D01*
X130450568Y-100885145D01*
X130432569Y-100918820D01*
X130408341Y-100948341D01*
X130378820Y-100972569D01*
X130345145Y-100990568D01*
X130308604Y-101001653D01*
X130264462Y-101006000D01*
X128815538Y-101006000D01*
X128771396Y-101001653D01*
X128734855Y-100990568D01*
X128701180Y-100972569D01*
X128671659Y-100948341D01*
X128647431Y-100918820D01*
X128629432Y-100885145D01*
X128618347Y-100848604D01*
X128614000Y-100804462D01*
X128614000Y-99855538D01*
X128618347Y-99811396D01*
X128629432Y-99774855D01*
X128647431Y-99741180D01*
X128671659Y-99711659D01*
X128701180Y-99687431D01*
X128734855Y-99669432D01*
X128771396Y-99658347D01*
X128815538Y-99654000D01*
X130264462Y-99654000D01*
X130308604Y-99658347D01*
X130308604Y-99658347D01*
G37*
G36*
X125741000Y-100146000D02*
X124639000Y-100146000D01*
X124639000Y-97294000D01*
X125741000Y-97294000D01*
X125741000Y-100146000D01*
X125741000Y-100146000D01*
G37*
G36*
X121741000Y-100146000D02*
X120639000Y-100146000D01*
X120639000Y-97294000D01*
X121741000Y-97294000D01*
X121741000Y-100146000D01*
X121741000Y-100146000D01*
G37*
G36*
X140776000Y-99466000D02*
X138674000Y-99466000D01*
X138674000Y-97864000D01*
X140776000Y-97864000D01*
X140776000Y-99466000D01*
X140776000Y-99466000D01*
G37*
G36*
X132664466Y-98193565D02*
X132703137Y-98205296D01*
X132738779Y-98224348D01*
X132770017Y-98249983D01*
X132795652Y-98281221D01*
X132814704Y-98316863D01*
X132826435Y-98355534D01*
X132831000Y-98401888D01*
X132831000Y-99053112D01*
X132826435Y-99099466D01*
X132814704Y-99138137D01*
X132795652Y-99173779D01*
X132770017Y-99205017D01*
X132738779Y-99230652D01*
X132703137Y-99249704D01*
X132664466Y-99261435D01*
X132618112Y-99266000D01*
X131541888Y-99266000D01*
X131495534Y-99261435D01*
X131456863Y-99249704D01*
X131421221Y-99230652D01*
X131389983Y-99205017D01*
X131364348Y-99173779D01*
X131345296Y-99138137D01*
X131333565Y-99099466D01*
X131329000Y-99053112D01*
X131329000Y-98401888D01*
X131333565Y-98355534D01*
X131345296Y-98316863D01*
X131364348Y-98281221D01*
X131389983Y-98249983D01*
X131421221Y-98224348D01*
X131456863Y-98205296D01*
X131495534Y-98193565D01*
X131541888Y-98189000D01*
X132618112Y-98189000D01*
X132664466Y-98193565D01*
X132664466Y-98193565D01*
G37*
G36*
X135388604Y-96988347D02*
X135425145Y-96999432D01*
X135458820Y-97017431D01*
X135488341Y-97041659D01*
X135512569Y-97071180D01*
X135530568Y-97104855D01*
X135541653Y-97141396D01*
X135546000Y-97185538D01*
X135546000Y-98134462D01*
X135541653Y-98178604D01*
X135530568Y-98215145D01*
X135512569Y-98248820D01*
X135488341Y-98278341D01*
X135458820Y-98302569D01*
X135425145Y-98320568D01*
X135388604Y-98331653D01*
X135344462Y-98336000D01*
X133895538Y-98336000D01*
X133851396Y-98331653D01*
X133814855Y-98320568D01*
X133781180Y-98302569D01*
X133751659Y-98278341D01*
X133727431Y-98248820D01*
X133709432Y-98215145D01*
X133698347Y-98178604D01*
X133694000Y-98134462D01*
X133694000Y-97185538D01*
X133698347Y-97141396D01*
X133709432Y-97104855D01*
X133727431Y-97071180D01*
X133751659Y-97041659D01*
X133781180Y-97017431D01*
X133814855Y-96999432D01*
X133851396Y-96988347D01*
X133895538Y-96984000D01*
X135344462Y-96984000D01*
X135388604Y-96988347D01*
X135388604Y-96988347D01*
G37*
G36*
X130308604Y-96858347D02*
X130345145Y-96869432D01*
X130378820Y-96887431D01*
X130408341Y-96911659D01*
X130432569Y-96941180D01*
X130450568Y-96974855D01*
X130461653Y-97011396D01*
X130466000Y-97055538D01*
X130466000Y-98004462D01*
X130461653Y-98048604D01*
X130450568Y-98085145D01*
X130432569Y-98118820D01*
X130408341Y-98148341D01*
X130378820Y-98172569D01*
X130345145Y-98190568D01*
X130308604Y-98201653D01*
X130264462Y-98206000D01*
X128815538Y-98206000D01*
X128771396Y-98201653D01*
X128734855Y-98190568D01*
X128701180Y-98172569D01*
X128671659Y-98148341D01*
X128647431Y-98118820D01*
X128629432Y-98085145D01*
X128618347Y-98048604D01*
X128614000Y-98004462D01*
X128614000Y-97055538D01*
X128618347Y-97011396D01*
X128629432Y-96974855D01*
X128647431Y-96941180D01*
X128671659Y-96911659D01*
X128701180Y-96887431D01*
X128734855Y-96869432D01*
X128771396Y-96858347D01*
X128815538Y-96854000D01*
X130264462Y-96854000D01*
X130308604Y-96858347D01*
X130308604Y-96858347D01*
G37*
G36*
X132664466Y-96318565D02*
X132703137Y-96330296D01*
X132738779Y-96349348D01*
X132770017Y-96374983D01*
X132795652Y-96406221D01*
X132814704Y-96441863D01*
X132826435Y-96480534D01*
X132831000Y-96526888D01*
X132831000Y-97178112D01*
X132826435Y-97224466D01*
X132814704Y-97263137D01*
X132795652Y-97298779D01*
X132770017Y-97330017D01*
X132738779Y-97355652D01*
X132703137Y-97374704D01*
X132664466Y-97386435D01*
X132618112Y-97391000D01*
X131541888Y-97391000D01*
X131495534Y-97386435D01*
X131456863Y-97374704D01*
X131421221Y-97355652D01*
X131389983Y-97330017D01*
X131364348Y-97298779D01*
X131345296Y-97263137D01*
X131333565Y-97224466D01*
X131329000Y-97178112D01*
X131329000Y-96526888D01*
X131333565Y-96480534D01*
X131345296Y-96441863D01*
X131364348Y-96406221D01*
X131389983Y-96374983D01*
X131421221Y-96349348D01*
X131456863Y-96330296D01*
X131495534Y-96318565D01*
X131541888Y-96314000D01*
X132618112Y-96314000D01*
X132664466Y-96318565D01*
X132664466Y-96318565D01*
G37*
G36*
X142279466Y-95773565D02*
X142318137Y-95785296D01*
X142353779Y-95804348D01*
X142385017Y-95829983D01*
X142410652Y-95861221D01*
X142429704Y-95896863D01*
X142441435Y-95935534D01*
X142446000Y-95981888D01*
X142446000Y-97058112D01*
X142441435Y-97104466D01*
X142429704Y-97143137D01*
X142410652Y-97178779D01*
X142385017Y-97210017D01*
X142353779Y-97235652D01*
X142318137Y-97254704D01*
X142279466Y-97266435D01*
X142233112Y-97271000D01*
X141581888Y-97271000D01*
X141535534Y-97266435D01*
X141496863Y-97254704D01*
X141461221Y-97235652D01*
X141429983Y-97210017D01*
X141404348Y-97178779D01*
X141385296Y-97143137D01*
X141373565Y-97104466D01*
X141369000Y-97058112D01*
X141369000Y-95981888D01*
X141373565Y-95935534D01*
X141385296Y-95896863D01*
X141404348Y-95861221D01*
X141429983Y-95829983D01*
X141461221Y-95804348D01*
X141496863Y-95785296D01*
X141535534Y-95773565D01*
X141581888Y-95769000D01*
X142233112Y-95769000D01*
X142279466Y-95773565D01*
X142279466Y-95773565D01*
G37*
G36*
X140404466Y-95773565D02*
X140443137Y-95785296D01*
X140478779Y-95804348D01*
X140510017Y-95829983D01*
X140535652Y-95861221D01*
X140554704Y-95896863D01*
X140566435Y-95935534D01*
X140571000Y-95981888D01*
X140571000Y-97058112D01*
X140566435Y-97104466D01*
X140554704Y-97143137D01*
X140535652Y-97178779D01*
X140510017Y-97210017D01*
X140478779Y-97235652D01*
X140443137Y-97254704D01*
X140404466Y-97266435D01*
X140358112Y-97271000D01*
X139706888Y-97271000D01*
X139660534Y-97266435D01*
X139621863Y-97254704D01*
X139586221Y-97235652D01*
X139554983Y-97210017D01*
X139529348Y-97178779D01*
X139510296Y-97143137D01*
X139498565Y-97104466D01*
X139494000Y-97058112D01*
X139494000Y-95981888D01*
X139498565Y-95935534D01*
X139510296Y-95896863D01*
X139529348Y-95861221D01*
X139554983Y-95829983D01*
X139586221Y-95804348D01*
X139621863Y-95785296D01*
X139660534Y-95773565D01*
X139706888Y-95769000D01*
X140358112Y-95769000D01*
X140404466Y-95773565D01*
X140404466Y-95773565D01*
G37*
G36*
X125044466Y-95653565D02*
X125083137Y-95665296D01*
X125118779Y-95684348D01*
X125150017Y-95709983D01*
X125175652Y-95741221D01*
X125194704Y-95776863D01*
X125206435Y-95815534D01*
X125211000Y-95861888D01*
X125211000Y-96513112D01*
X125206435Y-96559466D01*
X125194704Y-96598137D01*
X125175652Y-96633779D01*
X125150017Y-96665017D01*
X125118779Y-96690652D01*
X125083137Y-96709704D01*
X125044466Y-96721435D01*
X124998112Y-96726000D01*
X123921888Y-96726000D01*
X123875534Y-96721435D01*
X123836863Y-96709704D01*
X123801221Y-96690652D01*
X123769983Y-96665017D01*
X123744348Y-96633779D01*
X123725296Y-96598137D01*
X123713565Y-96559466D01*
X123709000Y-96513112D01*
X123709000Y-95861888D01*
X123713565Y-95815534D01*
X123725296Y-95776863D01*
X123744348Y-95741221D01*
X123769983Y-95709983D01*
X123801221Y-95684348D01*
X123836863Y-95665296D01*
X123875534Y-95653565D01*
X123921888Y-95649000D01*
X124998112Y-95649000D01*
X125044466Y-95653565D01*
X125044466Y-95653565D01*
G37*
G36*
X122504466Y-95653565D02*
X122543137Y-95665296D01*
X122578779Y-95684348D01*
X122610017Y-95709983D01*
X122635652Y-95741221D01*
X122654704Y-95776863D01*
X122666435Y-95815534D01*
X122671000Y-95861888D01*
X122671000Y-96513112D01*
X122666435Y-96559466D01*
X122654704Y-96598137D01*
X122635652Y-96633779D01*
X122610017Y-96665017D01*
X122578779Y-96690652D01*
X122543137Y-96709704D01*
X122504466Y-96721435D01*
X122458112Y-96726000D01*
X121381888Y-96726000D01*
X121335534Y-96721435D01*
X121296863Y-96709704D01*
X121261221Y-96690652D01*
X121229983Y-96665017D01*
X121204348Y-96633779D01*
X121185296Y-96598137D01*
X121173565Y-96559466D01*
X121169000Y-96513112D01*
X121169000Y-95861888D01*
X121173565Y-95815534D01*
X121185296Y-95776863D01*
X121204348Y-95741221D01*
X121229983Y-95709983D01*
X121261221Y-95684348D01*
X121296863Y-95665296D01*
X121335534Y-95653565D01*
X121381888Y-95649000D01*
X122458112Y-95649000D01*
X122504466Y-95653565D01*
X122504466Y-95653565D01*
G37*
G36*
X130920443Y-93085519D02*
X130986627Y-93092037D01*
X131099853Y-93126384D01*
X131156467Y-93143557D01*
X131295087Y-93217652D01*
X131312991Y-93227222D01*
X131348729Y-93256552D01*
X131450186Y-93339814D01*
X131533448Y-93441271D01*
X131562778Y-93477009D01*
X131562779Y-93477011D01*
X131646443Y-93633533D01*
X131646443Y-93633534D01*
X131697963Y-93803373D01*
X131715359Y-93980000D01*
X131697963Y-94156627D01*
X131663616Y-94269853D01*
X131646443Y-94326467D01*
X131572348Y-94465087D01*
X131562778Y-94482991D01*
X131533448Y-94518729D01*
X131450186Y-94620186D01*
X131371859Y-94684466D01*
X131312991Y-94732778D01*
X131312989Y-94732779D01*
X131156467Y-94816443D01*
X131110110Y-94830505D01*
X130986627Y-94867963D01*
X130920443Y-94874481D01*
X130854260Y-94881000D01*
X130765740Y-94881000D01*
X130699557Y-94874481D01*
X130633373Y-94867963D01*
X130509890Y-94830505D01*
X130463533Y-94816443D01*
X130307011Y-94732779D01*
X130307009Y-94732778D01*
X130248141Y-94684466D01*
X130169814Y-94620186D01*
X130086552Y-94518729D01*
X130057222Y-94482991D01*
X130047652Y-94465087D01*
X129973557Y-94326467D01*
X129956384Y-94269853D01*
X129922037Y-94156627D01*
X129904641Y-93980000D01*
X129922037Y-93803373D01*
X129973557Y-93633534D01*
X129973557Y-93633533D01*
X130057221Y-93477011D01*
X130057222Y-93477009D01*
X130086552Y-93441271D01*
X130169814Y-93339814D01*
X130271271Y-93256552D01*
X130307009Y-93227222D01*
X130324913Y-93217652D01*
X130463533Y-93143557D01*
X130520147Y-93126384D01*
X130633373Y-93092037D01*
X130699557Y-93085519D01*
X130765740Y-93079000D01*
X130854260Y-93079000D01*
X130920443Y-93085519D01*
X130920443Y-93085519D01*
G37*
G36*
X129171000Y-94881000D02*
X127369000Y-94881000D01*
X127369000Y-93079000D01*
X129171000Y-93079000D01*
X129171000Y-94881000D01*
X129171000Y-94881000D01*
G37*
G36*
X136000443Y-93085519D02*
X136066627Y-93092037D01*
X136179853Y-93126384D01*
X136236467Y-93143557D01*
X136375087Y-93217652D01*
X136392991Y-93227222D01*
X136428729Y-93256552D01*
X136530186Y-93339814D01*
X136613448Y-93441271D01*
X136642778Y-93477009D01*
X136642779Y-93477011D01*
X136726443Y-93633533D01*
X136726443Y-93633534D01*
X136777963Y-93803373D01*
X136795359Y-93980000D01*
X136777963Y-94156627D01*
X136743616Y-94269853D01*
X136726443Y-94326467D01*
X136652348Y-94465087D01*
X136642778Y-94482991D01*
X136613448Y-94518729D01*
X136530186Y-94620186D01*
X136451859Y-94684466D01*
X136392991Y-94732778D01*
X136392989Y-94732779D01*
X136236467Y-94816443D01*
X136190110Y-94830505D01*
X136066627Y-94867963D01*
X136000443Y-94874481D01*
X135934260Y-94881000D01*
X135845740Y-94881000D01*
X135779557Y-94874481D01*
X135713373Y-94867963D01*
X135589890Y-94830505D01*
X135543533Y-94816443D01*
X135387011Y-94732779D01*
X135387009Y-94732778D01*
X135328141Y-94684466D01*
X135249814Y-94620186D01*
X135166552Y-94518729D01*
X135137222Y-94482991D01*
X135127652Y-94465087D01*
X135053557Y-94326467D01*
X135036384Y-94269853D01*
X135002037Y-94156627D01*
X134984641Y-93980000D01*
X135002037Y-93803373D01*
X135053557Y-93633534D01*
X135053557Y-93633533D01*
X135137221Y-93477011D01*
X135137222Y-93477009D01*
X135166552Y-93441271D01*
X135249814Y-93339814D01*
X135351271Y-93256552D01*
X135387009Y-93227222D01*
X135404913Y-93217652D01*
X135543533Y-93143557D01*
X135600147Y-93126384D01*
X135713373Y-93092037D01*
X135779557Y-93085519D01*
X135845740Y-93079000D01*
X135934260Y-93079000D01*
X136000443Y-93085519D01*
X136000443Y-93085519D01*
G37*
G36*
X133460443Y-93085519D02*
X133526627Y-93092037D01*
X133639853Y-93126384D01*
X133696467Y-93143557D01*
X133835087Y-93217652D01*
X133852991Y-93227222D01*
X133888729Y-93256552D01*
X133990186Y-93339814D01*
X134073448Y-93441271D01*
X134102778Y-93477009D01*
X134102779Y-93477011D01*
X134186443Y-93633533D01*
X134186443Y-93633534D01*
X134237963Y-93803373D01*
X134255359Y-93980000D01*
X134237963Y-94156627D01*
X134203616Y-94269853D01*
X134186443Y-94326467D01*
X134112348Y-94465087D01*
X134102778Y-94482991D01*
X134073448Y-94518729D01*
X133990186Y-94620186D01*
X133911859Y-94684466D01*
X133852991Y-94732778D01*
X133852989Y-94732779D01*
X133696467Y-94816443D01*
X133650110Y-94830505D01*
X133526627Y-94867963D01*
X133460443Y-94874481D01*
X133394260Y-94881000D01*
X133305740Y-94881000D01*
X133239557Y-94874481D01*
X133173373Y-94867963D01*
X133049890Y-94830505D01*
X133003533Y-94816443D01*
X132847011Y-94732779D01*
X132847009Y-94732778D01*
X132788141Y-94684466D01*
X132709814Y-94620186D01*
X132626552Y-94518729D01*
X132597222Y-94482991D01*
X132587652Y-94465087D01*
X132513557Y-94326467D01*
X132496384Y-94269853D01*
X132462037Y-94156627D01*
X132444641Y-93980000D01*
X132462037Y-93803373D01*
X132513557Y-93633534D01*
X132513557Y-93633533D01*
X132597221Y-93477011D01*
X132597222Y-93477009D01*
X132626552Y-93441271D01*
X132709814Y-93339814D01*
X132811271Y-93256552D01*
X132847009Y-93227222D01*
X132864913Y-93217652D01*
X133003533Y-93143557D01*
X133060147Y-93126384D01*
X133173373Y-93092037D01*
X133239557Y-93085519D01*
X133305740Y-93079000D01*
X133394260Y-93079000D01*
X133460443Y-93085519D01*
X133460443Y-93085519D01*
G37*
G36*
X125044466Y-93778565D02*
X125083137Y-93790296D01*
X125118779Y-93809348D01*
X125150017Y-93834983D01*
X125175652Y-93866221D01*
X125194704Y-93901863D01*
X125206435Y-93940534D01*
X125211000Y-93986888D01*
X125211000Y-94638112D01*
X125206435Y-94684466D01*
X125194704Y-94723137D01*
X125175652Y-94758779D01*
X125150017Y-94790017D01*
X125118779Y-94815652D01*
X125083137Y-94834704D01*
X125044466Y-94846435D01*
X124998112Y-94851000D01*
X123921888Y-94851000D01*
X123875534Y-94846435D01*
X123836863Y-94834704D01*
X123801221Y-94815652D01*
X123769983Y-94790017D01*
X123744348Y-94758779D01*
X123725296Y-94723137D01*
X123713565Y-94684466D01*
X123709000Y-94638112D01*
X123709000Y-93986888D01*
X123713565Y-93940534D01*
X123725296Y-93901863D01*
X123744348Y-93866221D01*
X123769983Y-93834983D01*
X123801221Y-93809348D01*
X123836863Y-93790296D01*
X123875534Y-93778565D01*
X123921888Y-93774000D01*
X124998112Y-93774000D01*
X125044466Y-93778565D01*
X125044466Y-93778565D01*
G37*
G36*
X122504466Y-93778565D02*
X122543137Y-93790296D01*
X122578779Y-93809348D01*
X122610017Y-93834983D01*
X122635652Y-93866221D01*
X122654704Y-93901863D01*
X122666435Y-93940534D01*
X122671000Y-93986888D01*
X122671000Y-94638112D01*
X122666435Y-94684466D01*
X122654704Y-94723137D01*
X122635652Y-94758779D01*
X122610017Y-94790017D01*
X122578779Y-94815652D01*
X122543137Y-94834704D01*
X122504466Y-94846435D01*
X122458112Y-94851000D01*
X121381888Y-94851000D01*
X121335534Y-94846435D01*
X121296863Y-94834704D01*
X121261221Y-94815652D01*
X121229983Y-94790017D01*
X121204348Y-94758779D01*
X121185296Y-94723137D01*
X121173565Y-94684466D01*
X121169000Y-94638112D01*
X121169000Y-93986888D01*
X121173565Y-93940534D01*
X121185296Y-93901863D01*
X121204348Y-93866221D01*
X121229983Y-93834983D01*
X121261221Y-93809348D01*
X121296863Y-93790296D01*
X121335534Y-93778565D01*
X121381888Y-93774000D01*
X122458112Y-93774000D01*
X122504466Y-93778565D01*
X122504466Y-93778565D01*
G37*
G36*
X140404466Y-90693565D02*
X140443137Y-90705296D01*
X140478779Y-90724348D01*
X140510017Y-90749983D01*
X140535652Y-90781221D01*
X140554704Y-90816863D01*
X140566435Y-90855534D01*
X140571000Y-90901888D01*
X140571000Y-91978112D01*
X140566435Y-92024466D01*
X140554704Y-92063137D01*
X140535652Y-92098779D01*
X140510017Y-92130017D01*
X140478779Y-92155652D01*
X140443137Y-92174704D01*
X140404466Y-92186435D01*
X140358112Y-92191000D01*
X139706888Y-92191000D01*
X139660534Y-92186435D01*
X139621863Y-92174704D01*
X139586221Y-92155652D01*
X139554983Y-92130017D01*
X139529348Y-92098779D01*
X139510296Y-92063137D01*
X139498565Y-92024466D01*
X139494000Y-91978112D01*
X139494000Y-90901888D01*
X139498565Y-90855534D01*
X139510296Y-90816863D01*
X139529348Y-90781221D01*
X139554983Y-90749983D01*
X139586221Y-90724348D01*
X139621863Y-90705296D01*
X139660534Y-90693565D01*
X139706888Y-90689000D01*
X140358112Y-90689000D01*
X140404466Y-90693565D01*
X140404466Y-90693565D01*
G37*
G36*
X124499466Y-90693565D02*
X124538137Y-90705296D01*
X124573779Y-90724348D01*
X124605017Y-90749983D01*
X124630652Y-90781221D01*
X124649704Y-90816863D01*
X124661435Y-90855534D01*
X124666000Y-90901888D01*
X124666000Y-91978112D01*
X124661435Y-92024466D01*
X124649704Y-92063137D01*
X124630652Y-92098779D01*
X124605017Y-92130017D01*
X124573779Y-92155652D01*
X124538137Y-92174704D01*
X124499466Y-92186435D01*
X124453112Y-92191000D01*
X123801888Y-92191000D01*
X123755534Y-92186435D01*
X123716863Y-92174704D01*
X123681221Y-92155652D01*
X123649983Y-92130017D01*
X123624348Y-92098779D01*
X123605296Y-92063137D01*
X123593565Y-92024466D01*
X123589000Y-91978112D01*
X123589000Y-90901888D01*
X123593565Y-90855534D01*
X123605296Y-90816863D01*
X123624348Y-90781221D01*
X123649983Y-90749983D01*
X123681221Y-90724348D01*
X123716863Y-90705296D01*
X123755534Y-90693565D01*
X123801888Y-90689000D01*
X124453112Y-90689000D01*
X124499466Y-90693565D01*
X124499466Y-90693565D01*
G37*
G36*
X122624466Y-90693565D02*
X122663137Y-90705296D01*
X122698779Y-90724348D01*
X122730017Y-90749983D01*
X122755652Y-90781221D01*
X122774704Y-90816863D01*
X122786435Y-90855534D01*
X122791000Y-90901888D01*
X122791000Y-91978112D01*
X122786435Y-92024466D01*
X122774704Y-92063137D01*
X122755652Y-92098779D01*
X122730017Y-92130017D01*
X122698779Y-92155652D01*
X122663137Y-92174704D01*
X122624466Y-92186435D01*
X122578112Y-92191000D01*
X121926888Y-92191000D01*
X121880534Y-92186435D01*
X121841863Y-92174704D01*
X121806221Y-92155652D01*
X121774983Y-92130017D01*
X121749348Y-92098779D01*
X121730296Y-92063137D01*
X121718565Y-92024466D01*
X121714000Y-91978112D01*
X121714000Y-90901888D01*
X121718565Y-90855534D01*
X121730296Y-90816863D01*
X121749348Y-90781221D01*
X121774983Y-90749983D01*
X121806221Y-90724348D01*
X121841863Y-90705296D01*
X121880534Y-90693565D01*
X121926888Y-90689000D01*
X122578112Y-90689000D01*
X122624466Y-90693565D01*
X122624466Y-90693565D01*
G37*
G36*
X142279466Y-90693565D02*
X142318137Y-90705296D01*
X142353779Y-90724348D01*
X142385017Y-90749983D01*
X142410652Y-90781221D01*
X142429704Y-90816863D01*
X142441435Y-90855534D01*
X142446000Y-90901888D01*
X142446000Y-91978112D01*
X142441435Y-92024466D01*
X142429704Y-92063137D01*
X142410652Y-92098779D01*
X142385017Y-92130017D01*
X142353779Y-92155652D01*
X142318137Y-92174704D01*
X142279466Y-92186435D01*
X142233112Y-92191000D01*
X141581888Y-92191000D01*
X141535534Y-92186435D01*
X141496863Y-92174704D01*
X141461221Y-92155652D01*
X141429983Y-92130017D01*
X141404348Y-92098779D01*
X141385296Y-92063137D01*
X141373565Y-92024466D01*
X141369000Y-91978112D01*
X141369000Y-90901888D01*
X141373565Y-90855534D01*
X141385296Y-90816863D01*
X141404348Y-90781221D01*
X141429983Y-90749983D01*
X141461221Y-90724348D01*
X141496863Y-90705296D01*
X141535534Y-90693565D01*
X141581888Y-90689000D01*
X142233112Y-90689000D01*
X142279466Y-90693565D01*
X142279466Y-90693565D01*
G37*
G36*
X140404466Y-88153565D02*
X140443137Y-88165296D01*
X140478779Y-88184348D01*
X140510017Y-88209983D01*
X140535652Y-88241221D01*
X140554704Y-88276863D01*
X140566435Y-88315534D01*
X140571000Y-88361888D01*
X140571000Y-89438112D01*
X140566435Y-89484466D01*
X140554704Y-89523137D01*
X140535652Y-89558779D01*
X140510017Y-89590017D01*
X140478779Y-89615652D01*
X140443137Y-89634704D01*
X140404466Y-89646435D01*
X140358112Y-89651000D01*
X139706888Y-89651000D01*
X139660534Y-89646435D01*
X139621863Y-89634704D01*
X139586221Y-89615652D01*
X139554983Y-89590017D01*
X139529348Y-89558779D01*
X139510296Y-89523137D01*
X139498565Y-89484466D01*
X139494000Y-89438112D01*
X139494000Y-88361888D01*
X139498565Y-88315534D01*
X139510296Y-88276863D01*
X139529348Y-88241221D01*
X139554983Y-88209983D01*
X139586221Y-88184348D01*
X139621863Y-88165296D01*
X139660534Y-88153565D01*
X139706888Y-88149000D01*
X140358112Y-88149000D01*
X140404466Y-88153565D01*
X140404466Y-88153565D01*
G37*
G36*
X142279466Y-88153565D02*
X142318137Y-88165296D01*
X142353779Y-88184348D01*
X142385017Y-88209983D01*
X142410652Y-88241221D01*
X142429704Y-88276863D01*
X142441435Y-88315534D01*
X142446000Y-88361888D01*
X142446000Y-89438112D01*
X142441435Y-89484466D01*
X142429704Y-89523137D01*
X142410652Y-89558779D01*
X142385017Y-89590017D01*
X142353779Y-89615652D01*
X142318137Y-89634704D01*
X142279466Y-89646435D01*
X142233112Y-89651000D01*
X141581888Y-89651000D01*
X141535534Y-89646435D01*
X141496863Y-89634704D01*
X141461221Y-89615652D01*
X141429983Y-89590017D01*
X141404348Y-89558779D01*
X141385296Y-89523137D01*
X141373565Y-89484466D01*
X141369000Y-89438112D01*
X141369000Y-88361888D01*
X141373565Y-88315534D01*
X141385296Y-88276863D01*
X141404348Y-88241221D01*
X141429983Y-88209983D01*
X141461221Y-88184348D01*
X141496863Y-88165296D01*
X141535534Y-88153565D01*
X141581888Y-88149000D01*
X142233112Y-88149000D01*
X142279466Y-88153565D01*
X142279466Y-88153565D01*
G37*
G36*
X122624466Y-88153565D02*
X122663137Y-88165296D01*
X122698779Y-88184348D01*
X122730017Y-88209983D01*
X122755652Y-88241221D01*
X122774704Y-88276863D01*
X122786435Y-88315534D01*
X122791000Y-88361888D01*
X122791000Y-89438112D01*
X122786435Y-89484466D01*
X122774704Y-89523137D01*
X122755652Y-89558779D01*
X122730017Y-89590017D01*
X122698779Y-89615652D01*
X122663137Y-89634704D01*
X122624466Y-89646435D01*
X122578112Y-89651000D01*
X121926888Y-89651000D01*
X121880534Y-89646435D01*
X121841863Y-89634704D01*
X121806221Y-89615652D01*
X121774983Y-89590017D01*
X121749348Y-89558779D01*
X121730296Y-89523137D01*
X121718565Y-89484466D01*
X121714000Y-89438112D01*
X121714000Y-88361888D01*
X121718565Y-88315534D01*
X121730296Y-88276863D01*
X121749348Y-88241221D01*
X121774983Y-88209983D01*
X121806221Y-88184348D01*
X121841863Y-88165296D01*
X121880534Y-88153565D01*
X121926888Y-88149000D01*
X122578112Y-88149000D01*
X122624466Y-88153565D01*
X122624466Y-88153565D01*
G37*
G36*
X124499466Y-88153565D02*
X124538137Y-88165296D01*
X124573779Y-88184348D01*
X124605017Y-88209983D01*
X124630652Y-88241221D01*
X124649704Y-88276863D01*
X124661435Y-88315534D01*
X124666000Y-88361888D01*
X124666000Y-89438112D01*
X124661435Y-89484466D01*
X124649704Y-89523137D01*
X124630652Y-89558779D01*
X124605017Y-89590017D01*
X124573779Y-89615652D01*
X124538137Y-89634704D01*
X124499466Y-89646435D01*
X124453112Y-89651000D01*
X123801888Y-89651000D01*
X123755534Y-89646435D01*
X123716863Y-89634704D01*
X123681221Y-89615652D01*
X123649983Y-89590017D01*
X123624348Y-89558779D01*
X123605296Y-89523137D01*
X123593565Y-89484466D01*
X123589000Y-89438112D01*
X123589000Y-88361888D01*
X123593565Y-88315534D01*
X123605296Y-88276863D01*
X123624348Y-88241221D01*
X123649983Y-88209983D01*
X123681221Y-88184348D01*
X123716863Y-88165296D01*
X123755534Y-88153565D01*
X123801888Y-88149000D01*
X124453112Y-88149000D01*
X124499466Y-88153565D01*
X124499466Y-88153565D01*
G37*
G36*
X124499466Y-85613565D02*
X124538137Y-85625296D01*
X124573779Y-85644348D01*
X124605017Y-85669983D01*
X124630652Y-85701221D01*
X124649704Y-85736863D01*
X124661435Y-85775534D01*
X124666000Y-85821888D01*
X124666000Y-86898112D01*
X124661435Y-86944466D01*
X124649704Y-86983137D01*
X124630652Y-87018779D01*
X124605017Y-87050017D01*
X124573779Y-87075652D01*
X124538137Y-87094704D01*
X124499466Y-87106435D01*
X124453112Y-87111000D01*
X123801888Y-87111000D01*
X123755534Y-87106435D01*
X123716863Y-87094704D01*
X123681221Y-87075652D01*
X123649983Y-87050017D01*
X123624348Y-87018779D01*
X123605296Y-86983137D01*
X123593565Y-86944466D01*
X123589000Y-86898112D01*
X123589000Y-85821888D01*
X123593565Y-85775534D01*
X123605296Y-85736863D01*
X123624348Y-85701221D01*
X123649983Y-85669983D01*
X123681221Y-85644348D01*
X123716863Y-85625296D01*
X123755534Y-85613565D01*
X123801888Y-85609000D01*
X124453112Y-85609000D01*
X124499466Y-85613565D01*
X124499466Y-85613565D01*
G37*
G36*
X122624466Y-85613565D02*
X122663137Y-85625296D01*
X122698779Y-85644348D01*
X122730017Y-85669983D01*
X122755652Y-85701221D01*
X122774704Y-85736863D01*
X122786435Y-85775534D01*
X122791000Y-85821888D01*
X122791000Y-86898112D01*
X122786435Y-86944466D01*
X122774704Y-86983137D01*
X122755652Y-87018779D01*
X122730017Y-87050017D01*
X122698779Y-87075652D01*
X122663137Y-87094704D01*
X122624466Y-87106435D01*
X122578112Y-87111000D01*
X121926888Y-87111000D01*
X121880534Y-87106435D01*
X121841863Y-87094704D01*
X121806221Y-87075652D01*
X121774983Y-87050017D01*
X121749348Y-87018779D01*
X121730296Y-86983137D01*
X121718565Y-86944466D01*
X121714000Y-86898112D01*
X121714000Y-85821888D01*
X121718565Y-85775534D01*
X121730296Y-85736863D01*
X121749348Y-85701221D01*
X121774983Y-85669983D01*
X121806221Y-85644348D01*
X121841863Y-85625296D01*
X121880534Y-85613565D01*
X121926888Y-85609000D01*
X122578112Y-85609000D01*
X122624466Y-85613565D01*
X122624466Y-85613565D01*
G37*
G36*
X140404466Y-85613565D02*
X140443137Y-85625296D01*
X140478779Y-85644348D01*
X140510017Y-85669983D01*
X140535652Y-85701221D01*
X140554704Y-85736863D01*
X140566435Y-85775534D01*
X140571000Y-85821888D01*
X140571000Y-86898112D01*
X140566435Y-86944466D01*
X140554704Y-86983137D01*
X140535652Y-87018779D01*
X140510017Y-87050017D01*
X140478779Y-87075652D01*
X140443137Y-87094704D01*
X140404466Y-87106435D01*
X140358112Y-87111000D01*
X139706888Y-87111000D01*
X139660534Y-87106435D01*
X139621863Y-87094704D01*
X139586221Y-87075652D01*
X139554983Y-87050017D01*
X139529348Y-87018779D01*
X139510296Y-86983137D01*
X139498565Y-86944466D01*
X139494000Y-86898112D01*
X139494000Y-85821888D01*
X139498565Y-85775534D01*
X139510296Y-85736863D01*
X139529348Y-85701221D01*
X139554983Y-85669983D01*
X139586221Y-85644348D01*
X139621863Y-85625296D01*
X139660534Y-85613565D01*
X139706888Y-85609000D01*
X140358112Y-85609000D01*
X140404466Y-85613565D01*
X140404466Y-85613565D01*
G37*
G36*
X142279466Y-85613565D02*
X142318137Y-85625296D01*
X142353779Y-85644348D01*
X142385017Y-85669983D01*
X142410652Y-85701221D01*
X142429704Y-85736863D01*
X142441435Y-85775534D01*
X142446000Y-85821888D01*
X142446000Y-86898112D01*
X142441435Y-86944466D01*
X142429704Y-86983137D01*
X142410652Y-87018779D01*
X142385017Y-87050017D01*
X142353779Y-87075652D01*
X142318137Y-87094704D01*
X142279466Y-87106435D01*
X142233112Y-87111000D01*
X141581888Y-87111000D01*
X141535534Y-87106435D01*
X141496863Y-87094704D01*
X141461221Y-87075652D01*
X141429983Y-87050017D01*
X141404348Y-87018779D01*
X141385296Y-86983137D01*
X141373565Y-86944466D01*
X141369000Y-86898112D01*
X141369000Y-85821888D01*
X141373565Y-85775534D01*
X141385296Y-85736863D01*
X141404348Y-85701221D01*
X141429983Y-85669983D01*
X141461221Y-85644348D01*
X141496863Y-85625296D01*
X141535534Y-85613565D01*
X141581888Y-85609000D01*
X142233112Y-85609000D01*
X142279466Y-85613565D01*
X142279466Y-85613565D01*
G37*
G36*
X140404466Y-83073565D02*
X140443137Y-83085296D01*
X140478779Y-83104348D01*
X140510017Y-83129983D01*
X140535652Y-83161221D01*
X140554704Y-83196863D01*
X140566435Y-83235534D01*
X140571000Y-83281888D01*
X140571000Y-84358112D01*
X140566435Y-84404466D01*
X140554704Y-84443137D01*
X140535652Y-84478779D01*
X140510017Y-84510017D01*
X140478779Y-84535652D01*
X140443137Y-84554704D01*
X140404466Y-84566435D01*
X140358112Y-84571000D01*
X139706888Y-84571000D01*
X139660534Y-84566435D01*
X139621863Y-84554704D01*
X139586221Y-84535652D01*
X139554983Y-84510017D01*
X139529348Y-84478779D01*
X139510296Y-84443137D01*
X139498565Y-84404466D01*
X139494000Y-84358112D01*
X139494000Y-83281888D01*
X139498565Y-83235534D01*
X139510296Y-83196863D01*
X139529348Y-83161221D01*
X139554983Y-83129983D01*
X139586221Y-83104348D01*
X139621863Y-83085296D01*
X139660534Y-83073565D01*
X139706888Y-83069000D01*
X140358112Y-83069000D01*
X140404466Y-83073565D01*
X140404466Y-83073565D01*
G37*
G36*
X142279466Y-83073565D02*
X142318137Y-83085296D01*
X142353779Y-83104348D01*
X142385017Y-83129983D01*
X142410652Y-83161221D01*
X142429704Y-83196863D01*
X142441435Y-83235534D01*
X142446000Y-83281888D01*
X142446000Y-84358112D01*
X142441435Y-84404466D01*
X142429704Y-84443137D01*
X142410652Y-84478779D01*
X142385017Y-84510017D01*
X142353779Y-84535652D01*
X142318137Y-84554704D01*
X142279466Y-84566435D01*
X142233112Y-84571000D01*
X141581888Y-84571000D01*
X141535534Y-84566435D01*
X141496863Y-84554704D01*
X141461221Y-84535652D01*
X141429983Y-84510017D01*
X141404348Y-84478779D01*
X141385296Y-84443137D01*
X141373565Y-84404466D01*
X141369000Y-84358112D01*
X141369000Y-83281888D01*
X141373565Y-83235534D01*
X141385296Y-83196863D01*
X141404348Y-83161221D01*
X141429983Y-83129983D01*
X141461221Y-83104348D01*
X141496863Y-83085296D01*
X141535534Y-83073565D01*
X141581888Y-83069000D01*
X142233112Y-83069000D01*
X142279466Y-83073565D01*
X142279466Y-83073565D01*
G37*
G36*
X124499466Y-83073565D02*
X124538137Y-83085296D01*
X124573779Y-83104348D01*
X124605017Y-83129983D01*
X124630652Y-83161221D01*
X124649704Y-83196863D01*
X124661435Y-83235534D01*
X124666000Y-83281888D01*
X124666000Y-84358112D01*
X124661435Y-84404466D01*
X124649704Y-84443137D01*
X124630652Y-84478779D01*
X124605017Y-84510017D01*
X124573779Y-84535652D01*
X124538137Y-84554704D01*
X124499466Y-84566435D01*
X124453112Y-84571000D01*
X123801888Y-84571000D01*
X123755534Y-84566435D01*
X123716863Y-84554704D01*
X123681221Y-84535652D01*
X123649983Y-84510017D01*
X123624348Y-84478779D01*
X123605296Y-84443137D01*
X123593565Y-84404466D01*
X123589000Y-84358112D01*
X123589000Y-83281888D01*
X123593565Y-83235534D01*
X123605296Y-83196863D01*
X123624348Y-83161221D01*
X123649983Y-83129983D01*
X123681221Y-83104348D01*
X123716863Y-83085296D01*
X123755534Y-83073565D01*
X123801888Y-83069000D01*
X124453112Y-83069000D01*
X124499466Y-83073565D01*
X124499466Y-83073565D01*
G37*
G36*
X122624466Y-83073565D02*
X122663137Y-83085296D01*
X122698779Y-83104348D01*
X122730017Y-83129983D01*
X122755652Y-83161221D01*
X122774704Y-83196863D01*
X122786435Y-83235534D01*
X122791000Y-83281888D01*
X122791000Y-84358112D01*
X122786435Y-84404466D01*
X122774704Y-84443137D01*
X122755652Y-84478779D01*
X122730017Y-84510017D01*
X122698779Y-84535652D01*
X122663137Y-84554704D01*
X122624466Y-84566435D01*
X122578112Y-84571000D01*
X121926888Y-84571000D01*
X121880534Y-84566435D01*
X121841863Y-84554704D01*
X121806221Y-84535652D01*
X121774983Y-84510017D01*
X121749348Y-84478779D01*
X121730296Y-84443137D01*
X121718565Y-84404466D01*
X121714000Y-84358112D01*
X121714000Y-83281888D01*
X121718565Y-83235534D01*
X121730296Y-83196863D01*
X121749348Y-83161221D01*
X121774983Y-83129983D01*
X121806221Y-83104348D01*
X121841863Y-83085296D01*
X121880534Y-83073565D01*
X121926888Y-83069000D01*
X122578112Y-83069000D01*
X122624466Y-83073565D01*
X122624466Y-83073565D01*
G37*
G36*
X126498604Y-80738347D02*
X126535145Y-80749432D01*
X126568820Y-80767431D01*
X126598341Y-80791659D01*
X126622569Y-80821180D01*
X126640568Y-80854855D01*
X126651653Y-80891396D01*
X126656000Y-80935538D01*
X126656000Y-81884462D01*
X126651653Y-81928604D01*
X126640568Y-81965145D01*
X126622569Y-81998820D01*
X126598341Y-82028341D01*
X126568820Y-82052569D01*
X126535145Y-82070568D01*
X126498604Y-82081653D01*
X126454462Y-82086000D01*
X125005538Y-82086000D01*
X124961396Y-82081653D01*
X124924855Y-82070568D01*
X124891180Y-82052569D01*
X124861659Y-82028341D01*
X124837431Y-81998820D01*
X124819432Y-81965145D01*
X124808347Y-81928604D01*
X124804000Y-81884462D01*
X124804000Y-80935538D01*
X124808347Y-80891396D01*
X124819432Y-80854855D01*
X124837431Y-80821180D01*
X124861659Y-80791659D01*
X124891180Y-80767431D01*
X124924855Y-80749432D01*
X124961396Y-80738347D01*
X125005538Y-80734000D01*
X126454462Y-80734000D01*
X126498604Y-80738347D01*
X126498604Y-80738347D01*
G37*
G36*
X130308604Y-80738347D02*
X130345145Y-80749432D01*
X130378820Y-80767431D01*
X130408341Y-80791659D01*
X130432569Y-80821180D01*
X130450568Y-80854855D01*
X130461653Y-80891396D01*
X130466000Y-80935538D01*
X130466000Y-81884462D01*
X130461653Y-81928604D01*
X130450568Y-81965145D01*
X130432569Y-81998820D01*
X130408341Y-82028341D01*
X130378820Y-82052569D01*
X130345145Y-82070568D01*
X130308604Y-82081653D01*
X130264462Y-82086000D01*
X128815538Y-82086000D01*
X128771396Y-82081653D01*
X128734855Y-82070568D01*
X128701180Y-82052569D01*
X128671659Y-82028341D01*
X128647431Y-81998820D01*
X128629432Y-81965145D01*
X128618347Y-81928604D01*
X128614000Y-81884462D01*
X128614000Y-80935538D01*
X128618347Y-80891396D01*
X128629432Y-80854855D01*
X128647431Y-80821180D01*
X128671659Y-80791659D01*
X128701180Y-80767431D01*
X128734855Y-80749432D01*
X128771396Y-80738347D01*
X128815538Y-80734000D01*
X130264462Y-80734000D01*
X130308604Y-80738347D01*
X130308604Y-80738347D01*
G37*
G36*
X139198604Y-80738347D02*
X139235145Y-80749432D01*
X139268820Y-80767431D01*
X139298341Y-80791659D01*
X139322569Y-80821180D01*
X139340568Y-80854855D01*
X139351653Y-80891396D01*
X139356000Y-80935538D01*
X139356000Y-81884462D01*
X139351653Y-81928604D01*
X139340568Y-81965145D01*
X139322569Y-81998820D01*
X139298341Y-82028341D01*
X139268820Y-82052569D01*
X139235145Y-82070568D01*
X139198604Y-82081653D01*
X139154462Y-82086000D01*
X137705538Y-82086000D01*
X137661396Y-82081653D01*
X137624855Y-82070568D01*
X137591180Y-82052569D01*
X137561659Y-82028341D01*
X137537431Y-81998820D01*
X137519432Y-81965145D01*
X137508347Y-81928604D01*
X137504000Y-81884462D01*
X137504000Y-80935538D01*
X137508347Y-80891396D01*
X137519432Y-80854855D01*
X137537431Y-80821180D01*
X137561659Y-80791659D01*
X137591180Y-80767431D01*
X137624855Y-80749432D01*
X137661396Y-80738347D01*
X137705538Y-80734000D01*
X139154462Y-80734000D01*
X139198604Y-80738347D01*
X139198604Y-80738347D01*
G37*
G36*
X135388604Y-80738347D02*
X135425145Y-80749432D01*
X135458820Y-80767431D01*
X135488341Y-80791659D01*
X135512569Y-80821180D01*
X135530568Y-80854855D01*
X135541653Y-80891396D01*
X135546000Y-80935538D01*
X135546000Y-81884462D01*
X135541653Y-81928604D01*
X135530568Y-81965145D01*
X135512569Y-81998820D01*
X135488341Y-82028341D01*
X135458820Y-82052569D01*
X135425145Y-82070568D01*
X135388604Y-82081653D01*
X135344462Y-82086000D01*
X133895538Y-82086000D01*
X133851396Y-82081653D01*
X133814855Y-82070568D01*
X133781180Y-82052569D01*
X133751659Y-82028341D01*
X133727431Y-81998820D01*
X133709432Y-81965145D01*
X133698347Y-81928604D01*
X133694000Y-81884462D01*
X133694000Y-80935538D01*
X133698347Y-80891396D01*
X133709432Y-80854855D01*
X133727431Y-80821180D01*
X133751659Y-80791659D01*
X133781180Y-80767431D01*
X133814855Y-80749432D01*
X133851396Y-80738347D01*
X133895538Y-80734000D01*
X135344462Y-80734000D01*
X135388604Y-80738347D01*
X135388604Y-80738347D01*
G37*
G36*
X135388604Y-77938347D02*
X135425145Y-77949432D01*
X135458820Y-77967431D01*
X135488341Y-77991659D01*
X135512569Y-78021180D01*
X135530568Y-78054855D01*
X135541653Y-78091396D01*
X135546000Y-78135538D01*
X135546000Y-79084462D01*
X135541653Y-79128604D01*
X135530568Y-79165145D01*
X135512569Y-79198820D01*
X135488341Y-79228341D01*
X135458820Y-79252569D01*
X135425145Y-79270568D01*
X135388604Y-79281653D01*
X135344462Y-79286000D01*
X133895538Y-79286000D01*
X133851396Y-79281653D01*
X133814855Y-79270568D01*
X133781180Y-79252569D01*
X133751659Y-79228341D01*
X133727431Y-79198820D01*
X133709432Y-79165145D01*
X133698347Y-79128604D01*
X133694000Y-79084462D01*
X133694000Y-78135538D01*
X133698347Y-78091396D01*
X133709432Y-78054855D01*
X133727431Y-78021180D01*
X133751659Y-77991659D01*
X133781180Y-77967431D01*
X133814855Y-77949432D01*
X133851396Y-77938347D01*
X133895538Y-77934000D01*
X135344462Y-77934000D01*
X135388604Y-77938347D01*
X135388604Y-77938347D01*
G37*
G36*
X139198604Y-77938347D02*
X139235145Y-77949432D01*
X139268820Y-77967431D01*
X139298341Y-77991659D01*
X139322569Y-78021180D01*
X139340568Y-78054855D01*
X139351653Y-78091396D01*
X139356000Y-78135538D01*
X139356000Y-79084462D01*
X139351653Y-79128604D01*
X139340568Y-79165145D01*
X139322569Y-79198820D01*
X139298341Y-79228341D01*
X139268820Y-79252569D01*
X139235145Y-79270568D01*
X139198604Y-79281653D01*
X139154462Y-79286000D01*
X137705538Y-79286000D01*
X137661396Y-79281653D01*
X137624855Y-79270568D01*
X137591180Y-79252569D01*
X137561659Y-79228341D01*
X137537431Y-79198820D01*
X137519432Y-79165145D01*
X137508347Y-79128604D01*
X137504000Y-79084462D01*
X137504000Y-78135538D01*
X137508347Y-78091396D01*
X137519432Y-78054855D01*
X137537431Y-78021180D01*
X137561659Y-77991659D01*
X137591180Y-77967431D01*
X137624855Y-77949432D01*
X137661396Y-77938347D01*
X137705538Y-77934000D01*
X139154462Y-77934000D01*
X139198604Y-77938347D01*
X139198604Y-77938347D01*
G37*
G36*
X130308604Y-77938347D02*
X130345145Y-77949432D01*
X130378820Y-77967431D01*
X130408341Y-77991659D01*
X130432569Y-78021180D01*
X130450568Y-78054855D01*
X130461653Y-78091396D01*
X130466000Y-78135538D01*
X130466000Y-79084462D01*
X130461653Y-79128604D01*
X130450568Y-79165145D01*
X130432569Y-79198820D01*
X130408341Y-79228341D01*
X130378820Y-79252569D01*
X130345145Y-79270568D01*
X130308604Y-79281653D01*
X130264462Y-79286000D01*
X128815538Y-79286000D01*
X128771396Y-79281653D01*
X128734855Y-79270568D01*
X128701180Y-79252569D01*
X128671659Y-79228341D01*
X128647431Y-79198820D01*
X128629432Y-79165145D01*
X128618347Y-79128604D01*
X128614000Y-79084462D01*
X128614000Y-78135538D01*
X128618347Y-78091396D01*
X128629432Y-78054855D01*
X128647431Y-78021180D01*
X128671659Y-77991659D01*
X128701180Y-77967431D01*
X128734855Y-77949432D01*
X128771396Y-77938347D01*
X128815538Y-77934000D01*
X130264462Y-77934000D01*
X130308604Y-77938347D01*
X130308604Y-77938347D01*
G37*
G36*
X126498604Y-77938347D02*
X126535145Y-77949432D01*
X126568820Y-77967431D01*
X126598341Y-77991659D01*
X126622569Y-78021180D01*
X126640568Y-78054855D01*
X126651653Y-78091396D01*
X126656000Y-78135538D01*
X126656000Y-79084462D01*
X126651653Y-79128604D01*
X126640568Y-79165145D01*
X126622569Y-79198820D01*
X126598341Y-79228341D01*
X126568820Y-79252569D01*
X126535145Y-79270568D01*
X126498604Y-79281653D01*
X126454462Y-79286000D01*
X125005538Y-79286000D01*
X124961396Y-79281653D01*
X124924855Y-79270568D01*
X124891180Y-79252569D01*
X124861659Y-79228341D01*
X124837431Y-79198820D01*
X124819432Y-79165145D01*
X124808347Y-79128604D01*
X124804000Y-79084462D01*
X124804000Y-78135538D01*
X124808347Y-78091396D01*
X124819432Y-78054855D01*
X124837431Y-78021180D01*
X124861659Y-77991659D01*
X124891180Y-77967431D01*
X124924855Y-77949432D01*
X124961396Y-77938347D01*
X125005538Y-77934000D01*
X126454462Y-77934000D01*
X126498604Y-77938347D01*
X126498604Y-77938347D01*
G37*
G36*
X132664466Y-75333565D02*
X132703137Y-75345296D01*
X132738779Y-75364348D01*
X132770017Y-75389983D01*
X132795652Y-75421221D01*
X132814704Y-75456863D01*
X132826435Y-75495534D01*
X132831000Y-75541888D01*
X132831000Y-76193112D01*
X132826435Y-76239466D01*
X132814704Y-76278137D01*
X132795652Y-76313779D01*
X132770017Y-76345017D01*
X132738779Y-76370652D01*
X132703137Y-76389704D01*
X132664466Y-76401435D01*
X132618112Y-76406000D01*
X131541888Y-76406000D01*
X131495534Y-76401435D01*
X131456863Y-76389704D01*
X131421221Y-76370652D01*
X131389983Y-76345017D01*
X131364348Y-76313779D01*
X131345296Y-76278137D01*
X131333565Y-76239466D01*
X131329000Y-76193112D01*
X131329000Y-75541888D01*
X131333565Y-75495534D01*
X131345296Y-75456863D01*
X131364348Y-75421221D01*
X131389983Y-75389983D01*
X131421221Y-75364348D01*
X131456863Y-75345296D01*
X131495534Y-75333565D01*
X131541888Y-75329000D01*
X132618112Y-75329000D01*
X132664466Y-75333565D01*
X132664466Y-75333565D01*
G37*
G36*
X130124466Y-75333565D02*
X130163137Y-75345296D01*
X130198779Y-75364348D01*
X130230017Y-75389983D01*
X130255652Y-75421221D01*
X130274704Y-75456863D01*
X130286435Y-75495534D01*
X130291000Y-75541888D01*
X130291000Y-76193112D01*
X130286435Y-76239466D01*
X130274704Y-76278137D01*
X130255652Y-76313779D01*
X130230017Y-76345017D01*
X130198779Y-76370652D01*
X130163137Y-76389704D01*
X130124466Y-76401435D01*
X130078112Y-76406000D01*
X129001888Y-76406000D01*
X128955534Y-76401435D01*
X128916863Y-76389704D01*
X128881221Y-76370652D01*
X128849983Y-76345017D01*
X128824348Y-76313779D01*
X128805296Y-76278137D01*
X128793565Y-76239466D01*
X128789000Y-76193112D01*
X128789000Y-75541888D01*
X128793565Y-75495534D01*
X128805296Y-75456863D01*
X128824348Y-75421221D01*
X128849983Y-75389983D01*
X128881221Y-75364348D01*
X128916863Y-75345296D01*
X128955534Y-75333565D01*
X129001888Y-75329000D01*
X130078112Y-75329000D01*
X130124466Y-75333565D01*
X130124466Y-75333565D01*
G37*
G36*
X135204466Y-75333565D02*
X135243137Y-75345296D01*
X135278779Y-75364348D01*
X135310017Y-75389983D01*
X135335652Y-75421221D01*
X135354704Y-75456863D01*
X135366435Y-75495534D01*
X135371000Y-75541888D01*
X135371000Y-76193112D01*
X135366435Y-76239466D01*
X135354704Y-76278137D01*
X135335652Y-76313779D01*
X135310017Y-76345017D01*
X135278779Y-76370652D01*
X135243137Y-76389704D01*
X135204466Y-76401435D01*
X135158112Y-76406000D01*
X134081888Y-76406000D01*
X134035534Y-76401435D01*
X133996863Y-76389704D01*
X133961221Y-76370652D01*
X133929983Y-76345017D01*
X133904348Y-76313779D01*
X133885296Y-76278137D01*
X133873565Y-76239466D01*
X133869000Y-76193112D01*
X133869000Y-75541888D01*
X133873565Y-75495534D01*
X133885296Y-75456863D01*
X133904348Y-75421221D01*
X133929983Y-75389983D01*
X133961221Y-75364348D01*
X133996863Y-75345296D01*
X134035534Y-75333565D01*
X134081888Y-75329000D01*
X135158112Y-75329000D01*
X135204466Y-75333565D01*
X135204466Y-75333565D01*
G37*
G36*
X135204466Y-73458565D02*
X135243137Y-73470296D01*
X135278779Y-73489348D01*
X135310017Y-73514983D01*
X135335652Y-73546221D01*
X135354704Y-73581863D01*
X135366435Y-73620534D01*
X135371000Y-73666888D01*
X135371000Y-74318112D01*
X135366435Y-74364466D01*
X135354704Y-74403137D01*
X135335652Y-74438779D01*
X135310017Y-74470017D01*
X135278779Y-74495652D01*
X135243137Y-74514704D01*
X135204466Y-74526435D01*
X135158112Y-74531000D01*
X134081888Y-74531000D01*
X134035534Y-74526435D01*
X133996863Y-74514704D01*
X133961221Y-74495652D01*
X133929983Y-74470017D01*
X133904348Y-74438779D01*
X133885296Y-74403137D01*
X133873565Y-74364466D01*
X133869000Y-74318112D01*
X133869000Y-73666888D01*
X133873565Y-73620534D01*
X133885296Y-73581863D01*
X133904348Y-73546221D01*
X133929983Y-73514983D01*
X133961221Y-73489348D01*
X133996863Y-73470296D01*
X134035534Y-73458565D01*
X134081888Y-73454000D01*
X135158112Y-73454000D01*
X135204466Y-73458565D01*
X135204466Y-73458565D01*
G37*
G36*
X130124466Y-73458565D02*
X130163137Y-73470296D01*
X130198779Y-73489348D01*
X130230017Y-73514983D01*
X130255652Y-73546221D01*
X130274704Y-73581863D01*
X130286435Y-73620534D01*
X130291000Y-73666888D01*
X130291000Y-74318112D01*
X130286435Y-74364466D01*
X130274704Y-74403137D01*
X130255652Y-74438779D01*
X130230017Y-74470017D01*
X130198779Y-74495652D01*
X130163137Y-74514704D01*
X130124466Y-74526435D01*
X130078112Y-74531000D01*
X129001888Y-74531000D01*
X128955534Y-74526435D01*
X128916863Y-74514704D01*
X128881221Y-74495652D01*
X128849983Y-74470017D01*
X128824348Y-74438779D01*
X128805296Y-74403137D01*
X128793565Y-74364466D01*
X128789000Y-74318112D01*
X128789000Y-73666888D01*
X128793565Y-73620534D01*
X128805296Y-73581863D01*
X128824348Y-73546221D01*
X128849983Y-73514983D01*
X128881221Y-73489348D01*
X128916863Y-73470296D01*
X128955534Y-73458565D01*
X129001888Y-73454000D01*
X130078112Y-73454000D01*
X130124466Y-73458565D01*
X130124466Y-73458565D01*
G37*
G36*
X132664466Y-73458565D02*
X132703137Y-73470296D01*
X132738779Y-73489348D01*
X132770017Y-73514983D01*
X132795652Y-73546221D01*
X132814704Y-73581863D01*
X132826435Y-73620534D01*
X132831000Y-73666888D01*
X132831000Y-74318112D01*
X132826435Y-74364466D01*
X132814704Y-74403137D01*
X132795652Y-74438779D01*
X132770017Y-74470017D01*
X132738779Y-74495652D01*
X132703137Y-74514704D01*
X132664466Y-74526435D01*
X132618112Y-74531000D01*
X131541888Y-74531000D01*
X131495534Y-74526435D01*
X131456863Y-74514704D01*
X131421221Y-74495652D01*
X131389983Y-74470017D01*
X131364348Y-74438779D01*
X131345296Y-74403137D01*
X131333565Y-74364466D01*
X131329000Y-74318112D01*
X131329000Y-73666888D01*
X131333565Y-73620534D01*
X131345296Y-73581863D01*
X131364348Y-73546221D01*
X131389983Y-73514983D01*
X131421221Y-73489348D01*
X131456863Y-73470296D01*
X131495534Y-73458565D01*
X131541888Y-73454000D01*
X132618112Y-73454000D01*
X132664466Y-73458565D01*
X132664466Y-73458565D01*
G37*
G36*
X130386000Y-70424000D02*
X130388402Y-70448386D01*
X130395515Y-70471835D01*
X130407066Y-70493446D01*
X130422612Y-70512388D01*
X130441554Y-70527934D01*
X130463165Y-70539485D01*
X130486614Y-70546598D01*
X130511000Y-70549000D01*
X133649000Y-70549000D01*
X133673386Y-70546598D01*
X133696835Y-70539485D01*
X133718446Y-70527934D01*
X133737388Y-70512388D01*
X133752934Y-70493446D01*
X133764485Y-70471835D01*
X133771598Y-70448386D01*
X133774000Y-70424000D01*
X133774000Y-70104000D01*
X135026000Y-70104000D01*
X135026000Y-71656000D01*
X133756000Y-71656000D01*
X133731614Y-71658402D01*
X133708165Y-71665515D01*
X133686554Y-71677066D01*
X133667612Y-71692612D01*
X133652066Y-71711554D01*
X133640515Y-71733165D01*
X133633402Y-71756614D01*
X133631000Y-71781000D01*
X133631000Y-72051000D01*
X130529000Y-72051000D01*
X130529000Y-71781000D01*
X130526598Y-71756614D01*
X130519485Y-71733165D01*
X130507934Y-71711554D01*
X130492388Y-71692612D01*
X130473446Y-71677066D01*
X130451835Y-71665515D01*
X130428386Y-71658402D01*
X130404000Y-71656000D01*
X129134000Y-71656000D01*
X129134000Y-70104000D01*
X130386000Y-70104000D01*
X130386000Y-70424000D01*
X130386000Y-70424000D01*
G37*
G36*
X135767915Y-67657334D02*
X135876491Y-67690271D01*
X135976556Y-67743756D01*
X136064264Y-67815736D01*
X136136244Y-67903443D01*
X136189729Y-68003508D01*
X136222666Y-68112084D01*
X136231000Y-68196702D01*
X136231000Y-69103298D01*
X136222666Y-69187916D01*
X136189729Y-69296492D01*
X136136244Y-69396557D01*
X136064264Y-69484264D01*
X135976557Y-69556244D01*
X135876492Y-69609729D01*
X135767916Y-69642666D01*
X135655000Y-69653787D01*
X135542085Y-69642666D01*
X135433509Y-69609729D01*
X135333444Y-69556244D01*
X135245737Y-69484264D01*
X135173757Y-69396557D01*
X135120272Y-69296492D01*
X135087335Y-69187916D01*
X135079000Y-69103298D01*
X135079000Y-68196703D01*
X135087334Y-68112085D01*
X135120271Y-68003509D01*
X135173756Y-67903444D01*
X135245736Y-67815736D01*
X135333443Y-67743756D01*
X135433508Y-67690271D01*
X135542084Y-67657334D01*
X135655000Y-67646213D01*
X135767915Y-67657334D01*
X135767915Y-67657334D01*
G37*
G36*
X128617916Y-67657334D02*
X128726492Y-67690271D01*
X128826557Y-67743756D01*
X128914264Y-67815736D01*
X128986244Y-67903443D01*
X129039729Y-68003508D01*
X129072666Y-68112084D01*
X129081000Y-68196702D01*
X129081000Y-69103298D01*
X129072666Y-69187916D01*
X129039729Y-69296492D01*
X128986244Y-69396557D01*
X128914264Y-69484264D01*
X128826556Y-69556244D01*
X128726491Y-69609729D01*
X128617915Y-69642666D01*
X128505000Y-69653787D01*
X128392084Y-69642666D01*
X128283508Y-69609729D01*
X128183443Y-69556244D01*
X128095736Y-69484264D01*
X128023756Y-69396556D01*
X127970271Y-69296491D01*
X127937334Y-69187915D01*
X127929000Y-69103297D01*
X127929000Y-68196702D01*
X127937335Y-68112084D01*
X127970272Y-68003508D01*
X128023757Y-67903443D01*
X128095737Y-67815736D01*
X128183444Y-67743756D01*
X128283509Y-67690271D01*
X128392085Y-67657334D01*
X128505000Y-67646213D01*
X128617916Y-67657334D01*
X128617916Y-67657334D01*
G37*
G36*
X131881000Y-69651000D02*
X130029000Y-69651000D01*
X130029000Y-67649000D01*
X131881000Y-67649000D01*
X131881000Y-69651000D01*
X131881000Y-69651000D01*
G37*
G36*
X134131000Y-69651000D02*
X132279000Y-69651000D01*
X132279000Y-67649000D01*
X134131000Y-67649000D01*
X134131000Y-69651000D01*
X134131000Y-69651000D01*
G37*
M02*
