M48
;DRILL file {KiCad 5.0.2-bee76a0~70~ubuntu18.04.1} date za 16 nov 2019 15:18:23 CET
;FORMAT={-:-/ absolute / inch / decimal}
FMAT,2
INCH,TZ
T1C0.0157
T2C0.0177
T3C0.0394
%
G90
G05
T1
X4.6Y-4.85
X4.65Y-5.25
X4.7302Y-5.2998
X4.74Y-5.35
X4.75Y-5.25
X4.76Y-3.3
X4.76Y-3.4
X4.76Y-3.5
X4.76Y-3.6
X4.76Y-5.02
X4.77Y-4.46
X4.78Y-4.73
X4.8315Y-4.94
X4.86Y-4.98
X4.88Y-4.15
X4.882Y-4.2463
X4.89Y-4.2
X4.9Y-4.64
X4.93Y-5.14
X4.95Y-4.85
X4.9782Y-4.4528
X4.98Y-3.04
X5.Y-4.42
X5.02Y-4.19
X5.024Y-4.694
X5.03Y-3.06
X5.0322Y-5.0078
X5.0385Y-4.7685
X5.0416Y-4.32
X5.06Y-4.57
X5.06Y-4.98
X5.0747Y-4.3449
X5.078Y-4.7541
X5.0879Y-4.6079
X5.0885Y-5.1525
X5.1066Y-4.7841
X5.1198Y-4.1798
X5.12Y-3.9
X5.12Y-5.06
X5.12Y-5.5
X5.1256Y-4.6276
X5.1459Y-4.7852
X5.16Y-4.19
X5.168Y-4.5306
X5.1691Y-4.6667
X5.1938Y-4.3962
X5.2Y-3.03
X5.2Y-3.08
X5.2Y-3.77
X5.2Y-4.03
X5.2Y-4.9
X5.2002Y-5.2502
X5.21Y-4.31
X5.21Y-5.07
X5.22Y-4.5
X5.2251Y-4.4582
X5.24Y-4.68
X5.26Y-4.44
X5.26Y-4.91
X5.27Y-4.02
X5.28Y-4.17
X5.28Y-4.6338
X5.2856Y-4.8079
X5.2975Y-4.496
X5.3Y-3.9
X5.31Y-5.21
X5.3182Y-4.5295
X5.3198Y-4.7802
X5.3416Y-4.2
X5.3427Y-4.8976
X5.356Y-4.5405
X5.36Y-4.15
X5.3781Y-5.0798
X5.3797Y-4.3364
X5.3915Y-4.68
X5.41Y-4.16
X5.41Y-4.3649
X5.42Y-4.06
X5.44Y-3.6
X5.45Y-3.4
X5.45Y-3.5
X5.45Y-4.49
X5.46Y-4.2
X5.46Y-4.89
X5.4648Y-5.3948
X5.47Y-3.29
X5.4715Y-4.1623
X5.5Y-5.07
X5.5198Y-5.4298
X5.5354Y-5.1
X5.55Y-4.84
X5.55Y-4.92
X5.5652Y-5.4652
X5.5702Y-4.4102
X5.5852Y-4.5252
X5.6Y-4.91
X5.6002Y-4.3802
X5.64Y-3.3
X5.64Y-3.4
X5.64Y-3.5
X5.64Y-3.6
X5.6528Y-4.4218
X5.68Y-5.29
X5.6898Y-4.5702
X5.69Y-5.11
T3
X5.05Y-3.7
X5.15Y-3.7
X5.25Y-3.7
X5.35Y-3.7
X4.95Y-5.55
X4.95Y-5.65
X5.05Y-5.55
X5.05Y-5.65
X5.15Y-5.55
X5.15Y-5.65
X5.25Y-5.55
X5.25Y-5.65
X5.35Y-5.55
X5.35Y-5.65
X5.45Y-5.55
X5.45Y-5.65
X5.15Y-5.2
X5.15Y-5.3
X5.15Y-5.4
X5.25Y-5.2
X5.25Y-5.3
X5.25Y-5.4
T2
X5.0593Y-2.7185G85X5.0593Y-2.687
G05
X5.3407Y-2.687G85X5.3407Y-2.7185
G05
T0
M30
